<?xml version="1.0" encoding="utf-8"?>
<!-- Generator: Adobe Illustrator 23.0.1, SVG Export Plug-In . SVG Version: 6.00 Build 0)  -->
<svg version="1.1" id="Layer_1" xmlns="http://www.w3.org/2000/svg" xmlns:xlink="http://www.w3.org/1999/xlink" x="0px" y="0px"
	 viewBox="0 0 320 80" style="enable-background:new 0 0 320 80;" xml:space="preserve">
<style type="text/css">
	.st0{fill:#FF9E18;}
	.st1{fill:#1099D6;}
	.st2{fill:#0C75A3;}
	.st3{fill:#B12028;}
	.st4{fill:#2980B9;}
	.st5{fill:#E47F25;}
	.st6{fill:#231F20;}
</style>
<g>
	<path class="st0" d="M67.14,66.64l-9.57-3.6c-0.6-0.22-1.26,0.08-1.49,0.67c-0.22,0.6,0.08,1.26,0.67,1.49l8.53,3.21
		c-2.03,1.83-4.26,3.44-6.66,4.8l-8.58-3.23c-0.6-0.22-1.26,0.08-1.49,0.67c-0.22,0.6,0.08,1.26,0.67,1.49l6.63,2.49
		c-1.07,0.5-2.17,0.95-3.3,1.35c-0.13,0.05-0.26,0.09-0.4,0.14c-3.96,1.35-8.11,2.04-12.34,2.04c-8.75,0-17.09-2.97-23.79-8.33
		c3.56,1.34,7.35,2.04,11.23,2.04c4.97,0,9.74-1.12,14.15-3.31c1.69-0.84,3.3-1.83,4.82-2.96c0.06-0.04,0.11-0.08,0.16-0.12
		c2.21-1.66,4.2-3.61,5.91-5.78c0.3-0.38,0.58-0.76,0.86-1.15c0.02-0.03,0.04-0.06,0.06-0.09c2.47-3.48,4.23-7.46,5.13-11.61
		c0.41-1.9,0.65-3.84,0.71-5.8l18.07,6.79c-0.8,3.86-2.19,7.52-4.08,10.88l-10.08-3.79c-0.6-0.22-1.26,0.08-1.49,0.67
		c-0.22,0.6,0.08,1.26,0.67,1.49l9.67,3.64C70.48,62.85,68.9,64.83,67.14,66.64z"/>
	<path class="st1" d="M42.11,53.36c-0.26,0.58,0.01,1.26,0.59,1.52l2.19,0.96l5.56,2.45c-1.45,1.84-3.11,3.51-4.95,4.96l-5.28-2.64
		l-2.85-1.42c-0.57-0.28-1.26-0.05-1.55,0.52c-0.29,0.57-0.05,1.26,0.52,1.55l1.79,0.89l5.25,2.62c-0.96,0.63-1.95,1.2-2.98,1.71
		c-1.33,0.66-2.7,1.22-4.1,1.67l-4.99-2.64L28.42,64c-0.56-0.3-1.26-0.08-1.56,0.48c-0.3,0.56-0.08,1.26,0.48,1.56l0.68,0.36
		l4.95,2.62c-1.86,0.36-3.76,0.55-5.7,0.55c-6.07,0-11.88-1.82-16.84-5.27c-0.02-0.01-0.03-0.02-0.05-0.03
		c-2.73-3.31-4.9-7.11-6.37-11.14c3.91,4.84,9.84,7.73,16.18,7.73c5.55,0,10.77-2.16,14.7-6.09c3.54-3.54,5.64-8.13,6.03-13.07
		l9.22,3.47l5.73,2.16c-0.82,3.24-2.21,6.31-4.05,9.06l-5.57-2.46l-2.63-1.16C43.05,52.51,42.37,52.78,42.11,53.36z"/>
	<g>
		<path class="st2" d="M20.98,66.92c-3.72-0.19-7.28-1.09-10.55-2.63c4.95,3.45,10.77,5.27,16.84,5.27c1.94,0,3.84-0.18,5.7-0.55
			l-4.95-2.62C25.73,66.87,23.37,67.04,20.98,66.92z"/>
		<path class="st2" d="M35.2,63.88c-1.27,0.65-2.58,1.2-3.9,1.64l4.99,2.64c1.4-0.45,2.77-1.01,4.1-1.67
			c1.03-0.51,2.03-1.09,2.98-1.71l-5.25-2.62C37.18,62.8,36.21,63.37,35.2,63.88z"/>
		<path class="st2" d="M40.28,60.57c-0.02,0.02-0.04,0.04-0.06,0.06l5.28,2.64c1.84-1.45,3.5-3.12,4.95-4.96l-5.56-2.45
			C43.53,57.59,41.98,59.17,40.28,60.57z"/>
		<path class="st2" d="M50.14,45.16c-0.7,2.66-1.76,5.23-3.17,7.6c-0.02,0.03-0.04,0.07-0.06,0.1c-0.22,0.36-0.44,0.71-0.67,1.06
			l5.57,2.46c1.84-2.76,3.22-5.83,4.05-9.06L50.14,45.16z"/>
	</g>
	<path class="st3" d="M39.82,1.94c-11.39,0-22.09,5.04-29.36,13.82c-5.59,6.74-8.69,15.28-8.75,24.06c0,0.08,0,0.17,0,0.25
		c0,0.08,0,0.16,0,0.23v0.02c0.04,3.06,0.84,6.09,2.33,8.75c3.27,5.86,9.46,9.5,16.15,9.5c5.49,0,10.43-2.41,13.82-6.22
		c2.9-3.26,4.66-7.56,4.66-12.26c0-0.38,0.19-0.74,0.5-0.95c0.31-0.22,0.71-0.27,1.06-0.14l16.12,6.06c0.28-1.64,0.42-3.3,0.42-4.98
		c0-0.22,0-0.44-0.01-0.65c-0.01-0.38,0.17-0.75,0.49-0.97c0.31-0.22,0.72-0.27,1.07-0.14l7.45,2.8l11.77,4.42
		c0.11-0.8,0.21-1.61,0.27-2.42c0.08-1.01,0.12-2.03,0.12-3.05C77.94,19.04,60.84,1.94,39.82,1.94z M39.64,6.88
		c3.92,0,7.1,3.22,7.1,7.18c0,3.97-3.18,7.19-7.1,7.19c-3.93,0-7.1-3.22-7.1-7.19C32.54,10.1,35.72,6.88,39.64,6.88z M25.22,31.63
		v23.76c-1.58,0.52-3.27,0.8-5.03,0.8c-2.67,0-5.25-0.66-7.53-1.87V33.46c0-4.12,4.61-7.45,10.31-7.45c1.34,0,2.62,0.18,3.8,0.53
		C25.76,28.09,25.22,29.82,25.22,31.63z M22.78,24.47c-3.32,0-6.01-2.73-6.01-6.09c0-1.32,0.41-2.54,1.11-3.53
		c0.29-0.42,0.64-0.79,1.02-1.12v0c1.05-0.89,2.4-1.43,3.88-1.43c3.32,0,6.01,2.72,6.01,6.08C28.79,21.74,26.1,24.47,22.78,24.47z
		 M52.06,40.9l-10.99-4.13c-0.39-0.15-0.81-0.22-1.23-0.22c-0.72,0-1.41,0.22-2,0.63c-0.95,0.65-1.51,1.73-1.51,2.89
		c0,6.19-3.5,11.58-8.63,14.28V31.63c0-4.86,5.46-8.8,12.19-8.8c3.36,0,6.41,0.99,8.62,2.58c2.21,1.6,3.57,3.79,3.57,6.22V40.9z
		 M50.86,18.38c0-3.36,2.69-6.08,6.01-6.08c1.48,0,2.83,0.54,3.88,1.43v0c0.38,0.33,0.73,0.7,1.02,1.12
		c0.7,0.99,1.11,2.21,1.11,3.53c0,3.36-2.69,6.09-6.01,6.09C53.55,24.47,50.86,21.74,50.86,18.38z M66.99,39.03l-7.83-2.94
		c-0.4-0.15-0.81-0.22-1.23-0.22c-0.73,0-1.44,0.22-2.03,0.65c-0.84,0.6-1.37,1.53-1.46,2.56v-7.44c0-1.81-0.54-3.54-1.55-5.09
		c1.18-0.34,2.46-0.53,3.8-0.53c5.7,0,10.31,3.33,10.31,7.45V39.03z"/>
	<path class="st3" d="M39.83,4.89C23.13,4.89,9.6,15.61,9.6,28.83c0,3.77,1.1,7.34,3.06,10.51v-5.88c0-4.12,4.61-7.45,10.31-7.45
		c1.34,0,2.62,0.18,3.8,0.53c-1.01,1.55-1.55,3.28-1.55,5.09v18.17c0.8,0.35,1.62,0.67,2.46,0.96V31.63c0-4.86,5.46-8.8,12.19-8.8
		c3.36,0,6.41,0.99,8.62,2.58c2.21,1.6,3.57,3.79,3.57,6.22v9.27l2.31,0.87c0.04-0.57,0.05-1.14,0.05-1.71c0-0.2,0-0.4-0.01-0.6
		c0-0.13,0-0.26,0.01-0.39v-7.44c0-1.81-0.54-3.54-1.55-5.09c1.18-0.34,2.46-0.53,3.8-0.53c5.7,0,10.31,3.33,10.31,7.45v5.57
		l0.15,0.06c1.86-3.11,2.91-6.59,2.91-10.26C70.05,15.61,56.52,4.89,39.83,4.89z M22.78,24.47c-3.32,0-6.01-2.72-6.01-6.08
		c0-1.32,0.41-2.54,1.11-3.53c0.29-0.42,0.64-0.79,1.02-1.12v0c1.05-0.89,2.4-1.43,3.88-1.43c3.32,0,6.01,2.72,6.01,6.08
		C28.79,21.74,26.1,24.47,22.78,24.47z M39.64,21.25c-3.93,0-7.1-3.22-7.1-7.19c0-3.97,3.18-7.18,7.1-7.18c3.92,0,7.1,3.21,7.1,7.18
		C46.74,18.04,43.57,21.25,39.64,21.25z M56.87,24.47c-3.32,0-6.01-2.72-6.01-6.08c0-3.36,2.69-6.08,6.01-6.08
		c1.48,0,2.83,0.54,3.88,1.43v0c0.38,0.33,0.73,0.7,1.02,1.12c0.7,0.99,1.11,2.21,1.11,3.53C62.88,21.74,60.19,24.47,56.87,24.47z"
		/>
	<path class="st4" d="M1.83,42.19c-0.07-0.63-0.11-1.26-0.12-1.89v-0.02L1.83,42.19z"/>
	<path class="st5" d="M50.7,72.7l5.17,1.94c-1.07,0.5-2.17,0.95-3.3,1.35c-0.13,0.05-0.26,0.09-0.4,0.14
		c-3.96,1.36-8.11,2.04-12.34,2.04c-8.75,0-17.09-2.97-23.79-8.33c3.56,1.34,7.35,2.04,11.23,2.04c0.41,0,0.81-0.01,1.21-0.02
		c3.91,1.36,8.12,2.1,12.5,2.1C44.34,73.95,47.6,73.52,50.7,72.7z"/>
	<path class="st5" d="M62.43,67.34l2.86,1.08c-2.03,1.83-4.26,3.44-6.66,4.8l-4.37-1.64C57.17,70.49,59.91,69.06,62.43,67.34z"/>
	<path class="st5" d="M70.32,60.15l1.53,0.58c-1.37,2.12-2.95,4.1-4.71,5.91l-2.49-0.94C66.73,64.05,68.63,62.19,70.32,60.15z"/>
	<path class="st5" d="M77.15,47.84c-0.8,3.86-2.19,7.52-4.08,10.88l-1.27-0.48C74.08,55.1,75.9,51.6,77.15,47.84L77.15,47.84z"/>
	<g>
		<path class="st6" d="M89.6,38.44h-3.53V26.79h-2.92v-3.29h9.36v3.29H89.6V38.44z"/>
		<path class="st6" d="M103.09,33.37c0,3.45-2.59,5.41-5.56,5.41c-2.95,0-5.56-1.94-5.56-5.41c0-3.47,2.59-5.43,5.56-5.43
			C100.5,27.94,103.09,29.9,103.09,33.37z M95.42,33.37c0,1.29,0.77,2.28,2.11,2.28c1.33,0,2.11-0.99,2.11-2.28
			c0-1.25-0.77-2.3-2.11-2.3C96.19,31.07,95.42,32.12,95.42,33.37z"/>
		<path class="st6" d="M104.44,22h3.28v7.27c0.7-0.89,1.8-1.33,2.86-1.33c2.74,0,4.63,2.5,4.63,5.41c0,2.93-1.91,5.43-4.66,5.43
			c-1.08,0-2.2-0.46-2.79-1.47h-0.04v1.13h-3.28V22z M107.61,33.37c0,1.29,0.77,2.28,2.11,2.28c1.33,0,2.11-0.99,2.11-2.28
			c0-1.25-0.77-2.3-2.11-2.3C108.38,31.07,107.61,32.12,107.61,33.37z"/>
		<path class="st6" d="M126.86,38.44h-3.28v-1.13h-0.04c-0.58,1.01-1.71,1.47-2.79,1.47c-2.74,0-4.66-2.52-4.66-5.43
			c0-2.91,1.89-5.41,4.63-5.41c1.06,0,2.18,0.44,2.86,1.33v-0.99h3.28V38.44z M119.48,33.37c0,1.29,0.77,2.28,2.11,2.28
			s2.11-0.99,2.11-2.28c0-1.25-0.77-2.3-2.11-2.3S119.48,32.12,119.48,33.37z"/>
		<path class="st6" d="M135.61,31.59c-0.49-0.4-1.06-0.71-1.69-0.71c-1.26,0-2.25,1.07-2.25,2.48c0,1.47,0.95,2.5,2.3,2.5
			c0.58,0,1.21-0.26,1.64-0.69v3.05c-0.72,0.4-1.51,0.57-2.3,0.57c-2.74,0-5.02-2.24-5.02-5.31c0-3.27,2.27-5.53,5.17-5.53
			c0.76,0,1.51,0.2,2.16,0.59V31.59z"/>
		<path class="st6" d="M144.07,31.59c-0.49-0.4-1.06-0.71-1.69-0.71c-1.26,0-2.25,1.07-2.25,2.48c0,1.47,0.95,2.5,2.3,2.5
			c0.58,0,1.21-0.26,1.64-0.69v3.05c-0.72,0.4-1.51,0.57-2.3,0.57c-2.74,0-5.02-2.24-5.02-5.31c0-3.27,2.27-5.53,5.17-5.53
			c0.76,0,1.51,0.2,2.16,0.59V31.59z"/>
		<path class="st6" d="M156.31,33.37c0,3.45-2.59,5.41-5.56,5.41c-2.95,0-5.56-1.94-5.56-5.41c0-3.47,2.59-5.43,5.56-5.43
			C153.72,27.94,156.31,29.9,156.31,33.37z M148.64,33.37c0,1.29,0.77,2.28,2.11,2.28c1.33,0,2.11-0.99,2.11-2.28
			c0-1.25-0.77-2.3-2.11-2.3C149.41,31.07,148.64,32.12,148.64,33.37z"/>
		<path class="st6" d="M175.8,23.51v8.4c0,1.92-0.07,3.82-1.42,5.27c-1.13,1.23-2.92,1.66-4.5,1.66c-1.58,0-3.37-0.44-4.5-1.66
			c-1.35-1.45-1.42-3.35-1.42-5.27v-8.4h3.53v7.86c0,1.94,0.13,4.06,2.39,4.06c2.27,0,2.39-2.12,2.39-4.06v-7.86H175.8z"/>
		<path class="st6" d="M183.67,30.89c-0.51-0.3-1.21-0.5-1.77-0.5c-0.38,0-1.03,0.18-1.03,0.69c0,0.69,1.03,0.79,1.48,0.89
			c1.53,0.34,2.68,1.13,2.68,3.01c0,2.67-2.21,3.78-4.36,3.78c-1.31,0-2.61-0.42-3.73-1.17l1.19-2.52c0.67,0.52,1.78,1.03,2.59,1.03
			c0.41,0,1.03-0.22,1.03-0.77c0-0.79-1.03-0.83-2.05-1.13c-1.03-0.3-2.05-0.85-2.05-2.67c0-2.5,2.05-3.6,4.07-3.6
			c1.04,0,2.09,0.18,3.04,0.65L183.67,30.89z"/>
		<path class="st6" d="M196.11,33.96h-6.9c0,1.47,0.7,2.26,2.05,2.26c0.7,0,1.21-0.26,1.57-0.93h3.15c-0.52,2.4-2.59,3.49-4.7,3.49
			c-3.06,0-5.35-1.9-5.35-5.41c0-3.39,2.11-5.43,5.11-5.43c3.21,0,5.06,2.18,5.06,5.64V33.96z M193.06,31.88
			c-0.16-0.97-0.97-1.6-1.85-1.6c-0.96,0-1.75,0.55-1.95,1.6H193.06z"/>
		<path class="st6" d="M211.3,27.35c-0.65-0.59-1.48-0.99-2.34-0.99c-0.65,0-1.51,0.42-1.51,1.25c0,0.87,0.96,1.21,1.57,1.43
			l0.9,0.3c1.89,0.61,3.35,1.66,3.35,4.08c0,1.49-0.32,3.01-1.4,4.02c-1.06,0.99-2.49,1.41-3.85,1.41c-1.71,0-3.38-0.63-4.77-1.7
			l1.51-3.13c0.88,0.85,1.93,1.54,3.13,1.54c0.83,0,1.71-0.46,1.71-1.5c0-1.09-1.39-1.47-2.14-1.7c-2.21-0.69-3.67-1.33-3.67-4.22
			c0-3.03,1.96-5.01,4.68-5.01c1.37,0,3.04,0.48,4.25,1.23L211.3,27.35z"/>
		<path class="st6" d="M217.98,28.28v5.43c0,1.29,0.29,2.2,1.64,2.2s1.64-0.91,1.64-2.2v-5.43h3.28v6.12c0,3.35-2.14,4.38-4.92,4.38
			c-2.77,0-4.92-1.03-4.92-4.38v-6.12H217.98z"/>
		<path class="st6" d="M229.7,29.43h0.04c0.6-1.01,1.71-1.49,2.79-1.49c2.76,0,4.66,2.54,4.66,5.45c0,2.93-1.89,5.39-4.63,5.39
			c-1.06,0-2.16-0.42-2.86-1.31v6.04h-3.28V28.28h3.28V29.43z M229.59,33.37c0,1.29,0.77,2.28,2.11,2.28c1.33,0,2.11-0.99,2.11-2.28
			c0-1.25-0.78-2.3-2.11-2.3C230.36,31.07,229.59,32.12,229.59,33.37z"/>
		<path class="st6" d="M241.89,29.43h0.04c0.59-1.01,1.71-1.49,2.79-1.49c2.75,0,4.66,2.54,4.66,5.45c0,2.93-1.89,5.39-4.63,5.39
			c-1.06,0-2.16-0.42-2.86-1.31v6.04h-3.28V28.28h3.28V29.43z M241.78,33.37c0,1.29,0.77,2.28,2.11,2.28c1.33,0,2.11-0.99,2.11-2.28
			c0-1.25-0.77-2.3-2.11-2.3C242.55,31.07,241.78,32.12,241.78,33.37z"/>
		<path class="st6" d="M254.15,38.44h-3.28V22h3.28V38.44z"/>
		<path class="st6" d="M265.72,33.96h-6.9c0,1.47,0.7,2.26,2.05,2.26c0.7,0,1.21-0.26,1.57-0.93h3.15c-0.52,2.4-2.59,3.49-4.7,3.49
			c-3.06,0-5.35-1.9-5.35-5.41c0-3.39,2.11-5.43,5.11-5.43c3.21,0,5.06,2.18,5.06,5.64V33.96z M262.68,31.88
			c-0.16-0.97-0.97-1.6-1.86-1.6c-0.95,0-1.75,0.55-1.94,1.6H262.68z"/>
		<path class="st6" d="M270.44,29.55h0.04c0.78-1.13,1.73-1.6,2.92-1.6c1.33,0,2.48,0.59,3.15,1.94c0.63-1.27,1.87-1.94,3.13-1.94
			c2.34,0,3.15,1.68,3.15,4.02v6.48h-3.28v-4.85c0-1.05,0.04-2.77-1.35-2.77c-1.51,0-1.57,1.56-1.57,2.77v4.85h-3.28v-4.85
			c0-1.13,0-2.85-1.46-2.85c-1.46,0-1.46,1.72-1.46,2.85v4.85h-3.28V28.28h3.28V29.55z"/>
		<path class="st6" d="M294.42,33.96h-6.9c0,1.47,0.7,2.26,2.05,2.26c0.7,0,1.21-0.26,1.57-0.93h3.15c-0.52,2.4-2.59,3.49-4.7,3.49
			c-3.06,0-5.35-1.9-5.35-5.41c0-3.39,2.11-5.43,5.11-5.43c3.21,0,5.06,2.18,5.06,5.64V33.96z M291.38,31.88
			c-0.16-0.97-0.97-1.6-1.86-1.6c-0.95,0-1.75,0.55-1.94,1.6H291.38z"/>
		<path class="st6" d="M299.14,29.59h0.04c0.76-1.23,1.67-1.64,2.95-1.64c2.48,0,3.47,1.72,3.47,4.22v6.28h-3.28v-4.95
			c0-0.97,0.14-2.67-1.48-2.67c-1.33,0-1.71,1.09-1.71,2.36v5.27h-3.28V28.28h3.28V29.59z"/>
		<path class="st6" d="M311.21,38.44h-3.28v-7.19h-1.06v-2.97h1.06v-3.05h3.28v3.05h1.86v2.97h-1.86V38.44z"/>
		<path class="st6" d="M94.77,50.41c-1.08-1.16-2.58-1.87-4.14-1.87c-3.02,0-5.47,2.73-5.47,5.84c0,3.11,2.47,5.84,5.51,5.84
			c1.53,0,3.02-0.75,4.11-1.87v1.95c-1.17,0.88-2.61,1.38-4.05,1.38c-3.84,0-7.08-3.24-7.08-7.25c0-4.04,3.19-7.36,7.08-7.36
			c1.51,0,2.84,0.45,4.05,1.39V50.41z"/>
		<path class="st6" d="M98.04,57.55c0,1.48,0.16,2.75,1.91,2.75c1.75,0,1.91-1.27,1.91-2.75v-4.91h1.44v5.07
			c0,2.34-0.85,3.97-3.35,3.97c-2.5,0-3.35-1.63-3.35-3.97v-5.07h1.44V57.55z"/>
		<path class="st6" d="M107.08,53.6h0.04c0.5-0.69,0.94-1.2,1.87-1.2c0.49,0,0.88,0.17,1.3,0.41l-0.68,1.37
			c-0.29-0.21-0.49-0.39-0.86-0.39c-1.58,0-1.66,2.12-1.66,3.26v4.4h-1.44v-8.8h1.44V53.6z"/>
		<path class="st6" d="M112.99,53.6h0.04c0.5-0.69,0.94-1.2,1.87-1.2c0.49,0,0.88,0.17,1.3,0.41l-0.68,1.37
			c-0.29-0.21-0.49-0.39-0.86-0.39c-1.58,0-1.66,2.12-1.66,3.26v4.4h-1.44v-8.8h1.44V53.6z"/>
		<path class="st6" d="M117.95,57.36c0.02,1.63,1.13,2.94,2.77,2.94c1.22,0,2.02-0.77,2.57-1.82l1.22,0.73
			c-0.81,1.57-2.18,2.47-3.91,2.47c-2.52,0-4.14-2-4.14-4.53c0-2.6,1.46-4.76,4.1-4.76c2.72,0,4.16,2.34,4.02,4.96H117.95z
			 M123.08,56.09c-0.2-1.27-1.22-2.3-2.48-2.3c-1.24,0-2.39,1.03-2.57,2.3H123.08z"/>
		<path class="st6" d="M127.87,53.71h0.04c0.59-0.84,1.37-1.31,2.41-1.31c2.34,0,2.88,1.76,2.88,3.82v5.22h-1.44v-4.96
			c0-1.42-0.11-2.7-1.78-2.7c-1.98,0-2.11,1.91-2.11,3.48v4.17h-1.44v-8.8h1.44V53.71z"/>
		<path class="st6" d="M137.18,61.44h-1.44v-7.41h-0.88v-1.39h0.88v-3.16h1.44v3.16h1.51v1.39h-1.51V61.44z"/>
		<path class="st6" d="M147.04,61.44h-1.51V47.32h2.23c1.17,0,2.38,0.04,3.37,0.75c1.01,0.73,1.53,1.97,1.53,3.22
			c0,1.14-0.45,2.3-1.3,3.03c-0.92,0.79-2.09,0.94-3.22,0.94h-1.1V61.44z M147.04,53.8h1.01c1.67,0,3.1-0.52,3.1-2.55
			c0-2.3-1.78-2.47-3.55-2.47h-0.56V53.8z"/>
		<path class="st6" d="M152.96,57.06c0-2.58,1.96-4.66,4.45-4.66c2.48,0,4.45,2.08,4.45,4.66s-1.98,4.62-4.45,4.62
			S152.96,59.64,152.96,57.06z M154.4,57.04c0,1.8,1.22,3.26,3.01,3.26c1.78,0,3.01-1.46,3.01-3.26c0-1.78-1.22-3.26-3.01-3.26
			C155.63,53.78,154.4,55.26,154.4,57.04z"/>
		<path class="st6" d="M165.09,53.9h0.04c0.7-0.97,1.75-1.5,2.92-1.5c2.48,0,4.05,2.23,4.05,4.66c0,2.51-1.53,4.62-4.07,4.62
			c-1.15,0-2.21-0.52-2.9-1.48h-0.04v6.18h-1.44V52.64h1.44V53.9z M165.01,56.95c0,1.72,0.97,3.35,2.77,3.35
			c1.85,0,2.83-1.55,2.83-3.33c0-1.76-1.06-3.18-2.84-3.18C166.09,53.78,165.01,55.3,165.01,56.95z"/>
		<path class="st6" d="M175.32,57.55c0,1.48,0.16,2.75,1.91,2.75s1.91-1.27,1.91-2.75v-4.91h1.44v5.07c0,2.34-0.85,3.97-3.35,3.97
			c-2.5,0-3.35-1.63-3.35-3.97v-5.07h1.44V57.55z"/>
		<path class="st6" d="M184.39,61.44h-1.44V45.99h1.44V61.44z"/>
		<path class="st6" d="M194.68,61.44h-1.44v-1.22h-0.04c-0.74,0.97-1.73,1.46-2.92,1.46c-2.48,0-4.05-2.19-4.05-4.62
			c0-2.51,1.53-4.66,4.07-4.66c1.15,0,2.2,0.56,2.9,1.5h0.04v-1.25h1.44V61.44z M187.71,56.95c0,1.72,0.97,3.35,2.77,3.35
			c1.85,0,2.83-1.55,2.83-3.33c0-1.76-1.06-3.18-2.84-3.18C188.79,53.78,187.71,55.3,187.71,56.95z"/>
		<path class="st6" d="M198.73,61.44h-1.44v-7.41h-0.88v-1.39h0.88v-3.16h1.44v3.16h1.51v1.39h-1.51V61.44z"/>
		<path class="st6" d="M203.34,49.33c0,0.6-0.47,1.07-1.03,1.07c-0.56,0-1.03-0.47-1.03-1.07c0-0.58,0.47-1.07,1.03-1.07
			C202.87,48.26,203.34,48.75,203.34,49.33z M203.03,61.44h-1.44v-8.8h1.44V61.44z"/>
		<path class="st6" d="M204.95,57.06c0-2.58,1.96-4.66,4.45-4.66c2.48,0,4.45,2.08,4.45,4.66s-1.98,4.62-4.45,4.62
			S204.95,59.64,204.95,57.06z M206.39,57.04c0,1.8,1.22,3.26,3.01,3.26c1.78,0,3.01-1.46,3.01-3.26c0-1.78-1.22-3.26-3.01-3.26
			C207.61,53.78,206.39,55.26,206.39,57.04z"/>
		<path class="st6" d="M217.11,53.71h0.04c0.6-0.84,1.37-1.31,2.41-1.31c2.34,0,2.88,1.76,2.88,3.82v5.22H221v-4.96
			c0-1.42-0.11-2.7-1.78-2.7c-1.98,0-2.11,1.91-2.11,3.48v4.17h-1.44v-8.8h1.44V53.71z"/>
		<path class="st6" d="M236.87,50.08c-0.54-0.97-1.19-1.54-2.34-1.54c-1.21,0-2.25,0.9-2.25,2.19c0,1.22,1.21,1.78,2.12,2.21
			l0.9,0.41c1.76,0.8,3.26,1.72,3.26,3.97c0,2.47-1.91,4.36-4.27,4.36c-2.18,0-3.8-1.46-4.23-3.65l1.48-0.43
			c0.2,1.44,1.26,2.62,2.72,2.62c1.46,0,2.79-1.16,2.79-2.75c0-1.65-1.24-2.21-2.5-2.81l-0.83-0.38c-1.58-0.75-2.95-1.59-2.95-3.61
			c0-2.19,1.78-3.59,3.8-3.59c1.51,0,2.79,0.81,3.51,2.19L236.87,50.08z"/>
		<path class="st6" d="M241.94,57.55c0,1.48,0.16,2.75,1.91,2.75c1.75,0,1.91-1.27,1.91-2.75v-4.91h1.44v5.07
			c0,2.34-0.85,3.97-3.35,3.97c-2.5,0-3.35-1.63-3.35-3.97v-5.07h1.44V57.55z"/>
		<path class="st6" d="M250.99,53.6h0.04c0.51-0.69,0.94-1.2,1.87-1.2c0.49,0,0.88,0.17,1.3,0.41l-0.68,1.37
			c-0.29-0.21-0.49-0.39-0.87-0.39c-1.58,0-1.66,2.12-1.66,3.26v4.4h-1.44v-8.8h1.44V53.6z"/>
		<path class="st6" d="M258.97,58.56l2.52-5.92h1.62l-4.14,9.38l-4.16-9.38h1.64L258.97,58.56z"/>
		<path class="st6" d="M264.85,57.36c0.02,1.63,1.13,2.94,2.77,2.94c1.22,0,2.02-0.77,2.57-1.82l1.22,0.73
			c-0.81,1.57-2.18,2.47-3.91,2.47c-2.52,0-4.14-2-4.14-4.53c0-2.6,1.46-4.76,4.11-4.76c2.72,0,4.16,2.34,4.02,4.96H264.85z
			 M269.98,56.09c-0.2-1.27-1.22-2.3-2.48-2.3c-1.24,0-2.39,1.03-2.57,2.3H269.98z"/>
		<path class="st6" d="M271.71,52.64h1.67l2.99,6.31l2.74-6.31h1.64l-6.25,13.74h-1.64l2.74-5.77L271.71,52.64z"/>
	</g>
</g>
<g>
</g>
<g>
</g>
<g>
</g>
<g>
</g>
<g>
</g>
<g>
</g>
</svg>
