<?xml version="1.0" encoding="utf-8"?>
<!-- Generator: Adobe Illustrator 23.0.1, SVG Export Plug-In . SVG Version: 6.00 Build 0)  -->
<svg version="1.1" id="Layer_1" xmlns="http://www.w3.org/2000/svg" xmlns:xlink="http://www.w3.org/1999/xlink" x="0px" y="0px"
	 viewBox="0 0 500 435" style="enable-background:new 0 0 500 435;" xml:space="preserve">
<style type="text/css">
	.st0{fill:#F5F5F5;stroke:#D7D7D7;stroke-miterlimit:10;}
	.st1{fill:none;stroke:#D1D3D4;stroke-width:0.5;stroke-miterlimit:10;}
	.st2{fill:none;stroke:#000000;stroke-width:0.5;stroke-miterlimit:10;}
	.st3{fill:#4BADC5;}
	.st4{fill:#8064A2;}
	.st5{fill:#9BBB59;}
	.st6{fill:#C0504E;}
	.st7{fill:#4F81BB;}
	.st8{fill:none;}
	.st9{fill:#231F20;}
	.st10{opacity:0.1;}
	.st11{fill:none;stroke:#231F20;stroke-width:0.5;stroke-linecap:round;stroke-miterlimit:10;}
	.st12{fill:none;stroke:#231F20;stroke-width:0.5;stroke-linecap:round;stroke-miterlimit:10;stroke-dasharray:3.0052,3.0052;}
	.st13{fill:none;stroke:#27AAE1;stroke-width:0.5;stroke-linecap:round;stroke-miterlimit:10;}
	.st14{fill:none;stroke:#27AAE1;stroke-width:0.5;stroke-linecap:round;stroke-miterlimit:10;stroke-dasharray:3.0052,3.0052;}
	.st15{fill:none;stroke:#27AAE1;stroke-width:2;stroke-linecap:round;stroke-miterlimit:10;}
	.st16{fill:none;stroke:#27AAE1;stroke-width:2;stroke-linecap:round;stroke-miterlimit:10;stroke-dasharray:2.6606,4.4344;}
</style>
<rect x="51.06" y="351.75" class="st0" width="435.87" height="75.38"/>
<line class="st1" x1="47" y1="8.36" x2="490.9" y2="8.36"/>
<line class="st1" x1="47" y1="56.44" x2="490.9" y2="56.44"/>
<line class="st1" x1="47" y1="104.52" x2="490.9" y2="104.52"/>
<line class="st1" x1="47" y1="152.61" x2="490.9" y2="152.61"/>
<line class="st1" x1="47" y1="200.69" x2="490.9" y2="200.69"/>
<line class="st1" x1="47" y1="248.77" x2="490.9" y2="248.77"/>
<line class="st2" x1="84.59" y1="303.58" x2="84.59" y2="296.85"/>
<line class="st2" x1="118.12" y1="306.58" x2="118.12" y2="296.85"/>
<line class="st2" x1="151.65" y1="303.58" x2="151.65" y2="296.85"/>
<line class="st2" x1="185.18" y1="306.58" x2="185.18" y2="296.85"/>
<line class="st2" x1="218.71" y1="303.58" x2="218.71" y2="296.85"/>
<line class="st2" x1="252.24" y1="306.58" x2="252.24" y2="296.85"/>
<line class="st2" x1="285.76" y1="303.58" x2="285.76" y2="296.85"/>
<line class="st2" x1="319.29" y1="306.58" x2="319.29" y2="296.85"/>
<line class="st2" x1="352.82" y1="303.58" x2="352.82" y2="296.85"/>
<line class="st2" x1="419.88" y1="303.58" x2="419.88" y2="296.85"/>
<line class="st2" x1="453.41" y1="306.58" x2="453.41" y2="296.85"/>
<line class="st2" x1="386.35" y1="306.58" x2="386.35" y2="296.85"/>
<g>
	<path class="st3" d="M51.06,296.85h435.87V47.69c0,0-29.86,13.4-38.45,19.1c-9.07,6.01-42.45,27.61-47.1,30.71
		c-4.65,3.1-27.91,19.64-34.32,23.48c-8.88,5.33-39.98,27.87-49.55,33.42c-10.45,6.06-32.89,19.1-45.55,25.55
		c-13.42,6.84-41.79,20.08-52.52,25.16c-11.7,5.55-41.46,17.03-46.97,20c-6.45,3.48-28.69,11.93-38.06,15.48
		c-6.19,2.34-31.1,9.81-40,12.13s-43.35,9.55-43.35,9.55V296.85z"/>
	<path class="st4" d="M51.06,296.85h435.87V92.47c0,0-19.16,4.15-30.45,6.71c-9.46,2.14-25.64,8.31-31.55,10.32
		c-7.94,2.71-41.49,21.42-47.68,25.03c-6.19,3.61-39.86,24.99-48.65,30.06c-8.67,5-40.65,21.29-50.19,24.9
		c-8.54,3.23-55.03,23.67-70.32,29.03c-15.1,5.29-45.55,17.55-55.35,21.16c-9.81,3.61-43.74,13.55-53.55,15.61
		c-9.81,2.06-48.13,10.06-48.13,10.06V296.85z"/>
	<path class="st5" d="M51.06,296.85h435.87V170.27c0,0-12.24,1.27-17.68,1.29c-4.29,0.01-42.19,1.9-50.06,2.58
		c-7.42,0.64-33.33,4.56-52.27,8.82c-14.46,3.25-19.73,5.89-29.41,10.15s-56.41,23.11-68.52,28c-12.13,4.9-47.04,15.47-55.81,17.71
		c-5.3,1.36-22.9,5-32.19,7.32c-9.29,2.32-28.13,7.74-39.35,10.06s-39.48,7.35-49.55,9.29s-30.97,5.42-36,6.19
		c-5.03,0.77-5.03,0.77-5.03,0.77V296.85z"/>
	<path class="st6" d="M51.06,296.85h435.87v-64.52c0,0-25.81,2.58-30.97,3.1c-5.16,0.52-29.42,2.06-33.03,2.06
		c-3.61,0-55.23-0.52-58.84,0c-3.61,0.52-46.45,3.1-55.74,4.65c-9.29,1.55-45.94,7.74-55.23,10.84
		c-9.29,3.1-42.32,10.84-49.03,11.61c-6.71,0.77-46.97,7.48-54.19,8.52c-7.23,1.03-53.16,4.13-64,5.68
		c-10.84,1.55-34.84,2.58-34.84,2.58V296.85z"/>
	<path class="st7" d="M51.06,296.85h435.87v-19.61c0,0-40.26-1.55-53.16,0c-12.9,1.55-119.23,4.13-127.48,4.65
		c-8.26,0.52-59.35,0.52-62.97,0.52s-70.19,2.92-80,4.3c-9.81,1.38-59.35,4.99-66.06,4.47c-6.71-0.52-46.19,0.52-46.19,0.52V296.85z
		"/>
</g>
<g>
	<rect x="38.42" y="309.78" class="st8" width="25.29" height="9.29"/>
	<path d="M44.22,311.57h-1.44v-0.58c0.04,0,0.06,0,0.09,0c0.96,0,1.44-0.41,1.49-1.26h0.59v6.82h-0.73V311.57z"/>
	<path d="M48.66,314.22c-1.06,0-1.73-0.78-1.73-2.15c0-1.47,0.72-2.34,1.8-2.34c1.38,0,1.91,1.04,1.91,3.24
		c0,2.53-0.51,3.71-1.95,3.71c-0.95,0-1.58-0.63-1.58-1.62h0.76c0,0.02,0,0.03,0,0.04c0,0.58,0.33,0.92,0.85,0.92
		c0.9,0,1.12-0.82,1.22-2.65C49.72,313.93,49.27,314.22,48.66,314.22z M48.73,310.39c-0.66,0-1.03,0.59-1.03,1.66
		c0,1.01,0.38,1.52,1.08,1.52c0.74,0,1.05-0.49,1.05-1.5C49.84,310.98,49.44,310.39,48.73,310.39z"/>
	<path d="M54.5,310.6h-3.02v-0.74h3.67v0.65c-1.29,1.72-2.04,3.79-2.18,6.04h-0.85C52.4,314.25,53.19,312.28,54.5,310.6z"/>
	<path d="M56.67,314.76c0,0.02,0,0.04,0,0.05c0,0.77,0.37,1.2,1.01,1.2c0.7,0,1.09-0.57,1.09-1.65c0-1.07-0.37-1.61-1.11-1.61
		c-0.49,0-0.83,0.23-0.95,0.63l-0.64-0.05l0.37-3.48h2.85v0.68h-2.27l-0.24,2.02c0.13-0.28,0.53-0.49,1.06-0.49
		c1.03,0,1.71,0.79,1.71,2.2c0,1.54-0.69,2.41-1.86,2.41c-1.13,0-1.75-0.67-1.76-1.92H56.67z"/>
</g>
<g>
	<rect x="71.95" y="309.78" class="st8" width="25.29" height="9.29"/>
	<path d="M77.75,311.57H76.3v-0.58c0.04,0,0.06,0,0.09,0c0.96,0,1.44-0.41,1.49-1.26h0.59v6.82h-0.73V311.57z"/>
	<path d="M82.19,314.22c-1.06,0-1.73-0.78-1.73-2.15c0-1.47,0.72-2.34,1.8-2.34c1.38,0,1.91,1.04,1.91,3.24
		c0,2.53-0.51,3.71-1.95,3.71c-0.95,0-1.58-0.63-1.58-1.62h0.76c0,0.02,0,0.03,0,0.04c0,0.58,0.33,0.92,0.85,0.92
		c0.9,0,1.12-0.82,1.22-2.65C83.24,313.93,82.79,314.22,82.19,314.22z M82.26,310.39c-0.66,0-1.03,0.59-1.03,1.66
		c0,1.01,0.38,1.52,1.08,1.52c0.74,0,1.05-0.49,1.05-1.5C83.37,310.98,82.97,310.39,82.26,310.39z"/>
	<path d="M85.23,311.47c0-1.09,0.61-1.74,1.63-1.74c0.98,0,1.61,0.64,1.61,1.68c0,0.78-0.32,1.27-0.97,1.45
		c0.8,0.18,1.16,0.72,1.16,1.7c0,1.36-0.68,2.12-1.83,2.12c-1.11,0-1.83-0.78-1.83-2.02c0-1,0.45-1.65,1.18-1.77
		C85.55,312.71,85.23,312.24,85.23,311.47z M86.85,316.02c0.63,0,1.04-0.5,1.04-1.38c0-0.97-0.34-1.43-1.08-1.43
		c-0.65,0-1.03,0.47-1.03,1.31C85.78,315.53,86.15,316.02,86.85,316.02z M85.96,311.5c0,0.66,0.34,1.07,0.86,1.07
		c0.59,0,0.91-0.4,0.91-1.11c0-0.68-0.34-1.09-0.91-1.09C86.27,310.37,85.96,310.76,85.96,311.5z"/>
	<path d="M91.32,309.74c0.67,0,1.13,0.29,1.46,0.89c0.3,0.53,0.37,1.38,0.37,2.58c0,2.37-0.44,3.47-1.8,3.47
		c-1.44,0-1.85-1.11-1.85-3.48C89.49,310.85,89.9,309.74,91.32,309.74z M91.33,316.02c0.93,0,1.04-0.93,1.04-2.84
		c0-1.9-0.17-2.79-1.04-2.79c-0.9,0-1.04,0.87-1.04,2.78C90.27,315.13,90.46,316.02,91.33,316.02z"/>
</g>
<g>
	<rect x="105.48" y="309.78" class="st8" width="25.29" height="9.29"/>
	<path d="M111.27,311.57h-1.44v-0.58c0.04,0,0.06,0,0.09,0c0.96,0,1.44-0.41,1.49-1.26H112v6.82h-0.73V311.57z"/>
	<path d="M115.72,314.22c-1.06,0-1.73-0.78-1.73-2.15c0-1.47,0.72-2.34,1.8-2.34c1.38,0,1.91,1.04,1.91,3.24
		c0,2.53-0.51,3.71-1.95,3.71c-0.95,0-1.58-0.63-1.58-1.62h0.76c0,0.02,0,0.03,0,0.04c0,0.58,0.33,0.92,0.85,0.92
		c0.9,0,1.12-0.82,1.22-2.65C116.77,313.93,116.32,314.22,115.72,314.22z M115.79,310.39c-0.66,0-1.03,0.59-1.03,1.66
		c0,1.01,0.38,1.52,1.08,1.52c0.74,0,1.05-0.49,1.05-1.5C116.9,310.98,116.49,310.39,115.79,310.39z"/>
	<path d="M118.76,311.47c0-1.09,0.61-1.74,1.63-1.74c0.98,0,1.61,0.64,1.61,1.68c0,0.78-0.32,1.27-0.97,1.45
		c0.8,0.18,1.16,0.72,1.16,1.7c0,1.36-0.68,2.12-1.83,2.12c-1.11,0-1.83-0.78-1.83-2.02c0-1,0.45-1.65,1.18-1.77
		C119.08,312.71,118.76,312.24,118.76,311.47z M120.38,316.02c0.63,0,1.04-0.5,1.04-1.38c0-0.97-0.34-1.43-1.08-1.43
		c-0.65,0-1.03,0.47-1.03,1.31C119.31,315.53,119.68,316.02,120.38,316.02z M119.49,311.5c0,0.66,0.34,1.07,0.86,1.07
		c0.59,0,0.91-0.4,0.91-1.11c0-0.68-0.34-1.09-0.91-1.09C119.8,310.37,119.49,310.76,119.49,311.5z"/>
	<path d="M123.73,314.76c0,0.02,0,0.04,0,0.05c0,0.77,0.37,1.2,1.01,1.2c0.7,0,1.09-0.57,1.09-1.65c0-1.07-0.37-1.61-1.11-1.61
		c-0.49,0-0.83,0.23-0.95,0.63l-0.64-0.05l0.37-3.48h2.85v0.68h-2.27l-0.24,2.02c0.13-0.28,0.53-0.49,1.06-0.49
		c1.03,0,1.71,0.79,1.71,2.2c0,1.54-0.69,2.41-1.86,2.41c-1.13,0-1.75-0.67-1.76-1.92H123.73z"/>
</g>
<g>
	<rect x="139.01" y="309.78" class="st8" width="25.29" height="9.29"/>
	<path d="M144.8,311.57h-1.44v-0.58c0.04,0,0.06,0,0.09,0c0.96,0,1.44-0.41,1.49-1.26h0.59v6.82h-0.73V311.57z"/>
	<path d="M149.25,314.22c-1.06,0-1.73-0.78-1.73-2.15c0-1.47,0.72-2.34,1.8-2.34c1.38,0,1.91,1.04,1.91,3.24
		c0,2.53-0.51,3.71-1.95,3.71c-0.95,0-1.58-0.63-1.58-1.62h0.76c0,0.02,0,0.03,0,0.04c0,0.58,0.33,0.92,0.85,0.92
		c0.9,0,1.12-0.82,1.22-2.65C150.3,313.93,149.85,314.22,149.25,314.22z M149.32,310.39c-0.66,0-1.03,0.59-1.03,1.66
		c0,1.01,0.38,1.52,1.08,1.52c0.74,0,1.05-0.49,1.05-1.5C150.43,310.98,150.02,310.39,149.32,310.39z"/>
	<path d="M153.73,314.22c-1.06,0-1.73-0.78-1.73-2.15c0-1.47,0.72-2.34,1.8-2.34c1.38,0,1.91,1.04,1.91,3.24
		c0,2.53-0.51,3.71-1.95,3.71c-0.95,0-1.58-0.63-1.58-1.62h0.76c0,0.02,0,0.03,0,0.04c0,0.58,0.33,0.92,0.85,0.92
		c0.9,0,1.12-0.82,1.22-2.65C154.78,313.93,154.33,314.22,153.73,314.22z M153.8,310.39c-0.66,0-1.03,0.59-1.03,1.66
		c0,1.01,0.38,1.52,1.08,1.52c0.74,0,1.05-0.49,1.05-1.5C154.91,310.98,154.5,310.39,153.8,310.39z"/>
	<path d="M158.37,309.74c0.67,0,1.13,0.29,1.46,0.89c0.3,0.53,0.37,1.38,0.37,2.58c0,2.37-0.44,3.47-1.8,3.47
		c-1.44,0-1.85-1.11-1.85-3.48C156.55,310.85,156.96,309.74,158.37,309.74z M158.38,316.02c0.93,0,1.04-0.93,1.04-2.84
		c0-1.9-0.17-2.79-1.04-2.79c-0.9,0-1.04,0.87-1.04,2.78C157.33,315.13,157.52,316.02,158.38,316.02z"/>
</g>
<g>
	<rect x="172.53" y="309.78" class="st8" width="25.29" height="9.29"/>
	<path d="M178.33,311.57h-1.44v-0.58c0.04,0,0.06,0,0.09,0c0.96,0,1.44-0.41,1.49-1.26h0.59v6.82h-0.73V311.57z"/>
	<path d="M182.78,314.22c-1.06,0-1.73-0.78-1.73-2.15c0-1.47,0.72-2.34,1.8-2.34c1.38,0,1.91,1.04,1.91,3.24
		c0,2.53-0.51,3.71-1.95,3.71c-0.95,0-1.58-0.63-1.58-1.62h0.76c0,0.02,0,0.03,0,0.04c0,0.58,0.33,0.92,0.85,0.92
		c0.9,0,1.12-0.82,1.22-2.65C183.83,313.93,183.38,314.22,182.78,314.22z M182.85,310.39c-0.66,0-1.03,0.59-1.03,1.66
		c0,1.01,0.38,1.52,1.08,1.52c0.74,0,1.05-0.49,1.05-1.5C183.96,310.98,183.55,310.39,182.85,310.39z"/>
	<path d="M187.26,314.22c-1.06,0-1.73-0.78-1.73-2.15c0-1.47,0.72-2.34,1.8-2.34c1.38,0,1.91,1.04,1.91,3.24
		c0,2.53-0.51,3.71-1.95,3.71c-0.95,0-1.58-0.63-1.58-1.62h0.76c0,0.02,0,0.03,0,0.04c0,0.58,0.33,0.92,0.85,0.92
		c0.9,0,1.12-0.82,1.22-2.65C188.31,313.93,187.86,314.22,187.26,314.22z M187.33,310.39c-0.66,0-1.03,0.59-1.03,1.66
		c0,1.01,0.38,1.52,1.08,1.52c0.74,0,1.05-0.49,1.05-1.5C188.44,310.98,188.03,310.39,187.33,310.39z"/>
	<path d="M190.79,314.76c0,0.02,0,0.04,0,0.05c0,0.77,0.37,1.2,1.01,1.2c0.7,0,1.09-0.57,1.09-1.65c0-1.07-0.37-1.61-1.11-1.61
		c-0.49,0-0.83,0.23-0.95,0.63l-0.64-0.05l0.37-3.48h2.85v0.68h-2.27l-0.24,2.02c0.13-0.28,0.53-0.49,1.06-0.49
		c1.03,0,1.71,0.79,1.71,2.2c0,1.54-0.69,2.41-1.86,2.41c-1.13,0-1.75-0.67-1.76-1.92H190.79z"/>
</g>
<g>
	<rect x="206.06" y="309.78" class="st8" width="25.29" height="9.29"/>
	<path d="M210.18,316.29c0-0.89,0.39-1.66,1.18-2.37c0.52-0.47,0.95-0.83,1.24-1.16c0.25-0.3,0.35-0.66,0.35-1.15
		c0-0.79-0.37-1.21-1-1.21c-0.66,0-0.98,0.46-0.98,1.39c0,0.03,0.01,0.1,0.01,0.23h-0.73c0-0.08-0.01-0.16-0.01-0.24
		c0-1.33,0.65-2.05,1.75-2.05c1.08,0,1.75,0.67,1.75,1.85c0,0.55-0.1,0.99-0.38,1.4c-0.24,0.38-0.67,0.68-1.14,1.07
		c-0.8,0.67-1.25,1.19-1.27,1.81h2.84v0.69h-3.6C210.18,316.46,210.18,316.38,210.18,316.29z"/>
	<path d="M216.47,309.74c0.67,0,1.13,0.29,1.46,0.89c0.3,0.53,0.37,1.38,0.37,2.58c0,2.37-0.44,3.47-1.8,3.47
		c-1.44,0-1.85-1.11-1.85-3.48C214.64,310.85,215.05,309.74,216.47,309.74z M216.48,316.02c0.93,0,1.04-0.93,1.04-2.84
		c0-1.9-0.17-2.79-1.04-2.79c-0.9,0-1.04,0.87-1.04,2.78C215.42,315.13,215.61,316.02,216.48,316.02z"/>
	<path d="M220.95,309.74c0.67,0,1.13,0.29,1.46,0.89c0.3,0.53,0.37,1.38,0.37,2.58c0,2.37-0.44,3.47-1.8,3.47
		c-1.44,0-1.85-1.11-1.85-3.48C219.12,310.85,219.54,309.74,220.95,309.74z M220.96,316.02c0.93,0,1.04-0.93,1.04-2.84
		c0-1.9-0.17-2.79-1.04-2.79c-0.9,0-1.04,0.87-1.04,2.78C219.9,315.13,220.09,316.02,220.96,316.02z"/>
	<path d="M225.43,309.74c0.67,0,1.13,0.29,1.46,0.89c0.3,0.53,0.37,1.38,0.37,2.58c0,2.37-0.44,3.47-1.8,3.47
		c-1.44,0-1.85-1.11-1.85-3.48C223.6,310.85,224.02,309.74,225.43,309.74z M225.44,316.02c0.93,0,1.04-0.93,1.04-2.84
		c0-1.9-0.17-2.79-1.04-2.79c-0.9,0-1.04,0.87-1.04,2.78C224.39,315.13,224.58,316.02,225.44,316.02z"/>
</g>
<g>
	<rect x="239.59" y="309.78" class="st8" width="25.29" height="9.29"/>
	<path d="M243.7,316.29c0-0.89,0.39-1.66,1.18-2.37c0.52-0.47,0.95-0.83,1.24-1.16c0.25-0.3,0.35-0.66,0.35-1.15
		c0-0.79-0.37-1.21-1-1.21c-0.66,0-0.98,0.46-0.98,1.39c0,0.03,0.01,0.1,0.01,0.23h-0.73c0-0.08-0.01-0.16-0.01-0.24
		c0-1.33,0.65-2.05,1.75-2.05c1.08,0,1.75,0.67,1.75,1.85c0,0.55-0.1,0.99-0.38,1.4c-0.24,0.38-0.67,0.68-1.14,1.07
		c-0.8,0.67-1.25,1.19-1.27,1.81h2.84v0.69h-3.6C243.7,316.46,243.7,316.38,243.7,316.29z"/>
	<path d="M250,309.74c0.67,0,1.13,0.29,1.46,0.89c0.3,0.53,0.37,1.38,0.37,2.58c0,2.37-0.44,3.47-1.8,3.47
		c-1.44,0-1.85-1.11-1.85-3.48C248.17,310.85,248.58,309.74,250,309.74z M250,316.02c0.93,0,1.04-0.93,1.04-2.84
		c0-1.9-0.17-2.79-1.04-2.79c-0.9,0-1.04,0.87-1.04,2.78C248.95,315.13,249.14,316.02,250,316.02z"/>
	<path d="M254.48,309.74c0.67,0,1.13,0.29,1.46,0.89c0.3,0.53,0.37,1.38,0.37,2.58c0,2.37-0.44,3.47-1.8,3.47
		c-1.44,0-1.85-1.11-1.85-3.48C252.65,310.85,253.06,309.74,254.48,309.74z M254.49,316.02c0.93,0,1.04-0.93,1.04-2.84
		c0-1.9-0.17-2.79-1.04-2.79c-0.9,0-1.04,0.87-1.04,2.78C253.43,315.13,253.62,316.02,254.49,316.02z"/>
	<path d="M257.84,314.76c0,0.02,0,0.04,0,0.05c0,0.77,0.37,1.2,1.01,1.2c0.7,0,1.09-0.57,1.09-1.65c0-1.07-0.37-1.61-1.11-1.61
		c-0.49,0-0.83,0.23-0.95,0.63l-0.64-0.05l0.37-3.48h2.85v0.68h-2.27l-0.24,2.02c0.13-0.28,0.53-0.49,1.06-0.49
		c1.03,0,1.71,0.79,1.71,2.2c0,1.54-0.69,2.41-1.86,2.41c-1.13,0-1.75-0.67-1.76-1.92H257.84z"/>
</g>
<g>
	<rect x="273.12" y="309.78" class="st8" width="25.29" height="9.29"/>
	<path d="M277.23,316.29c0-0.89,0.39-1.66,1.18-2.37c0.52-0.47,0.96-0.83,1.24-1.16c0.25-0.3,0.35-0.66,0.35-1.15
		c0-0.79-0.37-1.21-1-1.21c-0.66,0-0.98,0.46-0.98,1.39c0,0.03,0.01,0.1,0.01,0.23h-0.73c0-0.08-0.01-0.16-0.01-0.24
		c0-1.33,0.65-2.05,1.75-2.05c1.08,0,1.75,0.67,1.75,1.85c0,0.55-0.1,0.99-0.38,1.4c-0.24,0.38-0.67,0.68-1.14,1.07
		c-0.8,0.67-1.25,1.19-1.27,1.81h2.84v0.69h-3.6C277.23,316.46,277.23,316.38,277.23,316.29z"/>
	<path d="M283.52,309.74c0.67,0,1.13,0.29,1.46,0.89c0.3,0.53,0.37,1.38,0.37,2.58c0,2.37-0.44,3.47-1.8,3.47
		c-1.44,0-1.85-1.11-1.85-3.48C281.7,310.85,282.11,309.74,283.52,309.74z M283.53,316.02c0.93,0,1.04-0.93,1.04-2.84
		c0-1.9-0.17-2.79-1.04-2.79c-0.9,0-1.04,0.87-1.04,2.78C282.48,315.13,282.67,316.02,283.53,316.02z"/>
	<path d="M287.88,311.57h-1.44v-0.58c0.04,0,0.06,0,0.09,0c0.96,0,1.44-0.41,1.49-1.26h0.59v6.82h-0.73V311.57z"/>
	<path d="M292.49,309.74c0.67,0,1.13,0.29,1.46,0.89c0.3,0.53,0.37,1.38,0.37,2.58c0,2.37-0.44,3.47-1.8,3.47
		c-1.44,0-1.85-1.11-1.85-3.48C290.66,310.85,291.07,309.74,292.49,309.74z M292.5,316.02c0.93,0,1.04-0.93,1.04-2.84
		c0-1.9-0.17-2.79-1.04-2.79c-0.9,0-1.04,0.87-1.04,2.78C291.44,315.13,291.63,316.02,292.5,316.02z"/>
</g>
<g>
	<rect x="306.65" y="309.78" class="st8" width="25.29" height="9.29"/>
	<path d="M310.76,316.29c0-0.89,0.39-1.66,1.18-2.37c0.52-0.47,0.95-0.83,1.24-1.16c0.25-0.3,0.35-0.66,0.35-1.15
		c0-0.79-0.37-1.21-1-1.21c-0.66,0-0.98,0.46-0.98,1.39c0,0.03,0.01,0.1,0.01,0.23h-0.73c0-0.08-0.01-0.16-0.01-0.24
		c0-1.33,0.65-2.05,1.75-2.05c1.08,0,1.75,0.67,1.75,1.85c0,0.55-0.1,0.99-0.38,1.4c-0.24,0.38-0.67,0.68-1.14,1.07
		c-0.8,0.67-1.25,1.19-1.27,1.81h2.84v0.69h-3.6C310.76,316.46,310.76,316.38,310.76,316.29z"/>
	<path d="M317.05,309.74c0.67,0,1.12,0.29,1.46,0.89c0.3,0.53,0.37,1.38,0.37,2.58c0,2.37-0.44,3.47-1.8,3.47
		c-1.44,0-1.85-1.11-1.85-3.48C315.22,310.85,315.64,309.74,317.05,309.74z M317.06,316.02c0.93,0,1.04-0.93,1.04-2.84
		c0-1.9-0.17-2.79-1.04-2.79c-0.9,0-1.04,0.87-1.04,2.78C316.01,315.13,316.2,316.02,317.06,316.02z"/>
	<path d="M321.41,311.57h-1.44v-0.58c0.04,0,0.06,0,0.09,0c0.96,0,1.44-0.41,1.49-1.26h0.59v6.82h-0.73V311.57z"/>
	<path d="M324.9,314.76c0,0.02,0,0.04,0,0.05c0,0.77,0.37,1.2,1.01,1.2c0.7,0,1.09-0.57,1.09-1.65c0-1.07-0.37-1.61-1.11-1.61
		c-0.49,0-0.83,0.23-0.96,0.63l-0.64-0.05l0.37-3.48h2.85v0.68h-2.27l-0.24,2.02c0.13-0.28,0.53-0.49,1.06-0.49
		c1.03,0,1.71,0.79,1.71,2.2c0,1.54-0.69,2.41-1.86,2.41c-1.13,0-1.75-0.67-1.75-1.92H324.9z"/>
</g>
<g>
	<rect x="340.18" y="309.78" class="st8" width="25.29" height="9.29"/>
	<path d="M344.29,316.29c0-0.89,0.39-1.66,1.18-2.37c0.52-0.47,0.95-0.83,1.24-1.16c0.25-0.3,0.35-0.66,0.35-1.15
		c0-0.79-0.37-1.21-1-1.21c-0.66,0-0.98,0.46-0.98,1.39c0,0.03,0.01,0.1,0.01,0.23h-0.73c0-0.08-0.01-0.16-0.01-0.24
		c0-1.33,0.65-2.05,1.75-2.05c1.08,0,1.75,0.67,1.75,1.85c0,0.55-0.1,0.99-0.38,1.4c-0.24,0.38-0.67,0.68-1.14,1.07
		c-0.8,0.67-1.25,1.19-1.27,1.81h2.84v0.69h-3.6C344.29,316.46,344.29,316.38,344.29,316.29z"/>
	<path d="M350.58,309.74c0.67,0,1.12,0.29,1.46,0.89c0.3,0.53,0.37,1.38,0.37,2.58c0,2.37-0.44,3.47-1.8,3.47
		c-1.44,0-1.85-1.11-1.85-3.48C348.75,310.85,349.17,309.74,350.58,309.74z M350.59,316.02c0.93,0,1.04-0.93,1.04-2.84
		c0-1.9-0.17-2.79-1.04-2.79c-0.9,0-1.04,0.87-1.04,2.78C349.54,315.13,349.73,316.02,350.59,316.02z"/>
	<path d="M353.25,316.29c0-0.89,0.39-1.66,1.18-2.37c0.52-0.47,0.95-0.83,1.24-1.16c0.25-0.3,0.35-0.66,0.35-1.15
		c0-0.79-0.37-1.21-1-1.21c-0.66,0-0.98,0.46-0.98,1.39c0,0.03,0.01,0.1,0.01,0.23h-0.73c0-0.08-0.01-0.16-0.01-0.24
		c0-1.33,0.65-2.05,1.75-2.05c1.08,0,1.75,0.67,1.75,1.85c0,0.55-0.1,0.99-0.38,1.4c-0.24,0.38-0.67,0.68-1.14,1.07
		c-0.8,0.67-1.25,1.19-1.27,1.81h2.84v0.69h-3.6C353.25,316.46,353.25,316.38,353.25,316.29z"/>
	<path d="M359.54,309.74c0.67,0,1.12,0.29,1.46,0.89c0.3,0.53,0.37,1.38,0.37,2.58c0,2.37-0.44,3.47-1.8,3.47
		c-1.44,0-1.85-1.11-1.85-3.48C357.72,310.85,358.13,309.74,359.54,309.74z M359.55,316.02c0.93,0,1.04-0.93,1.04-2.84
		c0-1.9-0.17-2.79-1.04-2.79c-0.9,0-1.04,0.87-1.04,2.78C358.5,315.13,358.69,316.02,359.55,316.02z"/>
</g>
<g>
	<rect x="373.7" y="309.78" class="st8" width="25.29" height="9.29"/>
	<path d="M377.82,316.29c0-0.89,0.39-1.66,1.18-2.37c0.52-0.47,0.95-0.83,1.24-1.16c0.25-0.3,0.35-0.66,0.35-1.15
		c0-0.79-0.37-1.21-1-1.21c-0.66,0-0.98,0.46-0.98,1.39c0,0.03,0.01,0.1,0.01,0.23h-0.73c0-0.08-0.01-0.16-0.01-0.24
		c0-1.33,0.65-2.05,1.75-2.05c1.08,0,1.75,0.67,1.75,1.85c0,0.55-0.1,0.99-0.38,1.4c-0.24,0.38-0.67,0.68-1.14,1.07
		c-0.8,0.67-1.25,1.19-1.27,1.81h2.84v0.69h-3.6C377.82,316.46,377.82,316.38,377.82,316.29z"/>
	<path d="M384.11,309.74c0.67,0,1.12,0.29,1.46,0.89c0.3,0.53,0.37,1.38,0.37,2.58c0,2.37-0.44,3.47-1.8,3.47
		c-1.44,0-1.85-1.11-1.85-3.48C382.28,310.85,382.7,309.74,384.11,309.74z M384.12,316.02c0.93,0,1.04-0.93,1.04-2.84
		c0-1.9-0.17-2.79-1.04-2.79c-0.9,0-1.04,0.87-1.04,2.78C383.06,315.13,383.25,316.02,384.12,316.02z"/>
	<path d="M386.78,316.29c0-0.89,0.39-1.66,1.18-2.37c0.52-0.47,0.95-0.83,1.24-1.16c0.25-0.3,0.35-0.66,0.35-1.15
		c0-0.79-0.37-1.21-1-1.21c-0.66,0-0.98,0.46-0.98,1.39c0,0.03,0.01,0.1,0.01,0.23h-0.73c0-0.08-0.01-0.16-0.01-0.24
		c0-1.33,0.65-2.05,1.75-2.05c1.08,0,1.75,0.67,1.75,1.85c0,0.55-0.1,0.99-0.38,1.4c-0.24,0.38-0.67,0.68-1.14,1.07
		c-0.8,0.67-1.25,1.19-1.27,1.81h2.84v0.69h-3.6C386.78,316.46,386.78,316.38,386.78,316.29z"/>
	<path d="M391.96,314.76c0,0.02,0,0.04,0,0.05c0,0.77,0.37,1.2,1.01,1.2c0.7,0,1.09-0.57,1.09-1.65c0-1.07-0.37-1.61-1.11-1.61
		c-0.49,0-0.83,0.23-0.96,0.63l-0.64-0.05l0.37-3.48h2.85v0.68h-2.27l-0.24,2.02c0.13-0.28,0.53-0.49,1.06-0.49
		c1.03,0,1.71,0.79,1.71,2.2c0,1.54-0.69,2.41-1.86,2.41c-1.13,0-1.75-0.67-1.75-1.92H391.96z"/>
</g>
<g>
	<rect x="407.23" y="309.78" class="st8" width="25.29" height="9.29"/>
	<path d="M411.35,316.29c0-0.89,0.39-1.66,1.18-2.37c0.52-0.47,0.96-0.83,1.24-1.16c0.25-0.3,0.35-0.66,0.35-1.15
		c0-0.79-0.37-1.21-1-1.21c-0.66,0-0.98,0.46-0.98,1.39c0,0.03,0.01,0.1,0.01,0.23h-0.73c0-0.08-0.01-0.16-0.01-0.24
		c0-1.33,0.65-2.05,1.75-2.05c1.08,0,1.75,0.67,1.75,1.85c0,0.55-0.1,0.99-0.38,1.4c-0.24,0.38-0.67,0.68-1.14,1.07
		c-0.8,0.67-1.25,1.19-1.27,1.81h2.84v0.69h-3.6C411.35,316.46,411.35,316.38,411.35,316.29z"/>
	<path d="M417.64,309.74c0.67,0,1.13,0.29,1.46,0.89c0.3,0.53,0.37,1.38,0.37,2.58c0,2.37-0.44,3.47-1.8,3.47
		c-1.44,0-1.85-1.11-1.85-3.48C415.81,310.85,416.22,309.74,417.64,309.74z M417.65,316.02c0.93,0,1.04-0.93,1.04-2.84
		c0-1.9-0.17-2.79-1.04-2.79c-0.9,0-1.04,0.87-1.04,2.78C416.59,315.13,416.78,316.02,417.65,316.02z"/>
	<path d="M420.99,314.53c0,0.04,0,0.07,0,0.11c0,0.93,0.33,1.39,1.04,1.39c0.74,0,1.13-0.47,1.13-1.38s-0.43-1.32-1.34-1.32
		c-0.08,0-0.15,0-0.23,0.01v-0.62c0.05,0,0.11,0,0.15,0c0.86,0,1.23-0.36,1.23-1.2c0-0.72-0.37-1.13-0.97-1.13
		c-0.6,0-0.91,0.42-0.91,1.25c0,0.04,0,0.07,0,0.11h-0.72c0-0.04,0-0.06,0-0.1c0-1.21,0.64-1.91,1.65-1.91c1.04,0,1.7,0.64,1.7,1.69
		c0,0.85-0.39,1.41-0.95,1.52c0.79,0.14,1.17,0.68,1.17,1.66c0,1.31-0.69,2.07-1.9,2.07c-1.16,0-1.78-0.73-1.78-2.09
		c0-0.03,0-0.05,0-0.06H420.99z"/>
	<path d="M426.6,309.74c0.67,0,1.13,0.29,1.46,0.89c0.3,0.53,0.37,1.38,0.37,2.58c0,2.37-0.44,3.47-1.8,3.47
		c-1.44,0-1.85-1.11-1.85-3.48C424.77,310.85,425.19,309.74,426.6,309.74z M426.61,316.02c0.93,0,1.04-0.93,1.04-2.84
		c0-1.9-0.17-2.79-1.04-2.79c-0.9,0-1.04,0.87-1.04,2.78C425.56,315.13,425.75,316.02,426.61,316.02z"/>
</g>
<g>
	<rect x="440.76" y="309.78" class="st8" width="25.29" height="9.29"/>
	<path d="M444.88,316.29c0-0.89,0.39-1.66,1.18-2.37c0.52-0.47,0.96-0.83,1.24-1.16c0.25-0.3,0.35-0.66,0.35-1.15
		c0-0.79-0.37-1.21-1-1.21c-0.66,0-0.98,0.46-0.98,1.39c0,0.03,0.01,0.1,0.01,0.23h-0.73c0-0.08-0.01-0.16-0.01-0.24
		c0-1.33,0.65-2.05,1.75-2.05c1.08,0,1.75,0.67,1.75,1.85c0,0.55-0.1,0.99-0.38,1.4c-0.24,0.38-0.67,0.68-1.14,1.07
		c-0.8,0.67-1.25,1.19-1.27,1.81h2.84v0.69h-3.6C444.88,316.46,444.88,316.38,444.88,316.29z"/>
	<path d="M451.17,309.74c0.67,0,1.13,0.29,1.46,0.89c0.3,0.53,0.37,1.38,0.37,2.58c0,2.37-0.44,3.47-1.8,3.47
		c-1.44,0-1.85-1.11-1.85-3.48C449.34,310.85,449.75,309.74,451.17,309.74z M451.17,316.02c0.93,0,1.04-0.93,1.04-2.84
		c0-1.9-0.17-2.79-1.04-2.79c-0.9,0-1.04,0.87-1.04,2.78C450.12,315.13,450.31,316.02,451.17,316.02z"/>
	<path d="M454.51,314.53c0,0.04,0,0.07,0,0.11c0,0.93,0.33,1.39,1.04,1.39c0.74,0,1.13-0.47,1.13-1.38s-0.43-1.32-1.34-1.32
		c-0.08,0-0.15,0-0.23,0.01v-0.62c0.05,0,0.11,0,0.15,0c0.86,0,1.23-0.36,1.23-1.2c0-0.72-0.37-1.13-0.97-1.13
		c-0.6,0-0.91,0.42-0.91,1.25c0,0.04,0,0.07,0,0.11h-0.72c0-0.04,0-0.06,0-0.1c0-1.21,0.64-1.91,1.65-1.91c1.04,0,1.7,0.64,1.7,1.69
		c0,0.85-0.39,1.41-0.95,1.52c0.79,0.14,1.17,0.68,1.17,1.66c0,1.31-0.69,2.07-1.9,2.07c-1.16,0-1.78-0.73-1.78-2.09
		c0-0.03,0-0.05,0-0.06H454.51z"/>
	<path d="M459.01,314.76c0,0.02,0,0.04,0,0.05c0,0.77,0.37,1.2,1.01,1.2c0.7,0,1.09-0.57,1.09-1.65c0-1.07-0.37-1.61-1.11-1.61
		c-0.49,0-0.83,0.23-0.95,0.63l-0.64-0.05l0.37-3.48h2.85v0.68h-2.27l-0.24,2.02c0.13-0.28,0.53-0.49,1.06-0.49
		c1.03,0,1.71,0.79,1.71,2.2c0,1.54-0.69,2.41-1.86,2.41c-1.13,0-1.75-0.67-1.76-1.92H459.01z"/>
</g>
<g>
	<rect x="474.29" y="309.78" class="st8" width="25.29" height="9.29"/>
	<path d="M478.4,316.29c0-0.89,0.39-1.66,1.18-2.37c0.52-0.47,0.96-0.83,1.24-1.16c0.25-0.3,0.35-0.66,0.35-1.15
		c0-0.79-0.37-1.21-1-1.21c-0.66,0-0.98,0.46-0.98,1.39c0,0.03,0.01,0.1,0.01,0.23h-0.73c0-0.08-0.01-0.16-0.01-0.24
		c0-1.33,0.65-2.05,1.75-2.05c1.08,0,1.75,0.67,1.75,1.85c0,0.55-0.1,0.99-0.38,1.4c-0.24,0.38-0.67,0.68-1.14,1.07
		c-0.8,0.67-1.25,1.19-1.27,1.81h2.84v0.69h-3.6C478.4,316.46,478.4,316.38,478.4,316.29z"/>
	<path d="M484.69,309.74c0.67,0,1.13,0.29,1.46,0.89c0.3,0.53,0.37,1.38,0.37,2.58c0,2.37-0.44,3.47-1.8,3.47
		c-1.44,0-1.85-1.11-1.85-3.48C482.87,310.85,483.28,309.74,484.69,309.74z M484.7,316.02c0.93,0,1.04-0.93,1.04-2.84
		c0-1.9-0.17-2.79-1.04-2.79c-0.9,0-1.04,0.87-1.04,2.78C483.65,315.13,483.84,316.02,484.7,316.02z"/>
	<path d="M489.66,314.82h-2.45v-0.66l2.51-4.42h0.66v4.43h0.63v0.65h-0.63v1.73h-0.72V314.82z M489.66,314.17l0.08-3.47l-1.91,3.47
		H489.66z"/>
	<path d="M493.66,309.74c0.67,0,1.13,0.29,1.46,0.89c0.3,0.53,0.37,1.38,0.37,2.58c0,2.37-0.44,3.47-1.8,3.47
		c-1.44,0-1.85-1.11-1.85-3.48C491.83,310.85,492.25,309.74,493.66,309.74z M493.67,316.02c0.93,0,1.04-0.93,1.04-2.84
		c0-1.9-0.17-2.79-1.04-2.79c-0.9,0-1.04,0.87-1.04,2.78C492.61,315.13,492.8,316.02,493.67,316.02z"/>
</g>
<g>
	<rect x="43" y="328.01" class="st8" width="452.9" height="8.19"/>
	<path class="st9" d="M240.22,328h2.54c1.98,0,2.95,1.05,2.95,3.24c0,1.21-0.38,2.12-1.05,2.66c-0.63,0.5-1.33,0.58-2.26,0.58h-2.18
		V328z M242.6,333.31c1.23,0,1.76-0.6,1.76-2.06c0-1.44-0.5-2.11-1.59-2.11h-1.23v4.17H242.6z"/>
	<path class="st9" d="M247.85,334.65c-0.92,0-1.45-0.54-1.45-1.52c0-0.94,0.5-1.35,1.62-1.52c0.99-0.15,1.33-0.08,1.33-0.54
		c0-0.4-0.23-0.54-0.78-0.54c-0.52,0-0.8,0.22-0.8,0.59c0,0.03,0,0.04,0,0.07h-1.2c0-0.03,0-0.06,0-0.09c0-0.97,0.72-1.58,1.95-1.58
		c1.35,0,2.07,0.49,2.07,1.35v2.72c0,0.35,0.05,0.56,0.27,0.67v0.22h-1.33c-0.09-0.17-0.14-0.37-0.14-0.59
		C249.07,334.38,248.54,334.65,247.85,334.65z M248.23,332.45c-0.41,0.12-0.6,0.27-0.6,0.64c0,0.35,0.24,0.58,0.63,0.58
		c0.69,0,1.12-0.41,1.12-1.09v-0.45C248.89,332.35,248.47,332.38,248.23,332.45z"/>
	<path class="st9" d="M253.11,334.54c-1.05,0-1.28-0.36-1.28-1.36v-2.58h-0.63v-0.9h0.63v-1.31h1.27v1.31h0.74v0.9h-0.74v2.65
		c0,0.25,0.08,0.31,0.42,0.31h0.31v0.96C253.48,334.52,253.24,334.54,253.11,334.54z"/>
	<path class="st9" d="M258.8,333.03c-0.26,1-1.08,1.61-2.21,1.61c-1.36,0-2.25-0.97-2.25-2.58c0-1.57,0.85-2.53,2.23-2.53
		c1.46,0,2.3,0.92,2.3,2.57c0,0.11,0,0.22-0.01,0.33h-3.2c0.04,0.75,0.37,1.13,0.99,1.13c0.43,0,0.71-0.16,0.87-0.53H258.8z
		 M257.54,331.59c-0.02-0.65-0.35-0.99-0.95-0.99c-0.55,0-0.88,0.34-0.94,0.99H257.54z"/>
	<path class="st9" d="M263.75,332.18c0,1.5,0.39,2.85,1.2,4.18h-0.93c-1.04-1.42-1.57-2.86-1.57-4.18c0-1.31,0.52-2.75,1.57-4.18
		h0.93C264.14,329.33,263.75,330.68,263.75,332.18z"/>
	<path class="st9" d="M266.49,332.79c0.05,0.55,0.39,0.86,0.94,0.86c0.68,0,1.05-0.41,1.05-1.15c0-0.69-0.39-1.12-1.04-1.12
		c-0.36,0-0.64,0.14-0.83,0.43l-1.13-0.06l0.41-3.38h3.62v1.06h-2.73l-0.16,1.26c0.26-0.21,0.61-0.32,1.07-0.32
		c1.26,0,2.1,0.84,2.1,2.07c0,1.35-0.92,2.22-2.35,2.22c-1.31,0-2.11-0.71-2.17-1.87H266.49z"/>
	<path class="st9" d="M274.92,334.48v-2.41l-2.35-4.06h1.63l1.39,2.79l1.28-2.79h1.52l-2.13,4.06v2.41H274.92z"/>
	<path class="st9" d="M282.23,333.03c-0.26,1-1.08,1.61-2.21,1.61c-1.36,0-2.25-0.97-2.25-2.58c0-1.57,0.85-2.53,2.23-2.53
		c1.46,0,2.3,0.92,2.3,2.57c0,0.11,0,0.22-0.01,0.33h-3.2c0.04,0.75,0.37,1.13,0.99,1.13c0.43,0,0.71-0.16,0.87-0.53H282.23z
		 M280.97,331.59c-0.02-0.65-0.35-0.99-0.95-0.99c-0.55,0-0.88,0.34-0.94,0.99H280.97z"/>
	<path class="st9" d="M284.34,334.65c-0.92,0-1.45-0.54-1.45-1.52c0-0.94,0.5-1.35,1.62-1.52c0.99-0.15,1.33-0.08,1.33-0.54
		c0-0.4-0.23-0.54-0.78-0.54c-0.52,0-0.8,0.22-0.8,0.59c0,0.03,0,0.04,0,0.07h-1.2c0-0.03,0-0.06,0-0.09c0-0.97,0.72-1.58,1.95-1.58
		c1.35,0,2.07,0.49,2.07,1.35v2.72c0,0.35,0.05,0.56,0.27,0.67v0.22h-1.33c-0.09-0.17-0.14-0.37-0.14-0.59
		C285.56,334.38,285.03,334.65,284.34,334.65z M284.71,332.45c-0.41,0.12-0.6,0.27-0.6,0.64c0,0.35,0.24,0.58,0.63,0.58
		c0.69,0,1.12-0.41,1.12-1.09v-0.45C285.37,332.35,284.96,332.38,284.71,332.45z"/>
	<path class="st9" d="M288.2,329.7h1.19v0.82c0.33-0.66,0.77-0.95,1.38-0.95c0.06,0,0.13,0,0.19,0.01v1.3h-0.42
		c-0.69,0-1.05,0.36-1.05,1.08v2.53h-1.28V329.7z"/>
	<path class="st9" d="M292.66,332.92c0.02,0.49,0.34,0.72,1,0.72c0.51,0,0.78-0.18,0.78-0.48c0-0.41-0.41-0.39-1.26-0.6
		c-1.13-0.29-1.66-0.63-1.66-1.44c0-0.96,0.74-1.59,1.96-1.59c1.29,0,2.04,0.6,2.09,1.63h-1.24c-0.02-0.41-0.32-0.64-0.84-0.64
		c-0.49,0-0.72,0.14-0.72,0.44c0,0.33,0.4,0.37,1.31,0.58c1.11,0.26,1.65,0.57,1.65,1.43c0,1.08-0.77,1.67-2.24,1.67
		c-1.33,0-2.11-0.64-2.11-1.67c0-0.02,0-0.04,0-0.05H292.66z"/>
	<path class="st9" d="M297.04,328c1.04,1.42,1.56,2.86,1.56,4.18c0,1.31-0.51,2.75-1.56,4.18h-0.94c0.81-1.32,1.21-2.67,1.21-4.18
		c0-1.5-0.4-2.85-1.21-4.18H297.04z"/>
</g>
<g>
	<rect x="10.16" y="8.36" class="st8" width="13.33" height="288.49"/>
	<path class="st9" d="M16.81,250.17c0,1.91-1.24,3.03-3.41,3.03c-2.21,0-3.41-1.12-3.41-3.15c0-1.67,0.86-2.66,2.31-2.75v1.31
		c-0.73,0.11-1.13,0.6-1.13,1.43c0,1.17,0.77,1.79,2.22,1.79c1.42,0,2.21-0.64,2.21-1.75c0-0.81-0.42-1.34-1.2-1.49v-1.3
		C15.86,247.4,16.81,248.5,16.81,250.17z"/>
	<path class="st9" d="M16.8,245.15c0,0.92-0.54,1.45-1.52,1.45c-0.94,0-1.35-0.5-1.52-1.62c-0.15-0.99-0.08-1.33-0.54-1.33
		c-0.4,0-0.54,0.23-0.54,0.78c0,0.52,0.22,0.8,0.59,0.8c0.03,0,0.04,0,0.07,0v1.2c-0.03,0-0.06,0-0.09,0
		c-0.97,0-1.58-0.72-1.58-1.95c0-1.35,0.49-2.07,1.35-2.07h2.72c0.35,0,0.56-0.05,0.67-0.27h0.22v1.33
		c-0.17,0.09-0.37,0.13-0.59,0.14C16.53,243.92,16.8,244.45,16.8,245.15z M14.6,244.77c0.12,0.41,0.27,0.6,0.64,0.6
		c0.35,0,0.58-0.24,0.58-0.63c0-0.69-0.41-1.12-1.09-1.12h-0.45C14.5,244.11,14.53,244.53,14.6,244.77z"/>
	<path class="st9" d="M11.85,241.29v-1.25h0.57c-0.46-0.36-0.69-0.85-0.69-1.45c0-1.05,0.55-1.58,1.65-1.58h3.26v1.28h-2.89
		c-0.65,0-0.95,0.19-0.95,0.74c0,0.59,0.38,0.98,1.01,0.98h2.84v1.28H11.85z"/>
	<path class="st9" d="M14.83,231.76c1.22,0.11,1.96,0.95,1.96,2.17c0,1.38-0.95,2.22-2.56,2.22c-1.6,0-2.56-0.86-2.56-2.27
		c0-1.24,0.7-2.03,1.86-2.12v1.27c-0.5,0.07-0.78,0.37-0.78,0.84c0,0.64,0.5,0.95,1.49,0.95c0.93,0,1.43-0.34,1.43-0.95
		c0-0.48-0.29-0.77-0.86-0.86V231.76z"/>
	<path class="st9" d="M15.18,226.73c1,0.26,1.61,1.08,1.61,2.21c0,1.36-0.97,2.25-2.58,2.25c-1.57,0-2.53-0.86-2.53-2.23
		c0-1.46,0.92-2.3,2.57-2.3c0.11,0,0.22,0,0.33,0.01v3.2c0.75-0.04,1.13-0.37,1.13-0.99c0-0.43-0.16-0.71-0.53-0.87V226.73z
		 M13.74,227.99c-0.65,0.02-0.99,0.35-0.99,0.95c0,0.55,0.34,0.88,0.99,0.94V227.99z"/>
	<path class="st9" d="M11.85,225.83v-1.19h0.82c-0.66-0.33-0.95-0.76-0.95-1.38c0-0.06,0-0.12,0.01-0.19h1.3v0.42
		c0,0.69,0.36,1.05,1.08,1.05h2.53v1.28H11.85z"/>
	<path class="st9" d="M16.63,218.37v1.33h-6.47v-2.88c0-1.37,0.72-2.07,2.08-2.07c1.33,0,2.09,0.7,2.09,1.98v1.64H16.63z
		 M13.15,217.08c0-0.68-0.27-1-0.94-1c-0.61,0-0.94,0.31-0.94,0.93v1.37h1.87V217.08z"/>
	<path class="st9" d="M11.85,213.81v-1.19h0.82c-0.66-0.33-0.95-0.77-0.95-1.38c0-0.06,0-0.13,0.01-0.19h1.3v0.42
		c0,0.69,0.36,1.05,1.08,1.05h2.53v1.28H11.85z"/>
	<path class="st9" d="M15.18,206.13c1,0.26,1.61,1.08,1.61,2.21c0,1.36-0.97,2.25-2.58,2.25c-1.57,0-2.53-0.86-2.53-2.23
		c0-1.46,0.92-2.3,2.57-2.3c0.11,0,0.22,0,0.33,0.01v3.2c0.75-0.04,1.13-0.37,1.13-0.99c0-0.43-0.16-0.71-0.53-0.87V206.13z
		 M13.74,207.39c-0.65,0.02-0.99,0.35-0.99,0.95c0,0.55,0.34,0.88,0.99,0.94V207.39z"/>
	<path class="st9" d="M11.85,205.76v-1.41l3.43-0.98l-3.43-0.99v-1.35l4.78,1.71v1.31L11.85,205.76z"/>
	<path class="st9" d="M16.8,199.26c0,0.92-0.54,1.45-1.52,1.45c-0.94,0-1.35-0.5-1.52-1.62c-0.15-0.99-0.08-1.33-0.54-1.33
		c-0.4,0-0.54,0.23-0.54,0.78c0,0.52,0.22,0.8,0.59,0.8c0.03,0,0.04,0,0.07,0v1.2c-0.03,0-0.06,0-0.09,0
		c-0.97,0-1.58-0.72-1.58-1.95c0-1.35,0.49-2.07,1.35-2.07h2.72c0.35,0,0.56-0.05,0.67-0.27h0.22v1.33
		c-0.17,0.09-0.37,0.13-0.59,0.14C16.53,198.03,16.8,198.56,16.8,199.26z M14.6,198.88c0.12,0.41,0.27,0.6,0.64,0.6
		c0.35,0,0.58-0.24,0.58-0.63c0-0.69-0.41-1.12-1.09-1.12h-0.45C14.5,198.22,14.53,198.64,14.6,198.88z"/>
	<path class="st9" d="M10.16,195.35v-1.28h6.47v1.28H10.16z"/>
	<path class="st9" d="M15.18,188.7c1,0.26,1.61,1.08,1.61,2.21c0,1.36-0.97,2.25-2.58,2.25c-1.57,0-2.53-0.86-2.53-2.23
		c0-1.46,0.92-2.3,2.57-2.3c0.11,0,0.22,0,0.33,0.01v3.2c0.75-0.04,1.13-0.37,1.13-0.99c0-0.43-0.16-0.71-0.53-0.87V188.7z
		 M13.74,189.96c-0.65,0.02-0.99,0.35-0.99,0.95c0,0.55,0.34,0.88,0.99,0.94V189.96z"/>
	<path class="st9" d="M11.85,187.79v-1.25h0.57c-0.46-0.36-0.69-0.85-0.69-1.45c0-1.05,0.55-1.58,1.65-1.58h3.26v1.28h-2.89
		c-0.65,0-0.95,0.19-0.95,0.74c0,0.59,0.38,0.98,1.01,0.98h2.84v1.28H11.85z"/>
	<path class="st9" d="M14.83,178.27c1.22,0.11,1.96,0.95,1.96,2.17c0,1.38-0.95,2.22-2.56,2.22c-1.6,0-2.56-0.86-2.56-2.27
		c0-1.24,0.7-2.03,1.86-2.12v1.27c-0.5,0.07-0.78,0.37-0.78,0.84c0,0.64,0.5,0.95,1.49,0.95c0.93,0,1.43-0.34,1.43-0.95
		c0-0.48-0.29-0.77-0.86-0.86V178.27z"/>
	<path class="st9" d="M15.18,173.24c1,0.26,1.61,1.08,1.61,2.21c0,1.36-0.97,2.25-2.58,2.25c-1.57,0-2.53-0.86-2.53-2.23
		c0-1.46,0.92-2.3,2.57-2.3c0.11,0,0.22,0,0.33,0.01v3.2c0.75-0.04,1.13-0.37,1.13-0.99c0-0.43-0.16-0.71-0.53-0.87V173.24z
		 M13.74,174.5c-0.65,0.02-0.99,0.35-0.99,0.95c0,0.55,0.34,0.88,0.99,0.94V174.5z"/>
	<path class="st9" d="M10.16,169.75v-1.28h1.16v1.28H10.16z M11.85,169.75v-1.28h4.78v1.28H11.85z"/>
	<path class="st9" d="M11.85,167.33v-1.25h0.57c-0.46-0.36-0.69-0.85-0.69-1.45c0-1.05,0.55-1.58,1.65-1.58h3.26v1.28h-2.89
		c-0.65,0-0.95,0.19-0.95,0.74c0,0.59,0.38,0.98,1.01,0.98h2.84v1.28H11.85z"/>
	<path class="st9" d="M10.14,157.98h4.06c0.97,0,1.44-0.36,1.44-1.25c0-0.9-0.46-1.26-1.44-1.26h-4.06v-1.33h4.2
		c1.6,0,2.47,0.93,2.47,2.58c0,1.67-0.86,2.6-2.47,2.6h-4.2V157.98z"/>
	<path class="st9" d="M15.31,153.22v-1.32h1.32v1.32H15.31z"/>
	<path class="st9" d="M14.63,149.6c0.72-0.1,1.04-0.58,1.04-1.48c0-0.78-0.28-1.17-0.82-1.17c-0.59,0-0.71,0.54-0.98,1.73
		c-0.12,0.52-0.21,1.01-0.48,1.43c-0.29,0.46-0.79,0.7-1.47,0.7c-1.25,0-1.95-0.86-1.95-2.49c0-1.52,0.76-2.4,2.05-2.45v1.28
		c-0.63,0.04-0.96,0.49-0.96,1.29c0,0.7,0.29,1.09,0.78,1.09c0.61,0,0.61-0.5,0.88-1.57c0.15-0.61,0.28-1.12,0.5-1.52
		c0.3-0.53,0.78-0.79,1.45-0.79c1.33,0,2.12,0.93,2.12,2.6c0,1.65-0.8,2.59-2.18,2.66V149.6z"/>
	<path class="st9" d="M15.31,144.66v-1.32h1.32v1.32H15.31z"/>
	<path class="st9" d="M16.63,138.17v1.33h-6.47v-2.88c0-1.37,0.72-2.07,2.08-2.07c1.33,0,2.09,0.7,2.09,1.98v1.64H16.63z
		 M13.15,136.87c0-0.68-0.27-1-0.94-1c-0.61,0-0.94,0.31-0.94,0.93v1.37h1.87V136.87z"/>
	<path class="st9" d="M11.68,131.59c0-1.5,0.96-2.42,2.56-2.42c1.59,0,2.56,0.92,2.56,2.42s-0.96,2.42-2.56,2.42
		C12.64,134.01,11.68,133.09,11.68,131.59z M15.72,131.59c0-0.71-0.53-1.12-1.49-1.12c-0.95,0-1.48,0.4-1.48,1.12
		s0.52,1.13,1.48,1.13C15.19,132.72,15.72,132.3,15.72,131.59z"/>
	<path class="st9" d="M11.85,128.27v-1.22h0.65c-0.56-0.37-0.81-0.8-0.81-1.42c0-1.16,1-1.98,2.53-1.98c1.58,0,2.57,0.85,2.57,1.96
		c0,0.61-0.26,1.1-0.76,1.41h2.51v1.24H11.85z M12.79,125.98c0,0.68,0.5,1.04,1.49,1.04c0.91,0,1.41-0.4,1.41-1.07
		c0-0.63-0.52-1.04-1.41-1.04C13.3,124.92,12.79,125.3,12.79,125.98z"/>
	<path class="st9" d="M16.63,118.52v1.25h-0.57c0.46,0.36,0.69,0.85,0.69,1.45c0,1.05-0.55,1.58-1.65,1.58h-3.26v-1.28h2.89
		c0.65,0,0.95-0.19,0.95-0.74c0-0.59-0.38-0.98-1.01-0.98h-2.83v-1.28H16.63z"/>
	<path class="st9" d="M10.16,117.36v-1.28h6.47v1.28H10.16z"/>
	<path class="st9" d="M16.8,113.74c0,0.92-0.54,1.45-1.52,1.45c-0.94,0-1.35-0.5-1.52-1.62c-0.15-0.99-0.08-1.33-0.54-1.33
		c-0.4,0-0.54,0.23-0.54,0.78c0,0.52,0.22,0.8,0.59,0.8c0.03,0,0.04,0,0.07,0v1.2c-0.03,0-0.06,0-0.09,0
		c-0.97,0-1.58-0.72-1.58-1.95c0-1.35,0.49-2.07,1.35-2.07h2.72c0.35,0,0.56-0.05,0.67-0.27h0.22v1.33
		c-0.17,0.09-0.37,0.13-0.59,0.14C16.53,112.51,16.8,113.04,16.8,113.74z M14.6,113.36c0.12,0.41,0.27,0.6,0.64,0.6
		c0.35,0,0.58-0.24,0.58-0.63c0-0.69-0.41-1.12-1.09-1.12h-0.45C14.5,112.7,14.53,113.11,14.6,113.36z"/>
	<path class="st9" d="M16.69,108.48c0,1.05-0.36,1.28-1.36,1.28h-2.58v0.63h-0.9v-0.63h-1.31v-1.27h1.31v-0.74h0.9v0.74h2.65
		c0.25,0,0.31-0.08,0.31-0.42v-0.31h0.96C16.67,108.1,16.69,108.34,16.69,108.48z"/>
	<path class="st9" d="M10.16,106.99v-1.28h1.16v1.28H10.16z M11.85,106.99v-1.28h4.78v1.28H11.85z"/>
	<path class="st9" d="M11.68,102.39c0-1.5,0.96-2.42,2.56-2.42c1.59,0,2.56,0.92,2.56,2.42s-0.96,2.42-2.56,2.42
		C12.64,104.81,11.68,103.89,11.68,102.39z M15.72,102.39c0-0.71-0.53-1.12-1.49-1.12c-0.95,0-1.48,0.4-1.48,1.12
		s0.52,1.13,1.48,1.13C15.19,103.51,15.72,103.1,15.72,102.39z"/>
	<path class="st9" d="M11.85,99.09v-1.25h0.57c-0.46-0.36-0.69-0.85-0.69-1.45c0-1.05,0.55-1.58,1.65-1.58h3.26v1.28h-2.89
		c-0.65,0-0.95,0.19-0.95,0.74c0,0.59,0.38,0.98,1.01,0.98h2.84v1.28H11.85z"/>
	<path class="st9" d="M14.33,89.67c1.5,0,2.85-0.39,4.18-1.2v0.93c-1.42,1.04-2.86,1.57-4.18,1.57c-1.31,0-2.75-0.52-4.18-1.57
		v-0.93C11.48,89.28,12.83,89.67,14.33,89.67z"/>
	<path class="st9" d="M10.16,87.73v-1.97l4.92-1.29l-4.92-1.27v-1.98h6.47v1.25h-5.22l5.22,1.31v1.36l-5.22,1.33h5.22v1.25H10.16z"
		/>
	<path class="st9" d="M10.16,79.96v-1.28h1.16v1.28H10.16z M11.85,79.96v-1.28h4.78v1.28H11.85z"/>
	<path class="st9" d="M10.16,77.49v-1.28h6.47v1.28H10.16z"/>
	<path class="st9" d="M10.16,75.02v-1.28h6.47v1.28H10.16z"/>
	<path class="st9" d="M10.16,72.56v-1.28h1.16v1.28H10.16z M11.85,72.56v-1.28h4.78v1.28H11.85z"/>
	<path class="st9" d="M11.68,67.96c0-1.5,0.96-2.42,2.56-2.42c1.59,0,2.56,0.92,2.56,2.42s-0.96,2.42-2.56,2.42
		C12.64,70.38,11.68,69.46,11.68,67.96z M15.72,67.96c0-0.71-0.53-1.12-1.49-1.12c-0.95,0-1.48,0.4-1.48,1.12s0.52,1.13,1.48,1.13
		C15.19,69.09,15.72,68.67,15.72,67.96z"/>
	<path class="st9" d="M11.85,64.67v-1.25h0.57c-0.46-0.36-0.69-0.85-0.69-1.45c0-1.05,0.55-1.58,1.65-1.58h3.26v1.28h-2.89
		c-0.65,0-0.95,0.19-0.95,0.74c0,0.59,0.38,0.98,1.01,0.98h2.84v1.28H11.85z"/>
	<path class="st9" d="M15.07,58.29c0.49-0.02,0.72-0.34,0.72-1c0-0.51-0.18-0.78-0.48-0.78c-0.41,0-0.39,0.41-0.6,1.26
		c-0.29,1.13-0.63,1.66-1.44,1.66c-0.96,0-1.59-0.74-1.59-1.96c0-1.29,0.6-2.04,1.63-2.09v1.24c-0.41,0.02-0.64,0.32-0.64,0.84
		c0,0.49,0.14,0.72,0.44,0.72c0.33,0,0.37-0.4,0.58-1.31c0.26-1.11,0.57-1.65,1.43-1.65c1.08,0,1.67,0.77,1.67,2.24
		c0,1.33-0.64,2.11-1.67,2.11c-0.02,0-0.04,0-0.05,0V58.29z"/>
	<path class="st9" d="M10.16,53.9c1.42-1.04,2.86-1.56,4.18-1.56c1.31,0,2.75,0.51,4.18,1.56v0.94c-1.32-0.81-2.67-1.21-4.18-1.21
		c-1.5,0-2.85,0.4-4.18,1.21V53.9z"/>
</g>
<g>
	<rect x="27.55" y="293.52" class="st8" width="15.39" height="9.29"/>
	<path d="M40.7,293.48c0.67,0,1.13,0.29,1.46,0.89c0.3,0.53,0.37,1.38,0.37,2.58c0,2.37-0.44,3.47-1.8,3.47
		c-1.44,0-1.85-1.11-1.85-3.48C38.87,294.59,39.28,293.48,40.7,293.48z M40.7,299.77c0.93,0,1.04-0.93,1.04-2.84
		c0-1.9-0.17-2.79-1.04-2.79c-0.9,0-1.04,0.87-1.04,2.78C39.65,298.88,39.84,299.77,40.7,299.77z"/>
</g>
<g>
	<rect x="27.55" y="245.26" class="st8" width="15.39" height="9.29"/>
	<path d="M39.58,250.25c0,0.02,0,0.04,0,0.05c0,0.77,0.37,1.2,1.01,1.2c0.7,0,1.09-0.57,1.09-1.65c0-1.07-0.37-1.61-1.11-1.61
		c-0.49,0-0.83,0.23-0.95,0.63l-0.64-0.05l0.37-3.48h2.85v0.68h-2.27l-0.24,2.02c0.13-0.28,0.53-0.49,1.06-0.49
		c1.03,0,1.71,0.79,1.71,2.2c0,1.54-0.69,2.41-1.86,2.41c-1.13,0-1.75-0.67-1.76-1.92H39.58z"/>
</g>
<g>
	<rect x="27.55" y="197" class="st8" width="15.39" height="9.29"/>
	<path d="M36.09,198.79h-1.44v-0.58c0.04,0,0.06,0,0.09,0c0.96,0,1.44-0.41,1.49-1.26h0.59v6.82h-0.73V198.79z"/>
	<path d="M40.7,196.97c0.67,0,1.13,0.29,1.46,0.89c0.3,0.53,0.37,1.38,0.37,2.58c0,2.37-0.44,3.47-1.8,3.47
		c-1.44,0-1.85-1.11-1.85-3.48C38.87,198.07,39.28,196.97,40.7,196.97z M40.7,203.25c0.93,0,1.04-0.93,1.04-2.84
		c0-1.9-0.17-2.79-1.04-2.79c-0.9,0-1.04,0.87-1.04,2.78C39.65,202.36,39.84,203.25,40.7,203.25z"/>
</g>
<g>
	<rect x="27.55" y="148.75" class="st8" width="15.39" height="9.29"/>
	<path d="M36.09,150.54h-1.44v-0.58c0.04,0,0.06,0,0.09,0c0.96,0,1.44-0.41,1.49-1.26h0.59v6.82h-0.73V150.54z"/>
	<path d="M39.58,153.73c0,0.02,0,0.04,0,0.05c0,0.77,0.37,1.2,1.01,1.2c0.7,0,1.09-0.57,1.09-1.65c0-1.07-0.37-1.61-1.11-1.61
		c-0.49,0-0.83,0.23-0.95,0.63l-0.64-0.05l0.37-3.48h2.85v0.68h-2.27l-0.24,2.02c0.13-0.28,0.53-0.49,1.06-0.49
		c1.03,0,1.71,0.79,1.71,2.2c0,1.54-0.69,2.41-1.86,2.41c-1.13,0-1.75-0.67-1.76-1.92H39.58z"/>
</g>
<g>
	<rect x="27.55" y="100.49" class="st8" width="15.39" height="9.29"/>
	<path d="M34.4,106.99c0-0.89,0.39-1.66,1.18-2.37c0.52-0.47,0.95-0.83,1.24-1.16c0.25-0.3,0.35-0.66,0.35-1.15
		c0-0.79-0.37-1.21-1-1.21c-0.66,0-0.98,0.46-0.98,1.39c0,0.03,0.01,0.1,0.01,0.23h-0.73c0-0.08-0.01-0.16-0.01-0.24
		c0-1.33,0.65-2.05,1.75-2.05c1.08,0,1.75,0.67,1.75,1.85c0,0.55-0.1,0.99-0.38,1.4c-0.24,0.38-0.67,0.68-1.14,1.07
		c-0.8,0.67-1.25,1.19-1.27,1.81h2.84v0.69h-3.6C34.4,107.17,34.4,107.08,34.4,106.99z"/>
	<path d="M40.7,100.45c0.67,0,1.13,0.29,1.46,0.89c0.3,0.53,0.37,1.38,0.37,2.58c0,2.37-0.44,3.47-1.8,3.47
		c-1.44,0-1.85-1.11-1.85-3.48C38.87,101.56,39.28,100.45,40.7,100.45z M40.7,106.73c0.93,0,1.04-0.93,1.04-2.84
		c0-1.9-0.17-2.79-1.04-2.79c-0.9,0-1.04,0.87-1.04,2.78C39.65,105.84,39.84,106.73,40.7,106.73z"/>
</g>
<g>
	<rect x="27.55" y="52.23" class="st8" width="15.39" height="9.29"/>
	<path d="M34.4,58.74c0-0.89,0.39-1.66,1.18-2.37c0.52-0.47,0.95-0.83,1.24-1.16c0.25-0.3,0.35-0.66,0.35-1.15
		c0-0.79-0.37-1.21-1-1.21c-0.66,0-0.98,0.46-0.98,1.39c0,0.03,0.01,0.1,0.01,0.23h-0.73c0-0.08-0.01-0.16-0.01-0.24
		c0-1.33,0.65-2.05,1.75-2.05c1.08,0,1.75,0.67,1.75,1.85c0,0.55-0.1,0.99-0.38,1.4c-0.24,0.38-0.67,0.68-1.14,1.07
		c-0.8,0.67-1.25,1.19-1.27,1.81h2.84V59h-3.6C34.4,58.91,34.4,58.83,34.4,58.74z"/>
	<path d="M39.58,57.21c0,0.02,0,0.04,0,0.05c0,0.77,0.37,1.2,1.01,1.2c0.7,0,1.09-0.57,1.09-1.65c0-1.07-0.37-1.61-1.11-1.61
		c-0.49,0-0.83,0.23-0.95,0.63l-0.64-0.05l0.37-3.48h2.85v0.68h-2.27l-0.24,2.02c0.13-0.28,0.53-0.49,1.06-0.49
		c1.03,0,1.71,0.79,1.71,2.2c0,1.54-0.69,2.41-1.86,2.41c-1.13,0-1.75-0.67-1.76-1.92H39.58z"/>
</g>
<g>
	<rect x="27.55" y="3.97" class="st8" width="15.39" height="9.29"/>
	<path d="M35.08,8.72c0,0.04,0,0.07,0,0.11c0,0.93,0.33,1.39,1.04,1.39c0.74,0,1.13-0.47,1.13-1.38s-0.43-1.32-1.34-1.32
		c-0.08,0-0.15,0-0.23,0.01V6.9c0.05,0,0.11,0,0.15,0c0.85,0,1.23-0.36,1.23-1.2c0-0.72-0.37-1.13-0.97-1.13
		c-0.6,0-0.91,0.42-0.91,1.25c0,0.04,0,0.07,0,0.11h-0.72c0-0.04,0-0.06,0-0.1c0-1.21,0.64-1.91,1.65-1.91c1.04,0,1.7,0.64,1.7,1.69
		c0,0.85-0.39,1.41-0.95,1.52c0.79,0.14,1.17,0.68,1.17,1.66c0,1.31-0.69,2.07-1.9,2.07c-1.16,0-1.78-0.73-1.78-2.09
		c0-0.03,0-0.05,0-0.06H35.08z"/>
	<path d="M40.7,3.93c0.67,0,1.13,0.29,1.46,0.89c0.3,0.53,0.37,1.38,0.37,2.58c0,2.37-0.44,3.47-1.8,3.47
		c-1.44,0-1.85-1.11-1.85-3.48C38.87,5.04,39.28,3.93,40.7,3.93z M40.7,10.22c0.93,0,1.04-0.93,1.04-2.84c0-1.9-0.17-2.79-1.04-2.79
		c-0.9,0-1.04,0.87-1.04,2.78C39.65,9.33,39.84,10.22,40.7,10.22z"/>
</g>
<line class="st2" x1="47" y1="296.85" x2="490.9" y2="296.85"/>
<line class="st2" x1="486.94" y1="303.58" x2="486.94" y2="8.36"/>
<line class="st2" x1="51.06" y1="306.58" x2="51.06" y2="8.36"/>
<g class="st10">
	<g>
		<line class="st11" x1="288.95" y1="8.36" x2="288.95" y2="9.86"/>
		<line class="st12" x1="288.95" y1="12.87" x2="288.95" y2="293.85"/>
		<line class="st11" x1="288.95" y1="295.35" x2="288.95" y2="296.85"/>
	</g>
</g>
<g>
	<g>
		<line class="st13" x1="289.21" y1="8.36" x2="289.21" y2="9.86"/>
		<line class="st14" x1="289.21" y1="12.87" x2="289.21" y2="293.85"/>
		<line class="st13" x1="289.21" y1="295.35" x2="289.21" y2="296.85"/>
	</g>
</g>
<g>
	<g>
		<line class="st15" x1="62.51" y1="386.5" x2="62.51" y2="388"/>
		<line class="st16" x1="62.51" y1="392.43" x2="62.51" y2="411.5"/>
		<line class="st15" x1="62.51" y1="413.72" x2="62.51" y2="415.22"/>
	</g>
</g>
<g>
	<rect x="68.74" y="393.14" class="st8" width="146.76" height="17.04"/>
	<path d="M69.61,397.41c0.03,0.87,0.46,1.35,1.12,1.35c0.75,0,1.22-0.45,1.22-1.2c0-0.36-0.11-0.61-0.38-0.83
		c-0.26-0.22-0.64-0.31-1.06-0.49c-0.88-0.37-1.28-0.82-1.28-1.67c0-0.9,0.66-1.54,1.57-1.54c0.93,0,1.51,0.56,1.51,1.5
		c0,0.02,0,0.02,0,0.04h-0.48c-0.04-0.7-0.41-1.08-1-1.08c-0.63,0-1.1,0.46-1.1,1.1c0,0.3,0.09,0.54,0.26,0.74
		c0.24,0.28,0.63,0.4,1.12,0.59c0.94,0.37,1.34,0.81,1.34,1.63c0,1.03-0.63,1.67-1.68,1.67c-1.03,0-1.63-0.64-1.66-1.82H69.61z"/>
	<path d="M73.44,393.15h0.53v0.76h-0.53V393.15z M73.46,394.71h0.49v4.39h-0.49V394.71z"/>
	<path d="M76.3,399.24c-0.91,0-1.34-0.78-1.34-2.33c0-1.57,0.38-2.3,1.32-2.3c0.4,0,0.7,0.18,0.95,0.58v-0.46h0.46v4.09
		c0,1.26-0.31,1.82-1.42,1.82c-0.66,0-1.14-0.41-1.18-1.02h0.47c0.06,0.39,0.34,0.6,0.82,0.6c0.55,0,0.86-0.39,0.86-1.14v-0.34
		C77.02,399.07,76.71,399.24,76.3,399.24z M76.34,395c-0.64,0-0.87,0.62-0.87,1.9c0,1.29,0.26,1.91,0.89,1.91
		c0.67,0,0.88-0.62,0.88-1.89C77.23,395.63,77.02,395,76.34,395z"/>
	<path d="M80.78,396.15c0-0.74-0.06-1.12-0.66-1.12c-0.49,0-0.91,0.39-0.91,0.73v3.35h-0.48v-4.39h0.43v0.48
		c0.3-0.41,0.63-0.59,1.07-0.59c0.75,0,1.03,0.46,1.03,1.39v3.11h-0.48V396.15z"/>
	<path d="M82.38,393.15h0.53v0.76h-0.53V393.15z M82.39,394.71h0.49v4.39h-0.49V394.71z"/>
	<path d="M84.17,395.11h-0.46v-0.39h0.46v-0.58c0-0.7,0.2-1.01,0.8-1.01c0.08,0,0.16,0.01,0.26,0.02v0.4
		c-0.06-0.01-0.11-0.01-0.16-0.01c-0.38,0-0.41,0.2-0.41,0.7v0.49h0.57v0.39h-0.57v4h-0.49V395.11z"/>
	<path d="M85.97,393.15h0.53v0.76h-0.53V393.15z M85.98,394.71h0.49v4.39h-0.49V394.71z"/>
	<path d="M88.78,399.22c-0.89,0-1.29-0.74-1.29-2.3c0-1.56,0.42-2.31,1.33-2.31c0.82,0,1.26,0.64,1.26,1.89v0.37h-2.09v0.25
		c0,1.13,0.26,1.69,0.79,1.69c0.47,0,0.78-0.38,0.8-1.11h0.47C90,398.71,89.55,399.22,88.78,399.22z M89.59,396.48
		c0-0.06,0.01-0.14,0.01-0.19c0-0.83-0.3-1.27-0.78-1.27c-0.53,0-0.82,0.48-0.82,1.42c0,0.02,0,0.02,0,0.04H89.59z"/>
	<path d="M91.21,397.91c0,0.59,0.3,0.9,0.81,0.9c0.5,0,0.81-0.31,0.81-0.81c0-0.61-0.43-0.78-1.12-1.14
		c-0.58-0.3-0.85-0.53-0.85-1.2c0-0.62,0.42-1.06,1.08-1.06c0.78,0,1.19,0.4,1.22,1.22h-0.44c-0.07-0.55-0.3-0.82-0.73-0.82
		c-0.43,0-0.7,0.25-0.7,0.66c0,0.56,0.5,0.76,1.26,1.15c0.49,0.25,0.75,0.67,0.75,1.19c0,0.73-0.5,1.23-1.28,1.23
		c-0.82,0-1.26-0.46-1.26-1.28c0-0.01,0-0.02,0-0.04H91.21z"/>
	<path d="M96.78,399.17c-0.66,0-0.7-0.34-0.7-1.12v-2.94h-0.44v-0.39h0.44v-1.24h0.46v1.24h0.59v0.39h-0.59v2.97
		c0,0.02,0,0.04,0,0.06c0,0.46,0.01,0.65,0.36,0.65c0.06,0,0.14-0.01,0.23-0.02v0.36C97.02,399.16,96.9,399.17,96.78,399.17z"/>
	<path d="M97.82,393.15h0.48v2.01c0.24-0.36,0.61-0.55,1.04-0.55c0.74,0,1.02,0.46,1.02,1.39v3.11h-0.48v-2.96
		c0-0.75-0.09-1.12-0.67-1.12c-0.49,0-0.9,0.39-0.9,0.73v3.35h-0.48V393.15z"/>
	<path d="M102.52,399.22c-0.89,0-1.29-0.74-1.29-2.3c0-1.56,0.42-2.31,1.33-2.31c0.82,0,1.26,0.64,1.26,1.89v0.37h-2.09v0.25
		c0,1.13,0.26,1.69,0.79,1.69c0.47,0,0.78-0.38,0.8-1.11h0.47C103.73,398.71,103.29,399.22,102.52,399.22z M103.33,396.48
		c0-0.06,0.01-0.14,0.01-0.19c0-0.83-0.3-1.27-0.78-1.27c-0.53,0-0.82,0.48-0.82,1.42c0,0.02,0,0.02,0,0.04H103.33z"/>
	<path d="M106.62,400.63c-0.09,0-0.18-0.02-0.3-0.04v-0.41c0.09,0.02,0.17,0.03,0.24,0.03c0.49,0,0.79-0.42,0.79-1.1
		c0-0.18-0.05-0.35-0.09-0.51l-1.02-3.89h0.47l0.91,3.53l0.97-3.53h0.48l-1.32,4.77C107.53,400.29,107.29,400.63,106.62,400.63z"/>
	<path d="M110.9,399.22c-0.89,0-1.29-0.74-1.29-2.3c0-1.56,0.42-2.31,1.33-2.31c0.82,0,1.26,0.64,1.26,1.89v0.37h-2.09v0.25
		c0,1.13,0.26,1.69,0.79,1.69c0.47,0,0.78-0.38,0.8-1.11h0.47C112.11,398.71,111.66,399.22,110.9,399.22z M111.7,396.48
		c0-0.06,0.01-0.14,0.01-0.19c0-0.83-0.3-1.27-0.78-1.27c-0.53,0-0.82,0.48-0.82,1.42c0,0.02,0,0.02,0,0.04H111.7z"/>
	<path d="M115.23,399.16c-0.23,0-0.39-0.12-0.49-0.38c-0.24,0.29-0.57,0.45-0.96,0.45c-0.65,0-1.03-0.46-1.03-1.21
		c0-0.72,0.34-1.06,1.09-1.35c0.59-0.23,0.92-0.23,0.92-0.65v-0.37c0-0.47-0.19-0.67-0.65-0.67c-0.49,0-0.74,0.28-0.75,0.82h-0.46
		c0-0.03,0-0.06,0-0.1c0-0.66,0.47-1.09,1.22-1.09c0.43,0,0.74,0.1,0.92,0.34c0.16,0.2,0.18,0.44,0.18,0.74c0,0.07,0,0.14,0,0.22
		v2.38c0,0.35,0.01,0.49,0.29,0.49c0.02,0,0.03,0,0.05,0v0.34C115.44,399.14,115.33,399.16,115.23,399.16z M113.24,398.02
		c0,0.5,0.25,0.8,0.64,0.8c0.61,0,0.86-0.44,0.86-1.33v-0.73C113.74,397.15,113.24,397.35,113.24,398.02z"/>
	<path d="M116.24,394.71h0.46v0.48c0.2-0.38,0.5-0.54,0.96-0.54c0.02,0,0.06,0,0.09,0v0.47c-0.9,0.03-1.05,0.44-1.05,1.44v2.54
		h-0.46V394.71z"/>
	<path d="M122.42,399.16c-0.23,0-0.39-0.12-0.49-0.38c-0.24,0.29-0.57,0.45-0.96,0.45c-0.65,0-1.03-0.46-1.03-1.21
		c0-0.72,0.34-1.06,1.09-1.35c0.59-0.23,0.92-0.23,0.92-0.65v-0.37c0-0.47-0.19-0.67-0.65-0.67c-0.49,0-0.74,0.28-0.75,0.82h-0.46
		c0-0.03,0-0.06,0-0.1c0-0.66,0.47-1.09,1.22-1.09c0.43,0,0.74,0.1,0.92,0.34c0.16,0.2,0.18,0.44,0.18,0.74c0,0.07,0,0.14,0,0.22
		v2.38c0,0.35,0.01,0.49,0.29,0.49c0.02,0,0.03,0,0.05,0v0.34C122.63,399.14,122.53,399.16,122.42,399.16z M120.43,398.02
		c0,0.5,0.25,0.8,0.64,0.8c0.61,0,0.86-0.44,0.86-1.33v-0.73C120.93,397.15,120.43,397.35,120.43,398.02z"/>
	<path d="M124.23,399.17c-0.66,0-0.7-0.34-0.7-1.12v-2.94h-0.44v-0.39h0.44v-1.24H124v1.24h0.59v0.39H124v2.97c0,0.02,0,0.04,0,0.06
		c0,0.46,0.01,0.65,0.36,0.65c0.06,0,0.14-0.01,0.23-0.02v0.36C124.46,399.16,124.35,399.17,124.23,399.17z"/>
	<path d="M127.22,394.71l0.74,3.49l0.69-3.49h0.5l0.71,3.49l0.73-3.49h0.44l-0.94,4.39h-0.48l-0.7-3.43l-0.7,3.43h-0.5l-0.93-4.39
		H127.22z"/>
	<path d="M131.66,393.15h0.48v2.01c0.24-0.36,0.61-0.55,1.04-0.55c0.74,0,1.02,0.46,1.02,1.39v3.11h-0.48v-2.96
		c0-0.75-0.09-1.12-0.67-1.12c-0.49,0-0.9,0.39-0.9,0.73v3.35h-0.48V393.15z"/>
	<path d="M135.3,393.15h0.53v0.76h-0.53V393.15z M135.32,394.71h0.49v4.39h-0.49V394.71z"/>
	<path d="M138.25,399.22c-0.86,0-1.33-0.78-1.33-2.31c0-1.54,0.46-2.31,1.35-2.31c0.7,0,1.16,0.5,1.2,1.36h-0.46
		c-0.02-0.6-0.33-0.94-0.73-0.94c-0.55,0-0.87,0.65-0.87,1.89c0,1.23,0.34,1.89,0.86,1.89c0.44,0,0.74-0.42,0.78-1.19h0.47
		C139.45,398.67,139.01,399.22,138.25,399.22z"/>
	<path d="M140.34,393.15h0.48v2.01c0.24-0.36,0.61-0.55,1.04-0.55c0.74,0,1.02,0.46,1.02,1.39v3.11h-0.48v-2.96
		c0-0.75-0.09-1.12-0.67-1.12c-0.49,0-0.9,0.39-0.9,0.73v3.35h-0.48V393.15z"/>
	<path d="M146.54,399.17c-0.66,0-0.7-0.34-0.7-1.12v-2.94h-0.44v-0.39h0.44v-1.24h0.46v1.24h0.59v0.39h-0.59v2.97
		c0,0.02,0,0.04,0,0.06c0,0.46,0.01,0.65,0.36,0.65c0.06,0,0.14-0.01,0.23-0.02v0.36C146.78,399.16,146.66,399.17,146.54,399.17z"/>
	<path d="M147.58,393.15h0.48v2.01c0.24-0.36,0.61-0.55,1.04-0.55c0.74,0,1.02,0.46,1.02,1.39v3.11h-0.48v-2.96
		c0-0.75-0.09-1.12-0.67-1.12c-0.49,0-0.9,0.39-0.9,0.73v3.35h-0.48V393.15z"/>
	<path d="M152.28,399.22c-0.89,0-1.29-0.74-1.29-2.3c0-1.56,0.42-2.31,1.33-2.31c0.82,0,1.26,0.64,1.26,1.89v0.37h-2.09v0.25
		c0,1.13,0.26,1.69,0.79,1.69c0.47,0,0.78-0.38,0.8-1.11h0.47C153.49,398.71,153.05,399.22,152.28,399.22z M153.09,396.48
		c0-0.06,0.01-0.14,0.01-0.19c0-0.83-0.3-1.27-0.78-1.27c-0.53,0-0.82,0.48-0.82,1.42c0,0.02,0,0.02,0,0.04H153.09z"/>
	<path d="M156.47,395.11h-0.46v-0.39h0.46v-0.58c0-0.7,0.2-1.01,0.8-1.01c0.08,0,0.16,0.01,0.26,0.02v0.4
		c-0.06-0.01-0.11-0.01-0.16-0.01c-0.38,0-0.41,0.2-0.41,0.7v0.49h0.57v0.39h-0.57v4h-0.49V395.11z"/>
	<path d="M158.27,393.15h0.53v0.76h-0.53V393.15z M158.29,394.71h0.49v4.39h-0.49V394.71z"/>
	<path d="M159.92,394.71h0.46v0.48c0.2-0.38,0.5-0.54,0.96-0.54c0.02,0,0.06,0,0.09,0v0.47c-0.9,0.03-1.05,0.44-1.05,1.44v2.54
		h-0.46V394.71z"/>
	<path d="M162.32,397.91c0,0.59,0.3,0.9,0.81,0.9c0.5,0,0.81-0.31,0.81-0.81c0-0.61-0.43-0.78-1.12-1.14
		c-0.58-0.3-0.85-0.53-0.85-1.2c0-0.62,0.42-1.06,1.08-1.06c0.78,0,1.19,0.4,1.22,1.22h-0.44c-0.07-0.55-0.3-0.82-0.73-0.82
		c-0.43,0-0.7,0.25-0.7,0.66c0,0.56,0.5,0.76,1.26,1.15c0.49,0.25,0.75,0.67,0.75,1.19c0,0.73-0.5,1.23-1.28,1.23
		c-0.82,0-1.26-0.46-1.26-1.28c0-0.01,0-0.02,0-0.04H162.32z"/>
	<path d="M166.02,399.17c-0.66,0-0.7-0.34-0.7-1.12v-2.94h-0.44v-0.39h0.44v-1.24h0.46v1.24h0.59v0.39h-0.59v2.97
		c0,0.02,0,0.04,0,0.06c0,0.46,0.01,0.65,0.36,0.65c0.06,0,0.14-0.01,0.23-0.02v0.36C166.26,399.16,166.14,399.17,166.02,399.17z"/>
	<path d="M168.95,393.15h0.46v1.98c0.22-0.36,0.52-0.54,0.93-0.54c0.91,0,1.34,0.78,1.34,2.33c0,1.57-0.38,2.3-1.32,2.3
		c-0.4,0-0.7-0.18-0.95-0.58v0.46h-0.46V393.15z M170.31,398.82c0.64,0,0.87-0.62,0.87-1.9s-0.26-1.91-0.89-1.91
		c-0.67,0-0.88,0.62-0.88,1.89C169.42,398.19,169.63,398.82,170.31,398.82z"/>
	<path d="M174.73,399.16c-0.23,0-0.39-0.12-0.49-0.38c-0.24,0.29-0.57,0.45-0.96,0.45c-0.65,0-1.03-0.46-1.03-1.21
		c0-0.72,0.34-1.06,1.09-1.35c0.59-0.23,0.92-0.23,0.92-0.65v-0.37c0-0.47-0.19-0.67-0.65-0.67c-0.49,0-0.74,0.28-0.75,0.82h-0.46
		c0-0.03,0-0.06,0-0.1c0-0.66,0.47-1.09,1.22-1.09c0.43,0,0.74,0.1,0.92,0.34c0.16,0.2,0.18,0.44,0.18,0.74c0,0.07,0,0.14,0,0.22
		v2.38c0,0.35,0.01,0.49,0.29,0.49c0.02,0,0.03,0,0.05,0v0.34C174.94,399.14,174.84,399.16,174.73,399.16z M172.74,398.02
		c0,0.5,0.25,0.8,0.64,0.8c0.61,0,0.86-0.44,0.86-1.33v-0.73C173.24,397.15,172.74,397.35,172.74,398.02z"/>
	<path d="M175.76,393.15h0.46v1.98c0.22-0.36,0.52-0.54,0.93-0.54c0.91,0,1.34,0.78,1.34,2.33c0,1.57-0.38,2.3-1.32,2.3
		c-0.4,0-0.7-0.18-0.95-0.58v0.46h-0.46V393.15z M177.12,398.82c0.64,0,0.87-0.62,0.87-1.9s-0.26-1.91-0.89-1.91
		c-0.67,0-0.88,0.62-0.88,1.89C176.22,398.19,176.44,398.82,177.12,398.82z"/>
	<path d="M179.43,400.63c-0.09,0-0.18-0.02-0.3-0.04v-0.41c0.09,0.02,0.17,0.03,0.24,0.03c0.49,0,0.79-0.42,0.79-1.1
		c0-0.18-0.05-0.35-0.09-0.51l-1.02-3.89h0.47l0.91,3.53l0.97-3.53h0.48l-1.32,4.77C180.34,400.29,180.1,400.63,179.43,400.63z"/>
	<path d="M184.43,393.15h0.46v1.98c0.22-0.36,0.52-0.54,0.93-0.54c0.91,0,1.34,0.78,1.34,2.33c0,1.57-0.38,2.3-1.32,2.3
		c-0.4,0-0.7-0.18-0.95-0.58v0.46h-0.46V393.15z M185.79,398.82c0.64,0,0.87-0.62,0.87-1.9s-0.26-1.91-0.89-1.91
		c-0.67,0-0.88,0.62-0.88,1.89C184.9,398.19,185.11,398.82,185.79,398.82z"/>
	<path d="M189.33,394.61c0.94,0,1.41,0.77,1.41,2.31s-0.46,2.3-1.41,2.3c-0.94,0-1.41-0.76-1.41-2.3S188.4,394.61,189.33,394.61z
		 M189.33,398.8c0.59,0,0.91-0.63,0.91-1.88s-0.32-1.88-0.91-1.88c-0.59,0-0.9,0.63-0.9,1.88S188.74,398.8,189.33,398.8z"/>
	<path d="M192.91,394.61c0.94,0,1.41,0.77,1.41,2.31s-0.46,2.3-1.41,2.3c-0.94,0-1.41-0.76-1.41-2.3S191.98,394.61,192.91,394.61z
		 M192.91,398.8c0.59,0,0.91-0.63,0.91-1.88s-0.32-1.88-0.91-1.88c-0.59,0-0.9,0.63-0.9,1.88S192.32,398.8,192.91,398.8z"/>
	<path d="M195.21,394.71h0.43v0.48c0.3-0.4,0.65-0.59,1.09-0.59c0.46,0,0.79,0.22,0.94,0.62c0.3-0.42,0.66-0.62,1.11-0.62
		c0.74,0,1.02,0.46,1.02,1.39v3.11h-0.46v-2.96c0-0.71-0.04-1.11-0.68-1.11c-0.49,0-0.91,0.4-0.91,0.69v3.38h-0.46v-2.96
		c0-0.72-0.04-1.11-0.68-1.11c-0.49,0-0.91,0.4-0.91,0.71v3.36h-0.48V394.71z"/>
	<path d="M201.95,399.22c-0.89,0-1.29-0.74-1.29-2.3c0-1.56,0.42-2.31,1.33-2.31c0.82,0,1.26,0.64,1.26,1.89v0.37h-2.09v0.25
		c0,1.13,0.26,1.69,0.79,1.69c0.47,0,0.78-0.38,0.8-1.11h0.47C203.17,398.71,202.72,399.22,201.95,399.22z M202.76,396.48
		c0-0.06,0.01-0.14,0.01-0.19c0-0.83-0.3-1.27-0.78-1.27c-0.53,0-0.82,0.48-0.82,1.42c0,0.02,0,0.02,0,0.04H202.76z"/>
	<path d="M204.13,394.71h0.46v0.48c0.2-0.38,0.5-0.54,0.96-0.54c0.02,0,0.06,0,0.09,0v0.47c-0.9,0.03-1.05,0.44-1.05,1.44v2.54
		h-0.46V394.71z"/>
	<path d="M206.53,397.91c0,0.59,0.3,0.9,0.81,0.9c0.5,0,0.81-0.31,0.81-0.81c0-0.61-0.43-0.78-1.12-1.14
		c-0.58-0.3-0.85-0.53-0.85-1.2c0-0.62,0.42-1.06,1.08-1.06c0.78,0,1.19,0.4,1.22,1.22h-0.44c-0.07-0.55-0.3-0.82-0.73-0.82
		c-0.43,0-0.7,0.25-0.7,0.66c0,0.56,0.5,0.76,1.26,1.15c0.49,0.25,0.75,0.67,0.75,1.19c0,0.73-0.5,1.23-1.28,1.23
		c-0.82,0-1.26-0.46-1.26-1.28c0-0.01,0-0.02,0-0.04H206.53z"/>
	<path d="M70.53,410.22c-0.77-1.22-1.15-2.48-1.15-3.74c0-1.26,0.38-2.52,1.15-3.73h0.36c-0.67,1.23-1.01,2.48-1.01,3.73
		c0,1.25,0.34,2.51,1.01,3.74H70.53z"/>
	<path d="M72.5,408.77c-0.66,0-0.7-0.34-0.7-1.12v-2.94h-0.44v-0.39h0.44v-1.24h0.46v1.24h0.59v0.39h-0.59v2.97
		c0,0.02,0,0.04,0,0.06c0,0.46,0.01,0.65,0.36,0.65c0.06,0,0.14-0.01,0.23-0.02v0.36C72.73,408.76,72.62,408.77,72.5,408.77z"/>
	<path d="M73.54,402.75h0.48v2.01c0.24-0.36,0.61-0.55,1.04-0.55c0.74,0,1.02,0.46,1.02,1.39v3.11h-0.48v-2.96
		c0-0.75-0.09-1.12-0.67-1.12c-0.49,0-0.9,0.39-0.9,0.73v3.35h-0.48V402.75z"/>
	<path d="M78.34,404.21c0.94,0,1.41,0.77,1.41,2.31s-0.46,2.3-1.41,2.3c-0.94,0-1.41-0.76-1.41-2.3S77.41,404.21,78.34,404.21z
		 M78.34,408.4c0.59,0,0.91-0.63,0.91-1.88s-0.32-1.88-0.91-1.88c-0.59,0-0.9,0.63-0.9,1.88S77.75,408.4,78.34,408.4z"/>
	<path d="M80.89,407.51c0,0.59,0.3,0.9,0.81,0.9c0.5,0,0.81-0.31,0.81-0.81c0-0.61-0.43-0.78-1.12-1.14
		c-0.58-0.3-0.85-0.53-0.85-1.2c0-0.62,0.42-1.06,1.08-1.06c0.78,0,1.19,0.4,1.22,1.22H82.4c-0.07-0.55-0.3-0.82-0.73-0.82
		c-0.43,0-0.7,0.25-0.7,0.66c0,0.56,0.5,0.76,1.26,1.15c0.49,0.25,0.75,0.67,0.75,1.19c0,0.73-0.5,1.23-1.28,1.23
		c-0.82,0-1.26-0.46-1.26-1.28c0-0.01,0-0.02,0-0.04H80.89z"/>
	<path d="M84.96,408.82c-0.89,0-1.29-0.74-1.29-2.3c0-1.56,0.42-2.31,1.33-2.31c0.82,0,1.26,0.64,1.26,1.89v0.37h-2.09v0.25
		c0,1.13,0.26,1.69,0.79,1.69c0.47,0,0.78-0.38,0.8-1.11h0.47C86.17,408.3,85.73,408.82,84.96,408.82z M85.77,406.08
		c0-0.06,0.01-0.14,0.01-0.19c0-0.83-0.3-1.27-0.78-1.27c-0.53,0-0.82,0.48-0.82,1.42c0,0.02,0,0.02,0,0.04H85.77z"/>
	<path d="M89.02,402.75h0.46v1.98c0.22-0.36,0.52-0.54,0.93-0.54c0.91,0,1.34,0.78,1.34,2.33c0,1.57-0.38,2.3-1.32,2.3
		c-0.4,0-0.7-0.18-0.95-0.58v0.46h-0.46V402.75z M90.38,408.42c0.64,0,0.87-0.62,0.87-1.9s-0.26-1.91-0.89-1.91
		c-0.67,0-0.88,0.62-0.88,1.89C89.49,407.79,89.7,408.42,90.38,408.42z"/>
	<path d="M93.93,404.21c0.94,0,1.41,0.77,1.41,2.31s-0.46,2.3-1.41,2.3c-0.94,0-1.41-0.76-1.41-2.3S92.99,404.21,93.93,404.21z
		 M93.93,408.4c0.59,0,0.91-0.63,0.91-1.88s-0.32-1.88-0.91-1.88c-0.59,0-0.9,0.63-0.9,1.88S93.33,408.4,93.93,408.4z"/>
	<path d="M96.22,404.31h0.46v0.48c0.2-0.38,0.5-0.54,0.96-0.54c0.02,0,0.06,0,0.09,0v0.47c-0.9,0.03-1.05,0.44-1.05,1.44v2.54h-0.46
		V404.31z"/>
	<path d="M100.43,405.75c0-0.74-0.06-1.12-0.66-1.12c-0.49,0-0.91,0.39-0.91,0.73v3.35h-0.48v-4.39h0.43v0.48
		c0.3-0.41,0.63-0.59,1.07-0.59c0.75,0,1.03,0.46,1.03,1.39v3.11h-0.48V405.75z"/>
	<path d="M105.06,404.22c-0.3,0.05-0.61,0.07-0.93,0.07c-0.1,0-0.21,0-0.32-0.01v-0.3c0.89-0.03,1.27-0.34,1.36-1.14h0.38v5.87
		h-0.49V404.22z"/>
	<path d="M108.77,406.61c-0.81,0-1.38-0.69-1.38-1.89c0-1.28,0.56-2,1.46-2c1.04,0,1.5,0.9,1.5,2.77c0,2.25-0.48,3.33-1.6,3.33
		c-0.71,0-1.2-0.5-1.22-1.3H108c0.03,0.54,0.34,0.86,0.76,0.86c0.66,0,1.04-0.78,1.06-2.33
		C109.5,406.43,109.17,406.61,108.77,406.61z M107.9,404.73c0,0.96,0.34,1.46,0.94,1.46c0.56,0,0.93-0.46,0.93-1.3
		c0-1.13-0.34-1.73-0.95-1.73C108.25,403.16,107.9,403.7,107.9,404.73z"/>
	<path d="M113.1,407.18h-2.03v-0.43l2.03-3.91h0.51v3.91h0.54v0.43h-0.54v1.53h-0.51V407.18z M113.1,406.75l0.06-3.14l-1.58,3.14
		H113.1z"/>
	<path d="M116.45,404.93c0.81,0,1.38,0.69,1.38,1.89c0,1.28-0.57,2.01-1.47,2.01c-1.04,0-1.5-0.9-1.5-2.77
		c0-2.25,0.47-3.33,1.59-3.33c0.71,0,1.21,0.5,1.23,1.3h-0.46c-0.03-0.54-0.34-0.86-0.76-0.86c-0.66,0-1.04,0.78-1.06,2.33
		C115.72,405.11,116.05,404.93,116.45,404.93z M117.32,406.81c0-0.96-0.34-1.46-0.94-1.46c-0.56,0-0.93,0.46-0.93,1.3
		c0,1.13,0.34,1.73,0.95,1.73C116.97,408.38,117.32,407.84,117.32,406.81z"/>
	<path d="M118.21,406.36h4v0.31h-4V406.36z"/>
	<path d="M124.01,404.22c-0.3,0.05-0.61,0.07-0.93,0.07c-0.1,0-0.21,0-0.32-0.01v-0.3c0.89-0.03,1.27-0.34,1.36-1.14h0.38v5.87
		h-0.49V404.22z"/>
	<path d="M127.72,406.61c-0.81,0-1.38-0.69-1.38-1.89c0-1.28,0.56-2,1.46-2c1.04,0,1.5,0.9,1.5,2.77c0,2.25-0.48,3.33-1.6,3.33
		c-0.71,0-1.2-0.5-1.22-1.3h0.46c0.03,0.54,0.34,0.86,0.76,0.86c0.66,0,1.04-0.78,1.06-2.33
		C128.45,406.43,128.12,406.61,127.72,406.61z M126.85,404.73c0,0.96,0.34,1.46,0.94,1.46c0.56,0,0.93-0.46,0.93-1.3
		c0-1.13-0.34-1.73-0.95-1.73C127.2,403.16,126.85,403.7,126.85,404.73z"/>
	<path d="M131.65,404.93c0.81,0,1.38,0.69,1.38,1.89c0,1.28-0.57,2.01-1.47,2.01c-1.04,0-1.5-0.9-1.5-2.77
		c0-2.25,0.47-3.33,1.59-3.33c0.71,0,1.21,0.5,1.23,1.3h-0.46c-0.03-0.54-0.34-0.86-0.76-0.86c-0.66,0-1.04,0.78-1.06,2.33
		C130.93,405.11,131.25,404.93,131.65,404.93z M132.52,406.81c0-0.96-0.34-1.46-0.94-1.46c-0.56,0-0.93,0.46-0.93,1.3
		c0,1.13,0.34,1.73,0.95,1.73C132.17,408.38,132.52,407.84,132.52,406.81z"/>
	<path d="M135.78,407.18h-2.03v-0.43l2.03-3.91h0.51v3.91h0.54v0.43h-0.54v1.53h-0.51V407.18z M135.78,406.75l0.06-3.14l-1.58,3.14
		H135.78z"/>
	<path d="M138.46,406.48c0-1.26-0.34-2.5-1.01-3.73h0.37c0.77,1.22,1.15,2.47,1.15,3.73c0,1.26-0.38,2.53-1.15,3.74h-0.37
		C138.13,408.99,138.46,407.74,138.46,406.48z"/>
	<path d="M142.78,408.77c-0.66,0-0.7-0.34-0.7-1.12v-2.94h-0.44v-0.39h0.44v-1.24h0.46v1.24h0.59v0.39h-0.59v2.97
		c0,0.02,0,0.04,0,0.06c0,0.46,0.01,0.65,0.36,0.65c0.06,0,0.14-0.01,0.23-0.02v0.36C143.01,408.76,142.9,408.77,142.78,408.77z"/>
	<path d="M144.29,407.28c0,0.74,0.06,1.11,0.66,1.11c0.49,0,0.91-0.39,0.91-0.73v-3.35h0.48v4.39h-0.43v-0.48
		c-0.3,0.41-0.63,0.59-1.07,0.59c-0.75,0-1.03-0.46-1.03-1.38v-3.12h0.48V407.28z"/>
	<path d="M147.35,404.31h0.46v0.48c0.2-0.38,0.5-0.54,0.96-0.54c0.02,0,0.06,0,0.09,0v0.47c-0.9,0.03-1.05,0.44-1.05,1.44v2.54
		h-0.46V404.31z"/>
	<path d="M151.56,405.75c0-0.74-0.06-1.12-0.66-1.12c-0.49,0-0.91,0.39-0.91,0.73v3.35h-0.48v-4.39h0.43v0.48
		c0.3-0.41,0.63-0.59,1.07-0.59c0.75,0,1.03,0.46,1.03,1.39v3.11h-0.48V405.75z"/>
	<path d="M154.2,408.82c-0.89,0-1.29-0.74-1.29-2.3c0-1.56,0.42-2.31,1.33-2.31c0.82,0,1.26,0.64,1.26,1.89v0.37h-2.09v0.25
		c0,1.13,0.26,1.69,0.79,1.69c0.47,0,0.78-0.38,0.8-1.11h0.47C155.41,408.3,154.96,408.82,154.2,408.82z M155,406.08
		c0-0.06,0.01-0.14,0.01-0.19c0-0.83-0.3-1.27-0.78-1.27c-0.53,0-0.82,0.48-0.82,1.42c0,0.02,0,0.02,0,0.04H155z"/>
	<path d="M158.98,408.7h-0.46v-0.46c-0.26,0.39-0.55,0.58-0.95,0.58c-0.94,0-1.32-0.74-1.32-2.3c0-1.56,0.43-2.33,1.34-2.33
		c0.41,0,0.71,0.18,0.93,0.54v-1.98h0.46V408.7z M157.64,404.61c-0.62,0-0.89,0.62-0.89,1.91s0.23,1.9,0.87,1.9
		c0.68,0,0.9-0.63,0.9-1.92C158.52,405.23,158.31,404.61,157.64,404.61z"/>
	<path d="M163.35,404.93c0.81,0,1.38,0.69,1.38,1.89c0,1.28-0.57,2.01-1.47,2.01c-1.04,0-1.5-0.9-1.5-2.77
		c0-2.25,0.47-3.33,1.59-3.33c0.71,0,1.21,0.5,1.23,1.3h-0.46c-0.03-0.54-0.34-0.86-0.76-0.86c-0.66,0-1.04,0.78-1.06,2.33
		C162.62,405.11,162.95,404.93,163.35,404.93z M164.22,406.81c0-0.96-0.34-1.46-0.94-1.46c-0.56,0-0.93,0.46-0.93,1.3
		c0,1.13,0.34,1.73,0.95,1.73C163.87,408.38,164.22,407.84,164.22,406.81z"/>
	<path d="M166,407.23c0.07,0.76,0.38,1.14,0.9,1.14c0.66,0,1.06-0.59,1.06-1.69c0-0.94-0.38-1.45-0.98-1.45
		c-0.38,0-0.71,0.2-0.9,0.58h-0.42l0.36-2.99h2.21v0.46h-1.8l-0.23,1.84c0.28-0.22,0.57-0.31,0.88-0.31c0.82,0,1.38,0.67,1.38,1.83
		c0,1.42-0.54,2.17-1.56,2.17c-0.82,0-1.33-0.58-1.38-1.59H166z"/>
	<path d="M171.28,410.23c-0.09,0-0.18-0.02-0.3-0.04v-0.41c0.09,0.02,0.17,0.03,0.24,0.03c0.49,0,0.79-0.42,0.79-1.1
		c0-0.18-0.05-0.35-0.09-0.51l-1.02-3.89h0.47l0.91,3.53l0.97-3.53h0.48l-1.32,4.77C172.19,409.89,171.95,410.23,171.28,410.23z"/>
	<path d="M175.56,408.82c-0.89,0-1.29-0.74-1.29-2.3c0-1.56,0.42-2.31,1.33-2.31c0.82,0,1.26,0.64,1.26,1.89v0.37h-2.09v0.25
		c0,1.13,0.26,1.69,0.79,1.69c0.47,0,0.78-0.38,0.8-1.11h0.47C176.77,408.3,176.32,408.82,175.56,408.82z M176.36,406.08
		c0-0.06,0.01-0.14,0.01-0.19c0-0.83-0.3-1.27-0.78-1.27c-0.53,0-0.82,0.48-0.82,1.42c0,0.02,0,0.02,0,0.04H176.36z"/>
	<path d="M179.89,408.76c-0.23,0-0.39-0.12-0.49-0.38c-0.24,0.29-0.57,0.45-0.96,0.45c-0.65,0-1.03-0.46-1.03-1.21
		c0-0.72,0.34-1.06,1.09-1.35c0.59-0.23,0.92-0.23,0.92-0.65v-0.37c0-0.47-0.19-0.67-0.65-0.67c-0.49,0-0.74,0.28-0.75,0.82h-0.46
		c0-0.03,0-0.06,0-0.1c0-0.66,0.47-1.09,1.22-1.09c0.43,0,0.74,0.1,0.92,0.34c0.16,0.2,0.18,0.44,0.18,0.74c0,0.07,0,0.14,0,0.22
		v2.38c0,0.35,0.01,0.49,0.29,0.49c0.02,0,0.03,0,0.05,0v0.34C180.1,408.74,180,408.76,179.89,408.76z M177.9,407.62
		c0,0.5,0.25,0.8,0.64,0.8c0.61,0,0.86-0.44,0.86-1.33v-0.73C178.4,406.75,177.9,406.95,177.9,407.62z"/>
	<path d="M180.9,404.31h0.46v0.48c0.2-0.38,0.5-0.54,0.96-0.54c0.02,0,0.06,0,0.09,0v0.47c-0.9,0.03-1.05,0.44-1.05,1.44v2.54h-0.46
		V404.31z"/>
	<path d="M183.3,407.51c0,0.59,0.3,0.9,0.81,0.9c0.5,0,0.81-0.31,0.81-0.81c0-0.61-0.43-0.78-1.12-1.14
		c-0.58-0.3-0.85-0.53-0.85-1.2c0-0.62,0.42-1.06,1.08-1.06c0.78,0,1.19,0.4,1.22,1.22h-0.44c-0.07-0.55-0.3-0.82-0.73-0.82
		c-0.43,0-0.7,0.25-0.7,0.66c0,0.56,0.5,0.76,1.26,1.15c0.49,0.25,0.75,0.67,0.75,1.19c0,0.73-0.5,1.23-1.28,1.23
		c-0.82,0-1.26-0.46-1.26-1.28c0-0.01,0-0.02,0-0.04H183.3z"/>
	<path d="M189.36,404.21c0.94,0,1.41,0.77,1.41,2.31s-0.46,2.3-1.41,2.3c-0.94,0-1.41-0.76-1.41-2.3S188.42,404.21,189.36,404.21z
		 M189.36,408.4c0.59,0,0.91-0.63,0.91-1.88s-0.32-1.88-0.91-1.88c-0.59,0-0.9,0.63-0.9,1.88S188.76,408.4,189.36,408.4z"/>
	<path d="M191.83,402.75h0.48v5.96h-0.48V402.75z"/>
	<path d="M196.09,408.7h-0.46v-0.46c-0.26,0.39-0.55,0.58-0.95,0.58c-0.94,0-1.32-0.74-1.32-2.3c0-1.56,0.43-2.33,1.34-2.33
		c0.41,0,0.71,0.18,0.93,0.54v-1.98h0.46V408.7z M194.75,404.61c-0.62,0-0.89,0.62-0.89,1.91s0.23,1.9,0.87,1.9
		c0.68,0,0.9-0.63,0.9-1.92C195.63,405.23,195.42,404.61,194.75,404.61z"/>
	<path d="M197.28,408h0.55v0.7h-0.55V408z"/>
</g>
<circle cx="328.18" cy="146.94" r="3.66"/>
<circle cx="486.94" cy="47.69" r="3.66"/>
<circle cx="51.06" cy="262.03" r="3.66"/>
<rect x="240.9" y="393.14" class="st7" width="13.46" height="13.46"/>
<rect x="285.74" y="393.14" class="st6" width="13.46" height="13.46"/>
<rect x="337.29" y="393.14" class="st5" width="13.46" height="13.46"/>
<rect x="386.35" y="393.14" class="st4" width="13.46" height="13.46"/>
<rect x="433.91" y="393.14" class="st3" width="13.46" height="13.46"/>
<g>
	<rect x="257.4" y="395.23" class="st8" width="25.29" height="9.29"/>
	<path d="M259.25,398.86l3.78,1.54v0.6l-4.6-1.89v-0.5l4.6-1.89v0.6L259.25,398.86z"/>
	<path d="M265.47,399.66c0,0.02,0,0.03,0,0.05c0,0.68,0.33,1.06,0.9,1.06c0.62,0,0.97-0.5,0.97-1.46c0-0.95-0.33-1.43-0.98-1.43
		c-0.43,0-0.73,0.21-0.85,0.56l-0.57-0.05l0.33-3.09h2.53v0.61h-2.01l-0.22,1.79c0.11-0.25,0.47-0.43,0.94-0.43
		c0.91,0,1.52,0.7,1.52,1.95c0,1.37-0.62,2.14-1.66,2.14c-1.01,0-1.55-0.6-1.56-1.7H265.47z"/>
	<path d="M270.44,395.2c0.59,0,1,0.26,1.3,0.79c0.26,0.47,0.33,1.22,0.33,2.29c0,2.1-0.39,3.09-1.6,3.09
		c-1.28,0-1.65-0.98-1.65-3.09C268.82,396.18,269.19,395.2,270.44,395.2z M270.45,400.78c0.82,0,0.92-0.82,0.92-2.52
		c0-1.69-0.15-2.48-0.93-2.48c-0.8,0-0.93,0.78-0.93,2.47C269.51,399.99,269.68,400.78,270.45,400.78z"/>
</g>
<g>
	<rect x="302.23" y="395.23" class="st8" width="25.29" height="9.29"/>
	<path d="M303.23,399.66c0,0.02,0,0.03,0,0.05c0,0.68,0.33,1.06,0.9,1.06c0.62,0,0.97-0.5,0.97-1.46c0-0.95-0.33-1.43-0.98-1.43
		c-0.43,0-0.74,0.21-0.85,0.56l-0.57-0.05l0.33-3.09h2.54v0.61h-2.02l-0.22,1.79c0.11-0.25,0.47-0.43,0.94-0.43
		c0.91,0,1.52,0.7,1.52,1.95c0,1.37-0.62,2.14-1.66,2.14c-1.01,0-1.55-0.6-1.56-1.7H303.23z"/>
	<path d="M308.21,395.2c0.59,0,1,0.26,1.29,0.79c0.26,0.47,0.33,1.22,0.33,2.29c0,2.1-0.39,3.09-1.6,3.09
		c-1.28,0-1.65-0.98-1.65-3.09C306.59,396.18,306.95,395.2,308.21,395.2z M308.22,400.78c0.82,0,0.92-0.82,0.92-2.52
		c0-1.69-0.15-2.48-0.93-2.48c-0.8,0-0.93,0.78-0.93,2.47C307.28,399.99,307.45,400.78,308.22,400.78z"/>
	<path d="M310.6,398.71h4v0.58h-4V398.71z"/>
	<path d="M317.14,397.38c0.94,0,1.54,0.69,1.54,1.9c0,1.3-0.64,2.08-1.6,2.08c-1.22,0-1.69-0.93-1.69-2.88
		c0-2.25,0.46-3.29,1.73-3.29c0.85,0,1.39,0.56,1.39,1.44h-0.66c0-0.02,0-0.02,0-0.04c0-0.51-0.3-0.82-0.75-0.82
		c-0.8,0-0.99,0.74-1.08,2.36C316.2,397.64,316.6,397.38,317.14,397.38z M317.07,400.79c0.58,0,0.91-0.52,0.91-1.47
		c0-0.9-0.34-1.36-0.96-1.36c-0.66,0-0.94,0.43-0.94,1.33C316.09,400.25,316.45,400.79,317.07,400.79z"/>
	<path d="M321.41,399.71h-2.17v-0.58l2.23-3.93h0.58v3.93h0.56v0.58h-0.56v1.54h-0.64V399.71z M321.41,399.13l0.07-3.08l-1.7,3.08
		H321.41z"/>
</g>
<g>
	<rect x="353.79" y="395.23" class="st8" width="25.29" height="9.29"/>
	<path d="M355.93,397.38c0.94,0,1.54,0.69,1.54,1.9c0,1.3-0.64,2.08-1.6,2.08c-1.22,0-1.69-0.93-1.69-2.88
		c0-2.25,0.46-3.29,1.73-3.29c0.85,0,1.39,0.56,1.39,1.44h-0.66c0-0.02,0-0.02,0-0.04c0-0.51-0.3-0.82-0.75-0.82
		c-0.8,0-0.99,0.74-1.08,2.36C354.99,397.64,355.39,397.38,355.93,397.38z M355.86,400.79c0.58,0,0.91-0.52,0.91-1.47
		c0-0.9-0.34-1.36-0.96-1.36c-0.66,0-0.94,0.43-0.94,1.33C354.88,400.25,355.24,400.79,355.86,400.79z"/>
	<path d="M358.78,399.66c0,0.02,0,0.03,0,0.05c0,0.68,0.33,1.06,0.89,1.06c0.62,0,0.97-0.5,0.97-1.46c0-0.95-0.33-1.43-0.98-1.43
		c-0.43,0-0.74,0.21-0.85,0.56l-0.57-0.05l0.33-3.09h2.54v0.61h-2.01l-0.22,1.79c0.11-0.25,0.47-0.43,0.94-0.43
		c0.91,0,1.52,0.7,1.52,1.95c0,1.37-0.62,2.14-1.66,2.14c-1.01,0-1.55-0.6-1.56-1.7H358.78z"/>
	<path d="M362.16,398.71h4v0.58h-4V398.71z"/>
	<path d="M369.61,395.96h-2.69v-0.66h3.26v0.58c-1.14,1.53-1.82,3.37-1.94,5.37h-0.75C367.74,399.2,368.45,397.45,369.61,395.96z"/>
	<path d="M372.97,399.71h-2.17v-0.58l2.23-3.93h0.58v3.93h0.56v0.58h-0.56v1.54h-0.64V399.71z M372.97,399.13l0.07-3.08l-1.69,3.08
		H372.97z"/>
</g>
<g>
	<rect x="402.85" y="395.23" class="st8" width="25.29" height="9.29"/>
	<path d="M405.89,395.96h-2.69v-0.66h3.26v0.58c-1.14,1.53-1.82,3.37-1.94,5.37h-0.75C404.03,399.2,404.74,397.45,405.89,395.96z"/>
	<path d="M407.83,399.66c0,0.02,0,0.03,0,0.05c0,0.68,0.33,1.06,0.9,1.06c0.62,0,0.97-0.5,0.97-1.46c0-0.95-0.33-1.43-0.98-1.43
		c-0.43,0-0.74,0.21-0.85,0.56l-0.57-0.05l0.33-3.09h2.53v0.61h-2.01l-0.22,1.79c0.11-0.25,0.47-0.43,0.94-0.43
		c0.91,0,1.52,0.7,1.52,1.95c0,1.37-0.62,2.14-1.66,2.14c-1.01,0-1.55-0.6-1.56-1.7H407.83z"/>
	<path d="M411.22,398.71h4v0.58h-4V398.71z"/>
	<path d="M416.18,396.73c0-0.97,0.54-1.54,1.45-1.54c0.87,0,1.43,0.57,1.43,1.5c0,0.7-0.29,1.13-0.86,1.29
		c0.71,0.16,1.03,0.64,1.03,1.51c0,1.21-0.61,1.88-1.62,1.88c-0.98,0-1.62-0.7-1.62-1.79c0-0.89,0.4-1.46,1.05-1.58
		C416.46,397.84,416.18,397.42,416.18,396.73z M417.62,400.78c0.56,0,0.92-0.45,0.92-1.22c0-0.86-0.3-1.27-0.96-1.27
		c-0.58,0-0.91,0.42-0.91,1.17C416.67,400.34,417,400.78,417.62,400.78z M416.83,396.76c0,0.58,0.3,0.95,0.77,0.95
		c0.52,0,0.81-0.35,0.81-0.98c0-0.61-0.3-0.97-0.81-0.97C417.1,395.76,416.83,396.1,416.83,396.76z"/>
	<path d="M422.02,399.71h-2.17v-0.58l2.23-3.93h0.58v3.93h0.56v0.58h-0.56v1.54h-0.64V399.71z M422.02,399.13l0.07-3.08l-1.7,3.08
		H422.02z"/>
</g>
<g>
	<rect x="449.46" y="395.23" class="st8" width="25.29" height="9.29"/>
	<path d="M450.03,396.73c0-0.97,0.54-1.54,1.45-1.54c0.87,0,1.43,0.57,1.43,1.5c0,0.7-0.29,1.13-0.86,1.29
		c0.71,0.16,1.03,0.64,1.03,1.51c0,1.21-0.61,1.88-1.62,1.88c-0.98,0-1.62-0.7-1.62-1.79c0-0.89,0.4-1.46,1.05-1.58
		C450.31,397.84,450.03,397.42,450.03,396.73z M451.47,400.78c0.56,0,0.92-0.45,0.92-1.22c0-0.86-0.3-1.27-0.96-1.27
		c-0.58,0-0.91,0.42-0.91,1.17C450.52,400.34,450.84,400.78,451.47,400.78z M450.68,396.76c0,0.58,0.3,0.95,0.77,0.95
		c0.52,0,0.81-0.35,0.81-0.98c0-0.61-0.3-0.97-0.81-0.97C450.95,395.76,450.68,396.1,450.68,396.76z"/>
	<path d="M454.44,399.66c0,0.02,0,0.03,0,0.05c0,0.68,0.33,1.06,0.9,1.06c0.62,0,0.97-0.5,0.97-1.46c0-0.95-0.33-1.43-0.98-1.43
		c-0.43,0-0.74,0.21-0.85,0.56l-0.57-0.05l0.33-3.09h2.53v0.61h-2.01l-0.22,1.79c0.11-0.25,0.47-0.43,0.94-0.43
		c0.91,0,1.52,0.7,1.52,1.95c0,1.37-0.62,2.14-1.66,2.14c-1.01,0-1.55-0.6-1.56-1.7H454.44z"/>
	<path d="M461.03,398.59h2.06v0.54h-2.06v2.11h-0.55v-2.11h-2.06v-0.54h2.06v-2.11h0.55V398.59z"/>
</g>
<g>
	<rect x="63.77" y="360.63" class="st8" width="80.8" height="11.01"/>
	<path class="st9" d="M64.44,360.62h1.33v2.66l2.53-2.66h1.67l-2.58,2.62l2.82,3.85h-1.63l-2.11-2.96l-0.69,0.68v2.28h-1.33V360.62z
		"/>
	<path class="st9" d="M70.76,360.62h4.7v1.13h-3.39v1.38h3.1v1.11h-3.1v1.67h3.55v1.2h-4.86V360.62z"/>
	<path class="st9" d="M78.21,367.1v-2.41l-2.35-4.06h1.63l1.39,2.79l1.28-2.79h1.52l-2.13,4.06v2.41H78.21z"/>
</g>
<g>
	<rect x="240.29" y="380.08" class="st8" width="80.8" height="11.01"/>
	<path class="st9" d="M243.71,380.08l2.07,5.75h-1.24l-0.39-1.18h-2.23l-0.38,1.18h-1.25l2.05-5.75H243.71z M242.23,383.68h1.6
		l-0.8-2.45L242.23,383.68z"/>
	<path class="st9" d="M247.42,386.24c0.07,0.28,0.3,0.42,0.68,0.42c0.76,0,0.95-0.3,0.95-1.06v-0.38c-0.24,0.42-0.62,0.6-1.18,0.6
		c-1.1,0-1.81-0.85-1.81-2.15c0-1.4,0.72-2.25,1.8-2.25c0.57,0,0.97,0.22,1.22,0.66v-0.51h1.08v3.97c0,0.77-0.1,1.25-0.55,1.61
		c-0.33,0.26-0.86,0.41-1.56,0.41c-1.14,0-1.81-0.5-1.86-1.33H247.42z M248.13,384.88c0.59,0,0.92-0.43,0.92-1.25
		c0-0.78-0.34-1.22-0.94-1.22c-0.57,0-0.91,0.44-0.91,1.23C247.2,384.44,247.54,384.88,248.13,384.88z"/>
	<path class="st9" d="M254.91,384.54c-0.23,0.89-0.96,1.43-1.97,1.43c-1.21,0-2-0.86-2-2.29c0-1.39,0.76-2.25,1.98-2.25
		c1.3,0,2.04,0.82,2.04,2.28c0,0.1,0,0.19-0.01,0.3h-2.84c0.03,0.66,0.33,1.01,0.88,1.01c0.38,0,0.63-0.14,0.78-0.47H254.91z
		 M253.79,383.26c-0.02-0.58-0.31-0.88-0.84-0.88c-0.49,0-0.78,0.3-0.83,0.88H253.79z"/>
</g>
<g>
	<rect x="299.47" y="129.47" class="st8" width="26.71" height="17.81"/>
	<path d="M299.86,135.26c0-0.79,0.34-1.47,1.05-2.1c0.46-0.42,0.85-0.74,1.1-1.03c0.22-0.26,0.31-0.58,0.31-1.02
		c0-0.7-0.33-1.07-0.89-1.07c-0.58,0-0.87,0.41-0.87,1.24c0,0.02,0.01,0.09,0.01,0.2h-0.65c0-0.07-0.01-0.14-0.01-0.22
		c0-1.18,0.58-1.82,1.55-1.82c0.96,0,1.55,0.59,1.55,1.64c0,0.49-0.09,0.88-0.34,1.25c-0.22,0.34-0.6,0.61-1.01,0.95
		c-0.71,0.59-1.11,1.06-1.13,1.61h2.53v0.62h-3.2C299.86,135.41,299.86,135.34,299.86,135.26z"/>
	<path d="M305.85,129.45c0.59,0,1,0.26,1.29,0.79c0.26,0.47,0.33,1.22,0.33,2.29c0,2.1-0.39,3.09-1.6,3.09
		c-1.28,0-1.65-0.98-1.65-3.09C304.23,130.43,304.59,129.45,305.85,129.45z M305.86,135.03c0.82,0,0.92-0.82,0.92-2.52
		c0-1.69-0.15-2.48-0.93-2.48c-0.8,0-0.93,0.78-0.93,2.47C304.92,134.23,305.09,135.03,305.86,135.03z"/>
	<path d="M310.12,131.07h-1.28v-0.51c0.03,0,0.06,0,0.08,0c0.86,0,1.28-0.36,1.32-1.12h0.53v6.05h-0.65V131.07z"/>
	<path d="M314.76,131.63c0.94,0,1.54,0.69,1.54,1.9c0,1.3-0.64,2.08-1.6,2.08c-1.22,0-1.69-0.93-1.69-2.88
		c0-2.25,0.46-3.29,1.73-3.29c0.85,0,1.39,0.56,1.39,1.44h-0.66c0-0.02,0-0.02,0-0.04c0-0.51-0.3-0.82-0.75-0.82
		c-0.8,0-0.99,0.74-1.08,2.36C313.83,131.89,314.23,131.63,314.76,131.63z M314.7,135.03c0.58,0,0.91-0.52,0.91-1.47
		c0-0.9-0.34-1.36-0.96-1.36c-0.66,0-0.94,0.43-0.94,1.34C313.71,134.5,314.07,135.03,314.7,135.03z"/>
	<path d="M317.63,136.27c0.21-0.04,0.34-0.3,0.34-0.74c0-0.02,0-0.02,0-0.04h-0.34v-0.82h0.71v0.82c0,0.62-0.29,1.05-0.71,1.15
		V136.27z"/>
	<path d="M301.35,140.67h-1.28v-0.51c0.03,0,0.06,0,0.08,0c0.86,0,1.28-0.36,1.32-1.12H302v6.05h-0.65V140.67z"/>
	<path d="M304.86,143.51c0,0.02,0,0.03,0,0.05c0,0.68,0.33,1.06,0.9,1.06c0.62,0,0.97-0.5,0.97-1.46c0-0.95-0.33-1.43-0.98-1.43
		c-0.43,0-0.74,0.21-0.85,0.56l-0.57-0.05l0.33-3.09h2.53v0.61h-2.01l-0.22,1.79c0.11-0.25,0.47-0.43,0.94-0.43
		c0.91,0,1.52,0.7,1.52,1.95c0,1.37-0.62,2.14-1.66,2.14c-1.01,0-1.55-0.6-1.56-1.7H304.86z"/>
	<path d="M308.88,144.27h0.71v0.82h-0.71V144.27z"/>
	<path d="M311.64,143.51c0,0.02,0,0.03,0,0.05c0,0.68,0.33,1.06,0.9,1.06c0.62,0,0.97-0.5,0.97-1.46c0-0.95-0.33-1.43-0.98-1.43
		c-0.43,0-0.74,0.21-0.85,0.56l-0.57-0.05l0.33-3.09h2.53v0.61h-2.01l-0.22,1.79c0.11-0.25,0.47-0.43,0.94-0.43
		c0.91,0,1.52,0.7,1.52,1.95c0,1.37-0.62,2.14-1.66,2.14c-1.01,0-1.55-0.6-1.56-1.7H311.64z"/>
	<path d="M322.12,139.42l-1.46,5.67H320l-1.4-5.67v5.67h-0.66v-6.01h1.13l1.26,5.12l1.33-5.12h1.11v6.01h-0.66V139.42z"/>
</g>
<g>
	<rect x="458.56" y="29.88" class="st8" width="26.71" height="17.81"/>
	<path d="M458.95,35.67c0-0.79,0.34-1.47,1.05-2.1c0.46-0.42,0.85-0.74,1.1-1.03c0.22-0.26,0.31-0.58,0.31-1.02
		c0-0.7-0.33-1.07-0.89-1.07c-0.58,0-0.87,0.41-0.87,1.24c0,0.02,0.01,0.09,0.01,0.2h-0.65c0-0.07-0.01-0.14-0.01-0.22
		c0-1.18,0.58-1.82,1.55-1.82c0.96,0,1.55,0.59,1.55,1.64c0,0.49-0.09,0.88-0.34,1.25c-0.22,0.34-0.6,0.61-1.01,0.95
		c-0.71,0.59-1.11,1.06-1.13,1.61h2.53v0.62h-3.2C458.95,35.82,458.95,35.75,458.95,35.67z"/>
	<path d="M464.94,29.86c0.59,0,1,0.26,1.29,0.79c0.26,0.47,0.33,1.22,0.33,2.29c0,2.1-0.39,3.09-1.6,3.09
		c-1.28,0-1.65-0.98-1.65-3.09C463.31,30.84,463.68,29.86,464.94,29.86z M464.95,35.44c0.82,0,0.92-0.82,0.92-2.52
		c0-1.69-0.15-2.48-0.93-2.48c-0.8,0-0.93,0.78-0.93,2.47C464.01,34.65,464.18,35.44,464.95,35.44z"/>
	<path d="M469.75,34.37h-2.17v-0.58l2.23-3.93h0.58v3.93h0.56v0.58h-0.56v1.54h-0.64V34.37z M469.75,33.79l0.07-3.08l-1.7,3.08
		H469.75z"/>
	<path d="M473.71,29.86c0.59,0,1,0.26,1.3,0.79c0.26,0.47,0.33,1.22,0.33,2.29c0,2.1-0.39,3.09-1.6,3.09
		c-1.28,0-1.65-0.98-1.65-3.09C472.08,30.84,472.45,29.86,473.71,29.86z M473.71,35.44c0.82,0,0.92-0.82,0.92-2.52
		c0-1.69-0.15-2.48-0.93-2.48c-0.8,0-0.93,0.78-0.93,2.47C472.78,34.65,472.95,35.44,473.71,35.44z"/>
	<path d="M476.72,36.68c0.21-0.04,0.34-0.3,0.34-0.74c0-0.02,0-0.02,0-0.04h-0.34v-0.82h0.71v0.82c0,0.62-0.29,1.05-0.71,1.15V36.68
		z"/>
	<path d="M458.95,45.27c0-0.79,0.34-1.47,1.05-2.1c0.46-0.42,0.85-0.74,1.1-1.03c0.22-0.26,0.31-0.58,0.31-1.02
		c0-0.7-0.33-1.07-0.89-1.07c-0.58,0-0.87,0.41-0.87,1.24c0,0.02,0.01,0.09,0.01,0.2h-0.65c0-0.07-0.01-0.14-0.01-0.22
		c0-1.18,0.58-1.82,1.55-1.82c0.96,0,1.55,0.59,1.55,1.64c0,0.49-0.09,0.88-0.34,1.25c-0.22,0.34-0.6,0.61-1.01,0.95
		c-0.71,0.59-1.11,1.06-1.13,1.61h2.53v0.62h-3.2C458.95,45.42,458.95,45.35,458.95,45.27z"/>
	<path d="M465.08,41.64c0.94,0,1.54,0.69,1.54,1.9c0,1.3-0.64,2.08-1.6,2.08c-1.22,0-1.7-0.93-1.7-2.88c0-2.25,0.46-3.29,1.74-3.29
		c0.85,0,1.39,0.56,1.39,1.44h-0.66c0-0.02,0-0.02,0-0.04c0-0.51-0.3-0.82-0.75-0.82c-0.8,0-0.99,0.74-1.08,2.36
		C464.15,41.9,464.55,41.64,465.08,41.64z M465.02,45.05c0.58,0,0.91-0.52,0.91-1.47c0-0.9-0.34-1.36-0.96-1.36
		c-0.66,0-0.94,0.43-0.94,1.33C464.03,44.51,464.39,45.05,465.02,45.05z"/>
	<path d="M467.97,44.68h0.71v0.82h-0.71V44.68z"/>
	<path d="M471.61,41.08h-1.28v-0.51c0.03,0,0.06,0,0.08,0c0.86,0,1.28-0.36,1.32-1.12h0.53v6.05h-0.65V41.08z"/>
	<path d="M481.21,39.83l-1.46,5.67h-0.66l-1.4-5.67v5.67h-0.66v-6.01h1.13l1.26,5.12l1.33-5.12h1.11v6.01h-0.66V39.83z"/>
</g>
<g>
	<rect x="53.73" y="240.29" class="st8" width="26.71" height="17.81"/>
	<path d="M55.61,241.89h-1.28v-0.51c0.03,0,0.06,0,0.08,0c0.86,0,1.28-0.36,1.32-1.12h0.53v6.05h-0.65V241.89z"/>
	<path d="M59.96,244.25c-0.94,0-1.54-0.7-1.54-1.91c0-1.3,0.64-2.08,1.6-2.08c1.22,0,1.69,0.93,1.69,2.88
		c0,2.25-0.46,3.29-1.73,3.29c-0.85,0-1.4-0.56-1.4-1.44h0.67c0,0.02,0,0.02,0,0.04c0,0.51,0.3,0.82,0.75,0.82
		c0.8,0,0.99-0.73,1.08-2.35C60.89,243.98,60.49,244.25,59.96,244.25z M60.02,240.84c-0.58,0-0.91,0.52-0.91,1.47
		c0,0.9,0.34,1.35,0.96,1.35c0.66,0,0.94-0.43,0.94-1.34C61.01,241.37,60.65,240.84,60.02,240.84z"/>
	<path d="M65.54,241.03h-2.69v-0.66h3.26v0.58c-1.14,1.53-1.81,3.37-1.94,5.37h-0.75C63.68,244.27,64.38,242.52,65.54,241.03z"/>
	<path d="M67.88,244.73c0,0.02,0,0.03,0,0.05c0,0.68,0.33,1.06,0.9,1.06c0.62,0,0.97-0.5,0.97-1.46c0-0.95-0.33-1.43-0.98-1.43
		c-0.43,0-0.74,0.21-0.85,0.56l-0.57-0.05l0.33-3.09h2.53v0.61h-2.02l-0.22,1.79c0.11-0.25,0.47-0.43,0.94-0.43
		c0.91,0,1.52,0.7,1.52,1.95c0,1.37-0.62,2.14-1.66,2.14c-1.01,0-1.55-0.6-1.56-1.7H67.88z"/>
	<path d="M71.89,247.09c0.21-0.04,0.34-0.3,0.34-0.74c0-0.02,0-0.02,0-0.04h-0.34v-0.82h0.71v0.82c0,0.62-0.29,1.05-0.71,1.15
		V247.09z"/>
	<path d="M54.71,254.12c0,0.03,0,0.06,0,0.1c0,0.82,0.3,1.23,0.92,1.23c0.66,0,1-0.42,1-1.22s-0.38-1.18-1.19-1.18
		c-0.07,0-0.14,0-0.21,0.01v-0.55c0.05,0,0.1,0,0.14,0c0.76,0,1.1-0.32,1.1-1.06c0-0.64-0.33-1-0.86-1s-0.81,0.38-0.81,1.11
		c0,0.03,0,0.06,0,0.1h-0.64c0-0.03,0-0.06,0-0.09c0-1.07,0.57-1.7,1.46-1.7c0.92,0,1.51,0.57,1.51,1.5c0,0.75-0.34,1.25-0.85,1.35
		c0.7,0.13,1.04,0.61,1.04,1.47c0,1.17-0.62,1.84-1.69,1.84c-1.03,0-1.58-0.65-1.58-1.85c0-0.02,0-0.04,0-0.06H54.71z"/>
	<path d="M58.75,255.09h0.71v0.82h-0.71V255.09z"/>
	<path d="M62.65,252.05c0.94,0,1.54,0.69,1.54,1.9c0,1.3-0.64,2.08-1.6,2.08c-1.22,0-1.69-0.93-1.69-2.88
		c0-2.25,0.46-3.29,1.73-3.29c0.85,0,1.39,0.56,1.39,1.44h-0.66c0-0.02,0-0.02,0-0.04c0-0.51-0.3-0.82-0.75-0.82
		c-0.8,0-0.99,0.74-1.08,2.36C61.71,252.31,62.11,252.05,62.65,252.05z M62.58,255.46c0.58,0,0.91-0.52,0.91-1.47
		c0-0.9-0.34-1.36-0.96-1.36c-0.66,0-0.94,0.43-0.94,1.33C61.6,254.92,61.96,255.46,62.58,255.46z"/>
	<path d="M71.99,250.24l-1.46,5.67h-0.66l-1.4-5.67v5.67h-0.66v-6.01h1.13l1.26,5.12l1.33-5.12h1.11v6.01h-0.66V250.24z"/>
</g>
<g>
</g>
<g>
</g>
<g>
</g>
<g>
</g>
<g>
</g>
<g>
</g>
</svg>
