<?xml version="1.0" encoding="utf-8"?>
<!-- Generator: Adobe Illustrator 23.0.1, SVG Export Plug-In . SVG Version: 6.00 Build 0)  -->
<svg version="1.1" id="Layer_1" xmlns="http://www.w3.org/2000/svg" xmlns:xlink="http://www.w3.org/1999/xlink" x="0px" y="0px"
	 viewBox="0 0 630.2 291.1" style="enable-background:new 0 0 630.2 291.1;" xml:space="preserve">
<style type="text/css">
	.st0{fill:none;stroke:#D1D3D4;stroke-width:0.5;stroke-miterlimit:10;}
	.st1{fill:#6CBE45;}
	.st2{fill:#9CD783;}
	.st3{fill:none;}
	.st4{fill:#231F20;}
	.st5{fill:none;stroke:#6D6E71;stroke-width:0.5;stroke-miterlimit:10;}
	.st6{fill:none;stroke:#000000;stroke-miterlimit:10;}
	.st7{fill:#284776;}
	.st8{fill:#3C5ED2;}
	.st9{display:none;fill:none;}
</style>
<line class="st0" x1="43.6" y1="14.7" x2="583.7" y2="14.7"/>
<line class="st0" x1="43.6" y1="36.4" x2="583.7" y2="36.4"/>
<line class="st0" x1="43.6" y1="56.1" x2="583.7" y2="56.1"/>
<line class="st0" x1="43.6" y1="77.8" x2="583.7" y2="77.8"/>
<line class="st0" x1="43.6" y1="97.4" x2="583.7" y2="97.4"/>
<line class="st0" x1="43.6" y1="119.1" x2="583.7" y2="119.1"/>
<line class="st0" x1="43.6" y1="138.8" x2="583.7" y2="138.8"/>
<line class="st0" x1="43.6" y1="160.5" x2="583.7" y2="160.5"/>
<line class="st0" x1="43.6" y1="180.1" x2="583.7" y2="180.1"/>
<line class="st0" x1="43.6" y1="201.8" x2="583.7" y2="201.8"/>
<g>
	<rect x="50.4" y="103.2" class="st1" width="9.1" height="117.9"/>
	<rect x="75.7" y="84.8" class="st2" width="9.1" height="136.3"/>
	<rect x="101" y="71.4" class="st1" width="9.1" height="149.7"/>
	<rect x="126.3" y="69.7" class="st2" width="9.1" height="151.4"/>
	<rect x="151.6" y="58" class="st1" width="9.1" height="163.1"/>
	<rect x="177" y="47.2" class="st2" width="9.1" height="173.9"/>
	<rect x="202.3" y="28.6" class="st1" width="9.1" height="192.5"/>
	<rect x="227.6" y="37.3" class="st2" width="9.1" height="183.8"/>
	<rect x="252.9" y="43.3" class="st1" width="9.1" height="177.8"/>
	<rect x="278.2" y="33.8" class="st2" width="9.1" height="187.3"/>
	<rect x="303.5" y="36.2" class="st1" width="9.1" height="184.9"/>
	<rect x="328.9" y="43.5" class="st2" width="9.1" height="177.6"/>
	<rect x="354.2" y="42.7" class="st1" width="9.1" height="178.5"/>
	<rect x="379.5" y="48" class="st2" width="9.1" height="173.1"/>
	<rect x="404.8" y="47.2" class="st1" width="9.1" height="173.9"/>
	<rect x="430.1" y="50.3" class="st2" width="9.1" height="170.8"/>
	<rect x="455.4" y="57.3" class="st1" width="9.1" height="163.8"/>
	<rect x="480.8" y="71" class="st2" width="9.1" height="150.1"/>
	<rect x="506.2" y="84" class="st1" width="9.1" height="137.1"/>
</g>
<g>
	<rect x="42.7" y="246.8" class="st3" width="539.1" height="6.7"/>
	<path class="st4" d="M289.3,246.8h2.5c2,0,3,1.1,3,3.2c0,1.2-0.4,2.1-1,2.7c-0.6,0.5-1.3,0.6-2.3,0.6h-2.2L289.3,246.8L289.3,246.8
		z M291.7,252.1c1.2,0,1.8-0.6,1.8-2.1c0-1.4-0.5-2.1-1.6-2.1h-1.2v4.2H291.7z"/>
	<path class="st4" d="M297,253.4c-0.9,0-1.5-0.5-1.5-1.5c0-0.9,0.5-1.4,1.6-1.5c1-0.1,1.3-0.1,1.3-0.5c0-0.4-0.2-0.5-0.8-0.5
		c-0.5,0-0.8,0.2-0.8,0.6c0,0,0,0,0,0.1h-1.2c0,0,0-0.1,0-0.1c0-1,0.7-1.6,2-1.6c1.4,0,2.1,0.5,2.1,1.4v2.7c0,0.4,0,0.6,0.3,0.7v0.2
		h-1.3c-0.1-0.2-0.1-0.4-0.1-0.6C298.2,253.2,297.7,253.4,297,253.4z M297.3,251.3c-0.4,0.1-0.6,0.3-0.6,0.6c0,0.4,0.2,0.6,0.6,0.6
		c0.7,0,1.1-0.4,1.1-1.1v-0.4C298,251.2,297.6,251.2,297.3,251.3z"/>
	<path class="st4" d="M302.2,253.4c-1,0-1.3-0.4-1.3-1.4v-2.6h-0.6v-0.9h0.6v-1.3h1.3v1.3h0.7v0.9h-0.7v2.6c0,0.2,0.1,0.3,0.4,0.3
		h0.3v1C302.6,253.3,302.4,253.4,302.2,253.4z"/>
	<path class="st4" d="M307.9,251.8c-0.3,1-1.1,1.6-2.2,1.6c-1.4,0-2.2-1-2.2-2.6c0-1.6,0.9-2.5,2.2-2.5c1.5,0,2.3,0.9,2.3,2.6
		c0,0.1,0,0.2,0,0.3h-3.2c0,0.8,0.4,1.1,1,1.1c0.4,0,0.7-0.2,0.9-0.5L307.9,251.8L307.9,251.8z M306.6,250.4c0-0.6-0.4-1-1-1
		c-0.5,0-0.9,0.3-0.9,1H306.6z"/>
	<path class="st4" d="M312.9,251c0,1.5,0.4,2.9,1.2,4.2h-0.9c-1-1.4-1.6-2.9-1.6-4.2c0-1.3,0.5-2.8,1.6-4.2h0.9
		C313.2,248.1,312.9,249.5,312.9,251z"/>
	<path class="st4" d="M316.4,253.3v-2.4l-2.4-4.1h1.6l1.4,2.8l1.3-2.8h1.5l-2.1,4.1v2.4H316.4z"/>
	<path class="st4" d="M323.7,251.8c-0.3,1-1.1,1.6-2.2,1.6c-1.4,0-2.2-1-2.2-2.6c0-1.6,0.9-2.5,2.2-2.5c1.5,0,2.3,0.9,2.3,2.6
		c0,0.1,0,0.2,0,0.3h-3.2c0,0.8,0.4,1.1,1,1.1c0.4,0,0.7-0.2,0.9-0.5L323.7,251.8L323.7,251.8z M322.4,250.4c0-0.6-0.4-1-1-1
		c-0.5,0-0.9,0.3-0.9,1H322.4z"/>
	<path class="st4" d="M325.8,253.4c-0.9,0-1.5-0.5-1.5-1.5c0-0.9,0.5-1.4,1.6-1.5c1-0.1,1.3-0.1,1.3-0.5c0-0.4-0.2-0.5-0.8-0.5
		c-0.5,0-0.8,0.2-0.8,0.6c0,0,0,0,0,0.1h-1.2c0,0,0-0.1,0-0.1c0-1,0.7-1.6,2-1.6c1.4,0,2.1,0.5,2.1,1.4v2.7c0,0.4,0,0.6,0.3,0.7v0.2
		h-1.3c-0.1-0.2-0.1-0.4-0.1-0.6C327,253.2,326.5,253.4,325.8,253.4z M326.2,251.3c-0.4,0.1-0.6,0.3-0.6,0.6c0,0.4,0.2,0.6,0.6,0.6
		c0.7,0,1.1-0.4,1.1-1.1v-0.4C326.8,251.2,326.4,251.2,326.2,251.3z"/>
	<path class="st4" d="M329.6,248.5h1.2v0.8c0.3-0.7,0.8-0.9,1.4-0.9c0.1,0,0.1,0,0.2,0v1.3H332c-0.7,0-1,0.4-1,1.1v2.5h-1.3
		L329.6,248.5L329.6,248.5z"/>
	<path class="st4" d="M333.6,246.8c1,1.4,1.6,2.9,1.6,4.2c0,1.3-0.5,2.8-1.6,4.2h-0.9c0.8-1.3,1.2-2.7,1.2-4.2
		c0-1.5-0.4-2.9-1.2-4.2H333.6z"/>
</g>
<g>
	<rect x="7.5" y="14" class="st3" width="13.3" height="207.6"/>
	<path class="st4" d="M14.2,128.7c0,1.8-1.4,3-3.4,3c-2.1,0-3.4-1.2-3.4-3.1c0-1.6,0.8-2.7,2.2-2.9v1.4c-0.7,0.2-1,0.7-1,1.5
		c0,1.1,0.8,1.7,2.2,1.7c1.4,0,2.2-0.7,2.2-1.8c0-0.8-0.5-1.4-1.4-1.6v1.5h-1.1v-2.7H14v0.9l-0.8,0.2
		C13.9,127.3,14.2,127.9,14.2,128.7z"/>
	<path class="st4" d="M9.2,124.6v-1.2H10c-0.7-0.3-0.9-0.8-0.9-1.4c0-0.1,0-0.1,0-0.2h1.3v0.4c0,0.7,0.4,1.1,1.1,1.1H14v1.3
		L9.2,124.6L9.2,124.6z"/>
	<path class="st4" d="M14.2,119.9c0,0.9-0.5,1.4-1.5,1.4c-0.9,0-1.4-0.5-1.5-1.6c-0.1-1-0.1-1.3-0.5-1.3c-0.4,0-0.5,0.2-0.5,0.8
		c0,0.5,0.2,0.8,0.6,0.8c0,0,0,0,0.1,0v1.2c0,0-0.1,0-0.1,0c-1,0-1.6-0.7-1.6-1.9c0-1.3,0.5-2.1,1.4-2.1h2.7c0.4,0,0.6-0.1,0.7-0.3
		H14v1.3c-0.2,0.1-0.4,0.1-0.6,0.1C13.9,118.7,14.2,119.2,14.2,119.9z M12,119.6c0.1,0.4,0.3,0.6,0.6,0.6c0.4,0,0.6-0.2,0.6-0.6
		c0-0.7-0.4-1.1-1.1-1.1h-0.4C11.9,118.9,11.9,119.3,12,119.6z"/>
	<path class="st4" d="M9.2,116.1v-1.2h0.6c-0.5-0.4-0.7-0.8-0.7-1.4c0-1.1,0.6-1.6,1.6-1.6H14v1.3h-2.9c-0.6,0-0.9,0.2-0.9,0.7
		c0,0.6,0.4,1,1,1H14v1.3H9.2z"/>
	<path class="st4" d="M14.1,109.3c0,1.1-0.4,1.3-1.4,1.3h-2.6v0.6H9.2v-0.6H7.9v-1.3h1.3v-0.7h0.9v0.7h2.6c0.2,0,0.3-0.1,0.3-0.4
		v-0.3h1C14,108.9,14.1,109.2,14.1,109.3z"/>
	<path class="st4" d="M12.4,106.8c0.5,0,0.7-0.3,0.7-1c0-0.5-0.2-0.8-0.5-0.8c-0.4,0-0.4,0.4-0.6,1.3c-0.3,1.1-0.6,1.7-1.4,1.7
		c-1,0-1.6-0.7-1.6-2c0-1.3,0.6-2,1.6-2.1v1.2c-0.4,0-0.6,0.3-0.6,0.8c0,0.5,0.1,0.7,0.4,0.7c0.3,0,0.4-0.4,0.6-1.3
		c0.3-1.1,0.6-1.7,1.4-1.7c1.1,0,1.7,0.8,1.7,2.2c0,1.3-0.6,2.1-1.7,2.1c0,0,0,0-0.1,0C12.4,108.1,12.4,106.8,12.4,106.8z"/>
</g>
<line class="st5" x1="58.9" y1="227.8" x2="58.9" y2="221.6"/>
<line class="st5" x1="84.2" y1="224.8" x2="84.2" y2="221.6"/>
<line class="st5" x1="109.6" y1="227.8" x2="109.6" y2="221.6"/>
<line class="st5" x1="134.9" y1="224.8" x2="134.9" y2="221.6"/>
<line class="st5" x1="160.2" y1="227.8" x2="160.2" y2="221.6"/>
<line class="st5" x1="185.5" y1="224.8" x2="185.5" y2="221.6"/>
<line class="st5" x1="210.8" y1="227.8" x2="210.8" y2="221.6"/>
<line class="st5" x1="236.1" y1="224.8" x2="236.1" y2="221.6"/>
<line class="st5" x1="261.5" y1="227.8" x2="261.5" y2="221.6"/>
<line class="st5" x1="286.8" y1="224.8" x2="286.8" y2="221.6"/>
<line class="st5" x1="312.1" y1="227.8" x2="312.1" y2="221.6"/>
<line class="st5" x1="337.4" y1="224.8" x2="337.4" y2="221.6"/>
<line class="st5" x1="362.7" y1="227.8" x2="362.7" y2="221.6"/>
<line class="st5" x1="388" y1="224.8" x2="388" y2="221.6"/>
<line class="st5" x1="413.4" y1="227.8" x2="413.4" y2="221.6"/>
<line class="st5" x1="438.7" y1="224.8" x2="438.7" y2="221.6"/>
<line class="st5" x1="464" y1="227.8" x2="464" y2="221.6"/>
<line class="st5" x1="489.3" y1="224.8" x2="489.3" y2="221.6"/>
<g>
	<path class="st4" d="M34.7,218.5c0.3-0.6,0.8-0.9,1.4-0.9c0.6,0,1.1,0.3,1.3,0.9c0.2,0.5,0.3,1.3,0.3,2.5s-0.1,2.1-0.3,2.5
		c-0.3,0.6-0.8,0.9-1.3,0.9s-1.1-0.3-1.4-0.9c-0.2-0.5-0.3-1.3-0.3-2.5S34.5,219,34.7,218.5z M36,224c0.9,0,1.1-1,1.1-2.9
		s-0.2-2.9-1.1-2.9s-1.1,1-1.1,2.9C35,223.1,35.2,224,36,224z"/>
</g>
<g>
	<path class="st4" d="M27.5,199.6c-0.3,0.1-0.7,0.1-1,0.1c-0.1,0-0.2,0-0.4,0v-0.3c1,0,1.4-0.4,1.5-1.3h0.4v6.6h-0.5V199.6z"/>
	<path class="st4" d="M30.5,198.9c0.3-0.6,0.8-0.9,1.4-0.9s1.1,0.3,1.4,0.9c0.2,0.5,0.3,1.3,0.3,2.5s-0.1,2.1-0.3,2.5
		c-0.3,0.6-0.8,0.9-1.4,0.9s-1.1-0.3-1.4-0.9c-0.2-0.5-0.3-1.3-0.3-2.5S30.2,199.3,30.5,198.9z M31.9,204.3c0.9,0,1.1-1,1.1-2.9
		s-0.2-2.9-1.1-2.9s-1.1,1-1.1,2.9C30.8,203.4,31,204.3,31.9,204.3z"/>
	<path class="st4" d="M34.7,198.9c0.3-0.6,0.8-0.9,1.4-0.9c0.6,0,1.1,0.3,1.3,0.9c0.2,0.5,0.3,1.3,0.3,2.5s-0.1,2.1-0.3,2.5
		c-0.3,0.6-0.8,0.9-1.3,0.9s-1.1-0.3-1.4-0.9c-0.2-0.5-0.3-1.3-0.3-2.5S34.5,199.3,34.7,198.9z M36,204.3c0.9,0,1.1-1,1.1-2.9
		s-0.2-2.9-1.1-2.9s-1.1,1-1.1,2.9C35,203.4,35.2,204.3,36,204.3z"/>
</g>
<g>
	<path class="st4" d="M26.4,181.5c0.2-0.4,0.6-0.8,1.1-1.3c0.7-0.7,1.3-1.2,1.3-2.2c0-0.8-0.4-1.2-1-1.2c-0.7,0-1.1,0.5-1.1,1.4
		h-0.5c0,0,0-0.1,0-0.1c0-1.2,0.6-1.9,1.6-1.9c1,0,1.6,0.7,1.6,1.8c0,0.4-0.1,0.8-0.2,1.1c-0.2,0.6-0.7,0.9-1.1,1.3
		c-0.8,0.8-1.3,1.3-1.3,2h2.7v0.6H26C26,182.4,26.1,181.9,26.4,181.5z"/>
	<path class="st4" d="M30.5,177.2c0.3-0.6,0.8-0.9,1.4-0.9s1.1,0.3,1.4,0.9c0.2,0.5,0.3,1.3,0.3,2.5s-0.1,2.1-0.3,2.5
		c-0.3,0.6-0.8,0.9-1.4,0.9s-1.1-0.3-1.4-0.9c-0.2-0.5-0.3-1.3-0.3-2.5S30.2,177.6,30.5,177.2z M31.9,182.6c0.9,0,1.1-1,1.1-2.9
		s-0.2-2.9-1.1-2.9s-1.1,1-1.1,2.9S31,182.6,31.9,182.6z"/>
	<path class="st4" d="M34.7,177.2c0.3-0.6,0.8-0.9,1.4-0.9c0.6,0,1.1,0.3,1.3,0.9c0.2,0.5,0.3,1.3,0.3,2.5s-0.1,2.1-0.3,2.5
		c-0.3,0.6-0.8,0.9-1.3,0.9s-1.1-0.3-1.4-0.9c-0.2-0.5-0.3-1.3-0.3-2.5C34.4,178.5,34.5,177.6,34.7,177.2z M36,182.6
		c0.9,0,1.1-1,1.1-2.9s-0.2-2.9-1.1-2.9s-1.1,1-1.1,2.9S35.2,182.6,36,182.6z"/>
</g>
<g>
	<path class="st4" d="M26.5,161.6c0,0.9,0.4,1.4,1.1,1.4c0.7,0,1.1-0.5,1.1-1.4c0-1-0.4-1.4-1.4-1.4c-0.1,0-0.2,0-0.3,0v-0.5
		c0,0,0,0,0,0c1,0,1.5-0.4,1.5-1.4c0-0.7-0.4-1.1-1-1.1c-0.6,0-1,0.4-1,1.2c0,0,0,0,0,0h-0.5c0-1.1,0.6-1.8,1.5-1.8
		c0.9,0,1.5,0.6,1.5,1.6c0,0.8-0.3,1.3-0.9,1.6c0.7,0.2,1.1,0.8,1.1,1.7c0,1.2-0.7,1.9-1.7,1.9c-1,0-1.6-0.7-1.6-1.9L26.5,161.6
		L26.5,161.6z"/>
	<path class="st4" d="M30.5,157.5c0.3-0.6,0.8-0.9,1.4-0.9s1.1,0.3,1.4,0.9c0.2,0.5,0.3,1.3,0.3,2.5s-0.1,2.1-0.3,2.5
		c-0.3,0.6-0.8,0.9-1.4,0.9s-1.1-0.3-1.4-0.9c-0.2-0.5-0.3-1.3-0.3-2.5S30.2,158,30.5,157.5z M31.9,163c0.9,0,1.1-1,1.1-2.9
		s-0.2-2.9-1.1-2.9s-1.1,1-1.1,2.9S31,163,31.9,163z"/>
	<path class="st4" d="M34.7,157.5c0.3-0.6,0.8-0.9,1.4-0.9c0.6,0,1.1,0.3,1.3,0.9c0.2,0.5,0.3,1.3,0.3,2.5s-0.1,2.1-0.3,2.5
		c-0.3,0.6-0.8,0.9-1.3,0.9s-1.1-0.3-1.4-0.9c-0.2-0.5-0.3-1.3-0.3-2.5C34.4,158.8,34.5,158,34.7,157.5z M36,163
		c0.9,0,1.1-1,1.1-2.9s-0.2-2.9-1.1-2.9s-1.1,1-1.1,2.9S35.2,163,36,163z"/>
</g>
<g>
	<path class="st4" d="M28.2,139.9h-2.3v-0.5l2.3-4.4h0.6v4.4h0.6v0.5h-0.6v1.7h-0.6C28.2,141.6,28.2,139.9,28.2,139.9z M28.2,139.4
		l0.1-3.5l-1.8,3.5H28.2z"/>
	<path class="st4" d="M30.5,135.8c0.3-0.6,0.8-0.9,1.4-0.9s1.1,0.3,1.4,0.9c0.2,0.5,0.3,1.3,0.3,2.5s-0.1,2.1-0.3,2.5
		c-0.3,0.6-0.8,0.9-1.4,0.9s-1.1-0.3-1.4-0.9c-0.2-0.5-0.3-1.3-0.3-2.5S30.2,136.3,30.5,135.8z M31.9,141.3c0.9,0,1.1-1,1.1-2.9
		s-0.2-2.9-1.1-2.9s-1.1,1-1.1,2.9C30.8,140.3,31,141.3,31.9,141.3z"/>
	<path class="st4" d="M34.7,135.8c0.3-0.6,0.8-0.9,1.4-0.9c0.6,0,1.1,0.3,1.3,0.9c0.2,0.5,0.3,1.3,0.3,2.5s-0.1,2.1-0.3,2.5
		c-0.3,0.6-0.8,0.9-1.3,0.9s-1.1-0.3-1.4-0.9c-0.2-0.5-0.3-1.3-0.3-2.5S34.5,136.3,34.7,135.8z M36,141.3c0.9,0,1.1-1,1.1-2.9
		s-0.2-2.9-1.1-2.9s-1.1,1-1.1,2.9C35,140.3,35.2,141.3,36,141.3z"/>
</g>
<g>
	<path class="st4" d="M26.5,120.3c0.1,0.9,0.4,1.3,1,1.3c0.7,0,1.2-0.7,1.2-1.9c0-1.1-0.4-1.6-1.1-1.6c-0.4,0-0.8,0.2-1,0.7h-0.5
		l0.4-3.4H29v0.5h-2l-0.3,2.1c0.3-0.2,0.6-0.3,1-0.3c0.9,0,1.5,0.8,1.5,2.1c0,1.6-0.6,2.4-1.8,2.4c-0.9,0-1.5-0.7-1.5-1.8H26.5z"/>
	<path class="st4" d="M30.5,116.1c0.3-0.6,0.8-0.9,1.4-0.9s1.1,0.3,1.4,0.9c0.2,0.5,0.3,1.3,0.3,2.5s-0.1,2.1-0.3,2.5
		c-0.3,0.6-0.8,0.9-1.4,0.9s-1.1-0.3-1.4-0.9c-0.2-0.5-0.3-1.3-0.3-2.5S30.2,116.6,30.5,116.1z M31.9,121.6c0.9,0,1.1-1,1.1-2.9
		s-0.2-2.9-1.1-2.9s-1.1,1-1.1,2.9C30.8,120.7,31,121.6,31.9,121.6z"/>
	<path class="st4" d="M34.7,116.1c0.3-0.6,0.8-0.9,1.4-0.9c0.6,0,1.1,0.3,1.3,0.9c0.2,0.5,0.3,1.3,0.3,2.5s-0.1,2.1-0.3,2.5
		c-0.3,0.6-0.8,0.9-1.3,0.9s-1.1-0.3-1.4-0.9c-0.2-0.5-0.3-1.3-0.3-2.5S34.5,116.6,34.7,116.1z M36,121.6c0.9,0,1.1-1,1.1-2.9
		s-0.2-2.9-1.1-2.9s-1.1,1-1.1,2.9C35,120.7,35.2,121.6,36,121.6z"/>
</g>
<g>
	<path class="st4" d="M27.8,96.1c0.9,0,1.6,0.8,1.6,2.1c0,1.4-0.6,2.3-1.7,2.3c-1.2,0-1.7-1-1.7-3.1c0-2.5,0.5-3.8,1.8-3.8
		c0.8,0,1.4,0.6,1.4,1.5h-0.5c0-0.6-0.4-1-0.9-1c-0.8,0-1.2,0.9-1.2,2.6C26.9,96.3,27.3,96.1,27.8,96.1z M28.7,98.2
		c0-1.1-0.4-1.6-1-1.6c-0.6,0-1,0.5-1,1.5c0,1.3,0.4,1.9,1.1,1.9C28.3,99.9,28.7,99.3,28.7,98.2z"/>
	<path class="st4" d="M30.5,94.5c0.3-0.6,0.8-0.9,1.4-0.9s1.1,0.3,1.4,0.9c0.2,0.5,0.3,1.3,0.3,2.5s-0.1,2.1-0.3,2.5
		c-0.3,0.6-0.8,0.9-1.4,0.9s-1.1-0.3-1.4-0.9c-0.2-0.5-0.3-1.3-0.3-2.5C30.2,95.8,30.2,94.9,30.5,94.5z M31.9,99.9
		c0.9,0,1.1-1,1.1-2.9s-0.2-2.9-1.1-2.9s-1.1,1-1.1,2.9C30.8,99,31,99.9,31.9,99.9z"/>
	<path class="st4" d="M34.7,94.5c0.3-0.6,0.8-0.9,1.4-0.9c0.6,0,1.1,0.3,1.3,0.9c0.2,0.5,0.3,1.3,0.3,2.5s-0.1,2.1-0.3,2.5
		c-0.3,0.6-0.8,0.9-1.3,0.9s-1.1-0.3-1.4-0.9c-0.2-0.5-0.3-1.3-0.3-2.5C34.4,95.8,34.5,94.9,34.7,94.5z M36,99.9
		c0.9,0,1.1-1,1.1-2.9s-0.2-2.9-1.1-2.9S35,95,35,97C35,99,35.2,99.9,36,99.9z"/>
</g>
<g>
	<path class="st4" d="M28.7,74.6H26V74h3.2v0.6c-1.2,1.6-1.9,3.7-2,6h-0.6C26.8,78.4,27.5,76.3,28.7,74.6z"/>
	<path class="st4" d="M30.5,74.8c0.3-0.6,0.8-0.9,1.4-0.9s1.1,0.3,1.4,0.9c0.2,0.5,0.3,1.3,0.3,2.5s-0.1,2.1-0.3,2.5
		c-0.3,0.6-0.8,0.9-1.4,0.9s-1.1-0.3-1.4-0.9c-0.2-0.5-0.3-1.3-0.3-2.5S30.2,75.2,30.5,74.8z M31.9,80.3c0.9,0,1.1-1,1.1-2.9
		s-0.2-2.9-1.1-2.9s-1.1,1-1.1,2.9C30.8,79.3,31,80.3,31.9,80.3z"/>
	<path class="st4" d="M34.7,74.8c0.3-0.6,0.8-0.9,1.4-0.9c0.6,0,1.1,0.3,1.3,0.9c0.2,0.5,0.3,1.3,0.3,2.5s-0.1,2.1-0.3,2.5
		c-0.3,0.6-0.8,0.9-1.3,0.9s-1.1-0.3-1.4-0.9c-0.2-0.5-0.3-1.3-0.3-2.5S34.5,75.2,34.7,74.8z M36,80.3c0.9,0,1.1-1,1.1-2.9
		s-0.2-2.9-1.1-2.9s-1.1,1-1.1,2.9C35,79.3,35.2,80.3,36,80.3z"/>
</g>
<g>
	<path class="st4" d="M26.2,53.9c0-1.1,0.6-1.7,1.5-1.7s1.5,0.6,1.5,1.7c0,0.6-0.2,1.1-0.7,1.4c0.6,0.3,0.9,0.8,0.9,1.7
		c0,1.3-0.6,2-1.7,2c-1,0-1.7-0.7-1.7-2c0-0.9,0.3-1.4,0.9-1.7C26.4,55,26.2,54.6,26.2,53.9z M27.6,55.6c-0.6,0-1.1,0.5-1.1,1.5
		c0,1,0.4,1.5,1,1.5c0.7,0,1.1-0.5,1.1-1.5C28.7,56.2,28.3,55.6,27.6,55.6z M27.6,52.7c-0.5,0-0.9,0.4-0.9,1.2
		c0,0.8,0.3,1.2,0.9,1.2s0.9-0.5,0.9-1.2C28.5,53.1,28.2,52.7,27.6,52.7z"/>
	<path class="st4" d="M30.5,53.1c0.3-0.6,0.8-0.9,1.4-0.9s1.1,0.3,1.4,0.9c0.2,0.5,0.3,1.3,0.3,2.5c0,1.2-0.1,2.1-0.3,2.5
		c-0.3,0.6-0.8,0.9-1.4,0.9s-1.1-0.3-1.4-0.9c-0.2-0.5-0.3-1.3-0.3-2.5S30.2,53.6,30.5,53.1z M31.9,58.6c0.9,0,1.1-1,1.1-2.9
		s-0.2-2.9-1.1-2.9s-1.1,1-1.1,2.9C30.8,57.6,31,58.6,31.9,58.6z"/>
	<path class="st4" d="M34.7,53.1c0.3-0.6,0.8-0.9,1.4-0.9c0.6,0,1.1,0.3,1.3,0.9c0.2,0.5,0.3,1.3,0.3,2.5c0,1.2-0.1,2.1-0.3,2.5
		c-0.3,0.6-0.8,0.9-1.3,0.9s-1.1-0.3-1.4-0.9c-0.2-0.5-0.3-1.3-0.3-2.5C34.4,54.4,34.5,53.6,34.7,53.1z M36,58.6
		c0.9,0,1.1-1,1.1-2.9s-0.2-2.9-1.1-2.9s-1.1,1-1.1,2.9C35,57.6,35.2,58.6,36,58.6z"/>
</g>
<g>
	<path class="st4" d="M27.5,36.9c-0.9,0-1.6-0.8-1.6-2.1c0-1.4,0.6-2.2,1.6-2.2c1.2,0,1.7,1,1.7,3.1c0,2.5-0.5,3.8-1.8,3.8
		c-0.8,0-1.4-0.6-1.4-1.5h0.5c0,0.6,0.4,1,0.9,1c0.8,0,1.2-0.9,1.2-2.6C28.4,36.7,28,36.9,27.5,36.9z M26.5,34.8
		c0,1.1,0.4,1.6,1,1.6c0.6,0,1-0.5,1-1.5c0-1.3-0.4-1.9-1.1-1.9C26.9,33,26.5,33.6,26.5,34.8z"/>
	<path class="st4" d="M30.5,33.4c0.3-0.6,0.8-0.9,1.4-0.9s1.1,0.3,1.4,0.9c0.2,0.5,0.3,1.3,0.3,2.5c0,1.2-0.1,2.1-0.3,2.5
		c-0.3,0.6-0.8,0.9-1.4,0.9s-1.1-0.3-1.4-0.9c-0.2-0.5-0.3-1.3-0.3-2.5C30.2,34.7,30.2,33.9,30.5,33.4z M31.9,38.9
		c0.9,0,1.1-1,1.1-2.9S32.7,33,31.9,33s-1.1,1-1.1,2.9C30.8,38,31,38.9,31.9,38.9z"/>
	<path class="st4" d="M34.7,33.4c0.3-0.6,0.8-0.9,1.4-0.9c0.6,0,1.1,0.3,1.3,0.9c0.2,0.5,0.3,1.3,0.3,2.5c0,1.2-0.1,2.1-0.3,2.5
		c-0.3,0.6-0.8,0.9-1.3,0.9s-1.1-0.3-1.4-0.9c-0.2-0.5-0.3-1.3-0.3-2.5C34.4,34.7,34.5,33.9,34.7,33.4z M36,38.9
		c0.9,0,1.1-1,1.1-2.9S36.9,33,36,33S35,34,35,36C35,38,35.2,38.9,36,38.9z"/>
</g>
<g>
	<path class="st4" d="M23.4,12.5c-0.3,0.1-0.7,0.1-1,0.1c-0.1,0-0.2,0-0.4,0v-0.3c1,0,1.4-0.4,1.5-1.3h0.4v6.6h-0.5
		C23.4,17.6,23.4,12.5,23.4,12.5z"/>
	<path class="st4" d="M26.3,11.8c0.3-0.6,0.8-0.9,1.4-0.9s1.1,0.3,1.4,0.9c0.2,0.5,0.3,1.3,0.3,2.5s-0.1,2.1-0.3,2.5
		c-0.3,0.6-0.8,0.9-1.4,0.9s-1.1-0.3-1.4-0.9c-0.2-0.5-0.3-1.3-0.3-2.5C26,13.1,26,12.2,26.3,11.8z M27.6,17.2c0.9,0,1.1-1,1.1-2.9
		s-0.2-2.9-1.1-2.9s-1.1,1-1.1,2.9C26.5,16.3,26.8,17.2,27.6,17.2z"/>
	<path class="st4" d="M30.5,11.8c0.3-0.6,0.8-0.9,1.4-0.9s1.1,0.3,1.4,0.9c0.2,0.5,0.3,1.3,0.3,2.5s-0.1,2.1-0.3,2.5
		c-0.3,0.6-0.8,0.9-1.4,0.9s-1.1-0.3-1.4-0.9c-0.2-0.5-0.3-1.3-0.3-2.5C30.2,13.1,30.2,12.2,30.5,11.8z M31.9,17.2
		c0.9,0,1.1-1,1.1-2.9s-0.2-2.9-1.1-2.9s-1.1,1-1.1,2.9C30.8,16.3,31,17.2,31.9,17.2z"/>
	<path class="st4" d="M34.7,11.8c0.3-0.6,0.8-0.9,1.4-0.9c0.6,0,1.1,0.3,1.3,0.9c0.2,0.5,0.3,1.3,0.3,2.5s-0.1,2.1-0.3,2.5
		c-0.3,0.6-0.8,0.9-1.3,0.9s-1.1-0.3-1.4-0.9c-0.2-0.5-0.3-1.3-0.3-2.5C34.4,13.1,34.5,12.2,34.7,11.8z M36,17.2
		c0.9,0,1.1-1,1.1-2.9s-0.2-2.9-1.1-2.9s-1.1,1-1.1,2.9C35,16.3,35.2,17.2,36,17.2z"/>
</g>
<rect x="531.7" y="89.5" class="st2" width="9.1" height="131.6"/>
<rect x="557.1" y="88.4" class="st1" width="9.1" height="132.7"/>
<g>
	<rect x="46.6" y="231.3" class="st3" width="26" height="9"/>
	<path class="st4" d="M53.6,232.9c-0.3,0.1-0.7,0.1-1,0.1c-0.1,0-0.2,0-0.4,0v-0.3c1,0,1.4-0.4,1.5-1.3h0.4v6.6h-0.5
		C53.6,238,53.6,232.9,53.6,232.9z"/>
	<path class="st4" d="M57.2,235.6c-0.9,0-1.6-0.8-1.6-2.1c0-1.4,0.6-2.2,1.7-2.2c1.2,0,1.7,1,1.7,3.1c0,2.5-0.5,3.8-1.8,3.8
		c-0.8,0-1.3-0.6-1.4-1.5h0.5c0,0.6,0.4,1,0.9,1c0.8,0,1.2-0.9,1.2-2.6C58,235.4,57.6,235.6,57.2,235.6z M56.2,233.5
		c0,1.1,0.4,1.6,1,1.6c0.6,0,1-0.5,1-1.5c0-1.3-0.4-1.9-1.1-1.9C56.6,231.7,56.2,232.3,56.2,233.5z"/>
	<path class="st4" d="M61.3,235.6c-0.9,0-1.6-0.8-1.6-2.1c0-1.4,0.6-2.2,1.7-2.2c1.2,0,1.7,1,1.7,3.1c0,2.5-0.5,3.8-1.8,3.8
		c-0.8,0-1.3-0.6-1.4-1.5h0.5c0,0.6,0.4,1,0.9,1c0.8,0,1.2-0.9,1.2-2.6C62.1,235.4,61.8,235.6,61.3,235.6z M60.3,233.5
		c0,1.1,0.4,1.6,1,1.6c0.6,0,1-0.5,1-1.5c0-1.3-0.4-1.9-1.1-1.9C60.7,231.7,60.3,232.3,60.3,233.5z"/>
	<path class="st4" d="M64.1,232.9c0-1.1,0.6-1.7,1.5-1.7s1.5,0.6,1.5,1.7c0,0.6-0.2,1.1-0.7,1.4c0.6,0.3,0.9,0.9,0.9,1.7
		c0,1.3-0.6,2-1.7,2c-1,0-1.7-0.7-1.7-2c0-0.9,0.3-1.4,0.9-1.7C64.3,234.1,64.1,233.6,64.1,232.9z M65.6,234.6
		c-0.6,0-1.1,0.6-1.1,1.5c0,1,0.4,1.5,1.1,1.5c0.7,0,1.1-0.5,1.1-1.5C66.7,235.2,66.2,234.6,65.6,234.6z M65.6,231.7
		c-0.5,0-0.9,0.4-0.9,1.2c0,0.8,0.3,1.2,0.9,1.2c0.6,0,0.9-0.5,0.9-1.2C66.4,232.1,66.1,231.7,65.6,231.7z"/>
</g>
<g>
	<rect x="97.1" y="231.3" class="st3" width="26" height="9"/>
	<path class="st4" d="M102.5,236.5c0.2-0.4,0.6-0.8,1.1-1.3c0.7-0.7,1.3-1.2,1.3-2.2c0-0.8-0.4-1.2-1-1.2c-0.7,0-1.1,0.5-1.1,1.4
		h-0.5c0,0,0-0.1,0-0.1c0-1.2,0.6-1.9,1.6-1.9c1,0,1.6,0.7,1.6,1.8c0,0.4-0.1,0.8-0.2,1.1c-0.2,0.6-0.7,0.9-1.1,1.3
		c-0.8,0.8-1.3,1.3-1.3,2h2.7v0.6h-3.3C102.2,237.4,102.3,236.9,102.5,236.5z"/>
	<path class="st4" d="M106.6,232.1c0.3-0.6,0.8-0.9,1.4-0.9s1.1,0.3,1.3,0.9c0.2,0.5,0.3,1.3,0.3,2.5s-0.1,2.1-0.3,2.5
		c-0.3,0.6-0.8,0.9-1.3,0.9s-1.1-0.3-1.4-0.9c-0.2-0.5-0.3-1.3-0.3-2.5C106.3,233.4,106.4,232.6,106.6,232.1z M107.9,237.6
		c0.9,0,1.1-1,1.1-2.9s-0.2-2.9-1.1-2.9s-1.1,1-1.1,2.9S107.1,237.6,107.9,237.6z"/>
	<path class="st4" d="M110.8,232.1c0.3-0.6,0.8-0.9,1.4-0.9s1.1,0.3,1.3,0.9c0.2,0.5,0.3,1.3,0.3,2.5s-0.1,2.1-0.3,2.5
		c-0.3,0.6-0.8,0.9-1.3,0.9s-1.1-0.3-1.4-0.9c-0.2-0.5-0.3-1.3-0.3-2.5S110.6,232.6,110.8,232.1z M112.2,237.6c0.9,0,1.1-1,1.1-2.9
		s-0.2-2.9-1.1-2.9s-1.1,1-1.1,2.9C111.1,236.6,111.3,237.6,112.2,237.6z"/>
	<path class="st4" d="M115,232.1c0.3-0.6,0.8-0.9,1.4-0.9s1.1,0.3,1.3,0.9c0.2,0.5,0.3,1.3,0.3,2.5s-0.1,2.1-0.3,2.5
		c-0.3,0.6-0.8,0.9-1.3,0.9s-1.1-0.3-1.4-0.9c-0.2-0.5-0.3-1.3-0.3-2.5S114.8,232.6,115,232.1z M116.4,237.6c0.9,0,1.1-1,1.1-2.9
		s-0.2-2.9-1.1-2.9s-1.1,1-1.1,2.9S115.5,237.6,116.4,237.6z"/>
</g>
<g>
	<rect x="147.6" y="231.3" class="st3" width="26" height="9"/>
	<path class="st4" d="M153.1,236.5c0.2-0.4,0.6-0.8,1.1-1.3c0.7-0.7,1.3-1.2,1.3-2.2c0-0.8-0.4-1.2-1-1.2c-0.7,0-1.1,0.5-1.1,1.4
		h-0.5c0,0,0-0.1,0-0.1c0-1.2,0.6-1.9,1.6-1.9c1,0,1.6,0.7,1.6,1.8c0,0.4-0.1,0.8-0.2,1.1c-0.2,0.6-0.7,0.9-1.1,1.3
		c-0.8,0.8-1.3,1.3-1.3,2h2.7v0.6h-3.3C152.8,237.4,152.9,236.9,153.1,236.5z"/>
	<path class="st4" d="M157.2,232.1c0.3-0.6,0.8-0.9,1.4-0.9s1.1,0.3,1.4,0.9c0.2,0.5,0.3,1.3,0.3,2.5s-0.1,2.1-0.3,2.5
		c-0.3,0.6-0.8,0.9-1.4,0.9s-1.1-0.3-1.4-0.9c-0.2-0.5-0.3-1.3-0.3-2.5S156.9,232.6,157.2,232.1z M158.5,237.6c0.9,0,1.1-1,1.1-2.9
		s-0.2-2.9-1.1-2.9s-1.1,1-1.1,2.9C157.4,236.6,157.6,237.6,158.5,237.6z"/>
	<path class="st4" d="M161.4,232.1c0.3-0.6,0.8-0.9,1.4-0.9s1.1,0.3,1.4,0.9c0.2,0.5,0.3,1.3,0.3,2.5s-0.1,2.1-0.3,2.5
		c-0.3,0.6-0.8,0.9-1.4,0.9s-1.1-0.3-1.4-0.9c-0.2-0.5-0.3-1.3-0.3-2.5S161.1,232.6,161.4,232.1z M162.7,237.6c0.9,0,1.1-1,1.1-2.9
		s-0.2-2.9-1.1-2.9s-1.1,1-1.1,2.9S161.9,237.6,162.7,237.6z"/>
	<path class="st4" d="M165.5,236.5c0.2-0.4,0.6-0.8,1.1-1.3c0.7-0.7,1.3-1.2,1.3-2.2c0-0.8-0.4-1.2-1-1.2c-0.7,0-1.1,0.5-1.1,1.4
		h-0.5c0,0,0-0.1,0-0.1c0-1.2,0.6-1.9,1.6-1.9c1,0,1.6,0.7,1.6,1.8c0,0.4-0.1,0.8-0.2,1.1c-0.2,0.6-0.7,0.9-1.1,1.3
		c-0.8,0.8-1.3,1.3-1.3,2h2.7v0.6h-3.3C165.2,237.4,165.3,236.9,165.5,236.5z"/>
</g>
<g>
	<rect x="198.1" y="231.3" class="st3" width="26" height="9"/>
	<path class="st4" d="M203.6,236.5c0.2-0.4,0.6-0.8,1.1-1.3c0.7-0.7,1.3-1.2,1.3-2.2c0-0.8-0.4-1.2-1-1.2c-0.7,0-1.1,0.5-1.1,1.4
		h-0.5c0,0,0-0.1,0-0.1c0-1.2,0.6-1.9,1.6-1.9c1,0,1.6,0.7,1.6,1.8c0,0.4-0.1,0.8-0.2,1.1c-0.2,0.6-0.7,0.9-1.1,1.3
		c-0.8,0.8-1.3,1.3-1.3,2h2.7v0.6h-3.3C203.2,237.4,203.3,236.9,203.6,236.5z"/>
	<path class="st4" d="M207.6,232.1c0.3-0.6,0.8-0.9,1.4-0.9s1.1,0.3,1.4,0.9c0.2,0.5,0.3,1.3,0.3,2.5s-0.1,2.1-0.3,2.5
		c-0.3,0.6-0.8,0.9-1.4,0.9s-1.1-0.3-1.4-0.9c-0.2-0.5-0.3-1.3-0.3-2.5C207.3,233.4,207.4,232.6,207.6,232.1z M209,237.6
		c0.9,0,1.1-1,1.1-2.9s-0.2-2.9-1.1-2.9s-1.1,1-1.1,2.9C207.9,236.6,208.1,237.6,209,237.6z"/>
	<path class="st4" d="M211.8,232.1c0.3-0.6,0.8-0.9,1.4-0.9s1.1,0.3,1.4,0.9c0.2,0.5,0.3,1.3,0.3,2.5s-0.1,2.1-0.3,2.5
		c-0.3,0.6-0.8,0.9-1.4,0.9s-1.1-0.3-1.4-0.9c-0.2-0.5-0.3-1.3-0.3-2.5C211.5,233.4,211.6,232.6,211.8,232.1z M213.2,237.6
		c0.9,0,1.1-1,1.1-2.9s-0.2-2.9-1.1-2.9s-1.1,1-1.1,2.9C212.1,236.6,212.3,237.6,213.2,237.6z"/>
	<path class="st4" d="M217.9,236.2h-2.3v-0.5l2.3-4.4h0.6v4.4h0.6v0.5h-0.6v1.7h-0.6V236.2z M217.9,235.8l0.1-3.5l-1.8,3.5H217.9z"
		/>
</g>
<g>
	<rect x="248.6" y="231.3" class="st3" width="26" height="9"/>
	<path class="st4" d="M254,236.5c0.2-0.4,0.6-0.8,1.1-1.3c0.7-0.7,1.3-1.2,1.3-2.2c0-0.8-0.4-1.2-1-1.2c-0.7,0-1.1,0.5-1.1,1.4h-0.5
		c0,0,0-0.1,0-0.1c0-1.2,0.6-1.9,1.6-1.9c1,0,1.6,0.7,1.6,1.8c0,0.4-0.1,0.8-0.2,1.1c-0.2,0.6-0.7,0.9-1.1,1.3
		c-0.8,0.8-1.3,1.3-1.3,2h2.7v0.6h-3.3C253.7,237.4,253.8,236.9,254,236.5z"/>
	<path class="st4" d="M258.1,232.1c0.3-0.6,0.8-0.9,1.4-0.9c0.6,0,1.1,0.3,1.4,0.9c0.2,0.5,0.3,1.3,0.3,2.5s-0.1,2.1-0.3,2.5
		c-0.3,0.6-0.8,0.9-1.4,0.9s-1.1-0.3-1.4-0.9c-0.2-0.5-0.3-1.3-0.3-2.5S257.9,232.6,258.1,232.1z M259.5,237.6c0.9,0,1.1-1,1.1-2.9
		s-0.2-2.9-1.1-2.9s-1.1,1-1.1,2.9S258.6,237.6,259.5,237.6z"/>
	<path class="st4" d="M262.3,232.1c0.3-0.6,0.8-0.9,1.4-0.9c0.6,0,1.1,0.3,1.4,0.9c0.2,0.5,0.3,1.3,0.3,2.5s-0.1,2.1-0.3,2.5
		c-0.3,0.6-0.8,0.9-1.4,0.9s-1.1-0.3-1.4-0.9c-0.2-0.5-0.3-1.3-0.3-2.5S262.1,232.6,262.3,232.1z M263.7,237.6c0.9,0,1.1-1,1.1-2.9
		s-0.2-2.9-1.1-2.9s-1.1,1-1.1,2.9C262.6,236.6,262.8,237.6,263.7,237.6z"/>
	<path class="st4" d="M268,233.7c0.9,0,1.6,0.8,1.6,2.1c0,1.4-0.6,2.3-1.7,2.3c-1.2,0-1.7-1-1.7-3.1c0-2.5,0.5-3.8,1.8-3.8
		c0.8,0,1.4,0.6,1.4,1.5h-0.5c0-0.6-0.4-1-0.9-1c-0.8,0-1.2,0.9-1.2,2.6C267.1,233.9,267.5,233.7,268,233.7z M269,235.8
		c0-1.1-0.4-1.6-1-1.6c-0.6,0-1,0.5-1,1.5c0,1.3,0.4,1.9,1.1,1.9C268.5,237.6,269,237,269,235.8z"/>
</g>
<g>
	<rect x="299.1" y="231.3" class="st3" width="26" height="9"/>
	<path class="st4" d="M304.6,236.5c0.2-0.4,0.6-0.8,1.1-1.3c0.7-0.7,1.3-1.2,1.3-2.2c0-0.8-0.4-1.2-1-1.2c-0.7,0-1.1,0.5-1.1,1.4
		h-0.5c0,0,0-0.1,0-0.1c0-1.2,0.6-1.9,1.6-1.9c1,0,1.6,0.7,1.6,1.8c0,0.4-0.1,0.8-0.2,1.1c-0.2,0.6-0.7,0.9-1.1,1.3
		c-0.8,0.8-1.3,1.3-1.3,2h2.7v0.6h-3.3C304.2,237.4,304.3,236.9,304.6,236.5z"/>
	<path class="st4" d="M308.6,232.1c0.3-0.6,0.8-0.9,1.4-0.9s1.1,0.3,1.4,0.9c0.2,0.5,0.3,1.3,0.3,2.5s-0.1,2.1-0.3,2.5
		c-0.3,0.6-0.8,0.9-1.4,0.9s-1.1-0.3-1.4-0.9c-0.2-0.5-0.3-1.3-0.3-2.5S308.4,232.6,308.6,232.1z M310,237.6c0.9,0,1.1-1,1.1-2.9
		s-0.2-2.9-1.1-2.9s-1.1,1-1.1,2.9S309.1,237.6,310,237.6z"/>
	<path class="st4" d="M312.8,232.1c0.3-0.6,0.8-0.9,1.4-0.9s1.1,0.3,1.4,0.9c0.2,0.5,0.3,1.3,0.3,2.5s-0.1,2.1-0.3,2.5
		c-0.3,0.6-0.8,0.9-1.4,0.9s-1.1-0.3-1.4-0.9c-0.2-0.5-0.3-1.3-0.3-2.5S312.6,232.6,312.8,232.1z M314.2,237.6c0.9,0,1.1-1,1.1-2.9
		s-0.2-2.9-1.1-2.9s-1.1,1-1.1,2.9S313.3,237.6,314.2,237.6z"/>
	<path class="st4" d="M316.9,232.9c0-1.1,0.6-1.7,1.5-1.7s1.5,0.6,1.5,1.7c0,0.6-0.2,1.1-0.7,1.4c0.6,0.3,0.9,0.9,0.9,1.7
		c0,1.3-0.6,2-1.7,2s-1.7-0.7-1.7-2c0-0.9,0.3-1.4,0.9-1.7C317.1,234.1,316.9,233.6,316.9,232.9z M318.3,234.6
		c-0.6,0-1.1,0.6-1.1,1.5c0,1,0.4,1.5,1,1.5c0.7,0,1.1-0.5,1.1-1.5C319.4,235.2,319,234.6,318.3,234.6z M318.3,231.7
		c-0.5,0-0.9,0.4-0.9,1.2c0,0.8,0.3,1.2,0.9,1.2s0.9-0.5,0.9-1.2C319.2,232.1,318.9,231.7,318.3,231.7z"/>
</g>
<g>
	<rect x="349.6" y="231.3" class="st3" width="26" height="9"/>
	<path class="st4" d="M355.4,236.5c0.2-0.4,0.6-0.8,1.1-1.3c0.7-0.7,1.3-1.2,1.3-2.2c0-0.8-0.4-1.2-1-1.2c-0.7,0-1.1,0.5-1.1,1.4
		h-0.5c0,0,0-0.1,0-0.1c0-1.2,0.6-1.9,1.6-1.9c1,0,1.6,0.7,1.6,1.8c0,0.4-0.1,0.8-0.2,1.1c-0.2,0.6-0.7,0.9-1.1,1.3
		c-0.8,0.8-1.3,1.3-1.3,2h2.7v0.6H355C355,237.4,355.1,236.9,355.4,236.5z"/>
	<path class="st4" d="M359.4,232.1c0.3-0.6,0.8-0.9,1.4-0.9c0.6,0,1.1,0.3,1.4,0.9c0.2,0.5,0.3,1.3,0.3,2.5s-0.1,2.1-0.3,2.5
		c-0.3,0.6-0.8,0.9-1.4,0.9s-1.1-0.3-1.4-0.9c-0.2-0.5-0.3-1.3-0.3-2.5C359.1,233.4,359.2,232.6,359.4,232.1z M360.8,237.6
		c0.9,0,1.1-1,1.1-2.9s-0.2-2.9-1.1-2.9s-1.1,1-1.1,2.9S359.9,237.6,360.8,237.6z"/>
	<path class="st4" d="M364.8,232.9c-0.3,0.1-0.7,0.1-1,0.1c-0.1,0-0.2,0-0.4,0v-0.3c1,0,1.4-0.4,1.5-1.3h0.4v6.6h-0.5L364.8,232.9
		L364.8,232.9z"/>
	<path class="st4" d="M367.2,232.1c0.3-0.6,0.8-0.9,1.4-0.9c0.6,0,1.1,0.3,1.4,0.9c0.2,0.5,0.3,1.3,0.3,2.5s-0.1,2.1-0.3,2.5
		c-0.3,0.6-0.8,0.9-1.4,0.9s-1.1-0.3-1.4-0.9c-0.2-0.5-0.3-1.3-0.3-2.5S366.9,232.6,367.2,232.1z M368.5,237.6c0.9,0,1.1-1,1.1-2.9
		s-0.2-2.9-1.1-2.9s-1.1,1-1.1,2.9S367.6,237.6,368.5,237.6z"/>
</g>
<g>
	<rect x="400.1" y="231.3" class="st3" width="26" height="9"/>
	<path class="st4" d="M405.9,236.5c0.2-0.4,0.6-0.8,1.1-1.3c0.7-0.7,1.3-1.2,1.3-2.2c0-0.8-0.4-1.2-1-1.2c-0.7,0-1.1,0.5-1.1,1.4
		h-0.5c0,0,0-0.1,0-0.1c0-1.2,0.6-1.9,1.6-1.9c1,0,1.6,0.7,1.6,1.8c0,0.4-0.1,0.8-0.2,1.1c-0.2,0.6-0.7,0.9-1.1,1.3
		c-0.8,0.8-1.3,1.3-1.3,2h2.7v0.6h-3.3C405.6,237.4,405.7,236.9,405.9,236.5z"/>
	<path class="st4" d="M410,232.1c0.3-0.6,0.8-0.9,1.4-0.9c0.6,0,1.1,0.3,1.4,0.9c0.2,0.5,0.3,1.3,0.3,2.5s-0.1,2.1-0.3,2.5
		c-0.3,0.6-0.8,0.9-1.4,0.9s-1.1-0.3-1.4-0.9c-0.2-0.5-0.3-1.3-0.3-2.5C409.7,233.4,409.8,232.6,410,232.1z M411.3,237.6
		c0.9,0,1.1-1,1.1-2.9s-0.2-2.9-1.1-2.9s-1.1,1-1.1,2.9S410.5,237.6,411.3,237.6z"/>
	<path class="st4" d="M415.3,232.9c-0.3,0.1-0.7,0.1-1,0.1c-0.1,0-0.2,0-0.4,0v-0.3c1,0,1.4-0.4,1.5-1.3h0.4v6.6h-0.5L415.3,232.9
		L415.3,232.9z"/>
	<path class="st4" d="M417.7,236.5c0.2-0.4,0.6-0.8,1.1-1.3c0.7-0.7,1.3-1.2,1.3-2.2c0-0.8-0.4-1.2-1-1.2c-0.7,0-1.1,0.5-1.1,1.4
		h-0.5c0,0,0-0.1,0-0.1c0-1.2,0.6-1.9,1.6-1.9c1,0,1.6,0.7,1.6,1.8c0,0.4-0.1,0.8-0.2,1.1c-0.2,0.6-0.7,0.9-1.1,1.3
		c-0.8,0.8-1.3,1.3-1.3,2h2.7v0.6h-3.3C417.3,237.4,417.4,236.9,417.7,236.5z"/>
</g>
<g>
	<rect x="450.6" y="231.3" class="st3" width="26" height="9"/>
	<path class="st4" d="M456.4,236.5c0.2-0.4,0.6-0.8,1.1-1.3c0.7-0.7,1.3-1.2,1.3-2.2c0-0.8-0.4-1.2-1-1.2c-0.7,0-1.1,0.5-1.1,1.4
		h-0.5c0,0,0-0.1,0-0.1c0-1.2,0.6-1.9,1.6-1.9c1,0,1.6,0.7,1.6,1.8c0,0.4-0.1,0.8-0.2,1.1c-0.2,0.6-0.7,0.9-1.1,1.3
		c-0.8,0.8-1.3,1.3-1.3,2h2.7v0.6H456C456.1,237.4,456.2,236.9,456.4,236.5z"/>
	<path class="st4" d="M460.5,232.1c0.3-0.6,0.8-0.9,1.4-0.9s1.1,0.3,1.4,0.9c0.2,0.5,0.3,1.3,0.3,2.5s-0.1,2.1-0.3,2.5
		c-0.3,0.6-0.8,0.9-1.4,0.9s-1.1-0.3-1.4-0.9c-0.2-0.5-0.3-1.3-0.3-2.5S460.2,232.6,460.5,232.1z M461.8,237.6c0.9,0,1.1-1,1.1-2.9
		s-0.2-2.9-1.1-2.9s-1.1,1-1.1,2.9S461,237.6,461.8,237.6z"/>
	<path class="st4" d="M465.8,232.9c-0.3,0.1-0.7,0.1-1,0.1c-0.1,0-0.2,0-0.4,0v-0.3c1,0,1.4-0.4,1.5-1.3h0.4v6.6h-0.5L465.8,232.9
		L465.8,232.9z"/>
	<path class="st4" d="M470,236.2h-2.3v-0.5l2.3-4.4h0.6v4.4h0.6v0.5h-0.6v1.7H470V236.2z M470,235.8l0.1-3.5l-1.8,3.5H470z"/>
</g>
<line class="st5" x1="514.9" y1="227.8" x2="514.9" y2="221.6"/>
<line class="st5" x1="540.2" y1="224.8" x2="540.2" y2="221.6"/>
<g>
	<rect x="501.5" y="231.3" class="st3" width="26" height="9"/>
	<path class="st4" d="M507.3,236.5c0.2-0.4,0.6-0.8,1.1-1.3c0.7-0.7,1.3-1.2,1.3-2.2c0-0.8-0.4-1.2-1-1.2c-0.7,0-1.1,0.5-1.1,1.4
		H507c0,0,0-0.1,0-0.1c0-1.2,0.6-1.9,1.6-1.9c1,0,1.6,0.7,1.6,1.8c0,0.4-0.1,0.8-0.2,1.1c-0.2,0.6-0.7,0.9-1.1,1.3
		c-0.8,0.8-1.3,1.3-1.3,2h2.7v0.6h-3.3C506.9,237.4,507,236.9,507.3,236.5z"/>
	<path class="st4" d="M511.3,232.1c0.3-0.6,0.8-0.9,1.4-0.9s1.1,0.3,1.3,0.9c0.2,0.5,0.3,1.3,0.3,2.5s-0.1,2.1-0.3,2.5
		c-0.3,0.6-0.8,0.9-1.3,0.9s-1.1-0.3-1.4-0.9c-0.2-0.5-0.3-1.3-0.3-2.5C511,233.4,511.1,232.6,511.3,232.1z M512.7,237.6
		c0.9,0,1.1-1,1.1-2.9s-0.2-2.9-1.1-2.9s-1.1,1-1.1,2.9C511.6,236.6,511.8,237.6,512.7,237.6z"/>
	<path class="st4" d="M516.7,232.9c-0.3,0.1-0.7,0.1-1,0.1c-0.1,0-0.2,0-0.4,0v-0.3c1,0,1.4-0.4,1.5-1.3h0.4v6.6h-0.5L516.7,232.9
		L516.7,232.9z"/>
	<path class="st4" d="M520.5,233.7c0.9,0,1.6,0.8,1.6,2.1c0,1.4-0.6,2.3-1.7,2.3c-1.2,0-1.7-1-1.7-3.1c0-2.5,0.5-3.8,1.8-3.8
		c0.8,0,1.4,0.6,1.4,1.5h-0.5c0-0.6-0.4-1-0.8-1c-0.8,0-1.2,0.9-1.2,2.6C519.7,233.9,520.1,233.7,520.5,233.7z M521.5,235.8
		c0-1.1-0.4-1.6-1-1.6c-0.6,0-1,0.5-1,1.5c0,1.3,0.4,1.9,1.1,1.9C521.1,237.6,521.5,237,521.5,235.8z"/>
</g>
<line class="st5" x1="565.7" y1="227.8" x2="565.7" y2="221.6"/>
<g>
	<rect x="552.7" y="231.3" class="st3" width="26" height="9"/>
	<path class="st4" d="M558.5,236.5c0.2-0.4,0.6-0.8,1.1-1.3c0.7-0.7,1.3-1.2,1.3-2.2c0-0.8-0.4-1.2-1-1.2c-0.7,0-1.1,0.5-1.1,1.4
		h-0.5c0,0,0-0.1,0-0.1c0-1.2,0.6-1.9,1.6-1.9c1,0,1.6,0.7,1.6,1.8c0,0.4-0.1,0.8-0.2,1.1c-0.2,0.6-0.7,0.9-1.1,1.3
		c-0.8,0.8-1.3,1.3-1.3,2h2.7v0.6h-3.3C558.1,237.4,558.2,236.9,558.5,236.5z"/>
	<path class="st4" d="M562.5,232.1c0.3-0.6,0.8-0.9,1.4-0.9s1.1,0.3,1.3,0.9c0.2,0.5,0.3,1.3,0.3,2.5s-0.1,2.1-0.3,2.5
		c-0.3,0.6-0.8,0.9-1.3,0.9s-1.1-0.3-1.4-0.9c-0.2-0.5-0.3-1.3-0.3-2.5C562.2,233.4,562.3,232.6,562.5,232.1z M563.9,237.6
		c0.9,0,1.1-1,1.1-2.9s-0.2-2.9-1.1-2.9s-1.1,1-1.1,2.9S563,237.6,563.9,237.6z"/>
	<path class="st4" d="M567.8,232.9c-0.3,0.1-0.7,0.1-1,0.1c-0.1,0-0.2,0-0.4,0v-0.3c1,0,1.4-0.4,1.5-1.3h0.4v6.6h-0.5L567.8,232.9
		L567.8,232.9z"/>
	<path class="st4" d="M570.1,232.9c0-1.1,0.6-1.7,1.5-1.7s1.5,0.6,1.5,1.7c0,0.6-0.2,1.1-0.7,1.4c0.6,0.3,0.9,0.9,0.9,1.7
		c0,1.3-0.6,2-1.7,2c-1,0-1.7-0.7-1.7-2c0-0.9,0.3-1.4,0.9-1.7C570.3,234.1,570.1,233.6,570.1,232.9z M571.6,234.6
		c-0.6,0-1.1,0.6-1.1,1.5c0,1,0.4,1.5,1,1.5c0.7,0,1.1-0.5,1.1-1.5C572.6,235.2,572.2,234.6,571.6,234.6z M571.6,231.7
		c-0.5,0-0.9,0.4-0.9,1.2c0,0.8,0.3,1.2,0.9,1.2s0.9-0.5,0.9-1.2C572.4,232.1,572.1,231.7,571.6,231.7z"/>
</g>
<polyline class="st6" points="42.3,10.7 42.3,221.1 584.7,221.1 "/>
<g>
	<rect x="605.2" y="14.2" class="st3" width="13.3" height="207.6"/>
	<path class="st4" d="M618.5,67v2.5c0,2-1,2.9-3.2,2.9c-1.2,0-2.1-0.4-2.7-1.1c-0.5-0.6-0.6-1.3-0.6-2.3V67
		C612.1,67,618.5,67,618.5,67z M613.2,69.4c0,1.2,0.6,1.8,2.1,1.8c1.4,0,2.1-0.5,2.1-1.6v-1.2h-4.2V69.4z"/>
	<path class="st4" d="M617,75.7c0,1.5-1,2.4-2.6,2.4c-1.6,0-2.6-0.9-2.6-2.4s1-2.4,2.6-2.4S617,74.2,617,75.7z M613,75.7
		c0,0.7,0.5,1.1,1.5,1.1s1.5-0.4,1.5-1.1s-0.5-1.1-1.5-1.1S613,74.9,613,75.7z"/>
	<path class="st4" d="M618.5,79v1.3h-6.5V79H618.5z"/>
	<path class="st4" d="M618.5,81.5v1.3h-6.5v-1.3H618.5z"/>
	<path class="st4" d="M611.9,85.1c0-0.9,0.5-1.4,1.5-1.4c0.9,0,1.3,0.5,1.5,1.6c0.2,1,0.1,1.3,0.5,1.3c0.4,0,0.5-0.2,0.5-0.8
		c0-0.5-0.2-0.8-0.6-0.8c0,0,0,0-0.1,0v-1.2c0,0,0.1,0,0.1,0c1,0,1.6,0.7,1.6,1.9c0,1.3-0.5,2.1-1.3,2.1H613c-0.3,0-0.6,0.1-0.7,0.3
		h-0.2v-1.3c0.2-0.1,0.4-0.1,0.6-0.1C612.2,86.3,611.9,85.8,611.9,85.1z M614.1,85.5c-0.1-0.4-0.3-0.6-0.6-0.6
		c-0.3,0-0.6,0.2-0.6,0.6c0,0.7,0.4,1.1,1.1,1.1h0.5C614.2,86.1,614.2,85.7,614.1,85.5z"/>
	<path class="st4" d="M616.8,88.9v1.2H616c0.7,0.3,1,0.8,1,1.4c0,0.1,0,0.1,0,0.2h-1.3v-0.4c0-0.7-0.4-1.1-1.1-1.1H612V89
		L616.8,88.9L616.8,88.9z"/>
	<path class="st4" d="M613.6,93.4c-0.5,0-0.7,0.3-0.7,1c0,0.5,0.2,0.8,0.5,0.8c0.4,0,0.4-0.4,0.6-1.3c0.3-1.1,0.6-1.7,1.4-1.7
		c1,0,1.6,0.7,1.6,2c0,1.3-0.6,2-1.6,2.1v-1.2c0.4,0,0.6-0.3,0.6-0.8c0-0.5-0.1-0.7-0.4-0.7c-0.3,0-0.4,0.4-0.6,1.3
		c-0.3,1.1-0.6,1.7-1.4,1.7c-1.1,0-1.7-0.8-1.7-2.2c0-1.3,0.6-2.1,1.7-2.1c0,0,0,0,0,0L613.6,93.4L613.6,93.4z"/>
	<path class="st4" d="M614.4,101.4c-1.5,0-2.8,0.4-4.2,1.2v-0.9c1.4-1,2.9-1.6,4.2-1.6s2.8,0.5,4.2,1.6v0.9
		C617.2,101.8,615.9,101.4,614.4,101.4z"/>
	<path class="st4" d="M618.5,104.6h-4.1c-1,0-1.4,0.4-1.4,1.2c0,0.9,0.5,1.3,1.4,1.3h4.1v1.3h-4.2c-1.6,0-2.5-0.9-2.5-2.6
		c0-1.7,0.9-2.6,2.5-2.6h4.2V104.6z"/>
	<path class="st4" d="M614.1,111c-0.7,0.1-1,0.6-1,1.5c0,0.8,0.3,1.2,0.8,1.2c0.6,0,0.7-0.5,1-1.7c0.1-0.5,0.2-1,0.5-1.4
		c0.3-0.5,0.8-0.7,1.5-0.7c1.2,0,2,0.9,2,2.5c0,1.5-0.8,2.4-2,2.4v-1.3c0.6,0,1-0.5,1-1.3c0-0.7-0.3-1.1-0.8-1.1
		c-0.6,0-0.6,0.5-0.9,1.6c-0.2,0.6-0.3,1.1-0.5,1.5c-0.3,0.5-0.8,0.8-1.5,0.8c-1.3,0-2.1-0.9-2.1-2.6c0-1.7,0.8-2.6,2.2-2.7
		L614.1,111L614.1,111z"/>
	<path class="st4" d="M616.8,121v1.3h-4.8V121H616.8z M618.5,121v1.3h-1.2V121H618.5z"/>
	<path class="st4" d="M616.8,123.4v1.2h-0.6c0.5,0.4,0.7,0.8,0.7,1.4c0,1.1-0.5,1.6-1.7,1.6H612v-1.3h2.9c0.7,0,1-0.2,1-0.7
		c0-0.6-0.4-1-1-1H612v-1.3H616.8z"/>
	<path class="st4" d="M618.5,131.5v2l-4.9,1.3l4.9,1.3v2h-6.5v-1.2h5.2l-5.2-1.3v-1.4l5.2-1.3h-5.2v-1.2L618.5,131.5L618.5,131.5z"
		/>
	<path class="st4" d="M616.8,139.2v1.3h-4.8v-1.3H616.8z M618.5,139.2v1.3h-1.2v-1.3H618.5z"/>
	<path class="st4" d="M618.5,141.7v1.3h-6.5v-1.3H618.5z"/>
	<path class="st4" d="M618.5,144.2v1.3h-6.5v-1.3H618.5z"/>
	<path class="st4" d="M616.8,146.6v1.3h-4.8v-1.3H616.8z M618.5,146.6v1.3h-1.2v-1.3H618.5z"/>
	<path class="st4" d="M617,151.2c0,1.5-1,2.4-2.6,2.4c-1.6,0-2.6-0.9-2.6-2.4s1-2.4,2.6-2.4S617,149.8,617,151.2z M613,151.2
		c0,0.7,0.5,1.1,1.5,1.1s1.5-0.4,1.5-1.1c0-0.7-0.5-1.1-1.5-1.1S613,150.5,613,151.2z"/>
	<path class="st4" d="M616.8,154.5v1.2h-0.6c0.5,0.4,0.7,0.9,0.7,1.4c0,1.1-0.5,1.6-1.7,1.6H612v-1.3h2.9c0.7,0,1-0.2,1-0.7
		c0-0.6-0.4-1-1-1H612v-1.3H616.8z"/>
	<path class="st4" d="M613.6,160.9c-0.5,0-0.7,0.3-0.7,1c0,0.5,0.2,0.8,0.5,0.8c0.4,0,0.4-0.4,0.6-1.3c0.3-1.1,0.6-1.7,1.4-1.7
		c1,0,1.6,0.7,1.6,2c0,1.3-0.6,2-1.6,2.1v-1.2c0.4,0,0.6-0.3,0.6-0.8c0-0.5-0.1-0.7-0.4-0.7c-0.3,0-0.4,0.4-0.6,1.3
		c-0.3,1.1-0.6,1.6-1.4,1.6c-1.1,0-1.7-0.8-1.7-2.2c0-1.3,0.6-2.1,1.7-2.1c0,0,0,0,0,0L613.6,160.9L613.6,160.9z"/>
	<path class="st4" d="M618.5,165.3c-1.4,1-2.9,1.6-4.2,1.6s-2.8-0.5-4.2-1.6v-0.9c1.3,0.8,2.7,1.2,4.2,1.2s2.8-0.4,4.2-1.2V165.3z"
		/>
</g>
<g>
	<path class="st4" d="M594.1,218.7c0.3-0.6,0.8-0.9,1.4-0.9s1.1,0.3,1.3,0.9c0.2,0.5,0.3,1.3,0.3,2.5s-0.1,2.1-0.3,2.5
		c-0.3,0.6-0.8,0.9-1.3,0.9s-1.1-0.3-1.4-0.9c-0.2-0.5-0.3-1.3-0.3-2.5S593.9,219.2,594.1,218.7z M595.5,224.2c0.9,0,1.1-1,1.1-2.9
		s-0.2-2.9-1.1-2.9s-1.1,1-1.1,2.9C594.4,223.2,594.6,224.2,595.5,224.2z"/>
</g>
<g>
	<path class="st4" d="M590.3,203.2c0.1,0.9,0.4,1.3,1,1.3c0.7,0,1.2-0.7,1.2-1.9c0-1.1-0.4-1.6-1.1-1.6c-0.4,0-0.8,0.2-1,0.7H590
		l0.4-3.4h2.5v0.5h-2l-0.3,2.1c0.3-0.2,0.6-0.4,1-0.4c0.9,0,1.5,0.8,1.5,2.1c0,1.6-0.6,2.4-1.8,2.4c-0.9,0-1.5-0.6-1.5-1.8
		L590.3,203.2L590.3,203.2z"/>
	<path class="st4" d="M594.3,199c0.3-0.6,0.8-0.9,1.4-0.9s1.1,0.3,1.3,0.9c0.2,0.5,0.3,1.3,0.3,2.5s-0.1,2.1-0.3,2.5
		c-0.3,0.6-0.8,0.9-1.3,0.9s-1.1-0.3-1.4-0.9c-0.2-0.5-0.3-1.3-0.3-2.5S594.1,199.5,594.3,199z M595.7,204.5c0.9,0,1.1-1,1.1-2.9
		s-0.2-2.9-1.1-2.9s-1.1,1-1.1,2.9C594.6,203.6,594.8,204.5,595.7,204.5z"/>
</g>
<g>
	<path class="st4" d="M591.4,178.1c-0.3,0.1-0.7,0.1-1,0.1c-0.1,0-0.2,0-0.4,0v-0.3c1,0,1.4-0.4,1.5-1.3h0.4v6.6h-0.5L591.4,178.1
		L591.4,178.1z"/>
	<path class="st4" d="M594.3,177.4c0.3-0.6,0.8-0.9,1.4-0.9s1.1,0.3,1.3,0.9c0.2,0.5,0.3,1.3,0.3,2.5s-0.1,2.1-0.3,2.5
		c-0.3,0.6-0.8,0.9-1.3,0.9s-1.1-0.3-1.4-0.9c-0.2-0.5-0.3-1.3-0.3-2.5S594.1,177.8,594.3,177.4z M595.7,182.8c0.9,0,1.1-1,1.1-2.9
		s-0.2-2.9-1.1-2.9s-1.1,1-1.1,2.9C594.6,181.9,594.8,182.8,595.7,182.8z"/>
	<path class="st4" d="M598.5,177.4c0.3-0.6,0.8-0.9,1.4-0.9s1.1,0.3,1.3,0.9c0.2,0.5,0.3,1.3,0.3,2.5s-0.1,2.1-0.3,2.5
		c-0.3,0.6-0.8,0.9-1.3,0.9s-1.1-0.3-1.4-0.9c-0.2-0.5-0.3-1.3-0.3-2.5C598.2,178.7,598.3,177.8,598.5,177.4z M599.9,182.8
		c0.9,0,1.1-1,1.1-2.9s-0.2-2.9-1.1-2.9s-1.1,1-1.1,2.9C598.8,181.9,599,182.8,599.9,182.8z"/>
</g>
<g>
	<path class="st4" d="M591.4,158.5c-0.3,0.1-0.7,0.1-1,0.1c-0.1,0-0.2,0-0.4,0v-0.3c1,0,1.4-0.4,1.5-1.3h0.4v6.6h-0.5L591.4,158.5
		L591.4,158.5z"/>
	<path class="st4" d="M594.5,161.9c0.1,0.9,0.4,1.3,1,1.3c0.7,0,1.2-0.7,1.2-1.9c0-1.1-0.4-1.6-1.1-1.6c-0.4,0-0.8,0.2-1,0.7h-0.5
		l0.4-3.4h2.5v0.5h-2l-0.3,2.1c0.3-0.2,0.6-0.4,1-0.4c0.9,0,1.5,0.8,1.5,2.1c0,1.6-0.6,2.4-1.8,2.4c-0.9,0-1.5-0.6-1.5-1.8
		L594.5,161.9L594.5,161.9z"/>
	<path class="st4" d="M598.5,157.7c0.3-0.6,0.8-0.9,1.4-0.9s1.1,0.3,1.3,0.9c0.2,0.5,0.3,1.3,0.3,2.5s-0.1,2.1-0.3,2.5
		c-0.3,0.6-0.8,0.9-1.3,0.9s-1.1-0.3-1.4-0.9c-0.2-0.5-0.3-1.3-0.3-2.5C598.2,159,598.3,158.1,598.5,157.7z M599.9,163.1
		c0.9,0,1.1-1,1.1-2.9s-0.2-2.9-1.1-2.9s-1.1,1-1.1,2.9C598.8,162.2,599,163.1,599.9,163.1z"/>
</g>
<g>
	<path class="st4" d="M590.2,140.3c0.2-0.4,0.6-0.8,1.1-1.3c0.7-0.7,1.3-1.2,1.3-2.2c0-0.8-0.4-1.2-1-1.2c-0.7,0-1.1,0.5-1.1,1.4
		h-0.5c0,0,0-0.1,0-0.1c0-1.2,0.6-1.9,1.6-1.9c1,0,1.6,0.7,1.6,1.8c0,0.4-0.1,0.8-0.2,1.1c-0.2,0.6-0.7,0.9-1.1,1.3
		c-0.8,0.8-1.3,1.3-1.3,2h2.7v0.6h-3.3C589.8,141.2,589.9,140.7,590.2,140.3z"/>
	<path class="st4" d="M594.3,136c0.3-0.6,0.8-0.9,1.4-0.9s1.1,0.3,1.3,0.9c0.2,0.5,0.3,1.3,0.3,2.5s-0.1,2.1-0.3,2.5
		c-0.3,0.6-0.8,0.9-1.3,0.9s-1.1-0.3-1.4-0.9c-0.2-0.5-0.3-1.3-0.3-2.5S594.1,136.5,594.3,136z M595.7,141.5c0.9,0,1.1-1,1.1-2.9
		s-0.2-2.9-1.1-2.9s-1.1,1-1.1,2.9C594.6,140.5,594.8,141.5,595.7,141.5z"/>
	<path class="st4" d="M598.5,136c0.3-0.6,0.8-0.9,1.4-0.9s1.1,0.3,1.3,0.9c0.2,0.5,0.3,1.3,0.3,2.5s-0.1,2.1-0.3,2.5
		c-0.3,0.6-0.8,0.9-1.3,0.9s-1.1-0.3-1.4-0.9c-0.2-0.5-0.3-1.3-0.3-2.5S598.3,136.5,598.5,136z M599.9,141.5c0.9,0,1.1-1,1.1-2.9
		s-0.2-2.9-1.1-2.9s-1.1,1-1.1,2.9C598.8,140.5,599,141.5,599.9,141.5z"/>
</g>
<g>
	<path class="st4" d="M590.2,120.6c0.2-0.4,0.6-0.8,1.1-1.3c0.7-0.7,1.3-1.2,1.3-2.2c0-0.8-0.4-1.2-1-1.2c-0.7,0-1.1,0.5-1.1,1.4
		h-0.5c0,0,0-0.1,0-0.1c0-1.2,0.6-1.8,1.6-1.8c1,0,1.6,0.7,1.6,1.8c0,0.4-0.1,0.8-0.2,1.1c-0.2,0.6-0.7,0.9-1.1,1.3
		c-0.8,0.8-1.3,1.3-1.3,2h2.7v0.6h-3.3C589.8,121.6,589.9,121.1,590.2,120.6z"/>
	<path class="st4" d="M594.5,120.5c0.1,0.9,0.4,1.3,1,1.3c0.7,0,1.2-0.7,1.2-1.9c0-1.1-0.4-1.6-1.1-1.6c-0.4,0-0.8,0.2-1,0.7h-0.5
		l0.4-3.4h2.5v0.5h-2l-0.3,2.1c0.3-0.2,0.6-0.3,1-0.3c0.9,0,1.5,0.8,1.5,2.1c0,1.6-0.6,2.4-1.8,2.4c-0.9,0-1.5-0.7-1.5-1.8H594.5z"
		/>
	<path class="st4" d="M598.5,116.3c0.3-0.6,0.8-0.9,1.4-0.9s1.1,0.3,1.3,0.9c0.2,0.5,0.3,1.3,0.3,2.5s-0.1,2.1-0.3,2.5
		c-0.3,0.6-0.8,0.9-1.3,0.9s-1.1-0.3-1.4-0.9c-0.2-0.5-0.3-1.3-0.3-2.5S598.3,116.8,598.5,116.3z M599.9,121.8c0.9,0,1.1-1,1.1-2.9
		s-0.2-2.9-1.1-2.9s-1.1,1-1.1,2.9C598.8,120.8,599,121.8,599.9,121.8z"/>
</g>
<g>
	<path class="st4" d="M590.3,98.7c0,0.9,0.4,1.4,1.1,1.4c0.7,0,1.1-0.5,1.1-1.4c0-1-0.4-1.4-1.4-1.4c-0.1,0-0.2,0-0.3,0v-0.5
		c0,0,0,0,0,0c1,0,1.5-0.4,1.5-1.4c0-0.7-0.4-1.1-1-1.1c-0.6,0-1,0.4-1,1.2c0,0,0,0,0,0H590c0-1.1,0.6-1.8,1.5-1.8
		c0.9,0,1.5,0.6,1.5,1.6c0,0.8-0.3,1.3-0.9,1.6c0.7,0.2,1.1,0.8,1.1,1.7c0,1.2-0.7,1.9-1.7,1.9c-1,0-1.6-0.7-1.6-1.9L590.3,98.7
		L590.3,98.7z"/>
	<path class="st4" d="M594.3,94.6c0.3-0.6,0.8-0.9,1.4-0.9s1.1,0.3,1.3,0.9c0.2,0.5,0.3,1.3,0.3,2.5s-0.1,2.1-0.3,2.5
		c-0.3,0.6-0.8,0.9-1.3,0.9s-1.1-0.3-1.4-0.9c-0.2-0.5-0.3-1.3-0.3-2.5C594,95.9,594.1,95.1,594.3,94.6z M595.7,100.1
		c0.9,0,1.1-1,1.1-2.9s-0.2-2.9-1.1-2.9s-1.1,1-1.1,2.9C594.6,99.2,594.8,100.1,595.7,100.1z"/>
	<path class="st4" d="M598.5,94.6c0.3-0.6,0.8-0.9,1.4-0.9s1.1,0.3,1.3,0.9c0.2,0.5,0.3,1.3,0.3,2.5s-0.1,2.1-0.3,2.5
		c-0.3,0.6-0.8,0.9-1.3,0.9s-1.1-0.3-1.4-0.9c-0.2-0.5-0.3-1.3-0.3-2.5C598.2,95.9,598.3,95.1,598.5,94.6z M599.9,100.1
		c0.9,0,1.1-1,1.1-2.9s-0.2-2.9-1.1-2.9s-1.1,1-1.1,2.9C598.8,99.2,599,100.1,599.9,100.1z"/>
</g>
<g>
	<path class="st4" d="M590.3,79c0,0.9,0.4,1.4,1.1,1.4c0.7,0,1.1-0.5,1.1-1.4c0-1-0.4-1.4-1.4-1.4c-0.1,0-0.2,0-0.3,0v-0.5
		c0,0,0,0,0,0c1,0,1.5-0.4,1.5-1.4c0-0.7-0.4-1.1-1-1.1c-0.6,0-1,0.4-1,1.2c0,0,0,0,0,0H590c0-1.1,0.6-1.8,1.5-1.8
		c0.9,0,1.5,0.6,1.5,1.6c0,0.8-0.3,1.3-0.9,1.6c0.7,0.2,1.1,0.8,1.1,1.7c0,1.2-0.7,1.9-1.7,1.9c-1,0-1.6-0.7-1.6-1.9L590.3,79
		L590.3,79z"/>
	<path class="st4" d="M594.5,79.1c0.1,0.9,0.4,1.3,1,1.3c0.7,0,1.2-0.7,1.2-1.9c0-1.1-0.4-1.6-1.1-1.6c-0.4,0-0.8,0.2-1,0.7h-0.5
		l0.4-3.4h2.5v0.5h-2l-0.3,2.1c0.3-0.2,0.6-0.3,1-0.3c0.9,0,1.5,0.8,1.5,2.1c0,1.6-0.6,2.4-1.8,2.4c-0.9,0-1.5-0.7-1.5-1.8H594.5z"
		/>
	<path class="st4" d="M598.5,75c0.3-0.6,0.8-0.9,1.4-0.9s1.1,0.3,1.3,0.9c0.2,0.5,0.3,1.3,0.3,2.5s-0.1,2.1-0.3,2.5
		c-0.3,0.6-0.8,0.9-1.3,0.9s-1.1-0.3-1.4-0.9c-0.2-0.5-0.3-1.3-0.3-2.5S598.3,75.4,598.5,75z M599.9,80.4c0.9,0,1.1-1,1.1-2.9
		s-0.2-2.9-1.1-2.9s-1.1,1-1.1,2.9C598.8,79.5,599,80.4,599.9,80.4z"/>
</g>
<g>
	<path class="st4" d="M592,57.4h-2.3v-0.5l2.3-4.4h0.6v4.4h0.6v0.5h-0.6v1.7H592V57.4z M592,56.9l0.1-3.5l-1.8,3.5H592z"/>
	<path class="st4" d="M594.3,53.3c0.3-0.6,0.8-0.9,1.4-0.9s1.1,0.3,1.3,0.9c0.2,0.5,0.3,1.3,0.3,2.5c0,1.2-0.1,2.1-0.3,2.5
		c-0.3,0.6-0.8,0.9-1.3,0.9s-1.1-0.3-1.4-0.9c-0.2-0.5-0.3-1.3-0.3-2.5S594.1,53.8,594.3,53.3z M595.7,58.8c0.9,0,1.1-1,1.1-2.9
		s-0.2-2.9-1.1-2.9s-1.1,1-1.1,2.9C594.6,57.8,594.8,58.8,595.7,58.8z"/>
	<path class="st4" d="M598.5,53.3c0.3-0.6,0.8-0.9,1.4-0.9s1.1,0.3,1.3,0.9c0.2,0.5,0.3,1.3,0.3,2.5c0,1.2-0.1,2.1-0.3,2.5
		c-0.3,0.6-0.8,0.9-1.3,0.9s-1.1-0.3-1.4-0.9c-0.2-0.5-0.3-1.3-0.3-2.5C598.2,54.6,598.3,53.8,598.5,53.3z M599.9,58.8
		c0.9,0,1.1-1,1.1-2.9s-0.2-2.9-1.1-2.9s-1.1,1-1.1,2.9C598.8,57.8,599,58.8,599.9,58.8z"/>
</g>
<g>
	<path class="st4" d="M592,37.7h-2.3v-0.5l2.3-4.4h0.6v4.4h0.6v0.5h-0.6v1.7H592V37.7z M592,37.2l0.1-3.5l-1.8,3.5H592z"/>
	<path class="st4" d="M594.5,37.8c0.1,0.9,0.4,1.3,1,1.3c0.7,0,1.2-0.7,1.2-1.9c0-1-0.4-1.6-1.1-1.6c-0.4,0-0.8,0.2-1,0.7h-0.5
		l0.4-3.4h2.5v0.5h-2l-0.3,2.1c0.3-0.2,0.6-0.3,1-0.3c0.9,0,1.5,0.8,1.5,2.1c0,1.6-0.6,2.4-1.8,2.4c-0.9,0-1.5-0.7-1.5-1.8H594.5z"
		/>
	<path class="st4" d="M598.5,33.6c0.3-0.6,0.8-0.9,1.4-0.9s1.1,0.3,1.3,0.9c0.2,0.5,0.3,1.3,0.3,2.5c0,1.2-0.1,2.1-0.3,2.5
		c-0.3,0.6-0.8,0.9-1.3,0.9s-1.1-0.3-1.4-0.9c-0.2-0.5-0.3-1.3-0.3-2.5C598.2,34.9,598.3,34.1,598.5,33.6z M599.9,39.1
		c0.9,0,1.1-1,1.1-2.9s-0.2-2.9-1.1-2.9s-1.1,1-1.1,2.9C598.8,38.1,599,39.1,599.9,39.1z"/>
</g>
<g>
	<path class="st4" d="M590.3,16.1c0.1,0.9,0.4,1.3,1,1.3c0.7,0,1.2-0.7,1.2-1.9c0-1.1-0.4-1.6-1.1-1.6c-0.4,0-0.8,0.2-1,0.7H590
		l0.4-3.4h2.5v0.5h-2l-0.3,2.1c0.3-0.2,0.6-0.4,1-0.4c0.9,0,1.5,0.8,1.5,2.1c0,1.6-0.6,2.4-1.8,2.4c-0.9,0-1.5-0.6-1.5-1.8H590.3z"
		/>
	<path class="st4" d="M594.3,11.9c0.3-0.6,0.8-0.9,1.4-0.9s1.1,0.3,1.3,0.9c0.2,0.5,0.3,1.3,0.3,2.5s-0.1,2.1-0.3,2.5
		c-0.3,0.6-0.8,0.9-1.3,0.9s-1.1-0.3-1.4-0.9c-0.2-0.5-0.3-1.3-0.3-2.5C594,13.2,594.1,12.4,594.3,11.9z M595.7,17.4
		c0.9,0,1.1-1,1.1-2.9s-0.2-2.9-1.1-2.9s-1.1,1-1.1,2.9C594.6,16.5,594.8,17.4,595.7,17.4z"/>
	<path class="st4" d="M598.5,11.9c0.3-0.6,0.8-0.9,1.4-0.9s1.1,0.3,1.3,0.9c0.2,0.5,0.3,1.3,0.3,2.5s-0.1,2.1-0.3,2.5
		c-0.3,0.6-0.8,0.9-1.3,0.9s-1.1-0.3-1.4-0.9c-0.2-0.5-0.3-1.3-0.3-2.5C598.2,13.2,598.3,12.4,598.5,11.9z M599.9,17.4
		c0.9,0,1.1-1,1.1-2.9s-0.2-2.9-1.1-2.9s-1.1,1-1.1,2.9C598.8,16.5,599,17.4,599.9,17.4z"/>
</g>
<line class="st6" x1="584.7" y1="10.7" x2="584.7" y2="221.1"/>
<rect x="59.5" y="137.7" class="st7" width="9.1" height="82.9"/>
<rect x="84.8" y="114.4" class="st8" width="9.1" height="106.2"/>
<rect x="110.1" y="96.2" class="st7" width="9.1" height="124.4"/>
<rect x="135.4" y="82.3" class="st8" width="9.1" height="138.2"/>
<rect x="160.7" y="69.7" class="st7" width="9.1" height="150.9"/>
<rect x="186.1" y="56.8" class="st8" width="9.1" height="163.8"/>
<rect x="211.4" y="55.6" class="st7" width="9.1" height="165"/>
<rect x="236.7" y="55.6" class="st8" width="9.1" height="164.9"/>
<rect x="262" y="67" class="st7" width="9.1" height="153.6"/>
<rect x="287.3" y="62.8" class="st8" width="9.1" height="157.7"/>
<rect x="312.6" y="60.3" class="st7" width="9.1" height="160.2"/>
<rect x="338" y="55.4" class="st8" width="9.1" height="165.2"/>
<rect x="363.3" y="37.3" class="st7" width="9.1" height="183.3"/>
<rect x="388.6" y="32.9" class="st8" width="9.1" height="187.6"/>
<rect x="413.9" y="28.7" class="st7" width="9.1" height="191.9"/>
<rect x="439.2" y="37.1" class="st8" width="9.1" height="183.5"/>
<rect x="464.5" y="41.6" class="st7" width="9.1" height="179"/>
<rect x="489.9" y="45.6" class="st8" width="9.1" height="174.9"/>
<rect x="540.8" y="62.8" class="st8" width="9.1" height="157.7"/>
<rect x="515.3" y="63.6" class="st7" width="9.1" height="156.9"/>
<rect x="566.2" y="42.5" class="st7" width="9.1" height="178.1"/>
<g>
	<polygon class="st7" points="462.1,283 462.1,269.7 475.4,269.7 	"/>
	<polygon class="st8" points="475.4,283 462.1,283 475.4,269.7 	"/>
</g>
<g>
	<polygon class="st1" points="544.1,283 544.1,269.7 557.3,269.7 	"/>
	<polygon class="st2" points="557.3,283 544.1,283 557.3,269.7 	"/>
</g>
<g>
	<rect x="480.5" y="269.7" class="st3" width="41.9" height="15.9"/>
	<path class="st4" d="M481.1,269.7h0.6l2.6,5.9l0-5.9h0.5v6.7h-0.7l-2.5-5.7v5.7h-0.5L481.1,269.7L481.1,269.7z"/>
	<path class="st4" d="M486.5,274.8c0,0.8,0.1,1.2,0.8,1.2c0.5,0,1-0.4,1-0.8v-3.8h0.5v4.9h-0.5v-0.5c-0.3,0.5-0.7,0.7-1.2,0.7
		c-0.9,0-1.2-0.5-1.2-1.6v-3.5h0.5L486.5,274.8L486.5,274.8z"/>
	<path class="st4" d="M489.8,271.5h0.5v0.5c0.3-0.5,0.7-0.7,1.2-0.7c0.5,0,0.9,0.2,1.1,0.7c0.3-0.5,0.7-0.7,1.2-0.7
		c0.8,0,1.1,0.5,1.1,1.6v3.5h-0.5v-3.3c0-0.8,0-1.2-0.8-1.2c-0.5,0-1,0.5-1,0.8v3.8h-0.5v-3.3c0-0.8,0-1.2-0.8-1.2
		c-0.5,0-1,0.5-1,0.8v3.8h-0.5L489.8,271.5L489.8,271.5z"/>
	<path class="st4" d="M496,269.7h0.5v2.2c0.2-0.4,0.6-0.6,1-0.6c1,0,1.5,0.9,1.5,2.6s-0.4,2.6-1.5,2.6c-0.5,0-0.8-0.2-1.1-0.6v0.5
		H496L496,269.7L496,269.7z M497.5,276.1c0.7,0,1-0.7,1-2.1s-0.3-2.1-1-2.1c-0.8,0-1,0.7-1,2.1C496.5,275.4,496.8,276.1,497.5,276.1
		z"/>
	<path class="st4" d="M501.3,276.6c-1,0-1.5-0.8-1.5-2.6s0.5-2.6,1.5-2.6c0.9,0,1.4,0.7,1.4,2.1v0.4h-2.4v0.3c0,1.3,0.3,1.9,0.9,1.9
		c0.5,0,0.9-0.4,0.9-1.2h0.5C502.7,276,502.2,276.6,501.3,276.6z M502.2,273.5c0-0.1,0-0.1,0-0.2c0-0.9-0.3-1.4-0.9-1.4
		c-0.6,0-0.9,0.5-0.9,1.6c0,0,0,0,0,0L502.2,273.5L502.2,273.5z"/>
	<path class="st4" d="M503.7,271.5h0.5v0.5c0.2-0.4,0.6-0.6,1.1-0.6c0,0,0.1,0,0.1,0v0.5c-1,0-1.2,0.5-1.2,1.6v2.9h-0.5V271.5z"/>
	<path class="st4" d="M509.2,271.4c1,0,1.6,0.9,1.6,2.6c0,1.7-0.5,2.6-1.6,2.6s-1.6-0.9-1.6-2.6
		C507.6,272.2,508.1,271.4,509.2,271.4z M509.2,276.1c0.7,0,1-0.7,1-2.1s-0.4-2.1-1-2.1s-1,0.7-1,2.1S508.5,276.1,509.2,276.1z"/>
	<path class="st4" d="M511.7,271.9h-0.5v-0.4h0.5v-0.7c0-0.8,0.2-1.1,0.9-1.1c0.1,0,0.2,0,0.3,0v0.5c-0.1,0-0.1,0-0.2,0
		c-0.4,0-0.5,0.2-0.5,0.8v0.5h0.6v0.4h-0.6v4.5h-0.5V271.9z"/>
	<path class="st4" d="M484.9,282.1v3.3h-0.4l-0.1-0.7c-0.4,0.5-0.9,0.8-1.4,0.8c-1.4,0-2-1.1-2-3.5c0-2.4,0.6-3.5,2-3.5
		c1,0,1.7,0.7,1.8,2h-0.6c-0.1-0.9-0.6-1.4-1.2-1.4c-1,0-1.4,1-1.4,3c0,2,0.4,3,1.4,3c0.9,0,1.4-0.8,1.4-2.5h-1.5v-0.5L484.9,282.1
		L484.9,282.1z"/>
	<path class="st4" d="M486,280.5h0.5v0.5c0.2-0.4,0.6-0.6,1.1-0.6c0,0,0.1,0,0.1,0v0.5c-1,0-1.2,0.5-1.2,1.6v2.9H486V280.5z"/>
	<path class="st4" d="M490.8,285.5c-0.3,0-0.4-0.1-0.5-0.4c-0.3,0.3-0.6,0.5-1.1,0.5c-0.7,0-1.2-0.5-1.2-1.4c0-0.8,0.4-1.2,1.2-1.5
		c0.7-0.3,1-0.3,1-0.7v-0.4c0-0.5-0.2-0.8-0.7-0.8c-0.5,0-0.8,0.3-0.9,0.9h-0.5c0,0,0-0.1,0-0.1c0-0.8,0.5-1.2,1.4-1.2
		c0.5,0,0.8,0.1,1,0.4c0.2,0.2,0.2,0.5,0.2,0.8c0,0.1,0,0.2,0,0.2v2.7c0,0.4,0,0.5,0.3,0.5c0,0,0,0,0,0v0.4
		C491,285.5,490.9,285.5,490.8,285.5z M488.5,284.2c0,0.6,0.3,0.9,0.7,0.9c0.7,0,1-0.5,1-1.5v-0.8
		C489.1,283.2,488.5,283.5,488.5,284.2z"/>
	<path class="st4" d="M494.2,282.1c0-0.8-0.1-1.3-0.8-1.3c-0.5,0-1,0.4-1,0.8v3.8h-0.5v-4.9h0.5v0.5c0.3-0.5,0.7-0.7,1.2-0.7
		c0.9,0,1.2,0.5,1.2,1.6v3.5h-0.5L494.2,282.1L494.2,282.1z"/>
	<path class="st4" d="M496.6,285.5c-0.8,0-0.8-0.4-0.8-1.3v-3.3h-0.5v-0.4h0.5v-1.4h0.5v1.4h0.7v0.4h-0.7v3.4c0,0,0,0,0,0.1
		c0,0.5,0,0.7,0.4,0.7c0.1,0,0.1,0,0.3,0v0.4C496.9,285.5,496.8,285.5,496.6,285.5z"/>
	<path class="st4" d="M498,284.1c0,0.7,0.3,1,0.9,1c0.6,0,0.9-0.4,0.9-0.9c0-0.7-0.5-0.9-1.3-1.3c-0.7-0.3-1-0.6-1-1.4
		c0-0.7,0.5-1.2,1.2-1.2c0.9,0,1.3,0.5,1.4,1.4h-0.5c-0.1-0.6-0.3-0.9-0.8-0.9c-0.5,0-0.8,0.3-0.8,0.7c0,0.6,0.6,0.9,1.4,1.3
		c0.5,0.3,0.9,0.8,0.9,1.3c0,0.8-0.6,1.4-1.4,1.4c-0.9,0-1.4-0.5-1.4-1.4c0,0,0,0,0,0L498,284.1L498,284.1z"/>
</g>
<g>
	<rect x="563.4" y="269.7" class="st9" width="56" height="15.9"/>
	<path class="st4" d="M564,269.7h1.4c1.8,0,2.5,0.9,2.5,3.4c0,2.4-0.6,3.4-2.5,3.4H564V269.7z M565.4,275.9c1.5,0,1.9-0.7,1.9-2.8
		c0-2.1-0.4-2.9-1.9-2.9h-0.8v5.7L565.4,275.9L565.4,275.9z"/>
	<path class="st4" d="M570.3,271.4c1,0,1.6,0.9,1.6,2.6c0,1.7-0.5,2.6-1.6,2.6s-1.6-0.9-1.6-2.6
		C568.7,272.2,569.2,271.4,570.3,271.4z M570.3,276.1c0.7,0,1-0.7,1-2.1s-0.4-2.1-1-2.1s-1,0.7-1,2.1S569.6,276.1,570.3,276.1z"/>
	<path class="st4" d="M572.9,269.7h0.5v6.7h-0.5V269.7z"/>
	<path class="st4" d="M574.6,269.7h0.5v6.7h-0.5V269.7z"/>
	<path class="st4" d="M578.8,276.5c-0.3,0-0.4-0.1-0.5-0.4c-0.3,0.3-0.6,0.5-1.1,0.5c-0.7,0-1.2-0.5-1.2-1.4c0-0.8,0.4-1.2,1.2-1.5
		c0.7-0.3,1-0.3,1-0.7v-0.4c0-0.5-0.2-0.8-0.7-0.8c-0.5,0-0.8,0.3-0.8,0.9h-0.5c0,0,0-0.1,0-0.1c0-0.8,0.5-1.2,1.4-1.2
		c0.5,0,0.8,0.1,1,0.4c0.2,0.2,0.2,0.5,0.2,0.8c0,0.1,0,0.2,0,0.2v2.7c0,0.4,0,0.5,0.3,0.5c0,0,0,0,0,0v0.4
		C579,276.5,578.9,276.5,578.8,276.5z M576.5,275.2c0,0.6,0.3,0.9,0.7,0.9c0.7,0,1-0.5,1-1.5v-0.8
		C577.1,274.2,576.5,274.5,576.5,275.2z"/>
	<path class="st4" d="M579.9,271.5h0.5v0.5c0.2-0.4,0.6-0.6,1.1-0.6c0,0,0.1,0,0.1,0v0.5c-1,0-1.2,0.5-1.2,1.6v2.9h-0.5V271.5z"/>
	<path class="st4" d="M582.5,275.1c0,0.7,0.3,1,0.9,1c0.6,0,0.9-0.4,0.9-0.9c0-0.7-0.5-0.9-1.3-1.3c-0.7-0.3-1-0.6-1-1.4
		c0-0.7,0.5-1.2,1.2-1.2c0.9,0,1.3,0.5,1.4,1.4h-0.5c-0.1-0.6-0.3-0.9-0.8-0.9c-0.5,0-0.8,0.3-0.8,0.7c0,0.6,0.6,0.9,1.4,1.3
		c0.5,0.3,0.8,0.8,0.8,1.3c0,0.8-0.6,1.4-1.4,1.4c-0.9,0-1.4-0.5-1.4-1.4c0,0,0,0,0,0L582.5,275.1L582.5,275.1z"/>
	<path class="st4" d="M565.4,287.1c-0.9-1.4-1.3-2.8-1.3-4.2c0-1.4,0.4-2.8,1.3-4.2h0.4c-0.8,1.4-1.1,2.8-1.1,4.2s0.4,2.8,1.1,4.2
		H565.4z"/>
	<path class="st4" d="M570.4,283.7c0,1.2-0.7,1.9-1.8,1.9c-1.2,0-1.8-0.7-1.8-1.9v-4.9h0.6v4.5c0,0.5,0,0.9,0.2,1.2
		c0.2,0.4,0.6,0.6,1.1,0.6c0.5,0,0.9-0.2,1.1-0.6c0.2-0.3,0.2-0.6,0.2-0.9c0-0.1,0-0.2,0-0.3v-4.5h0.6L570.4,283.7L570.4,283.7z"/>
	<path class="st4" d="M571.6,283.5c0,1,0.5,1.5,1.3,1.5c0.8,0,1.4-0.5,1.4-1.4c0-0.4-0.1-0.7-0.4-0.9c-0.3-0.2-0.7-0.4-1.2-0.5
		c-1-0.4-1.4-0.9-1.4-1.9c0-1,0.7-1.7,1.8-1.7c1,0,1.7,0.6,1.7,1.7c0,0,0,0,0,0h-0.5c0-0.8-0.5-1.2-1.1-1.2c-0.7,0-1.2,0.5-1.2,1.2
		c0,0.3,0.1,0.6,0.3,0.8c0.3,0.3,0.7,0.5,1.3,0.7c1,0.4,1.5,0.9,1.5,1.8c0,1.2-0.7,1.9-1.9,1.9c-1.2,0-1.8-0.7-1.9-2L571.6,283.5
		L571.6,283.5z"/>
	<path class="st4" d="M579.4,278.7h0.9l1.7,5.9l1.7-5.9h0.9v6.7H584v-6.2l-1.7,6.2h-0.6l-1.8-6.2v6.2h-0.5L579.4,278.7L579.4,278.7z
		"/>
	<path class="st4" d="M585.8,278.7h0.6v0.9h-0.6V278.7z M585.8,280.5h0.5v4.9h-0.5V280.5z"/>
	<path class="st4" d="M587.5,278.7h0.5v6.7h-0.5V278.7z"/>
	<path class="st4" d="M589.3,278.7h0.5v6.7h-0.5V278.7z"/>
	<path class="st4" d="M591,278.7h0.6v0.9H591V278.7z M591,280.5h0.5v4.9H591V280.5z"/>
	<path class="st4" d="M594.1,280.4c1,0,1.6,0.9,1.6,2.6c0,1.7-0.5,2.6-1.6,2.6s-1.6-0.9-1.6-2.6C592.5,281.2,593,280.4,594.1,280.4z
		 M594.1,285.1c0.7,0,1-0.7,1-2.1s-0.4-2.1-1-2.1s-1,0.7-1,2.1S593.4,285.1,594.1,285.1z"/>
	<path class="st4" d="M598.9,282.1c0-0.8-0.1-1.3-0.8-1.3c-0.5,0-1,0.4-1,0.8v3.8h-0.5v-4.9h0.5v0.5c0.3-0.5,0.7-0.7,1.2-0.7
		c0.8,0,1.2,0.5,1.2,1.6v3.5h-0.5V282.1z"/>
	<path class="st4" d="M600.7,284.1c0,0.7,0.3,1,0.9,1c0.6,0,0.9-0.4,0.9-0.9c0-0.7-0.5-0.9-1.3-1.3c-0.7-0.3-1-0.6-1-1.4
		c0-0.7,0.5-1.2,1.2-1.2c0.9,0,1.3,0.5,1.4,1.4h-0.5c-0.1-0.6-0.3-0.9-0.8-0.9c-0.5,0-0.8,0.3-0.8,0.7c0,0.6,0.6,0.9,1.4,1.3
		c0.5,0.3,0.8,0.8,0.8,1.3c0,0.8-0.6,1.4-1.4,1.4c-0.9,0-1.4-0.5-1.4-1.4c0,0,0,0,0,0L600.7,284.1L600.7,284.1z"/>
	<path class="st4" d="M604.4,282.9c0-1.4-0.4-2.8-1.1-4.2h0.4c0.9,1.4,1.3,2.8,1.3,4.2s-0.4,2.8-1.3,4.2h-0.4
		C604,285.8,604.4,284.4,604.4,282.9z"/>
</g>
</svg>
