<?xml version="1.0" encoding="utf-8"?>
<!-- Generator: Adobe Illustrator 23.0.1, SVG Export Plug-In . SVG Version: 6.00 Build 0)  -->
<svg version="1.1" id="Layer_1" xmlns="http://www.w3.org/2000/svg" xmlns:xlink="http://www.w3.org/1999/xlink" x="0px" y="0px"
	 viewBox="0 0 20 20" style="enable-background:new 0 0 20 20;" xml:space="preserve">
<style type="text/css">
	.st0{fill:#272727;}
	.st1{fill:#FFFFFF;}
</style>
<path class="st1" d="M15.23,1.44h-2.12H6.89H4.77c-1.84,0-3.34,1.5-3.34,3.34v10.45c0,1.29,0.74,2.41,1.81,2.96l2.54-2.4l1.34-1.34
	l1.21-1.23l1.21-1.23l1.94-1.98v2.05c0,0.66,0.54,1.2,1.2,1.2c0.32,0,0.62-0.12,0.85-0.35c0.23-0.23,0.35-0.53,0.35-0.85v-0.09
	c0.02-0.1,0.04-0.2,0.04-0.3V7.06c0-0.03,0-0.05,0-0.08c0-0.04-0.01-0.08-0.01-0.12c0-0.01,0-0.01,0-0.02c0-0.01,0-0.02-0.01-0.03
	c0-0.01,0-0.02-0.01-0.02c-0.01-0.06-0.03-0.13-0.06-0.18c-0.01-0.02-0.02-0.05-0.03-0.07c-0.02-0.04-0.04-0.09-0.07-0.13
	c-0.01-0.02-0.03-0.04-0.04-0.06c-0.03-0.04-0.06-0.08-0.09-0.11c0,0-0.01-0.01-0.01-0.01c-0.01-0.01-0.02-0.02-0.02-0.02
	c0,0-0.01-0.01-0.01-0.01c0,0-0.01-0.01-0.01-0.01c0,0,0,0,0,0c-0.01-0.01-0.03-0.03-0.04-0.04c0,0,0,0,0,0
	c-0.04-0.03-0.08-0.07-0.12-0.1c0,0-0.01,0-0.01-0.01c-0.02-0.01-0.03-0.02-0.05-0.03c-0.04-0.03-0.08-0.05-0.13-0.07
	c-0.01-0.01-0.02-0.01-0.03-0.02c-0.01-0.01-0.03-0.01-0.04-0.02c0,0-0.01,0-0.01,0c-0.06-0.02-0.12-0.04-0.18-0.05
	c-0.02,0-0.04-0.01-0.06-0.01c-0.04-0.01-0.08-0.01-0.12-0.01c-0.03,0-0.05,0-0.08,0l-4.63,0c-0.1,0-0.2,0.01-0.3,0.04H7.66
	c-0.66,0-1.2,0.54-1.2,1.2c0,0.66,0.54,1.2,1.2,1.2h2.11L8.09,9.98l-1.05,1.07l-1.18,1.21l-2.2,2.21V7.79h0V4.77
	c0-0.61,0.5-1.11,1.11-1.11h2.12h6.22h2.12c0.61,0,1.11,0.5,1.11,1.11v3.02h0v7.43c0,0.61-0.5,1.11-1.11,1.11H8.45L6.1,18.56h9.13h0
	c1.84,0,3.34-1.5,3.34-3.34V4.77C18.56,2.94,17.06,1.44,15.23,1.44z"/>
</svg>
