<?xml version="1.0" encoding="utf-8"?>
<!-- Generator: Adobe Illustrator 23.0.1, SVG Export Plug-In . SVG Version: 6.00 Build 0)  -->
<svg version="1.1" id="Layer_1" xmlns="http://www.w3.org/2000/svg" xmlns:xlink="http://www.w3.org/1999/xlink" x="0px" y="0px"
	 viewBox="0 0 215 60" style="enable-background:new 0 0 215 60;" xml:space="preserve">
<style type="text/css">
	.st0{fill:#FFFFFF;}
</style>
<g>
	<path class="st0" d="M129.54,11.94c-0.81-1.34-2.27-2.15-3.84-2.15h-3.14l11.93,20.66l-11.93,20.66h3.14
		c1.57,0,3.03-0.82,3.84-2.15l10.62-18.51L129.54,11.94z"/>
	<path class="st0" d="M119.21,9.79H78.01c-2.44,0-4.41,1.98-4.41,4.43v32.47c0,2.45,1.98,4.43,4.41,4.43h41.21l11.77-20.66
		L119.21,9.79z M95.02,39.63h-3.06l-8.42-13.47v13.47h-3.06V21.27h3.06l8.42,13.47V21.27h3.06V39.63z M101.14,39.63h-3.06V21.27
		h3.06V39.63z M118.74,39.63h-3.06v-7.65h-8.42v7.65h-3.06V21.27h3.06v7.65h8.42v-7.65h3.06V39.63z"/>
	<polygon class="st0" points="157.7,13.25 159.54,13.25 159.54,21.5 157.7,21.5 153.77,16.33 153.77,21.5 151.92,21.5 151.92,13.25 
		153.65,13.25 157.7,18.56 	"/>
	<path class="st0" d="M167.45,21.5l-0.77-1.78h-3.46l-0.77,1.78h-1.96l3.57-8.25h1.78l3.57,8.25H167.45z M164.96,15.7l-1.04,2.4
		h2.07L164.96,15.7z"/>
	<polygon class="st0" points="173.26,14.84 173.26,21.5 171.42,21.5 171.42,14.84 169.08,14.84 169.08,13.25 175.6,13.25 
		175.6,14.84 	"/>
	<rect x="176.95" y="13.25" class="st0" width="1.84" height="8.25"/>
	<path class="st0" d="M187.77,20.36c-0.84,0.81-1.86,1.22-3.08,1.22c-1.22,0-2.25-0.41-3.08-1.22c-0.84-0.81-1.25-1.83-1.25-3.04
		c0-1.21,0.42-2.23,1.25-3.04c0.83-0.81,1.86-1.22,3.08-1.22c1.22,0,2.25,0.41,3.08,1.22c0.83,0.81,1.25,1.83,1.25,3.04
		C189.02,18.53,188.6,19.55,187.77,20.36 M187.14,17.33c0-0.74-0.24-1.36-0.71-1.88c-0.47-0.52-1.05-0.78-1.74-0.78
		c-0.69,0-1.27,0.26-1.74,0.78c-0.47,0.52-0.71,1.15-0.71,1.88c0,0.74,0.24,1.36,0.71,1.88c0.47,0.52,1.05,0.77,1.74,0.77
		c0.69,0,1.27-0.26,1.74-0.77C186.9,18.69,187.14,18.06,187.14,17.33"/>
	<polygon class="st0" points="196.35,13.25 198.19,13.25 198.19,21.5 196.35,21.5 192.42,16.33 192.42,21.5 190.58,21.5 
		190.58,13.25 192.3,13.25 196.35,18.56 	"/>
	<path class="st0" d="M206.11,21.5l-0.77-1.78h-3.46l-0.77,1.78h-1.96l3.57-8.25h1.78l3.57,8.25H206.11z M203.61,15.7l-1.04,2.4
		h2.07L203.61,15.7z"/>
	<polygon class="st0" points="209.02,21.5 209.02,13.25 210.87,13.25 210.87,19.86 214.38,19.86 214.38,21.5 	"/>
	<path class="st0" d="M155.72,33.15c0.91,0,1.65-0.36,2.22-1.07l1.18,1.22c-0.94,1.05-2.04,1.58-3.31,1.58
		c-1.27,0-2.32-0.4-3.14-1.2c-0.82-0.8-1.23-1.82-1.23-3.04c0-1.22,0.42-2.25,1.26-3.06c0.84-0.82,1.86-1.23,3.08-1.23
		c1.35,0,2.49,0.52,3.4,1.55l-1.15,1.3c-0.58-0.72-1.31-1.09-2.17-1.09c-0.69,0-1.29,0.23-1.78,0.68c-0.49,0.45-0.74,1.06-0.74,1.83
		c0,0.77,0.23,1.38,0.7,1.85C154.49,32.92,155.05,33.15,155.72,33.15"/>
	<path class="st0" d="M166.39,34.78L165.62,33h-3.46l-0.77,1.78h-1.96l3.57-8.25h1.78l3.57,8.25H166.39z M163.9,28.99l-1.04,2.4
		h2.07L163.9,28.99z"/>
	<polygon class="st0" points="175.08,26.53 176.92,26.53 176.92,34.78 175.08,34.78 171.15,29.61 171.15,34.78 169.31,34.78 
		169.31,26.53 171.03,26.53 175.08,31.84 	"/>
	<path class="st0" d="M182.75,33.15c0.91,0,1.65-0.36,2.22-1.07l1.18,1.22c-0.94,1.05-2.04,1.58-3.31,1.58
		c-1.27,0-2.32-0.4-3.14-1.2c-0.82-0.8-1.23-1.82-1.23-3.04c0-1.22,0.42-2.25,1.26-3.06c0.84-0.82,1.86-1.23,3.08-1.23
		c1.35,0,2.49,0.52,3.4,1.55l-1.15,1.3c-0.58-0.72-1.31-1.09-2.17-1.09c-0.69,0-1.29,0.23-1.78,0.68c-0.49,0.45-0.74,1.06-0.74,1.83
		c0,0.77,0.23,1.38,0.7,1.85C181.52,32.92,182.09,33.15,182.75,33.15"/>
	<polygon class="st0" points="193.55,26.53 193.55,28.17 189.44,28.17 189.44,29.87 193.14,29.87 193.14,31.44 189.44,31.44 
		189.44,33.15 193.68,33.15 193.68,34.78 187.6,34.78 187.6,26.53 	"/>
	<path class="st0" d="M202.02,29.27c0,1.32-0.52,2.18-1.57,2.56l2.09,2.95h-2.27l-1.83-2.63h-1.28v2.63h-1.84v-8.25h3.13
		c1.28,0,2.2,0.22,2.75,0.65C201.75,27.61,202.02,28.31,202.02,29.27 M199.8,30.25c0.23-0.2,0.34-0.53,0.34-0.97
		c0-0.44-0.12-0.75-0.35-0.91c-0.24-0.17-0.65-0.25-1.24-0.25h-1.38v2.44h1.35C199.14,30.56,199.57,30.46,199.8,30.25"/>
	<rect x="151.92" y="39.81" class="st0" width="1.84" height="8.25"/>
	<polygon class="st0" points="161.57,39.81 163.42,39.81 163.42,48.07 161.57,48.07 157.64,42.89 157.64,48.07 155.8,48.07 
		155.8,39.81 157.52,39.81 161.57,45.13 	"/>
	<path class="st0" d="M167.38,41.46c-0.18,0.15-0.27,0.34-0.27,0.58s0.11,0.43,0.32,0.57c0.22,0.14,0.72,0.31,1.5,0.5
		c0.78,0.19,1.39,0.48,1.83,0.87c0.43,0.39,0.65,0.95,0.65,1.69c0,0.74-0.28,1.34-0.83,1.8c-0.55,0.46-1.29,0.69-2.19,0.69
		c-1.31,0-2.48-0.48-3.53-1.45l1.1-1.35c0.89,0.78,1.71,1.17,2.47,1.17c0.34,0,0.6-0.07,0.8-0.22c0.19-0.15,0.29-0.34,0.29-0.59
		c0-0.25-0.1-0.44-0.31-0.59c-0.2-0.15-0.61-0.29-1.22-0.44c-0.96-0.23-1.66-0.53-2.11-0.89c-0.44-0.37-0.67-0.94-0.67-1.72
		c0-0.78,0.28-1.39,0.84-1.81c0.56-0.43,1.27-0.64,2.11-0.64c0.55,0,1.1,0.09,1.65,0.28c0.55,0.19,1.03,0.46,1.44,0.8l-0.93,1.35
		c-0.72-0.54-1.46-0.81-2.22-0.81C167.8,41.24,167.55,41.32,167.38,41.46"/>
	<polygon class="st0" points="176.41,41.41 176.41,48.07 174.56,48.07 174.56,41.41 172.22,41.41 172.22,39.81 178.74,39.81 
		178.74,41.41 	"/>
	<rect x="180.09" y="39.81" class="st0" width="1.84" height="8.25"/>
	<polygon class="st0" points="187.46,41.41 187.46,48.07 185.62,48.07 185.62,41.41 183.28,41.41 183.28,39.81 189.8,39.81 
		189.8,41.41 	"/>
	<path class="st0" d="M193.33,45.94c0.31,0.38,0.72,0.57,1.24,0.57s0.93-0.19,1.23-0.57c0.3-0.38,0.45-0.9,0.45-1.56v-4.56h1.84
		v4.62c0,1.2-0.33,2.12-0.99,2.76c-0.66,0.64-1.51,0.96-2.54,0.96c-1.03,0-1.88-0.32-2.54-0.97c-0.67-0.64-1-1.56-1-2.75v-4.62h1.84
		v4.56C192.87,45.03,193.02,45.55,193.33,45.94"/>
	<polygon class="st0" points="203.51,41.41 203.51,48.07 201.67,48.07 201.67,41.41 199.33,41.41 199.33,39.81 205.85,39.81 
		205.85,41.41 	"/>
	<polygon class="st0" points="213.14,39.81 213.14,41.46 209.03,41.46 209.03,43.16 212.73,43.16 212.73,44.73 209.03,44.73 
		209.03,46.44 213.27,46.44 213.27,48.07 207.19,48.07 207.19,39.81 	"/>
	<path class="st0" d="M54.36,10.83c0.1,2.07-1.54,3.34-2.78,4.56L38.87,26.08c-1.14,1.06-2.79,1.94-3.44,3.54
		c-0.84,2.11-1.16,4.45-1.52,6.77c-0.21,1.68-1.77,3.13-3.23,3.75c-1.13,0.4-2.49,0.21-3.73,0.3l-4.43,0.03
		c-0.37,0.08-0.7,0.29-0.89,0.59l-0.16,0.44c-0.47,0.07-0.32-0.34-0.38-0.64c0.01-0.97,0.23-1.99,0.95-2.57
		c0.38-0.39,0.92-0.48,1.46-0.57l6.46-0.09c0.36-0.01,0.65-0.23,0.89-0.42l0.26-0.5c0.52-3.22,0.81-6.55,2.41-9.29
		c1.49-1.73,3.36-2.93,5.01-4.45c3.83-3.25,7.8-6.56,11.59-9.86c1.07-1.01,2.2-2.35,2.47-3.95l0.14-0.43
		C53.59,9.02,54.3,9.87,54.36,10.83"/>
	<path class="st0" d="M58.08,14.46c0.19,2.01-1.38,2.96-2.64,4.2l-5.18,4.45l-9.22,7.82c-1.31,1.47-1.37,3.56-1.71,5.45
		c0.06,0.62,0.68,0.87,0.55,1.51l-1.28,2.31c0.07,0.92,1.19,0.39,1.56,0.96c0.01,0.33-0.21,0.74,0.05,1.02
		c0.18,0.32,0.92-0.11,0.53,0.4c-0.11,0.08-0.07,0.29-0.03,0.4c0.15,0.2,0.44,0.22,0.47,0.52c-0.14,0.39-0.14,0.92,0.09,1.26
		c1.6,1.74,4.35-0.42,6.02,1.22c0.42,0.37,0.41,1.06,0.3,1.58c-0.89,2.61-6.16,2.8-4.36,6.5c0.31,0.61,1.01,1.01,1.72,1.06
		c0.59,0.1,1.05-0.15,1.54-0.3c0.15,0,0.17,0.15,0.23,0.23v0.1c-1.52,1.08-3.49,2.68-5.51,1.52c-1.01-0.64-1.53-1.96-1.28-3.25
		c0.62-2.05,2.98-2.57,4.15-4.29c0.27-0.5,0.22-1.15-0.07-1.65c-0.38-0.67-1.25-0.85-2.01-0.99c-1.27-0.03-3.21,0.77-3.77-0.71
		c-0.17-0.57,0.41-1.57-0.49-1.7c-0.12-0.16-0.41-0.3-0.26-0.56c0.04-0.15,0.3-0.17,0.17-0.36c-0.18-0.05-0.42-0.01-0.56-0.17
		c-0.51-0.56,0.9-1.17-0.06-1.55c-0.49-0.07-1.15,0.29-1.46-0.26c-0.15-0.52,0.24-0.89,0.43-1.32c0.33-0.73,1.28-1.21,1.03-2.15
		l-0.47-0.8c0.14-1.86,0.45-3.69,0.92-5.44c0.63-1.95,2.52-3.04,3.96-4.38l7.73-6.53l5.47-4.82c0.95-0.88,1.78-1.87,1.74-3.21
		c0.29-0.1,0.48,0.25,0.74,0.36C57.58,13.43,57.97,13.8,58.08,14.46"/>
	<path class="st0" d="M56.01,24.2c-1.02,1.62-2.72,2.85-4.23,4.13l-5.94,4.98c-1.09,0.98-1.38,2.69-0.88,4.02
		c0.06,0.68-0.47,1.1-0.63,1.69c0.02,0.18,0.05,0.4,0.23,0.45c0.25,0.1,0.62-0.03,0.76,0.3c0.04,0.35-0.12,0.72,0.26,0.86
		c0.15,0.09,0.38-0.18,0.4,0.1c-0.09,0.15-0.16,0.3-0.14,0.49c0.19,0.35,0.62,0.16,0.79,0.44c0.07,0.4,0.07,0.92,0.53,1.09
		c1.54,0.26,2.71-0.79,4.1-1.09c2.2-0.69,4.33,0.17,6.29,0.76c0.98,0.17,2.07,0.12,3.04,0l0.07,0.06c-1.25,1.53-2.79,3.01-4.98,2.86
		c-2.3-0.08-3.78-2.23-6.24-1.81c-1.67,0.33-3.33,1.33-5.12,0.66c-0.46-0.37-0.65-1.03-0.47-1.68c-0.09-0.4-1.04-0.49-0.45-1.01
		c-0.18-0.12-0.5,0-0.59-0.28c-0.14-0.32,0.25-0.78-0.17-0.99c-0.37-0.05-0.85,0.15-1.13-0.16c-0.15-0.19-0.12-0.46-0.07-0.69
		c0.26-0.63,0.98-1.13,0.82-1.88c-0.48-0.45-0.32-1.22-0.26-1.85c0.27-1.46,0.38-3,1.74-3.96l7.31-6.17
		c1.54-1.47,3.44-2.42,4.55-4.36C56.19,21.96,56.46,23.24,56.01,24.2"/>
	<path class="st0" d="M33.66,45.82c2.07,0.88,4.25,1.75,6.1,2.97c0.46,0.37,0.87,0.93,0.79,1.62c-0.64,2.63-4.29,2.91-3.75,6
		c0.16,1.15,0.92,2.16,2.05,2.48c0.51,0.15,1.2,0.15,1.71,0c0.08,0.2,0.44,0.4,0.04,0.53c-1.5,0.96-3.42,2.04-5.25,1.12
		c-0.89-0.41-1.42-1.38-1.65-2.31c-0.37-2.81,2.24-3.69,3.57-5.57c0.2-0.37,0.3-0.81,0.2-1.25c-0.26-0.52-0.63-0.85-1.13-1.16
		c-4.92-2.76-10.27-4.62-15.77-6.05c-0.91-0.09-2.33-0.62-2.93,0.44v0.05c-0.49,0.1-0.3-0.49-0.3-0.75
		c0.15-0.89,0.68-1.62,1.52-1.98c1.43-0.42,2.94,0.08,4.33,0.33C26.72,43.29,30.27,44.41,33.66,45.82"/>
	<path class="st0" d="M32.48,57.31c-0.44,0.04-0.46,0.05-0.47,0.16c-0.02,0.14-0.01,0.47,0,1.09c0.02,0.62,0.02,0.95,0.04,1.09
		c0.02,0.11,0.04,0.12,0.48,0.14l0,0.17L31.14,60c-0.57,0.01-0.84-0.1-1.11-0.35c-0.24-0.22-0.41-0.57-0.42-1.03
		c-0.01-0.71,0.42-1.44,1.53-1.46l1.33-0.03L32.48,57.31z M31.52,57.53c0-0.16-0.03-0.17-0.3-0.17c-0.78,0.01-1.1,0.38-1.08,1.26
		c0.02,0.89,0.35,1.23,1.13,1.21c0.26-0.01,0.29-0.02,0.29-0.1L31.52,57.53z"/>
	<path class="st0" d="M29.36,57.35c-0.38,0-0.4,0.01-0.42,0.12c-0.03,0.14-0.06,0.46-0.11,1.1c-0.05,0.62-0.08,0.94-0.08,1.08
		c0.01,0.11,0.02,0.12,0.4,0.19l-0.01,0.17l-1.53-0.13c-0.23-0.02-0.46-0.02-0.64,0c0.01-0.2,0.01-0.67-0.01-0.78l0.18-0.01
		c0.07,0.54,0.15,0.6,0.71,0.64l0.36,0.03c0.05,0,0.07-0.02,0.08-0.07l0.08-0.93c0-0.05-0.01-0.07-0.13-0.08l-0.12-0.01
		c-0.44-0.04-0.47,0.03-0.54,0.31l-0.17-0.01c0.02-0.13,0.04-0.26,0.05-0.46c0.01-0.16,0.02-0.34,0.02-0.46l0.19,0.02
		c0,0.3,0.05,0.37,0.36,0.4l0.28,0.03c0.05,0,0.07-0.01,0.08-0.07l0.09-1.03c0.01-0.06-0.02-0.08-0.07-0.08l-0.69-0.06
		c-0.33-0.03-0.42,0.05-0.52,0.31l-0.12,0.27l-0.18-0.07c0.07-0.22,0.15-0.59,0.18-0.77l2.28,0.19L29.36,57.35z"/>
	<path class="st0" d="M26.74,57.13c-0.41-0.05-0.44-0.04-0.47,0.06c-0.04,0.13-0.1,0.46-0.22,1.08c-0.11,0.62-0.17,0.94-0.18,1.08
		c0,0.11,0.02,0.12,0.42,0.23l-0.03,0.17l-1.47-0.27c-0.3-0.06-0.52-0.18-0.67-0.35c-0.13-0.15-0.18-0.34-0.14-0.54
		c0.11-0.56,0.64-0.71,1.35-0.58c0.11,0.02,0.22,0.05,0.28,0.06l0.18-0.96c0.02-0.11-0.02-0.13-0.47-0.25l0.03-0.17l1.43,0.27
		L26.74,57.13z M25.58,58.26c-0.07-0.02-0.12-0.03-0.19-0.04c-0.4-0.07-0.78-0.07-0.88,0.46c-0.09,0.5,0.22,0.63,0.65,0.72
		c0.19,0.03,0.2,0.01,0.22-0.06L25.58,58.26z"/>
	<path class="st0" d="M24.57,56.75c-0.32-0.07-0.4,0.02-0.62,0.31l-1.15,1.51c-0.19,0.25-0.24,0.32-0.32,0.45l-0.21-0.06
		c0.02-0.13,0-0.37-0.01-0.5L22,56.35c-0.03-0.29-0.05-0.34-0.37-0.42l0.05-0.17l1.34,0.38l-0.05,0.16
		c-0.39-0.09-0.44-0.06-0.47,0.03c-0.02,0.08,0.02,0.57,0.03,0.62c0.01,0.02,0.02,0.04,0.04,0.05c0.1,0.04,0.29,0.1,0.68,0.21
		c0.25,0.07,0.27,0.05,0.32-0.01c0.16-0.21,0.28-0.41,0.3-0.44c0.03-0.12,0-0.16-0.37-0.3l0.05-0.17l1.05,0.3L24.57,56.75z
		 M22.61,57.23c-0.03-0.01-0.05,0-0.05,0.01c0,0.02,0,0.07,0,0.09l0.1,1.08l0.67-0.89c0.01-0.02,0.03-0.04,0.04-0.06
		c0-0.02-0.01-0.03-0.04-0.04L22.61,57.23z"/>
	<path class="st0" d="M21.54,55.89c-0.38-0.12-0.41-0.12-0.46-0.02c-0.08,0.12-0.19,0.42-0.43,1c-0.24,0.59-0.36,0.89-0.4,1.02
		c-0.03,0.11-0.01,0.13,0.34,0.31l-0.07,0.16l-1.4-0.57c-0.29-0.12-0.42-0.22-0.53-0.39c-0.11-0.16-0.13-0.37-0.03-0.59
		c0.22-0.55,0.87-0.41,0.88-0.44c0.01-0.02,0.01-0.05-0.01-0.11l-0.27-1.06c-0.06-0.27-0.09-0.32-0.27-0.39l0.06-0.16l0.62,0.26
		l0.32,1.51c0.02,0.05,0.04,0.07,0.19,0.13c0.15,0.06,0.16,0.06,0.17,0.03c0.28-0.68,0.32-0.78,0.35-0.89
		c0.03-0.1,0.02-0.13-0.34-0.3l0.07-0.16l1.25,0.51L21.54,55.89z M20.15,56.89c0.02-0.07,0.02-0.09-0.21-0.19
		c-0.55-0.23-0.8,0.05-0.88,0.26c-0.13,0.31,0.02,0.62,0.42,0.78c0.26,0.1,0.28,0.1,0.32,0L20.15,56.89z"/>
	<path class="st0" d="M18.66,54.66c-0.4-0.18-0.43-0.18-0.5-0.09c-0.04,0.07-0.12,0.2-0.23,0.41l-0.86,1.66l0.41,0.22
		c0.12,0.07,0.23-0.01,0.59-0.36l0.15,0.12c-0.11,0.12-0.24,0.31-0.42,0.64c-0.07-0.05-0.13-0.09-0.2-0.14
		c-0.06-0.04-0.13-0.09-0.2-0.12l-1.24-0.65c-0.15-0.08-0.3-0.13-0.44-0.18c0.16-0.34,0.24-0.55,0.28-0.72l0.19,0.05
		c-0.07,0.5-0.07,0.63,0.05,0.7l0.41,0.21l0.87-1.66c0.11-0.21,0.17-0.34,0.2-0.42c0.03-0.11,0.02-0.13-0.36-0.35l0.08-0.15
		l1.29,0.67L18.66,54.66z"/>
	<path class="st0" d="M16.8,53.73c-0.38-0.23-0.4-0.23-0.48-0.15c-0.09,0.11-0.27,0.38-0.63,0.9c-0.36,0.52-0.54,0.79-0.61,0.91
		c-0.05,0.1-0.04,0.12,0.31,0.4l-0.1,0.14l-0.9-0.62c0.01-0.03,0.03-0.07,0.05-0.11l0.58-2.17l-0.01-0.01l-1.93,1.4l-0.89-0.61
		l0.1-0.15c0.38,0.23,0.4,0.23,0.48,0.15c0.09-0.11,0.28-0.38,0.63-0.9c0.36-0.52,0.54-0.79,0.61-0.91c0.06-0.1,0.04-0.12-0.3-0.39
		l0.09-0.14l1.17,0.8l-0.09,0.14c-0.37-0.21-0.4-0.21-0.46-0.13l-1.28,1.87v0l1.99-1.44c0.06-0.04,0.11-0.08,0.17-0.13l0.25,0.17
		c-0.01,0.03-0.04,0.1-0.06,0.17l-0.64,2.4l0,0.01l1.07-1.56c0.07-0.1,0.15-0.27,0.18-0.33c0.05-0.1,0.04-0.12-0.27-0.37l0.1-0.14
		l0.96,0.65L16.8,53.73z"/>
	<path class="st0" d="M13.66,51.53c-0.3-0.23-0.33-0.23-0.41-0.16c-0.11,0.09-0.32,0.34-0.73,0.81c-0.42,0.48-0.63,0.72-0.71,0.83
		c-0.06,0.09-0.06,0.11,0.21,0.39l-0.12,0.13l-1.15-1.01c-0.18-0.14-0.37-0.28-0.51-0.37c0.13-0.15,0.4-0.53,0.46-0.63l0.15,0.09
		c-0.26,0.48-0.23,0.57,0.2,0.95l0.27,0.24c0.04,0.03,0.07,0.03,0.11-0.01l0.61-0.7c0.04-0.04,0.04-0.07-0.06-0.14l-0.08-0.08
		c-0.33-0.29-0.4-0.26-0.62-0.07l-0.14-0.12c0.09-0.1,0.18-0.19,0.31-0.34c0.11-0.12,0.22-0.27,0.29-0.36l0.14,0.12
		c-0.18,0.24-0.19,0.33,0.06,0.54l0.21,0.19c0.04,0.03,0.07,0.04,0.11-0.01l0.68-0.78c0.04-0.04,0.03-0.07,0-0.11l-0.53-0.45
		c-0.24-0.22-0.37-0.2-0.61-0.06l-0.24,0.16l-0.11-0.17c0.18-0.14,0.47-0.39,0.6-0.52l1.72,1.5L13.66,51.53z"/>
	<path class="st0" d="M11.71,49.83c-0.29-0.27-0.31-0.27-0.4-0.21c-0.11,0.09-0.35,0.31-0.82,0.74c-0.46,0.43-0.7,0.65-0.79,0.76
		c-0.08,0.08-0.07,0.11,0.18,0.42l-0.13,0.11l-0.57-0.61c0.02-0.05,0.03-0.12,0.05-0.21l0.5-2.2l0,0l-0.46,0.43
		c-0.46,0.43-0.7,0.65-0.79,0.76c-0.07,0.08-0.07,0.12,0.21,0.45l-0.13,0.12l-0.78-0.84l0.13-0.12c0.26,0.28,0.3,0.29,0.47,0.15
		c0.17-0.14,0.36-0.31,0.52-0.46c0.58-0.54,1.06-1,1.28-1.24l0.2,0.22c-0.12,0.34-0.2,0.61-0.27,0.98l-0.37,1.7l0,0l0.6-0.56
		c0.46-0.43,0.7-0.64,0.8-0.76c0.07-0.09,0.06-0.11-0.26-0.5l0.13-0.12l0.82,0.88L11.71,49.83z"/>
	<path class="st0" d="M9.32,47.14c-0.29-0.34-0.31-0.34-0.41-0.29c-0.07,0.04-0.19,0.12-0.38,0.27l-1.5,1.13l0.28,0.37
		C7.38,48.72,7.51,48.7,8,48.55l0.08,0.17c-0.15,0.07-0.35,0.18-0.66,0.39c-0.04-0.07-0.08-0.14-0.12-0.21
		c-0.04-0.07-0.09-0.14-0.14-0.2l-0.83-1.12C6.22,47.45,6.11,47.34,6,47.23c0.3-0.24,0.47-0.39,0.57-0.52l0.14,0.12
		c-0.28,0.42-0.33,0.53-0.25,0.65l0.28,0.37l1.51-1.12c0.19-0.14,0.3-0.24,0.36-0.29c0.08-0.08,0.08-0.1-0.17-0.47l0.14-0.1
		l0.87,1.16L9.32,47.14z"/>
	<path class="st0" d="M4.23,44.3c-0.35-0.67-0.1-1.46,0.68-1.87c0.78-0.42,1.58-0.19,1.94,0.48c0.35,0.67,0.09,1.46-0.69,1.88
		C5.38,45.2,4.57,44.96,4.23,44.3 M6.67,43c-0.2-0.38-0.75-0.52-1.52-0.11c-0.77,0.41-0.96,0.93-0.76,1.32
		c0.2,0.38,0.75,0.51,1.52,0.11C6.69,43.91,6.88,43.39,6.67,43"/>
	<path class="st0" d="M5.9,41.58c-0.17-0.34-0.18-0.35-0.29-0.32c-0.14,0.03-0.44,0.16-1.02,0.39C4,41.89,3.7,42.01,3.58,42.08
		c-0.1,0.05-0.1,0.07,0.01,0.43l-0.15,0.06l-0.58-1.42c-0.09-0.22-0.2-0.43-0.28-0.57c0.17-0.07,0.6-0.29,0.69-0.36l0.09,0.14
		c-0.45,0.31-0.47,0.41-0.25,0.93l0.13,0.34c0.02,0.04,0.05,0.06,0.11,0.04l0.86-0.34c0.04-0.02,0.06-0.04,0.02-0.15l-0.04-0.11
		c-0.17-0.4-0.24-0.4-0.52-0.33l-0.07-0.17c0.12-0.05,0.25-0.09,0.43-0.16c0.16-0.06,0.32-0.13,0.43-0.18l0.07,0.17
		c-0.27,0.13-0.31,0.21-0.19,0.5l0.11,0.26c0.01,0.05,0.04,0.07,0.1,0.04l0.91-0.37c0.1-0.04,0.1-0.07-0.04-0.51l0.16-0.06
		l0.51,1.24L5.9,41.58z"/>
	<path class="st0" d="M4.6,38.17c-0.12-0.4-0.14-0.42-0.26-0.41C4.22,37.78,3.9,37.85,3.28,38c-0.62,0.14-0.93,0.22-1.06,0.27
		c-0.1,0.04-0.11,0.07-0.04,0.48L2,38.78l-0.32-1.37l0.17-0.04c0.12,0.4,0.14,0.42,0.25,0.41c0.08,0,0.32-0.06,0.51-0.1l0.26-0.06
		c0.12-0.03,0.13-0.04,0.11-0.15l-0.24-1.04c-0.03-0.1-0.05-0.11-0.16-0.08l-0.27,0.06c-0.19,0.05-0.42,0.11-0.5,0.13
		C1.7,36.57,1.7,36.59,1.77,37L1.6,37.04l-0.33-1.37l0.17-0.05c0.12,0.4,0.14,0.42,0.24,0.41c0.15-0.01,0.46-0.09,1.08-0.23
		c0.61-0.15,0.93-0.22,1.06-0.27c0.1-0.04,0.11-0.06,0.04-0.47l0.17-0.04l0.32,1.37L4.2,36.44c-0.12-0.4-0.14-0.42-0.25-0.41
		c-0.12,0.01-0.44,0.08-0.91,0.2c-0.12,0.03-0.13,0.04-0.1,0.14l0.24,1.04c0.02,0.1,0.04,0.11,0.16,0.09
		c0.46-0.11,0.78-0.19,0.89-0.23c0.11-0.04,0.11-0.07,0.04-0.48l0.17-0.04l0.32,1.38L4.6,38.17z"/>
	<path class="st0" d="M3.87,34.93c-0.08-0.37-0.09-0.39-0.2-0.39c-0.14,0-0.46,0.04-1.09,0.11c-0.63,0.08-0.95,0.11-1.08,0.15
		c-0.11,0.02-0.12,0.04-0.1,0.42l-0.18,0.02l-0.18-1.52c-0.03-0.23-0.08-0.47-0.12-0.62c0.19-0.03,0.65-0.13,0.76-0.16l0.05,0.16
		c-0.51,0.18-0.56,0.26-0.49,0.83l0.04,0.37c0.01,0.05,0.04,0.07,0.09,0.07l0.92-0.11c0.06-0.01,0.07-0.02,0.06-0.14l-0.01-0.11
		c-0.05-0.44-0.13-0.46-0.42-0.47L1.9,33.37c0.14-0.02,0.26-0.02,0.46-0.05c0.16-0.02,0.35-0.05,0.46-0.07l0.02,0.18
		c-0.29,0.06-0.35,0.13-0.31,0.44l0.03,0.28c0.01,0.05,0.02,0.07,0.08,0.07l1.03-0.13c0.05-0.01,0.08-0.03,0.08-0.08l-0.08-0.69
		c-0.04-0.32-0.14-0.39-0.42-0.45l-0.29-0.05l0.03-0.2c0.23,0.03,0.61,0.03,0.79,0.02l0.27,2.26L3.87,34.93z"/>
	<path class="st0" d="M3.56,32.43c-0.03-0.32-0.13-0.37-0.48-0.5l-1.77-0.67c-0.3-0.11-0.38-0.15-0.53-0.18l0-0.22
		c0.12-0.02,0.35-0.1,0.48-0.16l1.96-0.84c0.26-0.11,0.31-0.14,0.3-0.48l0.17,0l0.02,1.39H3.53c-0.02-0.41-0.06-0.44-0.17-0.44
		c-0.08,0-0.53,0.18-0.58,0.21c-0.02,0.01-0.03,0.03-0.04,0.05c-0.01,0.1-0.01,0.31-0.01,0.72c0.01,0.25,0.03,0.27,0.11,0.3
		c0.25,0.1,0.47,0.15,0.51,0.15c0.12,0,0.15-0.05,0.18-0.43l0.17,0l0.02,1.09L3.56,32.43z M2.54,30.71c0-0.04-0.01-0.05-0.02-0.05
		c-0.02,0-0.07,0.02-0.09,0.03l-1.01,0.4l1.05,0.39c0.03,0.01,0.05,0.02,0.07,0.02c0.01,0,0.02-0.02,0.02-0.05L2.54,30.71z"/>
	<path class="st0" d="M3.53,29.29c0-0.39,0-0.42-0.12-0.43c-0.13-0.03-0.46-0.05-1.08-0.11c-0.62-0.05-0.95-0.08-1.09-0.08
		c-0.11,0-0.12,0.02-0.19,0.41l-0.18-0.01l0.12-1.3l0.17,0.01c0,0.39,0.01,0.41,0.12,0.43c0.09,0.02,0.33,0.04,0.52,0.06l1.62,0.14
		c0.14,0.01,0.17-0.03,0.19-0.15l0.03-0.47c0.04-0.39-0.08-0.47-0.62-0.74l0.07-0.18c0.14,0.06,0.62,0.16,0.81,0.19L3.7,29.3
		L3.53,29.29z"/>
	<path class="st0" d="M3.8,26.61c0.05-0.44,0.04-0.46-0.07-0.49c-0.08-0.02-0.22-0.06-0.45-0.1l-1.85-0.32l-0.07,0.46
		c-0.03,0.14,0.08,0.21,0.51,0.46L1.79,26.8c-0.15-0.06-0.38-0.13-0.74-0.21c0.02-0.08,0.04-0.15,0.06-0.24
		c0.02-0.07,0.04-0.15,0.05-0.23l0.24-1.38c0.03-0.17,0.05-0.33,0.05-0.47c0.36,0.05,0.6,0.06,0.76,0.05l0.01,0.19
		c-0.5,0.09-0.62,0.12-0.65,0.25L1.5,25.23l1.85,0.32c0.23,0.04,0.38,0.05,0.46,0.06c0.11,0.01,0.13-0.01,0.23-0.44l0.17,0.03
		l-0.25,1.43L3.8,26.61z"/>
	<path class="st0" d="M4.11,24.66c0.08-0.41,0.08-0.44-0.02-0.48c-0.13-0.05-0.44-0.14-1.05-0.32c-0.61-0.17-0.92-0.26-1.06-0.28
		c-0.12-0.02-0.13,0-0.27,0.4l-0.17-0.05l0.38-1.35l0.17,0.05c-0.09,0.41-0.08,0.44,0.03,0.48c0.08,0.03,0.31,0.11,0.5,0.16
		l0.26,0.07c0.11,0.03,0.13,0.02,0.16-0.08l0.29-1.03c0.02-0.1,0.02-0.12-0.1-0.15L2.97,22c-0.18-0.06-0.42-0.11-0.5-0.13
		c-0.11-0.02-0.13,0.01-0.27,0.4l-0.17-0.05l0.38-1.35l0.17,0.05C2.5,21.32,2.5,21.34,2.6,21.39c0.14,0.05,0.45,0.14,1.05,0.31
		c0.61,0.17,0.92,0.26,1.06,0.28c0.11,0.02,0.12,0,0.27-0.39l0.17,0.04L4.77,23L4.6,22.95c0.09-0.41,0.08-0.44-0.02-0.47
		c-0.1-0.05-0.42-0.14-0.88-0.27c-0.12-0.03-0.13-0.02-0.16,0.07l-0.29,1.04c-0.03,0.1-0.02,0.12,0.1,0.15
		c0.46,0.13,0.78,0.21,0.89,0.24c0.11,0.02,0.13-0.01,0.27-0.39l0.16,0.05l-0.38,1.36L4.11,24.66z"/>
	<path class="st0" d="M6.78,17.58c0.04,0.26,0.03,0.49-0.06,0.67c-0.09,0.18-0.24,0.28-0.54,0.38c0.08,0.27,0.09,0.56-0.06,0.87
		c-0.24,0.51-0.74,0.61-1.12,0.43c-0.35-0.17-0.53-0.48-0.55-1.07c-0.43,0.03-0.58,0.02-0.72-0.04c-0.24-0.12-0.39-0.38-0.2-0.79
		c0.17-0.35,0.43-0.51,0.74-0.36c0.3,0.15,0.35,0.45,0.34,0.75c0.44-0.03,0.85-0.06,1.26-0.13c-0.09-0.24-0.27-0.48-0.39-0.54
		c-0.11-0.05-0.19-0.02-0.28,0.14l-0.15-0.08l0.4-0.85l0.16,0.07c-0.1,0.19-0.09,0.37,0.1,0.61c0.09,0.12,0.23,0.34,0.35,0.6
		c0.34-0.07,0.43-0.12,0.51-0.27c0.06-0.12,0.06-0.27,0.04-0.48L6.78,17.58z M4.45,18.44c0.02-0.21-0.14-0.39-0.29-0.46
		c-0.14-0.07-0.35-0.08-0.44,0.1c-0.05,0.12-0.02,0.28,0.17,0.37C4,18.51,4.19,18.53,4.45,18.44 M5.95,19.19
		c0.07-0.13,0.08-0.3,0.04-0.5c-0.35,0.09-1.05,0.15-1.38,0.15c0.01,0.3,0.09,0.49,0.35,0.61C5.25,19.59,5.78,19.56,5.95,19.19"/>
	<path class="st0" d="M7.46,16.37c0.22-0.36,0.22-0.38,0.14-0.46c-0.1-0.09-0.37-0.28-0.89-0.64c-0.51-0.36-0.78-0.55-0.9-0.62
		c-0.1-0.06-0.13-0.04-0.39,0.28l-0.14-0.1l0.81-1.15l0.14,0.1c-0.21,0.36-0.22,0.39-0.14,0.46c0.07,0.06,0.26,0.2,0.43,0.32
		l0.22,0.15c0.09,0.07,0.12,0.07,0.18-0.02l0.62-0.88c0.06-0.09,0.06-0.11-0.05-0.18l-0.22-0.16c-0.15-0.11-0.36-0.24-0.44-0.29
		c-0.1-0.05-0.12-0.04-0.38,0.28l-0.14-0.1l0.8-1.15l0.15,0.09c-0.22,0.36-0.22,0.39-0.14,0.46c0.1,0.1,0.37,0.28,0.89,0.64
		c0.51,0.36,0.78,0.55,0.9,0.62c0.1,0.06,0.12,0.04,0.38-0.28l0.14,0.1l-0.81,1.16l-0.15-0.1c0.22-0.35,0.22-0.39,0.14-0.46
		c-0.09-0.07-0.36-0.27-0.76-0.54c-0.09-0.07-0.12-0.07-0.17,0.02L7.08,14.8c-0.06,0.09-0.05,0.1,0.05,0.17
		c0.39,0.28,0.66,0.46,0.76,0.52c0.1,0.05,0.13,0.04,0.39-0.29l0.13,0.1L7.6,16.47L7.46,16.37z"/>
	<path class="st0" d="M7.42,11.84l0.95-1.04l0.13,0.11c-0.26,0.33-0.27,0.35-0.2,0.44c0.1,0.1,0.34,0.32,1.1,1.01
		c0.24,0.22,0.68,0.48,1.11,0.02c0.48-0.53,0.28-0.84-0.34-1.41c-0.5-0.45-0.74-0.66-0.85-0.75c-0.09-0.06-0.11-0.06-0.43,0.25
		l-0.13-0.12L9.53,9.5l0.13,0.11C9.4,9.94,9.4,9.97,9.47,10.05c0.1,0.1,0.34,0.32,0.99,0.91c0.47,0.42,0.86,0.89,0.16,1.66
		c-0.43,0.47-0.99,0.59-1.55,0.08c-0.75-0.68-0.99-0.9-1.11-0.98c-0.09-0.07-0.11-0.06-0.42,0.23L7.42,11.84z"/>
	<path class="st0" d="M11.46,11.31c0.32-0.31,0.32-0.33,0.26-0.43c-0.08-0.12-0.29-0.37-0.7-0.84c-0.41-0.48-0.62-0.73-0.73-0.82
		c-0.08-0.08-0.11-0.07-0.46,0.19L9.72,9.29l0.83-0.72c0.02,0.02,0.06,0.05,0.1,0.08l1.94,1.12l0.01-0.01l-0.85-2.22l0.81-0.7
		l0.11,0.13c-0.31,0.31-0.33,0.34-0.26,0.43c0.08,0.11,0.29,0.36,0.7,0.84c0.42,0.47,0.63,0.72,0.73,0.82
		c0.08,0.08,0.1,0.07,0.46-0.2l0.11,0.13l-1.07,0.93l-0.12-0.13c0.3-0.3,0.31-0.33,0.25-0.41l-1.47-1.72L12,7.66l0.88,2.29
		c0.02,0.07,0.05,0.14,0.08,0.2l-0.23,0.2c-0.03-0.03-0.09-0.06-0.15-0.1l-2.15-1.24l-0.01,0.01l1.23,1.43
		c0.09,0.1,0.22,0.22,0.27,0.27c0.09,0.07,0.1,0.07,0.42-0.16l0.11,0.12l-0.88,0.76L11.46,11.31z"/>
	<path class="st0" d="M14.5,8.75c0.25-0.19,0.24-0.3,0.17-0.67l-0.38-1.86c-0.06-0.31-0.08-0.39-0.12-0.55l0.17-0.11
		c0.09,0.09,0.28,0.24,0.39,0.31l1.75,1.21c0.23,0.17,0.28,0.19,0.57,0l0.09,0.15l-1.16,0.76l-0.1-0.15
		c0.34-0.23,0.35-0.28,0.28-0.37c-0.04-0.07-0.44-0.35-0.48-0.38c-0.02-0.01-0.04-0.01-0.06,0c-0.09,0.05-0.27,0.15-0.61,0.37
		c-0.22,0.14-0.21,0.17-0.2,0.26c0.06,0.27,0.11,0.48,0.14,0.51c0.07,0.1,0.12,0.1,0.46-0.09L15.5,8.3l-0.92,0.59L14.5,8.75z
		 M15.42,6.96c0.03-0.02,0.03-0.04,0.03-0.05c-0.01-0.02-0.05-0.04-0.07-0.06L14.5,6.21l0.22,1.1c0.01,0.03,0.01,0.05,0.02,0.06
		c0.01,0.01,0.03,0.01,0.05-0.01L15.42,6.96z"/>
	<path class="st0" d="M17.17,7.02c0.34-0.2,0.36-0.22,0.31-0.33c-0.05-0.13-0.19-0.42-0.47-0.99c-0.28-0.56-0.42-0.85-0.5-0.97
		c-0.06-0.1-0.09-0.1-0.45,0.05l-0.08-0.15l0.75-0.37c0.04,0.03,0.11,0.06,0.19,0.11l1.97,1.1l0.01,0l-0.28-0.57
		c-0.28-0.56-0.43-0.85-0.51-0.97c-0.05-0.1-0.08-0.1-0.49,0.07l-0.08-0.15l1.03-0.51l0.08,0.15c-0.34,0.17-0.36,0.21-0.27,0.41
		c0.09,0.19,0.19,0.43,0.29,0.62c0.35,0.71,0.65,1.3,0.83,1.58l-0.27,0.13c-0.29-0.22-0.53-0.36-0.86-0.53l-1.52-0.84l-0.01,0.01
		l0.37,0.74c0.28,0.56,0.43,0.86,0.5,0.97c0.06,0.09,0.09,0.09,0.54-0.1l0.08,0.15l-1.08,0.53L17.17,7.02z"/>
	<path class="st0" d="M21.44,4.28c0.27,0.43,0.57,0.68,0.99,0.55C22.86,4.7,23,4.38,22.92,4.14c-0.08-0.26-0.3-0.28-0.61-0.29
		l-0.33-0.01c-0.76-0.01-0.92-0.23-1.01-0.54c-0.15-0.51,0.16-0.97,0.76-1.15c0.3-0.1,0.57-0.13,0.79-0.14
		c0.01,0.04,0.03,0.12,0.05,0.17c0.06,0.18,0.12,0.37,0.2,0.56l-0.18,0.06c-0.21-0.46-0.5-0.55-0.88-0.44
		c-0.33,0.11-0.52,0.4-0.45,0.64c0.05,0.17,0.18,0.26,0.5,0.28l0.72,0.03c0.46,0.02,0.69,0.18,0.8,0.55
		c0.16,0.52-0.17,0.97-0.8,1.17c-0.29,0.09-0.62,0.06-0.9,0.14c-0.07-0.2-0.2-0.55-0.31-0.79L21.44,4.28z"/>
	<path class="st0" d="M23.69,4.4c0.36-0.1,0.37-0.12,0.37-0.23c-0.01-0.14-0.09-0.46-0.21-1.08c-0.13-0.62-0.19-0.94-0.24-1.07
		c-0.04-0.11-0.06-0.11-0.43-0.07l-0.03-0.16l1.5-0.31c0.23-0.05,0.45-0.12,0.61-0.18c0.04,0.19,0.18,0.64,0.24,0.74L25.33,2.1
		c-0.22-0.49-0.32-0.52-0.87-0.41l-0.36,0.07c-0.05,0.01-0.07,0.04-0.05,0.1l0.19,0.9c0.01,0.06,0.02,0.07,0.14,0.05l0.12-0.02
		c0.44-0.09,0.44-0.16,0.42-0.46l0.17-0.03c0.02,0.13,0.04,0.26,0.08,0.45c0.04,0.16,0.08,0.34,0.11,0.45L25.1,3.24
		c-0.09-0.28-0.15-0.34-0.47-0.27l-0.27,0.05c-0.05,0.01-0.07,0.04-0.06,0.09l0.21,1.01c0.01,0.05,0.04,0.07,0.09,0.06l0.68-0.14
		c0.33-0.07,0.39-0.17,0.41-0.45l0.03-0.29l0.2,0.01c0,0.23,0.02,0.62,0.05,0.79l-2.24,0.47L23.69,4.4z"/>
	<path class="st0" d="M26.27,3.86c0.41-0.07,0.43-0.09,0.43-0.2c0-0.14-0.03-0.46-0.09-1.09c-0.06-0.63-0.09-0.95-0.12-1.09
		c-0.03-0.11-0.05-0.12-0.47-0.11l-0.02-0.17l1.57-0.16c0.32-0.03,0.5,0,0.67,0.09c0.17,0.09,0.29,0.26,0.31,0.51
		c0.06,0.59-0.6,0.76-0.6,0.8c0,0.03,0.02,0.04,0.07,0.1l0.76,0.8c0.19,0.2,0.24,0.24,0.44,0.22l0.01,0.17l-0.69,0.07l-1.03-1.19
		c-0.03-0.04-0.07-0.04-0.24-0.03c-0.16,0.02-0.18,0.03-0.17,0.07c0.07,0.73,0.09,0.84,0.11,0.95c0.02,0.11,0.05,0.12,0.47,0.1
		l0.01,0.17l-1.4,0.14L26.27,3.86z M27.06,2.32c0.01,0.07,0.02,0.09,0.28,0.07c0.63-0.06,0.72-0.41,0.69-0.64
		c-0.04-0.34-0.32-0.54-0.76-0.5c-0.3,0.03-0.32,0.04-0.3,0.14L27.06,2.32z"/>
	<path class="st0" d="M28.69,0.94l1.39-0.02l0,0.17l-0.19,0c-0.19,0.01-0.23,0.06-0.23,0.13c0,0.09,0.21,0.61,0.43,1.16l0.31,0.77
		l0.31-0.82c0.17-0.47,0.38-1.01,0.38-1.13c0-0.11-0.06-0.12-0.43-0.11l0-0.17l1.1-0.02l0.01,0.17h-0.12
		c-0.19,0.01-0.26,0.08-0.45,0.57c-0.63,1.64-0.69,1.83-0.76,2.19h-0.27c-0.04-0.28-0.75-1.92-0.96-2.35
		c-0.17-0.35-0.19-0.35-0.52-0.36L28.69,0.94z"/>
	<path class="st0" d="M31.85,3.61c0.44,0,0.47,0,0.49-0.11c0.02-0.14,0.05-0.46,0.1-1.09c0.05-0.63,0.08-0.95,0.07-1.09
		c0-0.11-0.03-0.12-0.47-0.19l0.02-0.17l1.46,0.12l-0.02,0.17c-0.44-0.01-0.47,0-0.48,0.11c-0.03,0.14-0.06,0.46-0.11,1.09
		c-0.05,0.63-0.08,0.95-0.07,1.09c0,0.11,0.03,0.13,0.46,0.19L33.3,3.9l-1.46-0.11L31.85,3.61z"/>
	<path class="st0" d="M36.21,3.69c-0.42,0.4-0.79,0.59-1.35,0.5c-0.64-0.11-1.27-0.66-1.1-1.68c0.12-0.74,0.7-1.4,1.7-1.24
		c0.26,0.04,0.6,0.16,0.83,0.27c-0.03,0.22-0.03,0.6-0.02,0.78l-0.2,0.01c-0.06-0.5-0.27-0.8-0.73-0.88
		c-0.51-0.08-0.93,0.35-1.05,1.12c-0.13,0.82,0.24,1.3,0.71,1.38c0.43,0.07,0.78-0.1,1.06-0.4L36.21,3.69z"/>
	<path class="st0" d="M36.24,4.18c0.37,0.07,0.39,0.07,0.44-0.04c0.05-0.13,0.14-0.44,0.3-1.05c0.17-0.61,0.25-0.92,0.27-1.06
		c0.02-0.11,0-0.13-0.36-0.25l0.05-0.17l1.48,0.4c0.22,0.06,0.46,0.1,0.63,0.12c-0.05,0.19-0.13,0.65-0.13,0.77l-0.17-0.02
		c0.03-0.54-0.04-0.62-0.59-0.76l-0.35-0.09c-0.05-0.01-0.08,0-0.1,0.06l-0.24,0.89c-0.01,0.05-0.01,0.07,0.1,0.1l0.12,0.03
		c0.42,0.12,0.47,0.05,0.58-0.22l0.18,0.05c-0.04,0.13-0.08,0.25-0.13,0.44c-0.04,0.16-0.08,0.33-0.11,0.45l-0.18-0.04
		c0.06-0.3,0.03-0.38-0.29-0.46l-0.27-0.08c-0.04-0.01-0.08,0-0.09,0.06l-0.27,1c-0.01,0.05,0,0.08,0.05,0.09l0.67,0.18
		c0.32,0.09,0.42,0.02,0.57-0.21l0.15-0.25l0.17,0.1c-0.1,0.2-0.25,0.56-0.31,0.73l-2.21-0.6L36.24,4.18z"/>
	<path class="st0" d="M39.33,4.26c-0.05,0.5,0.04,0.88,0.45,1.04c0.42,0.16,0.72-0.01,0.81-0.25c0.1-0.25-0.07-0.41-0.3-0.6
		l-0.27-0.21c-0.59-0.48-0.58-0.74-0.47-1.04c0.19-0.5,0.72-0.67,1.31-0.45c0.29,0.1,0.53,0.25,0.71,0.36
		c-0.01,0.05-0.04,0.12-0.07,0.17c-0.07,0.18-0.12,0.37-0.18,0.56l-0.18-0.07c0.11-0.5-0.05-0.74-0.42-0.88
		c-0.33-0.13-0.66-0.02-0.75,0.23c-0.06,0.17-0.02,0.31,0.23,0.51l0.55,0.46c0.35,0.3,0.43,0.56,0.3,0.93
		c-0.19,0.52-0.73,0.67-1.35,0.44c-0.28-0.1-0.53-0.33-0.8-0.43c0.07-0.2,0.18-0.56,0.24-0.82L39.33,4.26z"/>
	<path class="st0" d="M42.62,4.83c0.14,0.07,0.2,0.24,0.13,0.38c-0.07,0.14-0.24,0.2-0.38,0.13c-0.14-0.07-0.2-0.23-0.13-0.37
		C42.3,4.82,42.48,4.76,42.62,4.83"/>
	<path class="st0" d="M43.93,4.14l1.22,0.71l-0.09,0.15c-0.38-0.18-0.39-0.18-0.47-0.09c-0.08,0.11-0.24,0.39-0.77,1.28
		c-0.16,0.28-0.34,0.77,0.21,1.09c0.61,0.36,0.88,0.1,1.3-0.62c0.34-0.57,0.5-0.86,0.56-0.98c0.04-0.1,0.03-0.13-0.34-0.37
		l0.09-0.15l1.02,0.6l-0.09,0.15c-0.37-0.18-0.4-0.19-0.47-0.1c-0.09,0.11-0.25,0.39-0.7,1.15c-0.32,0.55-0.7,1.02-1.58,0.5
		c-0.55-0.32-0.78-0.85-0.4-1.5c0.51-0.88,0.68-1.16,0.73-1.29c0.05-0.1,0.03-0.12-0.31-0.36L43.93,4.14z"/>
	<path class="st0" d="M46.14,7.69c-0.19,0.47-0.2,0.86,0.14,1.12c0.37,0.26,0.7,0.19,0.85-0.01c0.16-0.22,0.04-0.41-0.13-0.66
		l-0.19-0.27c-0.44-0.63-0.36-0.87-0.16-1.13c0.31-0.42,0.87-0.45,1.38-0.08c0.25,0.19,0.44,0.38,0.58,0.55
		c-0.03,0.04-0.08,0.1-0.11,0.14c-0.12,0.16-0.22,0.32-0.33,0.5l-0.15-0.11c0.24-0.45,0.15-0.73-0.16-0.96
		c-0.29-0.21-0.63-0.19-0.79,0.01c-0.1,0.15-0.1,0.31,0.07,0.56l0.4,0.6c0.26,0.38,0.26,0.66,0.03,0.97
		c-0.32,0.44-0.88,0.44-1.42,0.06c-0.24-0.18-0.41-0.46-0.65-0.63c0.12-0.18,0.32-0.49,0.45-0.73L46.14,7.69z"/>
	<path class="st0" d="M47.37,9.54c0.25,0.2,0.35,0.16,0.69,0l1.7-0.83c0.29-0.15,0.36-0.18,0.5-0.27l0.16,0.14
		c-0.07,0.11-0.16,0.32-0.21,0.46l-0.73,2.01c-0.1,0.27-0.11,0.31,0.15,0.54l-0.11,0.12l-1.03-0.93l0.11-0.13
		c0.32,0.26,0.37,0.26,0.44,0.18c0.05-0.06,0.23-0.51,0.24-0.56c0-0.03,0-0.04-0.02-0.06c-0.07-0.08-0.22-0.22-0.52-0.5
		c-0.19-0.17-0.21-0.17-0.3-0.13c-0.24,0.12-0.43,0.23-0.46,0.26c-0.08,0.09-0.07,0.14,0.2,0.43l-0.12,0.13l-0.81-0.74L47.37,9.54z
		 M49.32,9.98c0.03,0.03,0.04,0.02,0.05,0.02c0.02-0.02,0.03-0.07,0.04-0.08l0.4-1.02l-1,0.5c-0.03,0.01-0.05,0.02-0.06,0.03
		c-0.01,0.02,0,0.04,0.02,0.05L49.32,9.98z"/>
</g>
</svg>
