<?xml version="1.0" encoding="utf-8"?>
<!-- Generator: Adobe Illustrator 23.0.1, SVG Export Plug-In . SVG Version: 6.00 Build 0)  -->
<svg version="1.1" id="Layer_1" xmlns="http://www.w3.org/2000/svg" xmlns:xlink="http://www.w3.org/1999/xlink" x="0px" y="0px"
	 viewBox="0 0 900 300" style="enable-background:new 0 0 900 300;" xml:space="preserve">
<style type="text/css">
	.st0{fill:#135A91;}
	.st1{fill:#094B7D;}
	.st2{fill:#1866A6;}
	.st3{fill:#1F2670;}
	.st4{fill:#171A5F;}
	.st5{fill:#252F7F;}
	.st6{fill:#4E1970;}
	.st7{fill:#420C60;}
	.st8{fill:#5A2380;}
	.st9{fill:#FFFFFF;}
	.st10{fill:none;}
	.st11{fill:url(#SVGID_1_);}
	.st12{fill:url(#SVGID_2_);}
	.st13{fill:#8DC63F;}
	.st14{fill:#FBB040;}
	.st15{fill:url(#SVGID_3_);}
	.st16{fill:#00C4E5;}
	.st17{fill:#FFBB00;}
	.st18{fill:url(#SVGID_4_);}
	.st19{fill:url(#SVGID_5_);}
	.st20{fill-rule:evenodd;clip-rule:evenodd;fill:#7C898C;}
	.st21{fill-rule:evenodd;clip-rule:evenodd;fill:#97A7AA;}
	.st22{fill-rule:evenodd;clip-rule:evenodd;fill:#333A3B;}
	.st23{fill-rule:evenodd;clip-rule:evenodd;fill:#434D4E;}
	.st24{fill-rule:evenodd;clip-rule:evenodd;fill:#B4C7CB;}
	.st25{fill-rule:evenodd;clip-rule:evenodd;fill:#C3D8DC;}
	.st26{fill-rule:evenodd;clip-rule:evenodd;fill:#BFD2D5;}
	.st27{fill-rule:evenodd;clip-rule:evenodd;fill:#8A999C;}
	.st28{fill-rule:evenodd;clip-rule:evenodd;fill:#9EAFB2;}
	.st29{fill-rule:evenodd;clip-rule:evenodd;fill:#849295;}
	.st30{fill-rule:evenodd;clip-rule:evenodd;fill:#7C8A8C;}
	.st31{fill-rule:evenodd;clip-rule:evenodd;fill:#FFF3DE;}
	.st32{fill-rule:evenodd;clip-rule:evenodd;fill:#81CEDC;}
	.st33{fill-rule:evenodd;clip-rule:evenodd;fill:#A6B8BB;}
	.st34{fill-rule:evenodd;clip-rule:evenodd;fill:#616F71;}
	.st35{fill-rule:evenodd;clip-rule:evenodd;fill:#FFFFFF;}
	.st36{fill-rule:evenodd;clip-rule:evenodd;fill:#FFAF99;}
	.st37{fill-rule:evenodd;clip-rule:evenodd;fill:#D0E3E4;}
	.st38{fill-rule:evenodd;clip-rule:evenodd;fill:#393946;}
	.st39{fill-rule:evenodd;clip-rule:evenodd;fill:#F3C486;}
	.st40{fill-rule:evenodd;clip-rule:evenodd;fill:#F1E2C6;}
	.st41{fill-rule:evenodd;clip-rule:evenodd;fill:#E7E6E6;}
	.st42{fill-rule:evenodd;clip-rule:evenodd;fill:#FFE5C2;}
	.st43{fill:#37484A;}
	.st44{fill:#1B8E99;}
</style>
<g>
	<polygon class="st0" points="119.1,177 20.5,208 119.1,239 217.9,208 	"/>
	<polygon class="st1" points="20.5,259.3 119.1,289.5 119.1,239 20.5,208 	"/>
	<polygon class="st2" points="217.9,208 217.9,258.5 119.1,289.5 119.1,239 	"/>
</g>
<g>
	<polygon class="st3" points="119.1,92.5 20.5,123.4 119.1,154.4 217.9,123.4 	"/>
	<polygon class="st4" points="20.5,174.7 119.1,204.9 119.1,154.4 20.5,123.4 	"/>
	<polygon class="st5" points="217.9,123.4 217.9,173.9 119.1,204.9 119.1,154.4 	"/>
</g>
<g>
	<polygon class="st6" points="119.1,7.9 20.5,38.9 119.1,69.8 217.9,38.9 	"/>
	<polygon class="st7" points="20.5,90.2 119.1,120.4 119.1,69.8 20.5,38.9 	"/>
	<polygon class="st8" points="217.9,38.9 217.9,89.4 119.1,120.4 119.1,69.8 	"/>
</g>
<g>
	<rect x="217.9" y="38.9" class="st8" width="411.9" height="50.5"/>
	<g>
		<circle class="st9" cx="620.2" cy="64.1" r="41.9"/>
		<path class="st8" d="M620.2,26.2c21,0,37.9,17,37.9,37.9s-17,37.9-37.9,37.9c-21,0-37.9-17-37.9-37.9S599.2,26.2,620.2,26.2
			 M620.2,18.2c-25.3,0-45.9,20.6-45.9,45.9s20.6,45.9,45.9,45.9s45.9-20.6,45.9-45.9S645.5,18.2,620.2,18.2L620.2,18.2z"/>
	</g>
</g>
<g>
	<rect x="217.9" y="123.4" class="st5" width="322.6" height="50.5"/>
	<g>
		<circle class="st9" cx="534.4" cy="148.7" r="41.9"/>
		<path class="st5" d="M534.4,110.7c21,0,37.9,17,37.9,37.9s-17,37.9-37.9,37.9c-21,0-37.9-17-37.9-37.9S513.4,110.7,534.4,110.7
			 M534.4,102.7c-25.3,0-45.9,20.6-45.9,45.9s20.6,45.9,45.9,45.9s45.9-20.6,45.9-45.9S559.7,102.7,534.4,102.7L534.4,102.7z"/>
	</g>
</g>
<g>
	<rect x="217.9" y="208" class="st2" width="411.9" height="50.5"/>
	<g>
		<circle class="st9" cx="620.2" cy="233.2" r="41.9"/>
		<path class="st2" d="M620.2,195.3c21,0,37.9,17,37.9,37.9c0,20.9-17,37.9-37.9,37.9c-21,0-37.9-17-37.9-37.9
			C582.2,212.3,599.2,195.3,620.2,195.3 M620.2,187.3c-25.3,0-45.9,20.6-45.9,45.9s20.6,45.9,45.9,45.9s45.9-20.6,45.9-45.9
			S645.5,187.3,620.2,187.3L620.2,187.3z"/>
	</g>
</g>
<g>
	<rect x="230.5" y="57.7" class="st10" width="181.5" height="12.9"/>
	<path class="st9" d="M234.3,69.9h-2.5V57.7h5.4c2.6,0,3.9,1.4,3.9,3.9c0,2.5-1.3,3.9-3.7,3.9h-3.1V69.9z M236.8,63.3
		c1.3,0,1.9-0.5,1.9-1.8c0-1.2-0.6-1.8-1.8-1.8h-2.6v3.5H236.8z"/>
	<path class="st9" d="M248,57.7l4.4,12.2h-2.6l-0.8-2.5h-4.7l-0.8,2.5h-2.6l4.4-12.2C245.1,57.7,248,57.7,248,57.7z M244.9,65.3h3.4
		l-1.7-5.2L244.9,65.3z"/>
	<path class="st9" d="M255.6,59.9H252v-2.2h9.7v2.2h-3.6v10h-2.5L255.6,59.9L255.6,59.9z"/>
	<path class="st9" d="M263.2,57.7h2.5v12.2h-2.5V57.7z"/>
	<path class="st9" d="M268.4,57.7h8.9v2.1h-6.4v2.6h5.9v2.1h-5.9v3.1h6.7v2.3h-9.2V57.7z"/>
	<path class="st9" d="M279.5,57.7h2.6l5,8.4v-8.4h2.5v12.2H287l-5-8.4v8.4h-2.5L279.5,57.7L279.5,57.7z"/>
	<path class="st9" d="M294.6,59.9H291v-2.2h9.7v2.2h-3.6v10h-2.5V59.9z"/>
	<path class="st9" d="M312.2,70.2c-3.4,0-5.8-2.6-5.8-6.5c0-3.9,2.3-6.4,5.8-6.4c3.1,0,5.1,1.6,5.5,4.1h-2.6c-0.3-1.3-1.3-2-2.8-2
		c-2,0-3.3,1.5-3.3,4.2c0,2.7,1.3,4.2,3.4,4.2c1.6,0,2.7-1,3-2.6h-2.8v-2.1h5.1v6.6h-1.7l-0.3-1.4C314.9,69.7,313.8,70.2,312.2,70.2
		z"/>
	<path class="st9" d="M326.2,57.7l4.4,12.2H328l-0.8-2.5h-4.7l-0.8,2.5H319l4.4-12.2C323.3,57.7,326.2,57.7,326.2,57.7z M323.1,65.3
		h3.4l-1.7-5.2L323.1,65.3z"/>
	<path class="st9" d="M333.8,59.9h-3.6v-2.2h9.7v2.2h-3.6v10h-2.5V59.9z"/>
	<path class="st9" d="M341.3,57.7h8.9v2.1h-6.4v2.6h5.9v2.1h-5.9v3.1h6.7v2.3h-9.2V57.7z"/>
	<path class="st9" d="M351.3,57.7h2.6l2.1,8.6l1.8-8.6h2.7l1.8,8.6l2.1-8.6h2.6l-3.5,12.2H361l-1.9-9.4l-1.9,9.4h-2.4L351.3,57.7z"
		/>
	<path class="st9" d="M374,57.7l4.4,12.2h-2.6l-0.8-2.5h-4.7l-0.8,2.5h-2.6l4.4-12.2C371.1,57.7,374,57.7,374,57.7z M370.9,65.3h3.4
		l-1.7-5.2L370.9,65.3z"/>
	<path class="st9" d="M381.6,69.9v-4.6l-4.4-7.7h3.1l2.6,5.3l2.4-5.3h2.9l-4,7.7v4.6H381.6z"/>
</g>
<g>
	<rect x="230.5" y="142.2" class="st10" width="253.1" height="12.9"/>
	<path class="st9" d="M231.8,142.2h4.8c3.7,0,5.6,2,5.6,6.1c0,2.3-0.7,4-2,5c-1.2,0.9-2.5,1.1-4.3,1.1h-4.1L231.8,142.2L231.8,142.2
		z M236.3,152.3c2.3,0,3.3-1.1,3.3-3.9c0-2.7-0.9-4-3-4h-2.3v7.9H236.3z"/>
	<path class="st9" d="M244.2,142.2h8.9v2.1h-6.4v2.6h5.9v2.1h-5.9v3.1h6.7v2.3h-9.2V142.2z"/>
	<path class="st9" d="M255.3,142.2h3.7l2.4,9.3l2.4-9.3h3.7v12.2h-2.4v-9.9l-2.5,9.9h-2.6l-2.5-9.9v9.9h-2.4L255.3,142.2
		L255.3,142.2z"/>
	<path class="st9" d="M275.5,141.9c3.6,0,6,2.5,6,6.4s-2.3,6.4-6,6.4s-6-2.5-6-6.4S271.9,141.9,275.5,141.9z M275.5,152.6
		c2.1,0,3.4-1.5,3.4-4.2s-1.3-4.2-3.4-4.2c-2.1,0-3.4,1.5-3.4,4.2S273.4,152.6,275.5,152.6z"/>
	<path class="st9" d="M283.5,142.2h2.6l5,8.4v-8.4h2.5v12.2H291l-5-8.4v8.4h-2.5L283.5,142.2L283.5,142.2z"/>
	<path class="st9" d="M298,150.7c0.2,1.4,1.1,2,2.8,2c1.5,0,2.2-0.5,2.2-1.6c0-1.1-1-1.3-3.3-1.9c-1-0.2-1.9-0.4-2.7-0.9
		c-0.9-0.5-1.3-1.5-1.3-2.8c0-2.4,1.6-3.7,4.7-3.7c2.9,0,4.5,1.4,4.6,3.9h-2.4c-0.1-1.2-0.9-1.8-2.4-1.8c-1.3,0-2.1,0.5-2.1,1.5
		c0,1.2,0.9,1.2,3,1.7c1.2,0.3,2.1,0.5,2.9,0.9c1,0.6,1.5,1.5,1.5,2.7c0,2.5-1.8,4-4.9,4c-3.1,0-4.9-1.5-5-4.1L298,150.7L298,150.7z
		"/>
	<path class="st9" d="M310,144.4h-3.6v-2.2h9.7v2.2h-3.6v10.1H310V144.4z"/>
	<path class="st9" d="M317.5,142.2h5.9c2.6,0,3.9,1.1,3.9,3.5c0,1.5-0.6,2.5-1.8,2.9c1.2,0.4,1.5,1.2,1.5,2.7l0,1.4
		c0,0.7,0,1.1,0.5,1.4v0.4h-2.8c-0.2-0.4-0.3-0.9-0.3-1.5l0-1.3c0-1.4-0.4-1.9-1.8-1.9H320v4.8h-2.5L317.5,142.2L317.5,142.2z
		 M323,147.6c1.3,0,1.9-0.5,1.9-1.6c0-1.1-0.6-1.6-1.8-1.6H320v3.2L323,147.6L323,147.6z"/>
	<path class="st9" d="M335.7,142.2l4.4,12.2h-2.6l-0.8-2.5h-4.7l-0.8,2.5h-2.6l4.4-12.2H335.7z M332.5,149.9h3.4l-1.7-5.2
		L332.5,149.9z"/>
	<path class="st9" d="M343.2,144.4h-3.6v-2.2h9.7v2.2h-3.6v10.1h-2.5V144.4z"/>
	<path class="st9" d="M350.9,142.2h2.5v12.2h-2.5V142.2z"/>
	<path class="st9" d="M361.5,141.9c3.6,0,6,2.5,6,6.4s-2.3,6.4-6,6.4s-6-2.5-6-6.4C355.5,144.4,357.8,141.9,361.5,141.9z
		 M361.5,152.6c2.1,0,3.4-1.5,3.4-4.2s-1.3-4.2-3.4-4.2c-2.1,0-3.4,1.5-3.4,4.2S359.3,152.6,361.5,152.6z"/>
	<path class="st9" d="M369.4,142.2h2.6l5,8.4v-8.4h2.5v12.2h-2.6l-5-8.4v8.4h-2.5L369.4,142.2L369.4,142.2z"/>
	<path class="st9" d="M389.4,154.5h-2.5v-12.2h5.4c2.6,0,3.9,1.4,3.9,3.9c0,2.5-1.3,3.9-3.7,3.9h-3.1L389.4,154.5L389.4,154.5z
		 M391.8,147.9c1.3,0,1.9-0.5,1.9-1.8c0-1.2-0.6-1.8-1.8-1.8h-2.6v3.5L391.8,147.9L391.8,147.9z"/>
	<path class="st9" d="M398.2,142.2h5.9c2.6,0,3.9,1.1,3.9,3.5c0,1.5-0.6,2.5-1.8,2.9c1.2,0.4,1.5,1.2,1.5,2.7l0,1.4
		c0,0.7,0,1.1,0.5,1.4v0.4h-2.8c-0.2-0.4-0.3-0.9-0.3-1.5l0-1.3c0-1.4-0.4-1.9-1.8-1.9h-2.7v4.8h-2.5L398.2,142.2L398.2,142.2z
		 M403.7,147.6c1.3,0,1.9-0.5,1.9-1.6c0-1.1-0.6-1.6-1.8-1.6h-3.1v3.2L403.7,147.6L403.7,147.6z"/>
	<path class="st9" d="M415.8,141.9c3.6,0,6,2.5,6,6.4s-2.3,6.4-6,6.4s-6-2.5-6-6.4S412.1,141.9,415.8,141.9z M415.8,152.6
		c2.1,0,3.4-1.5,3.4-4.2s-1.3-4.2-3.4-4.2c-2.1,0-3.4,1.5-3.4,4.2S413.6,152.6,415.8,152.6z"/>
	<path class="st9" d="M425.3,149.9v1.5c0,0.9,0.5,1.3,1.5,1.3c1.1,0,1.4-0.6,1.4-1.9v-8.5h2.5v8.6c0,1.1,0,1.9-0.6,2.7
		c-0.6,0.8-1.8,1.3-3.3,1.3c-1.4,0-2.5-0.4-3.2-1.1c-0.8-0.8-0.8-1.6-0.8-2.8v-0.9L425.3,149.9L425.3,149.9z"/>
	<path class="st9" d="M433.1,142.2h8.9v2.1h-6.4v2.6h5.9v2.1h-5.9v3.1h6.7v2.3h-9.2V142.2z"/>
	<path class="st9" d="M449.5,154.8c-3.6,0-5.7-2.4-5.7-6.4c0-4.2,2.1-6.4,6-6.4c3.1,0,5,1.6,5.2,4.4h-2.5c-0.2-1.4-1.1-2.1-2.7-2.1
		c-2.2,0-3.4,1.5-3.4,4.2c0,2.7,1.2,4.2,3.3,4.2c1.5,0,2.5-0.8,2.8-2.3h2.5C454.7,153,452.6,154.8,449.5,154.8z"/>
	<path class="st9" d="M459.4,144.4h-3.6v-2.2h9.7v2.2h-3.6v10.1h-2.5V144.4z"/>
	<path class="st9" d="M468.9,150.7c0.2,1.4,1.1,2,2.8,2c1.5,0,2.2-0.5,2.2-1.6c0-1.1-1-1.3-3.3-1.9c-1-0.2-1.9-0.4-2.7-0.9
		c-0.9-0.5-1.3-1.5-1.3-2.8c0-2.4,1.6-3.7,4.7-3.7c2.9,0,4.5,1.4,4.6,3.9h-2.4c-0.1-1.2-0.9-1.8-2.4-1.8c-1.3,0-2.1,0.5-2.1,1.5
		c0,1.2,0.9,1.2,3,1.7c1.2,0.3,2.1,0.5,2.9,0.9c1,0.6,1.5,1.5,1.5,2.7c0,2.5-1.8,4-4.9,4c-3.1,0-4.9-1.5-5-4.1L468.9,150.7
		L468.9,150.7z"/>
</g>
<g>
	<rect x="230.5" y="226.8" class="st10" width="339.2" height="14.6"/>
	<path class="st9" d="M231.8,226.8h8.5v2.1h-6.1v2.8h5.3v2.1h-5.3v5.2h-2.5V226.8z"/>
	<path class="st9" d="M244.4,226.8v7.7c0,1.8,0.7,2.7,2.4,2.7c1.7,0,2.4-0.9,2.4-2.7v-7.7h2.5v7.9c0,3-1.8,4.7-4.9,4.7
		c-3.2,0-4.9-1.6-4.9-4.7v-7.9H244.4z"/>
	<path class="st9" d="M254.1,226.8h2.6l5,8.4v-8.4h2.5V239h-2.6l-5-8.4v8.4h-2.5L254.1,226.8L254.1,226.8z"/>
	<path class="st9" d="M266.8,226.8h4.8c3.7,0,5.6,2,5.6,6.1c0,2.3-0.7,4-2,5c-1.2,0.9-2.5,1.1-4.3,1.1h-4.1L266.8,226.8L266.8,226.8
		z M271.2,236.8c2.3,0,3.3-1.1,3.3-3.9c0-2.7-0.9-4-3-4h-2.3v7.9H271.2z"/>
	<path class="st9" d="M285,226.8l4.4,12.2h-2.6l-0.8-2.5h-4.7l-0.8,2.5h-2.6l4.4-12.2H285z M281.8,234.5h3.4l-1.7-5.2L281.8,234.5z"
		/>
	<path class="st9" d="M290.6,226.8h3.7l2.4,9.3l2.4-9.3h3.7V239h-2.4v-9.9l-2.5,9.9h-2.6l-2.5-9.9v9.9h-2.4V226.8z"/>
	<path class="st9" d="M305.4,226.8h8.9v2.1h-6.4v2.6h5.9v2.1h-5.9v3.1h6.7v2.3h-9.2V226.8z"/>
	<path class="st9" d="M316.5,226.8h2.6l5,8.4v-8.4h2.5V239H324l-5-8.4v8.4h-2.5L316.5,226.8L316.5,226.8z"/>
	<path class="st9" d="M331.7,229h-3.6v-2.2h9.7v2.2h-3.6V239h-2.5V229z"/>
	<path class="st9" d="M344.6,226.8L349,239h-2.6l-0.8-2.5h-4.7L340,239h-2.6l4.4-12.2H344.6z M341.5,234.5h3.4l-1.7-5.2L341.5,234.5
		z"/>
	<path class="st9" d="M350.3,226.8h2.5v10h6v2.3h-8.5L350.3,226.8L350.3,226.8z"/>
	<path class="st9" d="M365,226.8h5.9c2.6,0,3.9,1.1,3.9,3.5c0,1.5-0.6,2.5-1.8,2.9c1.2,0.4,1.5,1.2,1.5,2.7l0,1.4
		c0,0.7,0,1.1,0.5,1.4v0.4h-2.8c-0.2-0.4-0.3-0.9-0.3-1.5l0-1.3c0-1.4-0.4-1.9-1.8-1.9h-2.7v4.8h-2.5L365,226.8L365,226.8z
		 M370.4,232.1c1.3,0,1.9-0.5,1.9-1.6c0-1.1-0.6-1.6-1.8-1.6h-3.1v3.2H370.4z"/>
	<path class="st9" d="M377.1,226.8h8.9v2.1h-6.4v2.6h5.9v2.1h-5.9v3.1h6.7v2.3h-9.2V226.8z"/>
	<path class="st9" d="M390.1,235.3c0.2,1.4,1.1,2,2.8,2c1.5,0,2.2-0.5,2.2-1.6c0-1.1-1-1.3-3.3-1.9c-1-0.2-1.9-0.4-2.7-0.9
		c-0.9-0.5-1.3-1.5-1.3-2.8c0-2.4,1.6-3.7,4.7-3.7c2.9,0,4.5,1.4,4.6,3.9h-2.4c-0.1-1.2-0.9-1.8-2.4-1.8c-1.3,0-2.1,0.5-2.1,1.5
		c0,1.2,0.9,1.2,3,1.7c1.2,0.3,2.1,0.5,2.9,0.9c1,0.6,1.5,1.5,1.5,2.7c0,2.5-1.8,4-4.9,4c-3.1,0-4.9-1.5-5-4.1L390.1,235.3
		L390.1,235.3z"/>
	<path class="st9" d="M399.5,226.8h8.9v2.1H402v2.6h5.9v2.1H402v3.1h6.7v2.3h-9.2V226.8z"/>
	<path class="st9" d="M416.6,226.8L421,239h-2.6l-0.8-2.5h-4.7L412,239h-2.6l4.4-12.2H416.6z M413.5,234.5h3.4l-1.7-5.2L413.5,234.5
		z"/>
	<path class="st9" d="M422.3,226.8h5.9c2.6,0,3.9,1.1,3.9,3.5c0,1.5-0.6,2.5-1.8,2.9c1.2,0.4,1.5,1.2,1.5,2.7l0,1.4
		c0,0.7,0,1.1,0.5,1.4v0.4h-2.8c-0.2-0.4-0.3-0.9-0.3-1.5l0-1.3c0-1.4-0.4-1.9-1.8-1.9h-2.7v4.8h-2.5L422.3,226.8L422.3,226.8z
		 M427.8,232.1c1.3,0,1.9-0.5,1.9-1.6c0-1.1-0.6-1.6-1.8-1.6h-3.1v3.2H427.8z"/>
	<path class="st9" d="M439.6,239.4c-3.6,0-5.7-2.4-5.7-6.4c0-4.2,2.1-6.4,6-6.4c3.1,0,5,1.6,5.2,4.4h-2.5c-0.2-1.4-1.1-2.1-2.7-2.1
		c-2.2,0-3.4,1.5-3.4,4.2c0,2.7,1.2,4.2,3.3,4.2c1.5,0,2.5-0.8,2.8-2.3h2.5C444.9,237.6,442.8,239.4,439.6,239.4z"/>
	<path class="st9" d="M447.1,226.8h2.5v4.6h5v-4.6h2.5V239h-2.5v-5.4h-5v5.4h-2.5V226.8z"/>
</g>
<g>
	
		<linearGradient id="SVGID_1_" gradientUnits="userSpaceOnUse" x1="601.311" y1="70.8117" x2="601.4485" y2="70.5652" gradientTransform="matrix(1 0 0 -1 0 300)">
		<stop  offset="0" style="stop-color:#C7E500"/>
		<stop  offset="1" style="stop-color:#39B54A"/>
	</linearGradient>
	<path class="st11" d="M601.2,229.3c0.1,0,0.3,0,0.4,0C601.3,229.3,601.1,229.3,601.2,229.3C601.2,229.3,601.2,229.3,601.2,229.3z"
		/>
	<g>
		
			<linearGradient id="SVGID_2_" gradientUnits="userSpaceOnUse" x1="607.3801" y1="84.3837" x2="607.3801" y2="8.759" gradientTransform="matrix(1 0 0 -1 0 300)">
			<stop  offset="0" style="stop-color:#0EE7FF"/>
			<stop  offset="1" style="stop-color:#009BFF"/>
		</linearGradient>
		<path class="st12" d="M619.2,263.1c-6.9-4.8-15.2-7.2-23.6-6.7l0,0V229l2.2,0c8.2-0.1,14.9,1.9,21.4,6.8L619.2,263.1z"/>
		<path class="st13" d="M619.2,235.1c0,0-8.3-7.7-22.6-7v-2.7C596.7,225.3,609.1,224.7,619.2,235.1z"/>
		<path class="st14" d="M619.2,234.3c0,0-4.3-7.6-18.9-10v-2.3C600.3,221.9,615.2,225.5,619.2,234.3z"/>
		
			<linearGradient id="SVGID_3_" gradientUnits="userSpaceOnUse" x1="632.43" y1="84.3837" x2="632.43" y2="8.759" gradientTransform="matrix(1 0 0 -1 0 300)">
			<stop  offset="0" style="stop-color:#0EE7FF"/>
			<stop  offset="1" style="stop-color:#009BFF"/>
		</linearGradient>
		<path class="st15" d="M620.7,263.1c6.9-4.8,15.2-7.2,23.6-6.7l0,0V229l-2.2,0c-8.2-0.1-14.9,1.9-21.4,6.8L620.7,263.1z"/>
		<path class="st13" d="M620.6,235.1c0,0,8.3-7.7,22.6-7v-2.7C643.2,225.3,630.7,224.7,620.6,235.1z"/>
		<path class="st14" d="M620.7,234.3c0,0,4.3-7.6,18.9-10v-2.3C639.5,221.9,624.6,225.5,620.7,234.3z"/>
	</g>
	<g>
		<g>
			<g>
				<path class="st16" d="M626.8,225.6c2.2-1.4,4.5-2.6,7-3.6v-5.4c0-2.2-2.4-4-5.3-4c-0.7,0-1.4,0.1-2,0.3c0.2,0.5,0.2,0.9,0.2,1.4
					V225.6z"/>
				<circle class="st16" cx="628.6" cy="207.3" r="3.7"/>
			</g>
			<g>
				<path class="st17" d="M634.9,221.8c1.7-0.8,3.5-1.4,5.3-1.8v-2.9c0-1.7-1.8-3-4-3c-0.5,0-1,0.1-1.5,0.2c0.1,0.4,0.2,0.7,0.2,1.1
					L634.9,221.8L634.9,221.8z"/>
				
					<ellipse transform="matrix(0.1602 -0.9871 0.9871 0.1602 326.9671 804.3755)" class="st17" cx="636.2" cy="210" rx="2.8" ry="2.8"/>
			</g>
			<g>
				<path class="st17" d="M605.5,221.1c-1.7-0.8-3.5-1.4-5.3-1.8v-2.9c0-1.7,1.8-3,4-3c0.5,0,1,0.1,1.5,0.2
					c-0.1,0.4-0.2,0.7-0.2,1.1L605.5,221.1L605.5,221.1z"/>
				<circle class="st17" cx="604.1" cy="209.3" r="2.8"/>
			</g>
			<g>
				<path class="st16" d="M610,223.3c1.1,0.9,2.2,1.7,3.4,2.6v-11.5c0-0.5,0.1-1,0.2-1.4c-0.6-0.2-1.3-0.3-2-0.3
					c-2.9,0-5.3,1.8-5.3,4v4.8C607.6,222,608.8,222.6,610,223.3z"/>
				<circle class="st16" cx="611.7" cy="207.3" r="3.7"/>
			</g>
			
				<linearGradient id="SVGID_4_" gradientUnits="userSpaceOnUse" x1="619.9856" y1="102.2603" x2="621.1205" y2="51.9499" gradientTransform="matrix(1 0 0 -1 0 300)">
				<stop  offset="0" style="stop-color:#C7E500"/>
				<stop  offset="1" style="stop-color:#39B54A"/>
			</linearGradient>
			<circle class="st18" cx="620.2" cy="205" r="3.7"/>
		</g>
		
			<linearGradient id="SVGID_5_" gradientUnits="userSpaceOnUse" x1="619.637" y1="102.2524" x2="620.7719" y2="51.942" gradientTransform="matrix(1 0 0 -1 0 300)">
			<stop  offset="0" style="stop-color:#C7E500"/>
			<stop  offset="1" style="stop-color:#39B54A"/>
		</linearGradient>
		<path class="st19" d="M620.2,210.4c-2.9,0-5.3,1.8-5.3,4V227c0,0,3,2.7,4.9,5.6c0,0,1.9-3.2,5.7-6v-12.2
			C625.4,212.2,623.1,210.4,620.2,210.4z"/>
	</g>
</g>
<g>
	<g>
		<path class="st20" d="M643.9,83.8l-0.3-0.1c0-0.2,0.1-0.4,0.1-0.6V57.9c0-0.2,0-0.5-0.1-0.7c0,0,0-0.1,0-0.1c0,0,0-0.1,0-0.1l0,0
			v0l0,0c0-0.1,0-0.1-0.1-0.2c0.1,0.1,0.1,0.1,0.2,0.2c0,0,0,0.1,0.1,0.1c0,0,0,0.1,0.1,0.1c0.1,0.3,0.2,0.6,0.2,1v25.1
			C643.9,83.5,643.9,83.7,643.9,83.8z"/>
		<path class="st21" d="M643.5,56.8c0,0,0,0.1,0.1,0.2l0,0v0l0,0c0,0,0,0.1,0,0.1c0,0,0,0.1,0,0.1c0,0.2,0.1,0.4,0.1,0.7V83
			c0,0.2,0,0.4-0.1,0.6l0.3,0.1c-0.1,1-0.8,1.5-1.9,1.5h-42.7c-0.9,0-1.4-0.3-1.7-0.8c-0.2-0.3-0.2-0.7-0.2-1.1V58.3
			c0-0.4,0.1-0.8,0.2-1.1c0.2-0.4,0.5-0.6,1-0.8c0.1,0,0.2,0,0.2,0h0c0,0,0,0,0,0c0.1,0,0.2,0,0.3,0c0,0,0.1,0,0.1,0h42.8
			c0.2,0,0.4,0,0.5,0.1c0,0,0,0,0.1,0c0,0,0,0,0.1,0c0,0,0,0,0,0c0,0,0,0,0.1,0c0,0,0.1,0,0.1,0c0.1,0,0.2,0.1,0.3,0.1
			C643.3,56.7,643.4,56.7,643.5,56.8z M640,58.2h-38.5c-0.7,0-1,0.3-1,1v15.6c0,0.6,0.3,0.9,1,0.9H640c0.6,0,0.9-0.3,0.9-0.9v-3.9
			c0,0,0,0,0,0V59.2C640.9,58.6,640.6,58.2,640,58.2z"/>
		<path class="st22" d="M640,58.2c0.6,0,0.9,0.3,0.9,1v11.6c0,0,0,0,0,0v3.9c0,0.6-0.3,0.9-0.9,0.9h-38.5c-0.6,0-1-0.3-1-0.9V59.2
			c0-0.7,0.3-1,1-1L640,58.2L640,58.2z"/>
		<g>
			<path class="st23" d="M600.4,74.7V59.2c0-0.7,0.3-1,1-1h0.8l25,17.4h-25.8C600.8,75.7,600.5,75.3,600.4,74.7z"/>
		</g>
		<g>
			<path class="st24" d="M628.5,73.2c0-0.3,0.2-0.5,0.5-0.5h1.2c0.3,0,0.5,0.2,0.5,0.5v1.3c0,0.3-0.2,0.5-0.5,0.5H629
				c-0.3,0-0.5-0.2-0.5-0.5V73.2z M623.8,69.9c0.3,0,0.5,0.2,0.5,0.5v1.3c0,0.3-0.2,0.5-0.5,0.5h-1.2c-0.3,0-0.5-0.2-0.5-0.5v-1.3
				c0-0.3,0.2-0.5,0.5-0.5H623.8z M627.3,70.4c0-0.3,0.2-0.5,0.5-0.5h1.2c0.3,0,0.5,0.2,0.5,0.5v1.3c0,0.3-0.2,0.5-0.5,0.5h-1.2
				c-0.3,0-0.5-0.2-0.5-0.5V70.4z M626.5,69.9c0.3,0,0.5,0.2,0.5,0.5v1.3c0,0.3-0.2,0.5-0.5,0.5h-1.2c-0.3,0-0.5-0.2-0.5-0.5v-1.3
				c0-0.3,0.2-0.5,0.5-0.5H626.5z M627.7,67.2c0.3,0,0.5,0.2,0.5,0.5v1.3c0,0.3-0.2,0.5-0.5,0.5h-1.2c-0.3,0-0.5-0.2-0.5-0.5v-1.3
				c0-0.3,0.2-0.5,0.5-0.5H627.7z M624.7,66.2v-1.3c0-0.3,0.2-0.5,0.5-0.5h1.2c0.3,0,0.5,0.2,0.5,0.5v1.3c0,0.3-0.2,0.5-0.5,0.5
				h-1.2C624.9,66.7,624.7,66.5,624.7,66.2z M624.3,66.2c0,0.3-0.2,0.5-0.5,0.5h-1.2c-0.3,0-0.5-0.2-0.5-0.5v-1.3
				c0-0.3,0.2-0.5,0.5-0.5h1.2c0.3,0,0.5,0.2,0.5,0.5V66.2z M623.8,67.2h1.2c0.3,0,0.5,0.2,0.5,0.5v1.3c0,0.3-0.2,0.5-0.5,0.5h-1.2
				c-0.3,0-0.5-0.2-0.5-0.5v-1.3C623.3,67.3,623.5,67.2,623.8,67.2z M625,63.9h-1.2c-0.3,0-0.5-0.2-0.5-0.5v-1.3
				c0-0.3,0.2-0.5,0.5-0.5h1.2c0.3,0,0.5,0.2,0.5,0.5v1.3C625.5,63.8,625.4,63.9,625,63.9z M626.4,61.7h1.2c0.3,0,0.5,0.2,0.5,0.5
				v1.3c0,0.3-0.2,0.5-0.5,0.5h-1.2c-0.3,0-0.5-0.2-0.5-0.5v-1.3C625.9,61.8,626.1,61.7,626.4,61.7z M633.8,67.7
				c0-0.3,0.2-0.5,0.5-0.5h1.2c0.3,0,0.5,0.2,0.5,0.5v1.3c0,0.3-0.2,0.5-0.5,0.5h-1.2c-0.3,0-0.5-0.2-0.5-0.5V67.7z M631.2,67.7
				c0-0.3,0.2-0.5,0.5-0.5h1.2c0.3,0,0.5,0.2,0.5,0.5v1.3c0,0.3-0.2,0.5-0.5,0.5h-1.2c-0.3,0-0.5-0.2-0.5-0.5V67.7z M630.3,67.2
				c0.3,0,0.5,0.2,0.5,0.5v1.3c0,0.3-0.2,0.5-0.5,0.5H629c-0.3,0-0.5-0.2-0.5-0.5v-1.3c0-0.3,0.2-0.5,0.5-0.5H630.3z M629.6,64.9
				v1.3c0,0.3-0.2,0.5-0.5,0.5h-1.2c-0.3,0-0.5-0.2-0.5-0.5v-1.3c0-0.3,0.2-0.5,0.5-0.5h1.2C629.4,64.4,629.6,64.6,629.6,64.9z
				 M630.3,61.7c0.3,0,0.5,0.2,0.5,0.5v1.3c0,0.3-0.2,0.5-0.5,0.5H629c-0.3,0-0.5-0.2-0.5-0.5v-1.3c0-0.3,0.2-0.5,0.5-0.5H630.3z
				 M630.5,64.4h1.2c0.3,0,0.5,0.2,0.5,0.5v1.3c0,0.3-0.2,0.5-0.5,0.5h-1.2c-0.3,0-0.5-0.2-0.5-0.5v-1.3
				C629.9,64.6,630.1,64.4,630.5,64.4z M632.9,61.7c0.3,0,0.5,0.2,0.5,0.5v1.3c0,0.3-0.2,0.5-0.5,0.5h-1.2c-0.3,0-0.5-0.2-0.5-0.5
				v-1.3c0-0.3,0.2-0.5,0.5-0.5H632.9z M634,62.2c0-0.3,0.2-0.5,0.5-0.5h5.2c0.3,0,0.5,0.2,0.5,0.5v1.3c0,0.3-0.2,0.5-0.5,0.5h-5.2
				c-0.3,0-0.5-0.2-0.5-0.5V62.2z M633.1,64.4h1.2c0.3,0,0.5,0.2,0.5,0.5v1.3c0,0.3-0.2,0.5-0.5,0.5h-1.2c-0.3,0-0.5-0.2-0.5-0.5
				v-1.3C632.5,64.6,632.7,64.4,633.1,64.4z M629.9,59.4c0-0.3,0.2-0.5,0.5-0.5h1.2c0.3,0,0.5,0.2,0.5,0.5v1.2
				c0,0.3-0.2,0.5-0.5,0.5h-1.2c-0.3,0-0.5-0.2-0.5-0.5V59.4z M627.3,60.7v-1.2c0-0.3,0.2-0.5,0.5-0.5h1.2c0.3,0,0.5,0.2,0.5,0.5
				v1.2c0,0.3-0.2,0.5-0.5,0.5h-1.2C627.5,61.2,627.3,61,627.3,60.7z M624.7,60.7v-1.2c0-0.3,0.2-0.5,0.5-0.5h1.2
				c0.3,0,0.5,0.2,0.5,0.5v1.2c0,0.3-0.2,0.5-0.5,0.5h-1.2C624.9,61.2,624.7,61,624.7,60.7z M623.8,58.9c0.3,0,0.5,0.2,0.5,0.5v1.2
				c0,0.3-0.2,0.5-0.5,0.5h-1.2c-0.3,0-0.5-0.2-0.5-0.5v-1.2c0-0.3,0.2-0.5,0.5-0.5H623.8z M637.8,60.7v-1.2c0-0.3,0.2-0.5,0.5-0.5
				h1.2c0.3,0,0.5,0.2,0.5,0.5v1.2c0,0.3-0.2,0.5-0.5,0.5h-1.2C638,61.2,637.8,61,637.8,60.7z M634.8,59.4v1.2
				c0,0.3-0.2,0.5-0.5,0.5h-1.2c-0.3,0-0.5-0.2-0.5-0.5v-1.2c0-0.3,0.2-0.5,0.5-0.5h1.2C634.7,58.9,634.8,59.1,634.8,59.4z
				 M637,58.9c0.3,0,0.5,0.2,0.5,0.5v1.2c0,0.3-0.2,0.5-0.5,0.5h-1.2c-0.3,0-0.5-0.2-0.5-0.5v-1.2c0-0.3,0.2-0.5,0.5-0.5H637z
				 M636.4,67.7c0-0.3,0.2-0.5,0.5-0.5h2.8c0.3,0,0.5,0.2,0.5,0.5v1.3c0,0.3-0.2,0.5-0.5,0.5h-2.8c-0.3,0-0.5-0.2-0.5-0.5V67.7z
				 M635.7,66.7c-0.3,0-0.5-0.2-0.5-0.5v-1.3c0-0.3,0.2-0.5,0.5-0.5h4c0.3,0,0.5,0.2,0.5,0.5v1.3c0,0.3-0.2,0.5-0.5,0.5H635.7z
				 M634.3,74.9c-0.3,0-0.5-0.2-0.5-0.5v-1.3c0-0.3,0.2-0.5,0.5-0.5h1.2c0.3,0,0.5,0.2,0.5,0.5v1.3c0,0.3-0.2,0.5-0.5,0.5H634.3z
				 M631.7,74.9c-0.3,0-0.5-0.2-0.5-0.5v-1.3c0-0.3,0.2-0.5,0.5-0.5h1.2c0.3,0,0.5,0.2,0.5,0.5v1.3c0,0.3-0.2,0.5-0.5,0.5H631.7z
				 M630.5,69.9h1.2c0.3,0,0.5,0.2,0.5,0.5v1.3c0,0.3-0.2,0.5-0.5,0.5h-1.2c-0.3,0-0.5-0.2-0.5-0.5v-1.3
				C629.9,70.1,630.1,69.9,630.5,69.9z M632.5,70.4c0-0.3,0.2-0.5,0.5-0.5h1.2c0.3,0,0.5,0.2,0.5,0.5v1.3c0,0.3-0.2,0.5-0.5,0.5
				h-1.2c-0.3,0-0.5-0.2-0.5-0.5V70.4z M638.4,69.9h1.3c0.3,0,0.5,0.2,0.5,0.5v1c0,0,0,0.1,0,0.1v1.3c0,0.1,0,0.1,0,0.2
				c0,0.1,0,0.1,0,0.2v1.3c0,0.3-0.2,0.5-0.5,0.5h-2.5c-0.3,0-0.5-0.2-0.5-0.5v-1.3c0-0.2,0-0.3,0.1-0.4c0.1-0.1,0.2-0.1,0.4-0.1
				h0.7v-0.9c0,0,0-0.1,0-0.1v-1.3C637.9,70.1,638.1,69.9,638.4,69.9z M635.2,70.4c0-0.3,0.2-0.5,0.5-0.5h1.2c0.3,0,0.5,0.2,0.5,0.5
				v1.3c0,0.3-0.2,0.5-0.5,0.5h-1.2c-0.3,0-0.5-0.2-0.5-0.5V70.4z M609.8,62.2v1.3c0,0.3-0.2,0.5-0.5,0.5H608
				c-0.3,0-0.5-0.2-0.5-0.5v-1.3c0-0.3,0.2-0.5,0.5-0.5h1.2C609.6,61.7,609.8,61.8,609.8,62.2z M610.2,62.2c0-0.3,0.2-0.5,0.5-0.5
				h1.2c0.3,0,0.5,0.2,0.5,0.5v1.3c0,0.3-0.2,0.5-0.5,0.5h-1.2c-0.3,0-0.5-0.2-0.5-0.5V62.2z M608.9,59.4c0-0.3,0.2-0.5,0.5-0.5h1.2
				c0.3,0,0.5,0.2,0.5,0.5v1.2c0,0.3-0.2,0.5-0.5,0.5h-1.2c-0.3,0-0.5-0.2-0.5-0.5V59.4z M606.3,60.7v-1.2c0-0.3,0.2-0.5,0.5-0.5
				h1.3c0.3,0,0.5,0.2,0.5,0.5v1.2c0,0.3-0.2,0.5-0.5,0.5h-1.3C606.5,61.2,606.3,61,606.3,60.7z M603.7,60.7v-1.2
				c0-0.3,0.2-0.5,0.5-0.5h1.2c0.3,0,0.5,0.2,0.5,0.5v1.2c0,0.3-0.2,0.5-0.5,0.5h-1.2C603.8,61.2,603.7,61,603.7,60.7z M619.4,59.4
				c0-0.3,0.2-0.5,0.5-0.5h1.2c0.3,0,0.5,0.2,0.5,0.5v1.2c0,0.3-0.2,0.5-0.5,0.5h-1.2c-0.3,0-0.5-0.2-0.5-0.5V59.4z M617.3,61.2
				c-0.3,0-0.5-0.2-0.5-0.5v-1.2c0-0.3,0.2-0.5,0.5-0.5h1.2c0.3,0,0.5,0.2,0.5,0.5v1.2c0,0.3-0.2,0.5-0.5,0.5H617.3z M614.2,60.7
				v-1.2c0-0.3,0.2-0.5,0.5-0.5h1.2c0.3,0,0.5,0.2,0.5,0.5v1.2c0,0.3-0.2,0.5-0.5,0.5h-1.2C614.4,61.2,614.2,61,614.2,60.7z
				 M613.8,60.7c0,0.3-0.2,0.5-0.5,0.5h-1.2c-0.3,0-0.5-0.2-0.5-0.5v-1.2c0-0.3,0.2-0.5,0.5-0.5h1.2c0.3,0,0.5,0.2,0.5,0.5V60.7z
				 M611.6,66.2v-1.3c0-0.3,0.2-0.5,0.5-0.5h1.2c0.3,0,0.5,0.2,0.5,0.5v1.3c0,0.3-0.2,0.5-0.5,0.5h-1.2
				C611.7,66.7,611.6,66.5,611.6,66.2z M614.5,61.7c0.3,0,0.5,0.2,0.5,0.5v1.3c0,0.3-0.2,0.5-0.5,0.5h-1.2c-0.3,0-0.5-0.2-0.5-0.5
				v-1.3c0-0.3,0.2-0.5,0.5-0.5H614.5z M615.4,63.4v-1.3c0-0.3,0.2-0.5,0.5-0.5h1.2c0.3,0,0.5,0.2,0.5,0.5v1.3
				c0,0.3-0.2,0.5-0.5,0.5h-1.2C615.6,63.9,615.4,63.8,615.4,63.4z M621.2,67.2h1.3c0.3,0,0.5,0.2,0.5,0.5v1.3
				c0,0.3-0.2,0.5-0.5,0.5h-1.3c-0.3,0-0.5-0.2-0.5-0.5v-1.3C620.7,67.3,620.8,67.2,621.2,67.2z M618.5,67.2h1.2
				c0.3,0,0.5,0.2,0.5,0.5v1.3c0,0.3-0.2,0.5-0.5,0.5h-1.2c-0.3,0-0.5-0.2-0.5-0.5v-1.3C618,67.3,618.2,67.2,618.5,67.2z
				 M619.1,64.9v1.3c0,0.3-0.2,0.5-0.5,0.5h-1.2c-0.3,0-0.5-0.2-0.5-0.5v-1.3c0-0.3,0.2-0.5,0.5-0.5h1.2
				C618.9,64.4,619.1,64.6,619.1,64.9z M619.4,66.2v-1.3c0-0.3,0.2-0.5,0.5-0.5h1.2c0.3,0,0.5,0.2,0.5,0.5v1.3
				c0,0.3-0.2,0.5-0.5,0.5h-1.2C619.6,66.7,619.4,66.5,619.4,66.2z M619.8,61.7c0.3,0,0.5,0.2,0.5,0.5v1.3c0,0.3-0.2,0.5-0.5,0.5
				h-1.2c-0.3,0-0.5-0.2-0.5-0.5v-1.3c0-0.3,0.2-0.5,0.5-0.5H619.8z M622.4,61.7c0.3,0,0.5,0.2,0.5,0.5v1.3c0,0.3-0.2,0.5-0.5,0.5
				h-1.3c-0.3,0-0.5-0.2-0.5-0.5v-1.3c0-0.3,0.2-0.5,0.5-0.5H622.4z M615.4,67.7c0-0.3,0.2-0.5,0.5-0.5h1.2c0.3,0,0.5,0.2,0.5,0.5
				v1.3c0,0.3-0.2,0.5-0.5,0.5h-1.2c-0.3,0-0.5-0.2-0.5-0.5V67.7z M614.7,66.7c-0.3,0-0.5-0.2-0.5-0.5v-1.3c0-0.3,0.2-0.5,0.5-0.5
				h1.2c0.3,0,0.5,0.2,0.5,0.5v1.3c0,0.3-0.2,0.5-0.5,0.5H614.7z M621.2,69.9c0.3,0,0.5,0.2,0.5,0.5v1.3c0,0.3-0.2,0.5-0.5,0.5h-1.2
				c-0.3,0-0.5-0.2-0.5-0.5v-1.3c0-0.3,0.2-0.5,0.5-0.5H621.2z"/>
			<path class="st25" d="M627.7,72.7c0.3,0,0.5,0.2,0.5,0.5v1.3c0,0.3-0.2,0.5-0.5,0.5h-8.3c0,0-0.1,0-0.1,0c0,0-0.1,0-0.1,0h-1.8
				c0,0-0.1,0-0.1,0c0,0-0.1,0-0.1,0h-2.4c0,0-0.1,0-0.1,0c0,0-0.1,0-0.1,0h-1.2c-0.3,0-0.5-0.2-0.5-0.5v-1.3c0-0.3,0.2-0.5,0.5-0.5
				h1.2c0,0,0.1,0,0.1,0c0,0,0.1,0,0.1,0h2.4c0,0,0.1,0,0.1,0c0,0,0.1,0,0.1,0H627.7z M601.1,68.9v-1.3c0-0.3,0.2-0.5,0.5-0.5h2.4
				c0.3,0,0.5,0.2,0.5,0.5v1.3c0,0.3-0.2,0.5-0.5,0.5h-2.4C601.3,69.4,601.1,69.3,601.1,68.9z M601,74.4v-1.3c0-0.1,0-0.1,0-0.2
				c0-0.1,0-0.1,0-0.2v-1.3c0-0.1,0-0.1,0-0.1v-1c0-0.3,0.2-0.5,0.5-0.5h1.2c0.3,0,0.5,0.2,0.5,0.5v1.3c0,0.1,0,0.1,0,0.1v0.9h0.7
				c0.2,0,0.3,0.1,0.4,0.1c0.1,0.1,0.1,0.2,0.1,0.4v1.3c0,0.3-0.2,0.5-0.5,0.5h-2.5C601.2,74.9,601,74.8,601,74.4z M601,63.4v-1.3
				c0-0.3,0.2-0.5,0.5-0.5h5.2c0.3,0,0.5,0.2,0.5,0.5v1.3c0,0.3-0.2,0.5-0.5,0.5h-5.2C601.2,63.9,601,63.8,601,63.4z M601.1,66.2
				v-1.3c0-0.3,0.2-0.5,0.5-0.5h1.3c0.3,0,0.5,0.2,0.5,0.5v1.3c0,0.3-0.2,0.5-0.5,0.5h-1.3C601.2,66.7,601.1,66.5,601.1,66.2z
				 M601.1,60.7v-1.2c0-0.2,0.1-0.4,0.3-0.5c0.1,0,0.1,0,0.2,0h1.2c0.3,0,0.5,0.2,0.5,0.5v1.2c0,0.3-0.2,0.5-0.5,0.5h-1.2
				C601.2,61.2,601.1,61,601.1,60.7z M610.2,67.7c0-0.3,0.2-0.5,0.5-0.5h1.2c0.3,0,0.5,0.2,0.5,0.5v1.3c0,0.3-0.2,0.5-0.5,0.5h-1.2
				c-0.3,0-0.5-0.2-0.5-0.5V67.7z M608.9,66.2v-1.3c0-0.3,0.2-0.5,0.5-0.5h1.2c0.3,0,0.5,0.2,0.5,0.5v1.3c0,0.3-0.2,0.5-0.5,0.5
				h-1.2C609.1,66.7,608.9,66.5,608.9,66.2z M607.5,67.7c0-0.3,0.2-0.5,0.5-0.5h1.2c0.3,0,0.5,0.2,0.5,0.5v1.3
				c0,0.3-0.2,0.5-0.5,0.5H608c-0.3,0-0.5-0.2-0.5-0.5V67.7z M606.8,64.4h1.3c0.3,0,0.5,0.2,0.5,0.5v1.3c0,0.3-0.2,0.5-0.5,0.5h-1.3
				c-0.3,0-0.5-0.2-0.5-0.5v-1.3C606.3,64.6,606.5,64.4,606.8,64.4z M611.9,74.9h-1.2c-0.3,0-0.5-0.2-0.5-0.5v-1.3
				c0-0.3,0.2-0.5,0.5-0.5h1.2c0.3,0,0.5,0.2,0.5,0.5v1.3C612.4,74.8,612.2,74.9,611.9,74.9z M607.5,73.2c0-0.3,0.2-0.5,0.5-0.5h1.2
				c0.3,0,0.5,0.2,0.5,0.5v1.3c0,0.3-0.2,0.5-0.5,0.5H608c-0.3,0-0.5-0.2-0.5-0.5V73.2z M611.6,70.4c0-0.3,0.2-0.5,0.5-0.5h1.2
				c0.3,0,0.5,0.2,0.5,0.5v1.3c0,0.3-0.2,0.5-0.5,0.5h-1.2c-0.3,0-0.5-0.2-0.5-0.5V70.4z M610.7,69.9c0.3,0,0.5,0.2,0.5,0.5v1.3
				c0,0.3-0.2,0.5-0.5,0.5h-1.2c-0.3,0-0.5-0.2-0.5-0.5v-1.3c0-0.3,0.2-0.5,0.5-0.5H610.7z M606.3,71.7v-1.3c0-0.3,0.2-0.5,0.5-0.5
				h1.3c0.3,0,0.5,0.2,0.5,0.5v1.3c0,0.3-0.2,0.5-0.5,0.5h-1.3C606.5,72.2,606.3,72,606.3,71.7z M605.4,72.7h1.2
				c0.3,0,0.5,0.2,0.5,0.5v1.3c0,0.3-0.2,0.5-0.5,0.5h-1.2c-0.3,0-0.5-0.2-0.5-0.5v-1.3c0-0.1,0-0.2,0.1-0.3
				C605,72.7,605.2,72.7,605.4,72.7z M605.4,69.9c0.3,0,0.5,0.2,0.5,0.5v1.3c0,0.3-0.2,0.5-0.5,0.5h-1.2c-0.3,0-0.5-0.2-0.5-0.5
				v-1.3c0-0.3,0.2-0.5,0.5-0.5H605.4z M605.4,67.2h1.2c0.3,0,0.5,0.2,0.5,0.5v1.3c0,0.3-0.2,0.5-0.5,0.5h-1.2
				c-0.3,0-0.5-0.2-0.5-0.5v-1.3C604.9,67.3,605.1,67.2,605.4,67.2z M604.2,64.4h1.2c0.3,0,0.5,0.2,0.5,0.5v1.3
				c0,0.3-0.2,0.5-0.5,0.5h-1.2c-0.3,0-0.5-0.2-0.5-0.5v-1.3C603.7,64.6,603.8,64.4,604.2,64.4z M612.8,67.7c0-0.3,0.2-0.5,0.5-0.5
				h1.2c0.3,0,0.5,0.2,0.5,0.5v1.3c0,0.3-0.2,0.5-0.5,0.5h-1.2c-0.3,0-0.5-0.2-0.5-0.5V67.7z M615.9,69.9c0.3,0,0.5,0.2,0.5,0.5v1.3
				c0,0.3-0.2,0.5-0.5,0.5h-1.2c-0.3,0-0.5-0.2-0.5-0.5v-1.3c0-0.3,0.2-0.5,0.5-0.5H615.9z M616.8,70.4c0-0.3,0.2-0.5,0.5-0.5h1.2
				c0.3,0,0.5,0.2,0.5,0.5v1.3c0,0.3-0.2,0.5-0.5,0.5h-1.2c-0.3,0-0.5-0.2-0.5-0.5V70.4z"/>
			<g>
				<path class="st25" d="M612.1,66.7c-0.3,0-0.5-0.2-0.5-0.5v-0.4l1.3,0.9L612.1,66.7L612.1,66.7z M604.7,61.2h-0.5
					c-0.3,0-0.5-0.2-0.5-0.5v-0.2L604.7,61.2z M607.5,63.1l1.2,0.8H608c-0.3,0-0.5-0.2-0.5-0.5V63.1z M615.4,68.4l1.6,1.1h-1.1
					c-0.3,0-0.5-0.2-0.5-0.5V68.4z M621.1,72.2h-1.2c-0.3,0-0.5-0.2-0.5-0.5v-0.6L621.1,72.2z"/>
			</g>
			<g>
				<path class="st24" d="M619.1,70.4v0.4l-1.3-0.9h0.8C618.9,69.9,619.1,70.1,619.1,70.4z M611.2,64.9v0.6l-1.7-1.1h1.2
					C611,64.4,611.2,64.6,611.2,64.9z M628.2,74.4c0,0.3-0.2,0.5-0.5,0.5h-2.5l-3.4-2.3h5.8c0.3,0,0.5,0.2,0.5,0.5L628.2,74.4
					L628.2,74.4z"/>
			</g>
		</g>
		<g>
			<path class="st22" d="M617,77.7c-0.1,0-0.2,0.1-0.2,0.2v4.3c-0.1,0-0.2-0.1-0.2-0.2v-4.3c0-0.1,0.1-0.2,0.2-0.2h7.7
				c0.1,0,0.2,0.1,0.2,0.2L617,77.7L617,77.7z M616.8,84.3c-0.1,0-0.2-0.1-0.2-0.2v-1c0-0.1,0.1-0.2,0.2-0.2h7.7
				c0.1,0,0.2,0.1,0.2,0.2H617c-0.1,0-0.2,0.1-0.2,0.2V84.3z"/>
		</g>
		<g>
			<path class="st26" d="M616.8,84.3C616.8,84.3,616.8,84.3,616.8,84.3h7.8c0.1,0,0.2-0.1,0.2-0.2v-1c0.1,0,0.2,0.1,0.2,0.2v1
				c0,0.1-0.1,0.2-0.2,0.2H617C616.8,84.5,616.8,84.4,616.8,84.3z M616.8,82.1C616.8,82.1,616.8,82.1,616.8,82.1h7.8
				c0.1,0,0.2-0.1,0.2-0.2v-4.3c0.1,0,0.2,0.1,0.2,0.2v4.3c0,0.1-0.1,0.2-0.2,0.2H617C616.8,82.3,616.8,82.2,616.8,82.1z"/>
		</g>
		<g>
			<path class="st27" d="M643.6,83.7c-3.6-0.9-7-2.4-10.3-4.3l-5.8-3.5h12.7c0.6,0,0.9-0.3,0.9-0.9V71c0,0,0,0,0,0V59.4
				c0-0.4-0.1-0.7-0.3-0.8c-0.2-0.2-0.4-0.3-0.8-0.3h-38.4l-2.7-1.8c0,0,0,0,0,0c0.1,0,0.2,0,0.3,0c0,0,0.1,0,0.1,0h42.8
				c0.2,0,0.4,0,0.5,0.1c0,0,0,0,0.1,0c0,0,0.1,0,0.1,0c0,0,0,0,0.1,0c0,0,0.1,0,0.1,0c0.1,0,0.2,0.1,0.3,0.1
				c0.1,0.1,0.2,0.1,0.3,0.2c0,0,0,0,0,0c0,0,0,0.1,0.1,0.1l0,0v0l0,0c0,0,0,0.1,0,0.1c0,0,0,0.1,0,0.1c0,0.2,0.1,0.4,0.1,0.7V83
				C643.7,83.3,643.7,83.5,643.6,83.7z"/>
			<path class="st28" d="M598.9,58.4h-0.1v17.3c0,0.7,0.5,1.1,1.3,1.2h16.2c-0.2,0.2-0.4,0.5-0.4,0.8v5.4c-0.1,0.5-0.4,0.9-1,1.1
				h-14.7c-1.2,0-1.8-0.7-1.9-1.9V57.6L598.9,58.4z"/>
			<path class="st29" d="M643.6,83.7l0.3,0.1c-0.1,1-0.8,1.5-1.9,1.5h-42.7c-0.9,0-1.4-0.3-1.7-0.8c0.3,0.3,0.8,0.5,1.5,0.5h42.7
				c1,0,1.6-0.4,1.8-1.2C643.6,83.8,643.6,83.8,643.6,83.7z"/>
		</g>
		<g>
			<path class="st22" d="M640.8,58.9c0-0.1,0.1-0.1,0.2-0.2h1c0.1,0,0.2,0.1,0.2,0.2v4.6c0,0.1-0.1,0.2-0.2,0.2h-1
				c-0.1,0-0.2-0.1-0.2-0.2V58.9C640.8,58.9,640.8,58.9,640.8,58.9z"/>
			<path class="st23" d="M600.3,58.8c0.1,0,0.2,0.1,0.2,0.2v4.6c0,0.1-0.1,0.2-0.2,0.2h-1c-0.1,0-0.2-0.1-0.2-0.2v-4.6c0,0,0,0,0,0
				c0-0.1,0.1-0.1,0.2-0.2L600.3,58.8L600.3,58.8z"/>
		</g>
		<g>
			<path class="st30" d="M649,41.6c0,0.1,0.1,0.2,0.1,0.3c0.1,0.2,0.2,0.4,0.2,0.6c0,0,0,0,0,0v0c0.1,0.2,0.1,0.3,0.1,0.5
				c0,0,0,0,0,0.1c0,0,0,0.1,0,0.1l-5.8,11.6c-0.2,0.4-0.4,0.7-0.6,0.9c-0.2,0.1-0.3,0.3-0.5,0.4c-0.1,0-0.1,0.1-0.2,0.1l-0.3,0.3
				c0,0,0,0-0.1,0s0,0-0.1,0c-0.2,0-0.3,0-0.5,0h-41.5c0,0-0.1,0-0.1,0c-0.1,0-0.2,0-0.3,0c0,0,0,0,0,0l-0.5-0.2c0,0-0.1,0-0.2-0.1
				c0,0,0,0-0.1,0c-0.2-0.1-0.3-0.2-0.4-0.3c-0.3-0.2-0.5-0.5-0.7-0.9L592,43.2c0,0,0-0.1,0-0.1c0,0,0,0,0-0.1c0-0.2,0-0.4,0-0.5
				l0,0c0.2-0.8,0.6-1.3,1.1-1.7c0.2-0.1,0.3-0.2,0.5-0.2h54.2C648.2,40.7,648.7,41.1,649,41.6z"/>
			<g>
				<path class="st31" d="M647.3,44.5H594c-0.2-0.7,0-1.1,0.7-1.2h51.8c0.2,0,0.4,0.1,0.5,0.2C647.4,43.7,647.5,44,647.3,44.5z"/>
				<path class="st32" d="M594,44.5h53.3l-5,10c-0.5,0.7-1.3,1.1-2.3,1.1h-38.8c-1-0.1-1.7-0.4-2.3-1.1L594,44.5z"/>
			</g>
			<g>
				<path class="st33" d="M622.6,42v-0.4h-4.8v-0.2h5.1v0.4h25.7c0.2,0,0.3,0,0.5,0c0.1,0.2,0.2,0.4,0.2,0.6h0
					c0-0.1-0.1-0.1-0.1-0.1c-0.1-0.1-0.1-0.1-0.2-0.2c-0.2-0.1-0.4-0.1-0.6-0.1H622.6z M592.3,42.2c0,0,0-0.1,0.1-0.1
					c0.2-0.2,0.5-0.2,0.9-0.2h24.3V42H593C592.7,42,592.5,42.1,592.3,42.2z"/>
				<path class="st21" d="M617.5,41.8h-24.3c-0.4,0-0.7,0.1-0.9,0.2c0,0,0,0.1-0.1,0.1c0,0,0,0,0,0c-0.1,0-0.1,0.1-0.2,0.1
					c0,0-0.1,0.1-0.1,0.1c0.2-0.8,0.6-1.3,1.1-1.7c0.2-0.1,0.3-0.2,0.5-0.2h54.2c0.5,0.2,0.9,0.5,1.2,1c0,0.1,0.1,0.2,0.1,0.3
					c-0.1,0-0.3,0-0.5,0h-25.7v-0.4h-5.1v0.2h-0.3L617.5,41.8L617.5,41.8z M618.5,41.8h3.2v0.6h-3.2V41.8z"/>
				<path class="st34" d="M617.5,42v-0.2v-0.2h0.3h4.8V42v0.5h-5.1V42z M641.9,56.4c-0.2,0-0.3,0-0.5,0h-41.5c0,0-0.1,0-0.1,0
					c-0.1,0-0.2,0-0.3,0c0,0,0,0,0,0l-0.4-0.2h43.3l-0.3,0.3C642,56.4,642,56.4,641.9,56.4C642,56.4,642,56.4,641.9,56.4z
					 M618.5,41.8v0.6h3.2v-0.6H618.5z"/>
			</g>
		</g>
		<g>
			<path class="st23" d="M616.6,83.1c0-0.1,0.1-0.2,0.2-0.2h7.7c0.1,0,0.2,0.1,0.2,0.2v1.1c0,0.1-0.1,0.2-0.2,0.2h-7.7c0,0,0,0,0,0
				c-0.1,0-0.1-0.1-0.2-0.2V83.1z M616.6,81.9v-4.3c0-0.1,0.1-0.2,0.2-0.2h7.7c0.1,0,0.2,0.1,0.2,0.2v4.3c0,0.1-0.1,0.2-0.2,0.2
				h-7.7c0,0,0,0,0,0C616.7,82.1,616.6,82,616.6,81.9z"/>
		</g>
		<g>
			<path class="st22" d="M642.2,69.5v4.6c0,0.1-0.1,0.2-0.2,0.2h-1c-0.1,0-0.2-0.1-0.2-0.2v-4.6c0-0.1,0.1-0.2,0.2-0.2h1
				C642.2,69.3,642.2,69.3,642.2,69.5z"/>
			<path class="st23" d="M600.5,69.5v4.6c0,0.1-0.1,0.2-0.2,0.2h-1c-0.1,0-0.2-0.1-0.2-0.2v-4.6c0-0.1,0.1-0.2,0.2-0.2h1
				C600.4,69.3,600.5,69.3,600.5,69.5z"/>
		</g>
	</g>
</g>
<g>
	<path class="st35" d="M640.8,46c0.7,0,1,0.4,1,1l-2.7,5.8c-0.3,0.5-0.5,0.8-0.8,1c-0.1,0.1-0.3,0.2-0.4,0.2h-35.2
		c-0.2,0-0.3-0.1-0.5-0.2c-0.2-0.2-0.4-0.5-0.6-0.9l-2.5-5.9c-0.2-0.7,0.2-1,1-1H640.8z"/>
	<g>
		<path class="st36" d="M640.8,46c0.7,0,1,0.4,1,1h-42.7c-0.2-0.7,0.2-1,1-1H640.8z M638.4,53.8c-0.1,0.1-0.3,0.2-0.4,0.2h-35.2
			c-0.2,0-0.3-0.1-0.5-0.2H638.4z M613.7,50.4h-7.4l-0.4-1.1h7.7V50.4z"/>
		<path class="st37" d="M638.8,51.8h-36.6l-0.2-0.3H639L638.8,51.8z M638.5,52.4h-35.9l-0.2-0.3h36.2L638.5,52.4z M638.1,53h-35.2
			l-0.2-0.3h35.6L638.1,53z"/>
	</g>
</g>
<g>
	<path class="st38" d="M600.8,83.7l9.2,2.3l0.7,0.2l-4.2,13.3c0,0-5.7-1.9-10-5.8l3.2-10.3L600.8,83.7z M631.3,89.1l9.2-2.4l1.2-0.3
		l2.2,7.3c-5.3,4.3-10,5.8-10,5.8l-3.3-10.2L631.3,89.1z"/>
	<path class="st35" d="M631.3,89.1l-0.3-1l0.6-0.2l0,0l7.8-1.9l0-0.1l0.8-0.2l0.3,1L631.3,89.1z M601.9,82.9L601.9,82.9l7.7,2l0-0.1
		l0.6,0.2l-0.3,1l-9.2-2.3l0.3-1L601.9,82.9z"/>
	<path class="st39" d="M639.3,85.9L639.3,85.9l-7.7,2l0,0l-0.3-0.8c-2-1.2-3.5-2.2-4.5-2.9c-0.8-0.7-1.5-1.3-2.2-2
		c-0.2-0.4-0.5-0.7-0.7-0.9c-0.1-0.1-0.2-0.2-0.3-0.2c-0.2-0.2-0.5-0.3-0.9-0.5c-0.5-0.2-0.7-0.4-0.7-0.8c0,0,0,0,0-0.1
		c-0.1-0.3,0.1-0.5,0.5-0.7c0.9-0.2,1.8-0.1,2.8,0.4l1.7,0.9l0.8,0.6c0.3,0.1,0.5,0,0.7-0.2c0.1-0.2,0.2-0.5,0.1-0.9l-0.7-3.3l0-0.3
		l-1.8-8.5c0-0.8,0.3-1.3,1-1.5c0.6-0.1,1.1,0.3,1.4,1l2,8.1c0.1-0.4,0-0.9-0.1-1.4l-0.3-1.9c0.3-1,0.8-1.4,1.6-1.3
		c0.8,0.1,1.2,0.4,1.3,0.9l0.8,3.4l-0.3-3.1c0.2-0.7,0.6-1.1,1.4-1.1c0.7-0.1,1.3,0.2,1.6,0.9l0.8,3.4l-0.2-2.5
		c0.5-0.5,1-0.8,1.4-0.6c0.5,0.1,0.8,0.6,0.9,1.5l0.6,3.1h0l0.4,2.9c-0.2,2-0.7,3.9-1.5,5.6L639.3,85.9z M609.7,84.8L609.7,84.8
		l-7.8-1.9l0-0.1l0.3-0.8c-0.9-1.7-1.4-3.6-1.5-5.6l0.4-2.9h0l0.6-3.1c0.2-0.9,0.5-1.4,0.9-1.5c0.5-0.1,0.9,0.1,1.4,0.6l-0.2,2.5
		l0.8-3.4c0.3-0.7,0.9-1,1.6-0.9c0.8,0.1,1.2,0.4,1.4,1.1l-0.3,3.1l0.8-3.4c0.1-0.6,0.6-0.9,1.3-1c0.8-0.1,1.3,0.4,1.6,1.3l-0.3,1.9
		c-0.1,0.5-0.2,0.9-0.1,1.4l2-8.1c0.3-0.8,0.8-1.1,1.4-1c0.7,0.2,1,0.7,1,1.5l-1.8,8.4l0,0.4l-0.7,3.3c-0.1,0.5-0.1,0.8,0.1,0.9
		c0.2,0.2,0.4,0.2,0.7,0.2l0.8-0.6l1.7-0.9c1-0.5,2-0.6,2.8-0.4c0.4,0.1,0.6,0.3,0.5,0.7c-0.1,0.3-0.4,0.6-1,0.9
		c-0.6,0.3-1.1,0.8-1.6,1.6c-0.7,0.7-1.4,1.3-2.2,2c-1,0.7-2.5,1.7-4.5,2.9L609.7,84.8z"/>
	<g>
		<polygon class="st40" points="609.8,84.5 609.7,84.8 609.6,84.9 601.9,82.9 601.9,82.9 602.1,82.5 		"/>
	</g>
	<g>
		<polygon class="st41" points="610,86 600.8,83.7 600.9,83.3 610.1,85.6 		"/>
	</g>
	<g>
		<polygon class="st40" points="639.3,85.9 639.4,86 631.6,87.9 631.6,87.9 631.4,87.5 639.2,85.5 		"/>
	</g>
	<g>
		<polygon class="st41" points="640.4,86.4 640.5,86.7 631.3,89.1 631.2,88.7 		"/>
	</g>
	<g>
		<path class="st42" d="M628.3,68.1l-1.6,0.4c-0.2-0.2-0.2-0.4-0.3-0.6c-0.1-0.4-0.1-0.7,0-1c0.1-0.3,0.3-0.5,0.6-0.6
			c0.3-0.1,0.5,0,0.8,0.2c0.3,0.2,0.4,0.5,0.5,0.8C628.3,67.7,628.3,67.9,628.3,68.1z M614.6,65.6l-1.6-0.4c0-0.2,0-0.5,0-0.7
			c0.1-0.4,0.3-0.6,0.5-0.8c0.3-0.2,0.5-0.2,0.8-0.2c0.3,0.1,0.5,0.2,0.6,0.5c0.1,0.3,0.1,0.6,0,1C614.8,65.2,614.7,65.4,614.6,65.6
			z"/>
	</g>
	<g>
		<path class="st42" d="M617.6,77.9c-0.1-0.2-0.1-0.4,0-0.6c0.5-0.3,1.1-0.6,1.6-0.7c0,0.3-0.2,0.6-0.7,0.8
			C618.2,77.6,617.9,77.7,617.6,77.9z M622.8,80.5c-0.5-0.2-0.7-0.4-0.7-0.8c0.5,0.1,1,0.3,1.6,0.7c0.1,0.2,0.1,0.4,0,0.6
			C623.4,80.8,623.1,80.7,622.8,80.5z"/>
	</g>
</g>
<path class="st43" d="M540.2,137C540.2,137,540.1,136.9,540.2,137c-3.2-1.1-6.7-0.4-9.2,2c-2.5,2.5-3.2,6.2-2,9.4
	c-5.9,5.1-13.6,11.8-19.3,17c-2.1,1.9-2,5.2,0,7.2s5.4,2.1,7.2,0l17-19.3c3.1,1.2,6.8,0.6,9.4-2c2.5-2.5,3.2-6,2.1-9.1
	c0,0,0-0.1,0-0.1c-0.1-0.1-0.3-0.1-0.4,0l-5.1,5.1c-0.3,0.4-0.9,0.4-1.2,0l-3.5-3.5c-0.3-0.4-0.3-0.9,0-1.2l5.1-5.1
	C540.3,137.3,540.3,137.1,540.2,137L540.2,137z"/>
<path class="st9" d="M515.7,166.6c0.1,0.1,0.2,0.2,0.2,0.4v4c0,0.3-0.2,0.5-0.5,0.5h-4c-0.3,0-0.5-0.2-0.5-0.5v-4
	c0-0.3,0.2-0.5,0.5-0.5h4C515.5,166.5,515.7,166.5,515.7,166.6L515.7,166.6z"/>
<path class="st44" d="M556,126.3c-2.8-2.8-3.5-3.4-5-1.9c-0.7,0.7-1.3,1.3-2,2c-0.4,0.4-1,0.4-1.5,0.1c-0.7-0.4-1.4-0.7-2.2-1
	c-0.8-0.3-1.5-0.6-2.3-0.8c-0.5-0.2-1-0.6-1-1.1v-2.8c0-2-0.9-2.1-4.9-2.1c-0.2,0-0.5,0-0.7,0c-3.4,0-4.2,0.2-4.2,2.1v2.8
	c0,0.6-0.5,1-1,1.1c-0.8,0.2-1.6,0.5-2.3,0.8c-0.8,0.3-1.5,0.7-2.2,1c-0.5,0.2-1.1,0.3-1.5-0.1c-0.7-0.7-1.3-1.3-2-2
	c-1.4-1.4-2.2-0.8-5,1.9c-2.8,2.8-3.4,3.5-2,4.9l2,2c0.4,0.4,0.4,1,0.1,1.5c-0.4,0.7-0.7,1.4-1,2.2c-0.3,0.8-0.6,1.5-0.8,2.3
	c-0.2,0.5-0.6,1-1.1,1h-2.8c-2,0-2.1,0.9-2.1,4.9s0.1,4.9,2.1,4.9h2.8c0.5,0,1,0.5,1.1,1c0.2,0.8,0.5,1.5,0.8,2.3
	c0.3,0.8,0.7,1.5,1,2.2c0,0,0,0,0,0c1.7-1.5,3.4-3,5.2-4.5c-0.8-1.8-1.2-3.8-1.2-5.9c0-8.1,6.6-14.7,14.7-14.7
	c8.1,0,14.7,6.6,14.7,14.7s-6.6,14.7-14.7,14.7c-2.1,0-4.1-0.4-5.9-1.2c-1.5,1.7-3,3.4-4.5,5.1c0,0,0.1,0,0.1,0.1
	c0.7,0.4,1.5,0.7,2.2,1.1c0.8,0.3,1.5,0.6,2.3,0.8c0.5,0.1,1,0.6,1,1.1v2.8c0,2,0.9,2.1,4.9,2.1s4.9-0.1,4.9-2.1v-2.8
	c0-0.6,0.5-1,1-1.1c0.8-0.2,1.5-0.5,2.3-0.8c0.8-0.3,1.5-0.7,2.2-1.1c0.5-0.2,1.1-0.3,1.5,0.1l2,2c1.4,1.4,2.2,0.9,5-1.9
	c2.8-2.8,3.4-3.5,2-5c-0.7-0.7-1.3-1.3-2-2c-0.4-0.4-0.4-1-0.1-1.5c0.4-0.7,0.7-1.5,1.1-2.2c0.3-0.8,0.6-1.5,0.8-2.3
	c0.2-0.5,0.6-0.9,1.1-0.9h2.8c2,0,2.1-0.9,2.1-4.9s-0.1-4.9-2.1-4.9h-2.8c-0.5,0-1-0.5-1.1-1c-0.2-0.8-0.5-1.6-0.8-2.3
	c-0.3-0.8-0.7-1.5-1-2.2c-0.2-0.5-0.3-1.1,0.1-1.5l2-2C559.4,129.9,558.8,129.1,556,126.3L556,126.3z"/>
<g>
	<path d="M680.6,55.9h-2.2V45.1h4.8c2.3,0,3.4,1.2,3.4,3.5c0,2.2-1.2,3.5-3.3,3.5h-2.7V55.9z M682.7,50.1c1.1,0,1.7-0.5,1.7-1.6
		c0-1-0.5-1.6-1.5-1.6h-2.3v3.1H682.7z"/>
	<path d="M691.5,47.7c2.5,0,4,1.6,4,4.3s-1.5,4.3-4,4.3s-4-1.6-4-4.3S689,47.7,691.5,47.7z M691.5,54.4c1.2,0,1.9-0.9,1.9-2.5
		s-0.7-2.5-1.9-2.5c-1.2,0-1.9,0.9-1.9,2.5S690.4,54.4,691.5,54.4z"/>
	<path d="M697,48h2v1.4c0.6-1.1,1.3-1.6,2.3-1.6c0.1,0,0.2,0,0.3,0v2.2h-0.7c-1.2,0-1.8,0.6-1.8,1.8v4.2H697V48z"/>
	<path d="M705.1,56c-1.8,0-2.1-0.6-2.1-2.3v-4.3h-1V48h1v-2.2h2.1V48h1.2v1.5h-1.2v4.4c0,0.4,0.1,0.5,0.7,0.5h0.5V56
		C705.7,56,705.3,56,705.1,56z"/>
	<path d="M709.6,56.2c-1.5,0-2.4-0.9-2.4-2.5c0-1.6,0.8-2.2,2.7-2.5c1.6-0.3,2.2-0.1,2.2-0.9c0-0.7-0.4-0.9-1.3-0.9
		c-0.9,0-1.3,0.4-1.3,1c0,0,0,0.1,0,0.1h-2c0,0,0-0.1,0-0.2c0-1.6,1.2-2.6,3.3-2.6c2.2,0,3.5,0.8,3.5,2.2v4.5c0,0.6,0.1,0.9,0.4,1.1
		v0.4h-2.2c-0.1-0.3-0.2-0.6-0.2-1C711.6,55.8,710.7,56.2,709.6,56.2z M710.2,52.5c-0.7,0.2-1,0.5-1,1.1c0,0.6,0.4,1,1,1
		c1.2,0,1.9-0.7,1.9-1.8V52C711.3,52.4,710.6,52.4,710.2,52.5z"/>
	<path d="M716.1,45.1h2.1v10.8h-2.1V45.1z"/>
	<path d="M726.7,56c-1.8,0-2.1-0.6-2.1-2.3v-4.3h-1V48h1v-2.2h2.1V48h1.2v1.5h-1.2v4.4c0,0.4,0.1,0.5,0.7,0.5h0.5V56
		C727.3,56,726.9,56,726.7,56z"/>
	<path d="M732.8,47.7c2.5,0,4,1.6,4,4.3s-1.5,4.3-4,4.3s-4-1.6-4-4.3S730.3,47.7,732.8,47.7z M732.8,54.4c1.2,0,1.9-0.9,1.9-2.5
		s-0.7-2.5-1.9-2.5c-1.2,0-1.9,0.9-1.9,2.5S731.6,54.4,732.8,54.4z"/>
	<path d="M744.4,52.6c0.2,1.2,1,1.7,2.5,1.7c1.3,0,2-0.5,2-1.4c0-1-0.9-1.2-2.9-1.6c-0.9-0.2-1.7-0.3-2.4-0.8
		c-0.8-0.5-1.2-1.3-1.2-2.4c0-2.1,1.4-3.3,4.2-3.3c2.5,0,4,1.3,4.1,3.4h-2.1c-0.1-1.1-0.8-1.6-2.1-1.6c-1.2,0-1.8,0.5-1.8,1.3
		c0,1,0.8,1,2.6,1.5c1,0.3,1.9,0.5,2.5,0.8c0.9,0.5,1.3,1.3,1.3,2.4c0,2.2-1.5,3.5-4.3,3.5c-2.7,0-4.3-1.3-4.4-3.6H744.4z"/>
	<path d="M759.6,55.9h-2.1V55c-0.6,0.8-1.4,1.2-2.4,1.2c-1.8,0-2.6-0.9-2.6-2.7V48h2.1v4.8c0,1.1,0.3,1.6,1.2,1.6
		c1,0,1.6-0.6,1.6-1.7V48h2.1V55.9z"/>
	<path d="M761.5,48h2V49c0.6-0.9,1.3-1.4,2.4-1.4c1.9,0,3.3,1.7,3.3,4.2c0,2.6-1.4,4.3-3.3,4.3c-1,0-1.8-0.4-2.4-1.3v4.2h-2.1V48z
		 M765.3,49.5c-1.1,0-1.7,0.8-1.7,2.5c0,1.5,0.7,2.4,1.8,2.4c1,0,1.7-0.9,1.7-2.4C767.1,50.4,766.5,49.5,765.3,49.5z"/>
	<path d="M770.7,48h2V49c0.6-0.9,1.3-1.4,2.4-1.4c1.9,0,3.3,1.7,3.3,4.2c0,2.6-1.4,4.3-3.3,4.3c-1,0-1.8-0.4-2.4-1.3v4.2h-2.1V48z
		 M774.5,49.5c-1.1,0-1.7,0.8-1.7,2.5c0,1.5,0.7,2.4,1.8,2.4c1,0,1.7-0.9,1.7-2.4C776.3,50.4,775.7,49.5,774.5,49.5z"/>
	<path d="M783.5,47.7c2.5,0,4,1.6,4,4.3s-1.5,4.3-4,4.3s-4-1.6-4-4.3S781,47.7,783.5,47.7z M783.5,54.4c1.2,0,1.9-0.9,1.9-2.5
		s-0.7-2.5-1.9-2.5c-1.2,0-1.9,0.9-1.9,2.5S782.3,54.4,783.5,54.4z"/>
	<path d="M789,48h2v1.4c0.6-1.1,1.3-1.6,2.3-1.6c0.1,0,0.2,0,0.3,0v2.2h-0.7c-1.2,0-1.8,0.6-1.8,1.8v4.2H789V48z"/>
	<path d="M797.1,56c-1.8,0-2.1-0.6-2.1-2.3v-4.3h-1V48h1v-2.2h2.1V48h1.2v1.5h-1.2v4.4c0,0.4,0.1,0.5,0.7,0.5h0.5V56
		C797.7,56,797.3,56,797.1,56z"/>
	<path d="M806.2,55.9H804V45.1h4.8c2.3,0,3.4,1.2,3.4,3.5c0,2.2-1.2,3.5-3.3,3.5h-2.7V55.9z M808.3,50.1c1.1,0,1.7-0.5,1.7-1.6
		c0-1-0.5-1.6-1.5-1.6h-2.3v3.1H808.3z"/>
	<path d="M815.4,56.2c-1.5,0-2.4-0.9-2.4-2.5c0-1.6,0.8-2.2,2.7-2.5c1.6-0.3,2.2-0.1,2.2-0.9c0-0.7-0.4-0.9-1.3-0.9
		c-0.9,0-1.3,0.4-1.3,1c0,0,0,0.1,0,0.1h-2c0,0,0-0.1,0-0.2c0-1.6,1.2-2.6,3.3-2.6c2.2,0,3.5,0.8,3.5,2.2v4.5c0,0.6,0.1,0.9,0.4,1.1
		v0.4h-2.2c-0.1-0.3-0.2-0.6-0.2-1C817.4,55.8,816.5,56.2,815.4,56.2z M816,52.5c-0.7,0.2-1,0.5-1,1.1c0,0.6,0.4,1,1,1
		c1.2,0,1.9-0.7,1.9-1.8V52C817.1,52.4,816.4,52.4,816,52.5z"/>
	<path d="M824.1,56c-1.8,0-2.1-0.6-2.1-2.3v-4.3h-1V48h1v-2.2h2.1V48h1.2v1.5h-1.2v4.4c0,0.4,0.1,0.5,0.7,0.5h0.5V56
		C824.8,56,824.3,56,824.1,56z"/>
	<path d="M826.6,45.1h2.1v1.9h-2.1V45.1z M826.6,48h2.1v8h-2.1V48z"/>
	<path d="M837.7,53.5c-0.4,1.7-1.8,2.7-3.7,2.7c-2.3,0-3.7-1.6-3.7-4.3c0-2.6,1.4-4.2,3.7-4.2c2.4,0,3.8,1.5,3.8,4.3
		c0,0.2,0,0.4,0,0.6h-5.3c0.1,1.2,0.6,1.9,1.7,1.9c0.7,0,1.2-0.3,1.5-0.9H837.7z M835.6,51.1c0-1.1-0.6-1.6-1.6-1.6
		c-0.9,0-1.5,0.6-1.6,1.6H835.6z"/>
	<path d="M839.2,48h2.1v0.9c0.6-0.8,1.4-1.2,2.4-1.2c1.8,0,2.6,0.9,2.6,2.7v5.4h-2.1v-4.8c0-1.1-0.3-1.6-1.2-1.6
		c-1,0-1.6,0.6-1.6,1.7v4.7h-2.1V48z"/>
	<path d="M850.5,56c-1.8,0-2.1-0.6-2.1-2.3v-4.3h-1V48h1v-2.2h2.1V48h1.2v1.5h-1.2v4.4c0,0.4,0.1,0.5,0.7,0.5h0.5V56
		C851.1,56,850.7,56,850.5,56z"/>
	<path d="M678.4,63.1h7.8V65h-5.6v2.3h5.2v1.8h-5.2v2.8h5.9v2h-8.1V63.1z"/>
	<path d="M688,66h2.1v0.9c0.6-0.8,1.4-1.2,2.4-1.2c1.8,0,2.6,0.9,2.6,2.7v5.4H693v-4.8c0-1.1-0.3-1.6-1.2-1.6c-1,0-1.6,0.6-1.6,1.7
		v4.7H688V66z"/>
	<path d="M699.1,74.7c0.1,0.5,0.6,0.8,1.3,0.8c1.4,0,1.8-0.6,1.8-2v-0.7c-0.5,0.8-1.2,1.1-2.2,1.1c-2.1,0-3.4-1.6-3.4-4
		c0-2.6,1.4-4.2,3.4-4.2c1.1,0,1.8,0.4,2.3,1.2v-1h2v7.4c0,1.4-0.2,2.3-1,3c-0.6,0.5-1.6,0.8-2.9,0.8c-2.1,0-3.4-0.9-3.5-2.5H699.1z
		 M700.4,72.1c1.1,0,1.7-0.8,1.7-2.4c0-1.5-0.6-2.3-1.8-2.3c-1.1,0-1.7,0.8-1.7,2.3C698.7,71.3,699.3,72.1,700.4,72.1z"/>
	<path d="M708.1,74.2c-1.5,0-2.4-0.9-2.4-2.5c0-1.6,0.8-2.2,2.7-2.5c1.6-0.3,2.2-0.1,2.2-0.9c0-0.7-0.4-0.9-1.3-0.9
		c-0.9,0-1.3,0.4-1.3,1c0,0,0,0.1,0,0.1h-2c0,0,0-0.1,0-0.2c0-1.6,1.2-2.6,3.3-2.6c2.2,0,3.5,0.8,3.5,2.2v4.5c0,0.6,0.1,0.9,0.4,1.1
		v0.4h-2.2c-0.1-0.3-0.2-0.6-0.2-1C710.1,73.8,709.2,74.2,708.1,74.2z M708.7,70.5c-0.7,0.2-1,0.5-1,1.1c0,0.6,0.4,1,1,1
		c1.2,0,1.9-0.7,1.9-1.8V70C709.8,70.4,709.1,70.4,708.7,70.5z"/>
	<path d="M716.7,74.7c0.1,0.5,0.6,0.8,1.3,0.8c1.4,0,1.8-0.6,1.8-2v-0.7c-0.5,0.8-1.2,1.1-2.2,1.1c-2.1,0-3.4-1.6-3.4-4
		c0-2.6,1.4-4.2,3.4-4.2c1.1,0,1.8,0.4,2.3,1.2v-1h2v7.4c0,1.4-0.2,2.3-1,3c-0.6,0.5-1.6,0.8-2.9,0.8c-2.1,0-3.4-0.9-3.5-2.5H716.7z
		 M718,72.1c1.1,0,1.7-0.8,1.7-2.4c0-1.5-0.6-2.3-1.8-2.3c-1.1,0-1.7,0.8-1.7,2.3C716.3,71.3,716.9,72.1,718,72.1z"/>
	<path d="M730.7,71.5c-0.4,1.7-1.8,2.7-3.7,2.7c-2.3,0-3.7-1.6-3.7-4.3c0-2.6,1.4-4.2,3.7-4.2c2.4,0,3.8,1.5,3.8,4.3
		c0,0.2,0,0.4,0,0.6h-5.3c0.1,1.2,0.6,1.9,1.7,1.9c0.7,0,1.2-0.3,1.5-0.9H730.7z M728.6,69.1c0-1.1-0.6-1.6-1.6-1.6
		c-0.9,0-1.5,0.6-1.6,1.6H728.6z"/>
	<path d="M732.2,66h2v0.9c0.6-0.7,1.3-1.1,2.2-1.1c1,0,1.7,0.4,2.2,1.2c0.6-0.8,1.3-1.2,2.3-1.2c1.6,0,2.6,1,2.6,2.6v5.6h-2.1v-5.1
		c0-0.8-0.4-1.2-1.2-1.2c-0.8,0-1.3,0.6-1.3,1.5v4.8h-2.1v-5.1c0-0.8-0.4-1.2-1.2-1.2c-0.8,0-1.3,0.6-1.3,1.5v4.8h-2.1V66z"/>
	<path d="M752.4,71.5c-0.4,1.7-1.8,2.7-3.7,2.7c-2.3,0-3.7-1.6-3.7-4.3c0-2.6,1.4-4.2,3.7-4.2c2.4,0,3.8,1.5,3.8,4.3
		c0,0.2,0,0.4,0,0.6h-5.3c0.1,1.2,0.6,1.9,1.7,1.9c0.7,0,1.2-0.3,1.5-0.9H752.4z M750.3,69.1c0-1.1-0.6-1.6-1.6-1.6
		c-0.9,0-1.5,0.6-1.6,1.6H750.3z"/>
	<path d="M753.9,66h2.1v0.9c0.6-0.8,1.4-1.2,2.4-1.2c1.8,0,2.6,0.9,2.6,2.7v5.4h-2.1v-4.8c0-1.1-0.3-1.6-1.2-1.6
		c-1,0-1.6,0.6-1.6,1.7v4.7h-2.1V66z"/>
	<path d="M765.2,74c-1.8,0-2.1-0.6-2.1-2.3v-4.3h-1V66h1v-2.2h2.1V66h1.2v1.5h-1.2v4.4c0,0.4,0.1,0.5,0.7,0.5h0.5V74
		C765.8,74,765.4,74,765.2,74z"/>
	<path d="M774.3,73.9h-2.2V63.1h4.8c2.3,0,3.4,1.2,3.4,3.5c0,2.2-1.2,3.5-3.3,3.5h-2.7V73.9z M776.5,68.1c1.1,0,1.7-0.5,1.7-1.6
		c0-1-0.5-1.6-1.5-1.6h-2.3v3.1H776.5z"/>
	<path d="M781.9,66h2v1.4c0.6-1.1,1.3-1.6,2.3-1.6c0.1,0,0.2,0,0.3,0v2.2h-0.7c-1.2,0-1.8,0.6-1.8,1.8v4.2h-2.1V66z"/>
	<path d="M791.3,65.7c2.5,0,4,1.6,4,4.3s-1.5,4.3-4,4.3s-4-1.6-4-4.3S788.8,65.7,791.3,65.7z M791.3,72.4c1.2,0,1.9-0.9,1.9-2.5
		s-0.7-2.5-1.9-2.5c-1.2,0-1.9,0.9-1.9,2.5S790.1,72.4,791.3,72.4z"/>
	<path d="M795.9,75.4h0.4c0.4,0,0.5-0.2,0.5-0.5V66h2.1v9.2c0,1.5-0.8,2-2.7,2h-0.4V75.4z M796.8,63.2h2.1v1.9h-2.1V63.2z"/>
	<path d="M807.9,71.5c-0.4,1.7-1.8,2.7-3.7,2.7c-2.3,0-3.7-1.6-3.7-4.3c0-2.6,1.4-4.2,3.7-4.2c2.4,0,3.8,1.5,3.8,4.3
		c0,0.2,0,0.4,0,0.6h-5.3c0.1,1.2,0.6,1.9,1.7,1.9c0.7,0,1.2-0.3,1.5-0.9H807.9z M805.8,69.1c0-1.1-0.6-1.6-1.6-1.6
		c-0.9,0-1.5,0.6-1.6,1.6H805.8z"/>
	<path d="M816.3,70.9c-0.2,2-1.6,3.3-3.6,3.3c-2.3,0-3.7-1.6-3.7-4.3c0-2.7,1.4-4.3,3.8-4.3c2.1,0,3.4,1.2,3.5,3.1h-2.1
		c-0.1-0.8-0.6-1.3-1.4-1.3c-1.1,0-1.6,0.8-1.6,2.5c0,1.5,0.6,2.4,1.6,2.4c0.8,0,1.3-0.5,1.4-1.4H816.3z"/>
	<path d="M820,74c-1.8,0-2.1-0.6-2.1-2.3v-4.3h-1V66h1v-2.2h2.1V66h1.2v1.5H820v4.4c0,0.4,0.1,0.5,0.7,0.5h0.5V74
		C820.6,74,820.2,74,820,74z"/>
	<path d="M824.1,71.3c0,0.8,0.6,1.2,1.7,1.2c0.9,0,1.3-0.3,1.3-0.8c0-0.7-0.7-0.6-2.1-1c-1.9-0.5-2.8-1-2.8-2.4
		c0-1.6,1.2-2.7,3.3-2.7c2.1,0,3.4,1,3.5,2.7h-2.1c0-0.7-0.5-1.1-1.4-1.1c-0.8,0-1.2,0.2-1.2,0.7c0,0.6,0.7,0.6,2.2,1
		c1.8,0.4,2.7,0.9,2.7,2.4c0,1.8-1.3,2.8-3.7,2.8c-2.2,0-3.5-1.1-3.5-2.8c0,0,0-0.1,0-0.1H824.1z"/>
</g>
<g>
	<path d="M596.1,132.8h-2.2V122h4.8c2.3,0,3.4,1.2,3.4,3.5c0,2.2-1.2,3.5-3.3,3.5h-2.7V132.8z M598.3,127c1.1,0,1.7-0.5,1.7-1.6
		c0-1-0.5-1.6-1.5-1.6h-2.3v3.1H598.3z"/>
	<path d="M605.3,133.1c-1.5,0-2.4-0.9-2.4-2.5c0-1.6,0.8-2.2,2.7-2.5c1.6-0.3,2.2-0.1,2.2-0.9c0-0.7-0.4-0.9-1.3-0.9
		c-0.9,0-1.3,0.4-1.3,1c0,0,0,0.1,0,0.1h-2c0,0,0-0.1,0-0.2c0-1.6,1.2-2.6,3.3-2.6c2.2,0,3.5,0.8,3.5,2.2v4.5c0,0.6,0.1,0.9,0.4,1.1
		v0.4h-2.2c-0.1-0.3-0.2-0.6-0.2-1C607.4,132.6,606.5,133.1,605.3,133.1z M606,129.4c-0.7,0.2-1,0.5-1,1.1c0,0.6,0.4,1,1,1
		c1.2,0,1.9-0.7,1.9-1.8v-0.8C607.1,129.3,606.4,129.3,606,129.4z"/>
	<path d="M614.1,132.9c-1.8,0-2.1-0.6-2.1-2.3v-4.3h-1v-1.5h1v-2.2h2.1v2.2h1.2v1.5h-1.2v4.4c0,0.4,0.1,0.5,0.7,0.5h0.5v1.6
		C614.7,132.9,614.3,132.9,614.1,132.9z"/>
	<path d="M616.6,122h2.1v1.9h-2.1V122z M616.6,124.8h2.1v8h-2.1V124.8z"/>
	<path d="M627.6,130.4c-0.4,1.7-1.8,2.7-3.7,2.7c-2.3,0-3.7-1.6-3.7-4.3c0-2.6,1.4-4.2,3.7-4.2c2.4,0,3.8,1.5,3.8,4.3
		c0,0.2,0,0.4,0,0.6h-5.3c0.1,1.2,0.6,1.9,1.7,1.9c0.7,0,1.2-0.3,1.5-0.9H627.6z M625.5,128c0-1.1-0.6-1.6-1.6-1.6
		c-0.9,0-1.5,0.6-1.6,1.6H625.5z"/>
	<path d="M629.2,124.8h2.1v0.9c0.6-0.8,1.4-1.2,2.4-1.2c1.8,0,2.6,0.9,2.6,2.7v5.4h-2.1V128c0-1.1-0.3-1.6-1.2-1.6
		c-1,0-1.6,0.6-1.6,1.7v4.7h-2.1V124.8z"/>
	<path d="M640.4,132.9c-1.8,0-2.1-0.6-2.1-2.3v-4.3h-1v-1.5h1v-2.2h2.1v2.2h1.2v1.5h-1.2v4.4c0,0.4,0.1,0.5,0.7,0.5h0.5v1.6
		C641.1,132.9,640.7,132.9,640.4,132.9z"/>
	<path d="M647.3,122h7.8v1.9h-5.6v2.3h5.2v1.8h-5.2v2.8h5.9v2h-8.1V122z"/>
	<path d="M656.9,124.8h2.1v0.9c0.6-0.8,1.4-1.2,2.4-1.2c1.8,0,2.6,0.9,2.6,2.7v5.4h-2.1V128c0-1.1-0.3-1.6-1.2-1.6
		c-1,0-1.6,0.6-1.6,1.7v4.7h-2.1V124.8z"/>
	<path d="M668,133.6c0.1,0.5,0.6,0.8,1.3,0.8c1.4,0,1.8-0.6,1.8-2v-0.7c-0.5,0.8-1.2,1.1-2.2,1.1c-2.1,0-3.4-1.6-3.4-4
		c0-2.6,1.4-4.2,3.4-4.2c1.1,0,1.8,0.4,2.3,1.2v-1h2v7.4c0,1.4-0.2,2.3-1,3c-0.6,0.5-1.6,0.8-2.9,0.8c-2.1,0-3.4-0.9-3.5-2.5H668z
		 M669.4,131c1.1,0,1.7-0.8,1.7-2.4c0-1.5-0.6-2.3-1.8-2.3c-1.1,0-1.7,0.8-1.7,2.3C667.6,130.2,668.3,131,669.4,131z"/>
	<path d="M677,133.1c-1.5,0-2.4-0.9-2.4-2.5c0-1.6,0.8-2.2,2.7-2.5c1.6-0.3,2.2-0.1,2.2-0.9c0-0.7-0.4-0.9-1.3-0.9
		c-0.9,0-1.3,0.4-1.3,1c0,0,0,0.1,0,0.1h-2c0,0,0-0.1,0-0.2c0-1.6,1.2-2.6,3.3-2.6c2.2,0,3.5,0.8,3.5,2.2v4.5c0,0.6,0.1,0.9,0.4,1.1
		v0.4h-2.2c-0.1-0.3-0.2-0.6-0.2-1C679.1,132.6,678.2,133.1,677,133.1z M677.7,129.4c-0.7,0.2-1,0.5-1,1.1c0,0.6,0.4,1,1,1
		c1.2,0,1.9-0.7,1.9-1.8v-0.8C678.8,129.3,678.1,129.3,677.7,129.4z"/>
	<path d="M685.6,133.6c0.1,0.5,0.6,0.8,1.3,0.8c1.4,0,1.8-0.6,1.8-2v-0.7c-0.5,0.8-1.2,1.1-2.2,1.1c-2.1,0-3.4-1.6-3.4-4
		c0-2.6,1.4-4.2,3.4-4.2c1.1,0,1.8,0.4,2.3,1.2v-1h2v7.4c0,1.4-0.2,2.3-1,3c-0.6,0.5-1.6,0.8-2.9,0.8c-2.1,0-3.4-0.9-3.5-2.5H685.6z
		 M687,131c1.1,0,1.7-0.8,1.7-2.4c0-1.5-0.6-2.3-1.8-2.3c-1.1,0-1.7,0.8-1.7,2.3C685.2,130.2,685.8,131,687,131z"/>
	<path d="M699.7,130.4c-0.4,1.7-1.8,2.7-3.7,2.7c-2.3,0-3.7-1.6-3.7-4.3c0-2.6,1.4-4.2,3.7-4.2c2.4,0,3.8,1.5,3.8,4.3
		c0,0.2,0,0.4,0,0.6h-5.3c0.1,1.2,0.6,1.9,1.7,1.9c0.7,0,1.2-0.3,1.5-0.9H699.7z M697.6,128c0-1.1-0.6-1.6-1.6-1.6
		c-0.9,0-1.5,0.6-1.6,1.6H697.6z"/>
	<path d="M701.2,124.8h2v0.9c0.6-0.7,1.3-1.1,2.2-1.1c1,0,1.7,0.4,2.2,1.2c0.6-0.8,1.3-1.2,2.3-1.2c1.6,0,2.6,1,2.6,2.6v5.6h-2.1
		v-5.1c0-0.8-0.4-1.2-1.2-1.2c-0.8,0-1.3,0.6-1.3,1.5v4.8h-2.1v-5.1c0-0.8-0.4-1.2-1.2-1.2c-0.8,0-1.3,0.6-1.3,1.5v4.8h-2.1V124.8z"
		/>
	<path d="M721.4,130.4c-0.4,1.7-1.8,2.7-3.7,2.7c-2.3,0-3.7-1.6-3.7-4.3c0-2.6,1.4-4.2,3.7-4.2c2.4,0,3.8,1.5,3.8,4.3
		c0,0.2,0,0.4,0,0.6h-5.3c0.1,1.2,0.6,1.9,1.7,1.9c0.7,0,1.2-0.3,1.5-0.9H721.4z M719.3,128c0-1.1-0.6-1.6-1.6-1.6
		c-0.9,0-1.5,0.6-1.6,1.6H719.3z"/>
	<path d="M722.9,124.8h2.1v0.9c0.6-0.8,1.4-1.2,2.4-1.2c1.8,0,2.6,0.9,2.6,2.7v5.4h-2.1V128c0-1.1-0.3-1.6-1.2-1.6
		c-1,0-1.6,0.6-1.6,1.7v4.7h-2.1V124.8z"/>
	<path d="M734.2,132.9c-1.8,0-2.1-0.6-2.1-2.3v-4.3h-1v-1.5h1v-2.2h2.1v2.2h1.2v1.5h-1.2v4.4c0,0.4,0.1,0.5,0.7,0.5h0.5v1.6
		C734.8,132.9,734.4,132.9,734.2,132.9z"/>
	<path d="M593.9,140h4.2c3.3,0,4.9,1.8,4.9,5.4c0,2-0.6,3.5-1.8,4.4c-1,0.8-2.2,1-3.8,1h-3.6V140z M597.9,148.8c2.1,0,2.9-1,2.9-3.4
		c0-2.4-0.8-3.5-2.7-3.5h-2.1v6.9H597.9z"/>
	<path d="M611.7,148.4c-0.4,1.7-1.8,2.7-3.7,2.7c-2.3,0-3.7-1.6-3.7-4.3c0-2.6,1.4-4.2,3.7-4.2c2.4,0,3.8,1.5,3.8,4.3
		c0,0.2,0,0.4,0,0.6h-5.3c0.1,1.2,0.6,1.9,1.7,1.9c0.7,0,1.2-0.3,1.5-0.9H611.7z M609.6,146c0-1.1-0.6-1.6-1.6-1.6
		c-0.9,0-1.5,0.6-1.6,1.6H609.6z"/>
	<path d="M613.2,142.8h2v0.9c0.6-0.7,1.3-1.1,2.2-1.1c1,0,1.7,0.4,2.2,1.2c0.6-0.8,1.3-1.2,2.3-1.2c1.6,0,2.6,1,2.6,2.6v5.6h-2.1
		v-5.1c0-0.8-0.4-1.2-1.2-1.2c-0.8,0-1.3,0.6-1.3,1.5v4.8h-2.1v-5.1c0-0.8-0.4-1.2-1.2-1.2c-0.8,0-1.3,0.6-1.3,1.5v4.8h-2.1V142.8z"
		/>
	<path d="M630,142.5c2.5,0,4,1.6,4,4.3s-1.5,4.3-4,4.3s-4-1.6-4-4.3S627.5,142.5,630,142.5z M630,149.3c1.2,0,1.9-0.9,1.9-2.5
		s-0.7-2.5-1.9-2.5c-1.2,0-1.9,0.9-1.9,2.5S628.8,149.3,630,149.3z"/>
	<path d="M635.5,142.8h2.1v0.9c0.6-0.8,1.4-1.2,2.4-1.2c1.8,0,2.6,0.9,2.6,2.7v5.4h-2.1V146c0-1.1-0.3-1.6-1.2-1.6
		c-1,0-1.6,0.6-1.6,1.7v4.7h-2.1V142.8z"/>
	<path d="M646.1,148.2c0,0.8,0.6,1.2,1.7,1.2c0.9,0,1.3-0.3,1.3-0.8c0-0.7-0.7-0.6-2.1-1c-1.9-0.5-2.8-1-2.8-2.4
		c0-1.6,1.2-2.7,3.3-2.7c2.1,0,3.4,1,3.5,2.7h-2.1c0-0.7-0.5-1.1-1.4-1.1c-0.8,0-1.2,0.2-1.2,0.7c0,0.6,0.7,0.6,2.2,1
		c1.8,0.4,2.7,0.9,2.7,2.4c0,1.8-1.3,2.8-3.7,2.8c-2.2,0-3.5-1.1-3.5-2.8c0,0,0-0.1,0-0.1H646.1z"/>
	<path d="M654.9,150.9c-1.8,0-2.1-0.6-2.1-2.3v-4.3h-1v-1.5h1v-2.2h2.1v2.2h1.2v1.5h-1.2v4.4c0,0.4,0.1,0.5,0.7,0.5h0.5v1.6
		C655.6,150.9,655.2,150.9,654.9,150.9z"/>
	<path d="M657.4,142.8h2v1.4c0.6-1.1,1.3-1.6,2.3-1.6c0.1,0,0.2,0,0.3,0v2.2h-0.7c-1.2,0-1.8,0.6-1.8,1.8v4.2h-2.1V142.8z"/>
	<path d="M665.1,151.1c-1.5,0-2.4-0.9-2.4-2.5c0-1.6,0.8-2.2,2.7-2.5c1.6-0.3,2.2-0.1,2.2-0.9c0-0.7-0.4-0.9-1.3-0.9
		c-0.9,0-1.3,0.4-1.3,1c0,0,0,0.1,0,0.1h-2c0,0,0-0.1,0-0.2c0-1.6,1.2-2.6,3.3-2.6c2.2,0,3.5,0.8,3.5,2.2v4.5c0,0.6,0.1,0.9,0.4,1.1
		v0.4H668c-0.1-0.3-0.2-0.6-0.2-1C667.2,150.6,666.3,151.1,665.1,151.1z M665.8,147.4c-0.7,0.2-1,0.5-1,1.1c0,0.6,0.4,1,1,1
		c1.2,0,1.9-0.7,1.9-1.8v-0.8C666.9,147.3,666.2,147.3,665.8,147.4z"/>
	<path d="M673.9,150.9c-1.8,0-2.1-0.6-2.1-2.3v-4.3h-1v-1.5h1v-2.2h2.1v2.2h1.2v1.5h-1.2v4.4c0,0.4,0.1,0.5,0.7,0.5h0.5v1.6
		C674.5,150.9,674.1,150.9,673.9,150.9z"/>
	<path d="M676.4,140h2.1v1.9h-2.1V140z M676.4,142.8h2.1v8h-2.1V142.8z"/>
	<path d="M684.1,142.5c2.5,0,4,1.6,4,4.3s-1.5,4.3-4,4.3s-4-1.6-4-4.3S681.6,142.5,684.1,142.5z M684.1,149.3c1.2,0,1.9-0.9,1.9-2.5
		s-0.7-2.5-1.9-2.5c-1.2,0-1.9,0.9-1.9,2.5S682.9,149.3,684.1,149.3z"/>
	<path d="M689.5,142.8h2.1v0.9c0.6-0.8,1.4-1.2,2.4-1.2c1.8,0,2.6,0.9,2.6,2.7v5.4h-2.1V146c0-1.1-0.3-1.6-1.2-1.6
		c-1,0-1.6,0.6-1.6,1.7v4.7h-2.1V142.8z"/>
	<path d="M705.2,150.8h-2.2V140h4.8c2.3,0,3.4,1.2,3.4,3.5c0,2.2-1.2,3.5-3.3,3.5h-2.7V150.8z M707.3,145c1.1,0,1.7-0.5,1.7-1.6
		c0-1-0.5-1.6-1.5-1.6h-2.3v3.1H707.3z"/>
	<path d="M712.8,142.8h2v1.4c0.6-1.1,1.3-1.6,2.3-1.6c0.1,0,0.2,0,0.3,0v2.2h-0.7c-1.2,0-1.8,0.6-1.8,1.8v4.2h-2.1V142.8z"/>
	<path d="M722.2,142.5c2.5,0,4,1.6,4,4.3s-1.5,4.3-4,4.3s-4-1.6-4-4.3S719.7,142.5,722.2,142.5z M722.2,149.3c1.2,0,1.9-0.9,1.9-2.5
		s-0.7-2.5-1.9-2.5c-1.2,0-1.9,0.9-1.9,2.5S721,149.3,722.2,149.3z"/>
	<path d="M726.8,152.3h0.4c0.4,0,0.5-0.2,0.5-0.5v-8.9h2.1v9.2c0,1.5-0.8,2-2.7,2h-0.4V152.3z M727.7,140h2.1v1.9h-2.1V140z"/>
	<path d="M738.7,148.4c-0.4,1.7-1.8,2.7-3.7,2.7c-2.3,0-3.7-1.6-3.7-4.3c0-2.6,1.4-4.2,3.7-4.2c2.4,0,3.8,1.5,3.8,4.3
		c0,0.2,0,0.4,0,0.6h-5.3c0.1,1.2,0.6,1.9,1.7,1.9c0.7,0,1.2-0.3,1.5-0.9H738.7z M736.6,146c0-1.1-0.6-1.6-1.6-1.6
		c-0.9,0-1.5,0.6-1.6,1.6H736.6z"/>
	<path d="M747.2,147.8c-0.2,2-1.6,3.3-3.6,3.3c-2.3,0-3.7-1.6-3.7-4.3c0-2.7,1.4-4.3,3.8-4.3c2.1,0,3.4,1.2,3.5,3.1H745
		c-0.1-0.8-0.6-1.3-1.4-1.3c-1.1,0-1.6,0.8-1.6,2.5c0,1.5,0.6,2.4,1.6,2.4c0.8,0,1.3-0.5,1.4-1.4H747.2z"/>
	<path d="M750.9,150.9c-1.8,0-2.1-0.6-2.1-2.3v-4.3h-1v-1.5h1v-2.2h2.1v2.2h1.2v1.5h-1.2v4.4c0,0.4,0.1,0.5,0.7,0.5h0.5v1.6
		C751.5,150.9,751.1,150.9,750.9,150.9z"/>
	<path d="M755,148.2c0,0.8,0.6,1.2,1.7,1.2c0.9,0,1.3-0.3,1.3-0.8c0-0.7-0.7-0.6-2.1-1c-1.9-0.5-2.8-1-2.8-2.4
		c0-1.6,1.2-2.7,3.3-2.7c2.1,0,3.4,1,3.5,2.7h-2.1c0-0.7-0.5-1.1-1.4-1.1c-0.8,0-1.2,0.2-1.2,0.7c0,0.6,0.7,0.6,2.2,1
		c1.8,0.4,2.7,0.9,2.7,2.4c0,1.8-1.3,2.8-3.7,2.8c-2.2,0-3.5-1.1-3.5-2.8c0,0,0-0.1,0-0.1H755z"/>
	<path d="M596.1,168.9c-1.8,0-2.1-0.6-2.1-2.3v-4.3h-1v-1.5h1v-2.2h2.1v2.2h1.2v1.5h-1.2v4.4c0,0.4,0.1,0.5,0.7,0.5h0.5v1.6
		C596.7,168.9,596.3,168.9,596.1,168.9z"/>
	<path d="M602.1,160.5c2.5,0,4,1.6,4,4.3c0,2.7-1.5,4.3-4,4.3s-4-1.6-4-4.3C598.1,162.2,599.6,160.5,602.1,160.5z M602.1,167.3
		c1.2,0,1.9-0.9,1.9-2.5s-0.7-2.5-1.9-2.5c-1.2,0-1.9,0.9-1.9,2.5S601,167.3,602.1,167.3z"/>
	<path d="M613.8,165.5c0.2,1.2,1,1.7,2.5,1.7c1.3,0,2-0.5,2-1.4c0-1-0.9-1.2-2.9-1.6c-0.9-0.2-1.7-0.3-2.4-0.8
		c-0.8-0.5-1.2-1.3-1.2-2.4c0-2.1,1.4-3.3,4.2-3.3c2.5,0,4,1.3,4.1,3.4h-2.1c-0.1-1-0.8-1.6-2.1-1.6c-1.2,0-1.8,0.5-1.8,1.3
		c0,1,0.8,1,2.6,1.5c1,0.3,1.9,0.5,2.5,0.8c0.9,0.5,1.3,1.3,1.3,2.4c0,2.2-1.5,3.5-4.3,3.5c-2.7,0-4.3-1.3-4.4-3.6H613.8z"/>
	<path d="M629,168.8h-2.1v-0.9c-0.6,0.8-1.4,1.2-2.4,1.2c-1.8,0-2.6-0.9-2.6-2.7v-5.4h2.1v4.8c0,1.1,0.3,1.6,1.2,1.6
		c1,0,1.6-0.6,1.6-1.7v-4.7h2.1V168.8z"/>
	<path d="M630.9,160.8h2v1.1c0.6-0.9,1.3-1.4,2.4-1.4c1.9,0,3.3,1.7,3.3,4.2c0,2.6-1.4,4.3-3.3,4.3c-1,0-1.8-0.4-2.4-1.3v4.2h-2.1
		V160.8z M634.7,162.4c-1.1,0-1.7,0.8-1.7,2.5c0,1.5,0.7,2.4,1.8,2.4c1,0,1.7-0.9,1.7-2.4C636.5,163.2,635.9,162.4,634.7,162.4z"/>
	<path d="M640.1,160.8h2v1.1c0.6-0.9,1.3-1.4,2.4-1.4c1.9,0,3.3,1.7,3.3,4.2c0,2.6-1.4,4.3-3.3,4.3c-1,0-1.8-0.4-2.4-1.3v4.2h-2.1
		V160.8z M643.9,162.4c-1.1,0-1.7,0.8-1.7,2.5c0,1.5,0.7,2.4,1.8,2.4c1,0,1.7-0.9,1.7-2.4C645.7,163.2,645,162.4,643.9,162.4z"/>
	<path d="M652.9,160.5c2.5,0,4,1.6,4,4.3c0,2.7-1.5,4.3-4,4.3s-4-1.6-4-4.3C648.8,162.2,650.4,160.5,652.9,160.5z M652.9,167.3
		c1.2,0,1.9-0.9,1.9-2.5s-0.7-2.5-1.9-2.5c-1.2,0-1.9,0.9-1.9,2.5S651.7,167.3,652.9,167.3z"/>
	<path d="M658.4,160.8h2v1.4c0.6-1.1,1.3-1.6,2.3-1.6c0.1,0,0.2,0,0.3,0v2.2h-0.7c-1.2,0-1.8,0.6-1.8,1.8v4.2h-2.1V160.8z"/>
	<path d="M666.5,168.9c-1.8,0-2.1-0.6-2.1-2.3v-4.3h-1v-1.5h1v-2.2h2.1v2.2h1.2v1.5h-1.2v4.4c0,0.4,0.1,0.5,0.7,0.5h0.5v1.6
		C667.1,168.9,666.7,168.9,666.5,168.9z"/>
	<path d="M673.3,158h5.2c2.3,0,3.5,1,3.5,3.1c0,1.3-0.6,2.2-1.6,2.5c1,0.4,1.3,1,1.3,2.4l0,1.3c0,0.6,0,1,0.4,1.2v0.3h-2.4
		c-0.2-0.3-0.2-0.8-0.3-1.4l0-1.1c0-1.3-0.4-1.7-1.6-1.7h-2.4v4.2h-2.2V158z M678.2,162.7c1.1,0,1.7-0.4,1.7-1.4
		c0-0.9-0.5-1.4-1.5-1.4h-2.7v2.8H678.2z"/>
	<path d="M690.9,166.4c-0.4,1.7-1.8,2.7-3.7,2.7c-2.3,0-3.7-1.6-3.7-4.3c0-2.6,1.4-4.2,3.7-4.2c2.4,0,3.8,1.5,3.8,4.3
		c0,0.2,0,0.4,0,0.6h-5.3c0.1,1.2,0.6,1.9,1.7,1.9c0.7,0,1.2-0.3,1.5-0.9H690.9z M688.8,164c0-1.1-0.6-1.6-1.6-1.6
		c-0.9,0-1.5,0.6-1.6,1.6H688.8z"/>
	<path d="M694.1,166.2c0,0.8,0.6,1.2,1.7,1.2c0.9,0,1.3-0.3,1.3-0.8c0-0.7-0.7-0.6-2.1-1c-1.9-0.5-2.8-1-2.8-2.4
		c0-1.6,1.2-2.7,3.3-2.7c2.1,0,3.4,1,3.5,2.7h-2.1c0-0.7-0.5-1.1-1.4-1.1c-0.8,0-1.2,0.2-1.2,0.7c0,0.6,0.7,0.6,2.2,1
		c1.8,0.4,2.7,0.9,2.7,2.4c0,1.8-1.3,2.8-3.7,2.8c-2.2,0-3.5-1.1-3.5-2.8c0,0,0-0.1,0-0.1H694.1z"/>
	<path d="M707.6,166.4c-0.4,1.7-1.8,2.7-3.7,2.7c-2.3,0-3.7-1.6-3.7-4.3c0-2.6,1.4-4.2,3.7-4.2c2.4,0,3.8,1.5,3.8,4.3
		c0,0.2,0,0.4,0,0.6h-5.3c0.1,1.2,0.6,1.9,1.7,1.9c0.7,0,1.2-0.3,1.5-0.9H707.6z M705.5,164c0-1.1-0.6-1.6-1.6-1.6
		c-0.9,0-1.5,0.6-1.6,1.6H705.5z"/>
	<path d="M711.1,169.1c-1.5,0-2.4-0.9-2.4-2.5c0-1.6,0.8-2.2,2.7-2.5c1.6-0.3,2.2-0.1,2.2-0.9c0-0.7-0.4-0.9-1.3-0.9
		c-0.9,0-1.3,0.4-1.3,1c0,0,0,0.1,0,0.1h-2c0,0,0-0.1,0-0.2c0-1.6,1.2-2.6,3.3-2.6c2.2,0,3.5,0.8,3.5,2.2v4.5c0,0.6,0.1,0.9,0.4,1.1
		v0.4H714c-0.1-0.3-0.2-0.6-0.2-1C713.2,168.6,712.3,169.1,711.1,169.1z M711.8,165.4c-0.7,0.2-1,0.5-1,1.1c0,0.6,0.4,1,1,1
		c1.2,0,1.9-0.7,1.9-1.8v-0.8C712.9,165.3,712.2,165.3,711.8,165.4z"/>
	<path d="M717.6,160.8h2v1.4c0.6-1.1,1.3-1.6,2.3-1.6c0.1,0,0.2,0,0.3,0v2.2h-0.7c-1.2,0-1.8,0.6-1.8,1.8v4.2h-2.1V160.8z"/>
	<path d="M730.3,165.8c-0.2,2-1.6,3.3-3.6,3.3c-2.3,0-3.7-1.6-3.7-4.3c0-2.7,1.4-4.3,3.8-4.3c2.1,0,3.4,1.2,3.5,3.1h-2.1
		c-0.1-0.8-0.6-1.3-1.4-1.3c-1.1,0-1.6,0.8-1.6,2.5c0,1.5,0.6,2.4,1.6,2.4c0.8,0,1.3-0.5,1.4-1.4H730.3z"/>
	<path d="M731.7,158h2.1v3.7c0.6-0.7,1.4-1.1,2.4-1.1c0.9,0,1.7,0.3,2.2,0.9c0.4,0.5,0.4,1.2,0.4,1.9c0,0,0,0.1,0,0.1v5.2h-2.1v-4.2
		c0-1.5,0-2.2-1.2-2.2c-1,0-1.6,0.6-1.6,1.7v4.7h-2.1V158z"/>
</g>
<g>
	<path d="M679.2,209.6h5.2c2.3,0,3.5,1,3.5,3.1c0,1.3-0.6,2.2-1.6,2.5c1,0.4,1.3,1,1.3,2.4l0,1.3c0,0.6,0,1,0.4,1.2v0.3h-2.4
		c-0.2-0.3-0.2-0.8-0.3-1.4l0-1.1c0-1.3-0.4-1.7-1.6-1.7h-2.4v4.2h-2.2V209.6z M684,214.3c1.1,0,1.7-0.4,1.7-1.4
		c0-0.9-0.5-1.4-1.5-1.4h-2.7v2.8H684z"/>
	<path d="M696.7,217.9c-0.4,1.7-1.8,2.7-3.7,2.7c-2.3,0-3.7-1.6-3.7-4.3c0-2.6,1.4-4.2,3.7-4.2c2.4,0,3.8,1.5,3.8,4.3
		c0,0.2,0,0.4,0,0.6h-5.3c0.1,1.2,0.6,1.9,1.7,1.9c0.7,0,1.2-0.3,1.5-0.9H696.7z M694.6,215.5c0-1.1-0.6-1.6-1.6-1.6
		c-0.9,0-1.5,0.6-1.6,1.6H694.6z"/>
	<path d="M699.9,217.7c0,0.8,0.6,1.2,1.7,1.2c0.9,0,1.3-0.3,1.3-0.8c0-0.7-0.7-0.6-2.1-1c-1.9-0.5-2.8-1-2.8-2.4
		c0-1.6,1.2-2.7,3.3-2.7c2.1,0,3.4,1,3.5,2.7h-2.1c0-0.7-0.5-1.1-1.4-1.1c-0.8,0-1.2,0.2-1.2,0.7c0,0.6,0.7,0.6,2.2,1
		c1.8,0.4,2.7,0.9,2.7,2.4c0,1.8-1.3,2.8-3.7,2.8c-2.2,0-3.5-1.1-3.5-2.8c0,0,0-0.1,0-0.1H699.9z"/>
	<path d="M713.5,217.9c-0.4,1.7-1.8,2.7-3.7,2.7c-2.3,0-3.7-1.6-3.7-4.3c0-2.6,1.4-4.2,3.7-4.2c2.4,0,3.8,1.5,3.8,4.3
		c0,0.2,0,0.4,0,0.6h-5.3c0.1,1.2,0.6,1.9,1.7,1.9c0.7,0,1.2-0.3,1.5-0.9H713.5z M711.4,215.5c0-1.1-0.6-1.6-1.6-1.6
		c-0.9,0-1.5,0.6-1.6,1.6H711.4z"/>
	<path d="M717,220.6c-1.5,0-2.4-0.9-2.4-2.5c0-1.6,0.8-2.2,2.7-2.5c1.6-0.3,2.2-0.1,2.2-0.9c0-0.7-0.4-0.9-1.3-0.9
		c-0.9,0-1.3,0.4-1.3,1c0,0,0,0.1,0,0.1h-2c0,0,0-0.1,0-0.2c0-1.6,1.2-2.6,3.3-2.6c2.2,0,3.5,0.8,3.5,2.2v4.5c0,0.6,0.1,0.9,0.4,1.1
		v0.4h-2.2c-0.1-0.3-0.2-0.6-0.2-1C719,220.2,718.1,220.6,717,220.6z M717.6,217c-0.7,0.2-1,0.5-1,1.1c0,0.6,0.4,1,1,1
		c1.2,0,1.9-0.7,1.9-1.8v-0.8C718.7,216.8,718,216.8,717.6,217z"/>
	<path d="M723.4,212.4h2v1.4c0.6-1.1,1.3-1.6,2.3-1.6c0.1,0,0.2,0,0.3,0v2.2h-0.7c-1.2,0-1.8,0.6-1.8,1.8v4.2h-2.1V212.4z"/>
	<path d="M736.1,217.3c-0.2,2-1.6,3.3-3.6,3.3c-2.3,0-3.7-1.6-3.7-4.3c0-2.7,1.4-4.3,3.8-4.3c2.1,0,3.4,1.2,3.5,3.1H734
		c-0.1-0.8-0.6-1.3-1.4-1.3c-1.1,0-1.6,0.8-1.6,2.5c0,1.5,0.6,2.4,1.6,2.4c0.8,0,1.3-0.5,1.4-1.4H736.1z"/>
	<path d="M737.5,209.6h2.1v3.7c0.6-0.7,1.4-1.1,2.4-1.1c0.9,0,1.7,0.3,2.2,0.9c0.4,0.5,0.4,1.2,0.4,1.9c0,0,0,0.1,0,0.1v5.2h-2.1
		v-4.2c0-1.5,0-2.2-1.2-2.2c-1,0-1.6,0.6-1.6,1.7v4.7h-2.1V209.6z"/>
	<path d="M753.1,220.4c-1.8,0-2.1-0.6-2.1-2.3v-4.3h-1v-1.5h1v-2.2h2.1v2.2h1.2v1.5H753v4.4c0,0.4,0.1,0.5,0.7,0.5h0.5v1.6
		C753.7,220.4,753.3,220.4,753.1,220.4z"/>
	<path d="M759.1,212.1c2.5,0,4,1.6,4,4.3c0,2.7-1.5,4.3-4,4.3s-4-1.6-4-4.3C755.1,213.7,756.6,212.1,759.1,212.1z M759.1,218.8
		c1.2,0,1.9-0.9,1.9-2.5s-0.7-2.5-1.9-2.5c-1.2,0-1.9,0.9-1.9,2.5S757.9,218.8,759.1,218.8z"/>
	<path d="M769.1,209.6h4.2c3.3,0,4.9,1.8,4.9,5.4c0,2-0.6,3.5-1.8,4.4c-1,0.8-2.2,1-3.8,1h-3.6V209.6z M773,218.4
		c2.1,0,2.9-1,2.9-3.4c0-2.4-0.8-3.5-2.7-3.5h-2.1v6.9H773z"/>
	<path d="M786.8,217.9c-0.4,1.7-1.8,2.7-3.7,2.7c-2.3,0-3.7-1.6-3.7-4.3c0-2.6,1.4-4.2,3.7-4.2c2.4,0,3.8,1.5,3.8,4.3
		c0,0.2,0,0.4,0,0.6h-5.3c0.1,1.2,0.6,1.9,1.7,1.9c0.7,0,1.2-0.3,1.5-0.9H786.8z M784.7,215.5c0-1.1-0.6-1.6-1.6-1.6
		c-0.9,0-1.5,0.6-1.6,1.6H784.7z"/>
	<path d="M787.4,212.4h2.4l1.6,5.7l1.7-5.7h2.2l-2.9,8h-2.2L787.4,212.4z"/>
	<path d="M803.3,217.9c-0.4,1.7-1.8,2.7-3.7,2.7c-2.3,0-3.7-1.6-3.7-4.3c0-2.6,1.4-4.2,3.7-4.2c2.4,0,3.8,1.5,3.8,4.3
		c0,0.2,0,0.4,0,0.6h-5.3c0.1,1.2,0.6,1.9,1.7,1.9c0.7,0,1.2-0.3,1.5-0.9H803.3z M801.2,215.5c0-1.1-0.6-1.6-1.6-1.6
		c-0.9,0-1.5,0.6-1.6,1.6H801.2z"/>
	<path d="M804.9,209.6h2.1v10.8h-2.1V209.6z"/>
	<path d="M812.6,212.1c2.5,0,4,1.6,4,4.3c0,2.7-1.5,4.3-4,4.3s-4-1.6-4-4.3C808.6,213.7,810.1,212.1,812.6,212.1z M812.6,218.8
		c1.2,0,1.9-0.9,1.9-2.5s-0.7-2.5-1.9-2.5c-1.2,0-1.9,0.9-1.9,2.5S811.4,218.8,812.6,218.8z"/>
	<path d="M818.1,212.4h2v1.1c0.6-0.9,1.3-1.4,2.4-1.4c1.9,0,3.3,1.7,3.3,4.2c0,2.6-1.4,4.3-3.3,4.3c-1,0-1.8-0.4-2.4-1.3v4.2h-2.1
		V212.4z M821.9,213.9c-1.1,0-1.7,0.8-1.7,2.5c0,1.5,0.7,2.4,1.8,2.4c1,0,1.7-0.9,1.7-2.4C823.7,214.8,823.1,213.9,821.9,213.9z"/>
	<path d="M679.2,227.6h7.8v1.9h-5.6v2.3h5.2v1.8h-5.2v2.8h5.9v2h-8.1V227.6z"/>
	<path d="M687.9,230.4h2.4l1.6,5.7l1.7-5.7h2.2l-2.9,8h-2.2L687.9,230.4z"/>
	<path d="M696.8,227.6h2.1v1.9h-2.1V227.6z M696.8,230.4h2.1v8h-2.1V230.4z"/>
	<path d="M708.1,238.3h-2v-1.1c-0.6,0.9-1.3,1.3-2.4,1.3c-1.9,0-3.3-1.7-3.3-4.2c0-2.6,1.4-4.3,3.3-4.3c1,0,1.8,0.4,2.4,1.3v-3.8
		h2.1V238.3z M704.3,236.8c1.1,0,1.7-0.8,1.7-2.5c0-1.5-0.7-2.4-1.8-2.4c-1,0-1.7,0.9-1.7,2.4C702.5,235.9,703.2,236.8,704.3,236.8z
		"/>
	<path d="M717.1,235.9c-0.4,1.7-1.8,2.7-3.7,2.7c-2.3,0-3.7-1.6-3.7-4.3c0-2.6,1.4-4.2,3.7-4.2c2.4,0,3.8,1.5,3.8,4.3
		c0,0.2,0,0.4,0,0.6h-5.3c0.1,1.2,0.6,1.9,1.7,1.9c0.7,0,1.2-0.3,1.5-0.9H717.1z M715,233.5c0-1.1-0.6-1.6-1.6-1.6
		c-0.9,0-1.5,0.6-1.6,1.6H715z"/>
	<path d="M718.6,230.4h2.1v0.9c0.6-0.8,1.4-1.2,2.4-1.2c1.8,0,2.6,0.9,2.6,2.7v5.4h-2.1v-4.8c0-1.1-0.3-1.6-1.2-1.6
		c-1,0-1.6,0.6-1.6,1.7v4.7h-2.1V230.4z"/>
	<path d="M734.5,235.3c-0.2,2-1.6,3.3-3.6,3.3c-2.3,0-3.7-1.6-3.7-4.3c0-2.7,1.4-4.3,3.8-4.3c2.1,0,3.4,1.2,3.5,3.1h-2.1
		c-0.1-0.8-0.6-1.3-1.4-1.3c-1.1,0-1.6,0.8-1.6,2.5c0,1.5,0.6,2.4,1.6,2.4c0.8,0,1.3-0.5,1.4-1.4H734.5z"/>
	<path d="M742.8,235.9c-0.4,1.7-1.8,2.7-3.7,2.7c-2.3,0-3.7-1.6-3.7-4.3c0-2.6,1.4-4.2,3.7-4.2c2.4,0,3.8,1.5,3.8,4.3
		c0,0.2,0,0.4,0,0.6h-5.3c0.1,1.2,0.6,1.9,1.7,1.9c0.7,0,1.2-0.3,1.5-0.9H742.8z M740.7,233.5c0-1.1-0.6-1.6-1.6-1.6
		c-0.9,0-1.5,0.6-1.6,1.6H740.7z"/>
	<path d="M743.9,233.3h4.1v2h-4.1V233.3z"/>
	<path d="M749.5,227.6h5.1c2.2,0,3.4,1,3.4,2.7c0,1.1-0.4,1.8-1.3,2.2c1.1,0.5,1.7,1.3,1.7,2.5c0,2.1-1.4,3.3-3.9,3.3h-4.9V227.6z
		 M754.2,231.7c1.1,0,1.6-0.3,1.6-1.2c0-0.8-0.5-1.1-1.6-1.1h-2.5v2.3H754.2z M754.3,236.4c1.2,0,1.8-0.4,1.8-1.4
		c0-1.1-0.6-1.4-1.8-1.4h-2.6v2.8H754.3z"/>
	<path d="M761.9,238.6c-1.5,0-2.4-0.9-2.4-2.5c0-1.6,0.8-2.2,2.7-2.5c1.6-0.3,2.2-0.1,2.2-0.9c0-0.7-0.4-0.9-1.3-0.9
		c-0.9,0-1.3,0.4-1.3,1c0,0,0,0.1,0,0.1h-2c0,0,0-0.1,0-0.2c0-1.6,1.2-2.6,3.3-2.6c2.2,0,3.5,0.8,3.5,2.2v4.5c0,0.6,0.1,0.9,0.4,1.1
		v0.4h-2.2c-0.1-0.3-0.2-0.6-0.2-1C764,238.2,763.1,238.6,761.9,238.6z M762.5,235c-0.7,0.2-1,0.5-1,1.1c0,0.6,0.4,1,1,1
		c1.2,0,1.9-0.7,1.9-1.8v-0.8C763.6,234.8,763,234.8,762.5,235z"/>
	<path d="M770,235.7c0,0.8,0.6,1.2,1.7,1.2c0.9,0,1.3-0.3,1.3-0.8c0-0.7-0.7-0.6-2.1-1c-1.9-0.5-2.8-1-2.8-2.4
		c0-1.6,1.2-2.7,3.3-2.7c2.1,0,3.4,1,3.5,2.7h-2.1c0-0.7-0.5-1.1-1.4-1.1c-0.8,0-1.2,0.2-1.2,0.7c0,0.6,0.7,0.6,2.2,1
		c1.8,0.4,2.7,0.9,2.7,2.4c0,1.8-1.3,2.8-3.7,2.8c-2.2,0-3.5-1.1-3.5-2.8c0,0,0-0.1,0-0.1H770z"/>
	<path d="M783.6,235.9c-0.4,1.7-1.8,2.7-3.7,2.7c-2.3,0-3.7-1.6-3.7-4.3c0-2.6,1.4-4.2,3.7-4.2c2.4,0,3.8,1.5,3.8,4.3
		c0,0.2,0,0.4,0,0.6h-5.3c0.1,1.2,0.6,1.9,1.7,1.9c0.7,0,1.2-0.3,1.5-0.9H783.6z M781.5,233.5c0-1.1-0.6-1.6-1.6-1.6
		c-0.9,0-1.5,0.6-1.6,1.6H781.5z"/>
	<path d="M792.4,238.3h-2v-1.1c-0.6,0.9-1.3,1.3-2.4,1.3c-1.9,0-3.3-1.7-3.3-4.2c0-2.6,1.4-4.3,3.3-4.3c1,0,1.8,0.4,2.4,1.3v-3.8
		h2.1V238.3z M788.6,236.8c1.1,0,1.7-0.8,1.7-2.5c0-1.5-0.7-2.4-1.8-2.4c-1,0-1.7,0.9-1.7,2.4C786.8,235.9,787.5,236.8,788.6,236.8z
		"/>
	<path d="M804,227.6l3.9,10.8h-2.3l-0.7-2.2h-4.2l-0.7,2.2h-2.3l3.8-10.8H804z M801.3,234.3h3l-1.5-4.6L801.3,234.3z"/>
	<path d="M808.9,230.4h2v1.1c0.6-0.9,1.3-1.4,2.4-1.4c1.9,0,3.3,1.7,3.3,4.2c0,2.6-1.4,4.3-3.3,4.3c-1,0-1.8-0.4-2.4-1.3v4.2h-2.1
		V230.4z M812.7,231.9c-1.1,0-1.7,0.8-1.7,2.5c0,1.5,0.7,2.4,1.8,2.4c1,0,1.7-0.9,1.7-2.4C814.5,232.8,813.9,231.9,812.7,231.9z"/>
	<path d="M818.1,230.4h2v1.1c0.6-0.9,1.3-1.4,2.4-1.4c1.9,0,3.3,1.7,3.3,4.2c0,2.6-1.4,4.3-3.3,4.3c-1,0-1.8-0.4-2.4-1.3v4.2h-2.1
		V230.4z M821.9,231.9c-1.1,0-1.7,0.8-1.7,2.5c0,1.5,0.7,2.4,1.8,2.4c1,0,1.7-0.9,1.7-2.4C823.7,232.8,823.1,231.9,821.9,231.9z"/>
	<path d="M827.3,230.4h2v1.4c0.6-1.1,1.3-1.6,2.3-1.6c0.1,0,0.2,0,0.3,0v2.2h-0.7c-1.2,0-1.8,0.6-1.8,1.8v4.2h-2.1V230.4z"/>
	<path d="M836.6,230.1c2.5,0,4,1.6,4,4.3c0,2.7-1.5,4.3-4,4.3s-4-1.6-4-4.3C832.6,231.7,834.1,230.1,836.6,230.1z M836.6,236.8
		c1.2,0,1.9-0.9,1.9-2.5s-0.7-2.5-1.9-2.5c-1.2,0-1.9,0.9-1.9,2.5S835.5,236.8,836.6,236.8z"/>
	<path d="M844.1,238.6c-1.5,0-2.4-0.9-2.4-2.5c0-1.6,0.8-2.2,2.7-2.5c1.6-0.3,2.2-0.1,2.2-0.9c0-0.7-0.4-0.9-1.3-0.9
		c-0.9,0-1.3,0.4-1.3,1c0,0,0,0.1,0,0.1h-2c0,0,0-0.1,0-0.2c0-1.6,1.2-2.6,3.3-2.6c2.2,0,3.5,0.8,3.5,2.2v4.5c0,0.6,0.1,0.9,0.4,1.1
		v0.4h-2.2c-0.1-0.3-0.2-0.6-0.2-1C846.2,238.2,845.3,238.6,844.1,238.6z M844.8,235c-0.7,0.2-1,0.5-1,1.1c0,0.6,0.4,1,1,1
		c1.2,0,1.9-0.7,1.9-1.8v-0.8C845.9,234.8,845.2,234.8,844.8,235z"/>
	<path d="M857.5,235.3c-0.2,2-1.6,3.3-3.6,3.3c-2.3,0-3.7-1.6-3.7-4.3c0-2.7,1.4-4.3,3.8-4.3c2.1,0,3.4,1.2,3.5,3.1h-2.1
		c-0.1-0.8-0.6-1.3-1.4-1.3c-1.1,0-1.6,0.8-1.6,2.5c0,1.5,0.6,2.4,1.6,2.4c0.8,0,1.3-0.5,1.4-1.4H857.5z"/>
	<path d="M858.9,227.6h2.1v3.7c0.6-0.7,1.4-1.1,2.4-1.1c0.9,0,1.7,0.3,2.2,0.9c0.4,0.5,0.4,1.2,0.4,1.9c0,0,0,0.1,0,0.1v5.2h-2.1
		v-4.2c0-1.5,0-2.2-1.2-2.2c-1,0-1.6,0.6-1.6,1.7v4.7h-2.1V227.6z"/>
	<path d="M874.9,235.9c-0.4,1.7-1.8,2.7-3.7,2.7c-2.3,0-3.7-1.6-3.7-4.3c0-2.6,1.4-4.2,3.7-4.2c2.4,0,3.8,1.5,3.8,4.3
		c0,0.2,0,0.4,0,0.6h-5.3c0.1,1.2,0.6,1.9,1.7,1.9c0.7,0,1.2-0.3,1.5-0.9H874.9z M872.8,233.5c0-1.1-0.6-1.6-1.6-1.6
		c-0.9,0-1.5,0.6-1.6,1.6H872.8z"/>
	<path d="M878.1,235.7c0,0.8,0.6,1.2,1.7,1.2c0.9,0,1.3-0.3,1.3-0.8c0-0.7-0.7-0.6-2.1-1c-1.9-0.5-2.8-1-2.8-2.4
		c0-1.6,1.2-2.7,3.3-2.7c2.1,0,3.4,1,3.5,2.7h-2.1c0-0.7-0.5-1.1-1.4-1.1c-0.8,0-1.2,0.2-1.2,0.7c0,0.6,0.7,0.6,2.2,1
		c1.8,0.4,2.7,0.9,2.7,2.4c0,1.8-1.3,2.8-3.7,2.8c-2.2,0-3.5-1.1-3.5-2.8c0,0,0-0.1,0-0.1H878.1z"/>
	<path d="M681.3,256.4c-1.8,0-2.1-0.6-2.1-2.3v-4.3h-1v-1.5h1v-2.2h2.1v2.2h1.2v1.5h-1.2v4.4c0,0.4,0.1,0.5,0.7,0.5h0.5v1.6
		C681.9,256.4,681.5,256.4,681.3,256.4z"/>
	<path d="M687.4,248.1c2.5,0,4,1.6,4,4.3c0,2.7-1.5,4.3-4,4.3s-4-1.6-4-4.3C683.3,249.7,684.9,248.1,687.4,248.1z M687.4,254.8
		c1.2,0,1.9-0.9,1.9-2.5s-0.7-2.5-1.9-2.5c-1.2,0-1.9,0.9-1.9,2.5S686.2,254.8,687.4,254.8z"/>
	<path d="M699.5,256.3h-2.2v-10.8h4.8c2.3,0,3.4,1.2,3.4,3.5c0,2.2-1.2,3.5-3.3,3.5h-2.7V256.3z M701.7,250.5c1.1,0,1.7-0.5,1.7-1.6
		c0-1-0.5-1.6-1.5-1.6h-2.3v3.1H701.7z"/>
	<path d="M708.7,256.6c-1.5,0-2.4-0.9-2.4-2.5c0-1.6,0.8-2.2,2.7-2.5c1.6-0.3,2.2-0.1,2.2-0.9c0-0.7-0.4-0.9-1.3-0.9
		c-0.9,0-1.3,0.4-1.3,1c0,0,0,0.1,0,0.1h-2c0,0,0-0.1,0-0.2c0-1.6,1.2-2.6,3.3-2.6c2.2,0,3.5,0.8,3.5,2.2v4.5c0,0.6,0.1,0.9,0.4,1.1
		v0.4h-2.2c-0.1-0.3-0.2-0.6-0.2-1C710.8,256.2,709.9,256.6,708.7,256.6z M709.3,253c-0.7,0.2-1,0.5-1,1.1c0,0.6,0.4,1,1,1
		c1.2,0,1.9-0.7,1.9-1.8v-0.8C710.4,252.8,709.8,252.8,709.3,253z"/>
	<path d="M717.5,256.4c-1.8,0-2.1-0.6-2.1-2.3v-4.3h-1v-1.5h1v-2.2h2.1v2.2h1.2v1.5h-1.2v4.4c0,0.4,0.1,0.5,0.7,0.5h0.5v1.6
		C718.1,256.4,717.7,256.4,717.5,256.4z"/>
	<path d="M720,245.6h2.1v1.9H720V245.6z M720,248.4h2.1v8H720V248.4z"/>
	<path d="M731,253.9c-0.4,1.7-1.8,2.7-3.7,2.7c-2.3,0-3.7-1.6-3.7-4.3c0-2.6,1.4-4.2,3.7-4.2c2.4,0,3.8,1.5,3.8,4.3
		c0,0.2,0,0.4,0,0.6h-5.3c0.1,1.2,0.6,1.9,1.7,1.9c0.7,0,1.2-0.3,1.5-0.9H731z M728.9,251.5c0-1.1-0.6-1.6-1.6-1.6
		c-0.9,0-1.5,0.6-1.6,1.6H728.9z"/>
	<path d="M732.5,248.4h2.1v0.9c0.6-0.8,1.4-1.2,2.4-1.2c1.8,0,2.6,0.9,2.6,2.7v5.4h-2.1v-4.8c0-1.1-0.3-1.6-1.2-1.6
		c-1,0-1.6,0.6-1.6,1.7v4.7h-2.1V248.4z"/>
	<path d="M743.8,256.4c-1.8,0-2.1-0.6-2.1-2.3v-4.3h-1v-1.5h1v-2.2h2.1v2.2h1.2v1.5h-1.2v4.4c0,0.4,0.1,0.5,0.7,0.5h0.5v1.6
		C744.5,256.4,744.1,256.4,743.8,256.4z"/>
	<path d="M750.7,245.6h7.8v1.9h-5.6v2.3h5.2v1.8h-5.2v2.8h5.9v2h-8.1V245.6z"/>
	<path d="M760.3,248.4h2.1v0.9c0.6-0.8,1.4-1.2,2.4-1.2c1.8,0,2.6,0.9,2.6,2.7v5.4h-2.1v-4.8c0-1.1-0.3-1.6-1.2-1.6
		c-1,0-1.6,0.6-1.6,1.7v4.7h-2.1V248.4z"/>
	<path d="M771.4,257.1c0.1,0.5,0.6,0.8,1.3,0.8c1.4,0,1.8-0.6,1.8-2v-0.7c-0.5,0.8-1.2,1.1-2.2,1.1c-2.1,0-3.4-1.6-3.4-4
		c0-2.6,1.4-4.2,3.4-4.2c1.1,0,1.8,0.4,2.3,1.2v-1h2v7.4c0,1.4-0.2,2.3-1,3c-0.6,0.5-1.6,0.8-2.9,0.8c-2.1,0-3.4-0.9-3.5-2.5H771.4z
		 M772.8,254.6c1.1,0,1.7-0.8,1.7-2.4c0-1.5-0.6-2.3-1.8-2.3c-1.1,0-1.7,0.8-1.7,2.3C771,253.7,771.7,254.6,772.8,254.6z"/>
	<path d="M780.4,256.6c-1.5,0-2.4-0.9-2.4-2.5c0-1.6,0.8-2.2,2.7-2.5c1.6-0.3,2.2-0.1,2.2-0.9c0-0.7-0.4-0.9-1.3-0.9
		c-0.9,0-1.3,0.4-1.3,1c0,0,0,0.1,0,0.1h-2c0,0,0-0.1,0-0.2c0-1.6,1.2-2.6,3.3-2.6c2.2,0,3.5,0.8,3.5,2.2v4.5c0,0.6,0.1,0.9,0.4,1.1
		v0.4h-2.2c-0.1-0.3-0.2-0.6-0.2-1C782.5,256.2,781.6,256.6,780.4,256.6z M781.1,253c-0.7,0.2-1,0.5-1,1.1c0,0.6,0.4,1,1,1
		c1.2,0,1.9-0.7,1.9-1.8v-0.8C782.2,252.8,781.5,252.8,781.1,253z"/>
	<path d="M789,257.1c0.1,0.5,0.6,0.8,1.3,0.8c1.4,0,1.8-0.6,1.8-2v-0.7c-0.5,0.8-1.2,1.1-2.2,1.1c-2.1,0-3.4-1.6-3.4-4
		c0-2.6,1.4-4.2,3.4-4.2c1.1,0,1.8,0.4,2.3,1.2v-1h2v7.4c0,1.4-0.2,2.3-1,3c-0.6,0.5-1.6,0.8-2.9,0.8c-2.1,0-3.4-0.9-3.5-2.5H789z
		 M790.3,254.6c1.1,0,1.7-0.8,1.7-2.4c0-1.5-0.6-2.3-1.8-2.3c-1.1,0-1.7,0.8-1.7,2.3C788.6,253.7,789.2,254.6,790.3,254.6z"/>
	<path d="M803,253.9c-0.4,1.7-1.8,2.7-3.7,2.7c-2.3,0-3.7-1.6-3.7-4.3c0-2.6,1.4-4.2,3.7-4.2c2.4,0,3.8,1.5,3.8,4.3
		c0,0.2,0,0.4,0,0.6h-5.3c0.1,1.2,0.6,1.9,1.7,1.9c0.7,0,1.2-0.3,1.5-0.9H803z M800.9,251.5c0-1.1-0.6-1.6-1.6-1.6
		c-0.9,0-1.5,0.6-1.6,1.6H800.9z"/>
	<path d="M804.6,248.4h2v0.9c0.6-0.7,1.3-1.1,2.2-1.1c1,0,1.7,0.4,2.2,1.2c0.6-0.8,1.3-1.2,2.3-1.2c1.6,0,2.6,1,2.6,2.6v5.6h-2.1
		v-5.1c0-0.8-0.4-1.2-1.2-1.2c-0.8,0-1.3,0.6-1.3,1.5v4.8h-2.1v-5.1c0-0.8-0.4-1.2-1.2-1.2c-0.8,0-1.3,0.6-1.3,1.5v4.8h-2.1V248.4z"
		/>
	<path d="M824.8,253.9c-0.4,1.7-1.8,2.7-3.7,2.7c-2.3,0-3.7-1.6-3.7-4.3c0-2.6,1.4-4.2,3.7-4.2c2.4,0,3.8,1.5,3.8,4.3
		c0,0.2,0,0.4,0,0.6h-5.3c0.1,1.2,0.6,1.9,1.7,1.9c0.7,0,1.2-0.3,1.5-0.9H824.8z M822.7,251.5c0-1.1-0.6-1.6-1.6-1.6
		c-0.9,0-1.5,0.6-1.6,1.6H822.7z"/>
	<path d="M826.3,248.4h2.1v0.9c0.6-0.8,1.4-1.2,2.4-1.2c1.8,0,2.6,0.9,2.6,2.7v5.4h-2.1v-4.8c0-1.1-0.3-1.6-1.2-1.6
		c-1,0-1.6,0.6-1.6,1.7v4.7h-2.1V248.4z"/>
	<path d="M837.5,256.4c-1.8,0-2.1-0.6-2.1-2.3v-4.3h-1v-1.5h1v-2.2h2.1v2.2h1.2v1.5h-1.2v4.4c0,0.4,0.1,0.5,0.7,0.5h0.5v1.6
		C838.2,256.4,837.8,256.4,837.5,256.4z"/>
</g>
</svg>
