<?xml version="1.0" encoding="utf-8"?>
<!-- Generator: Adobe Illustrator 23.0.1, SVG Export Plug-In . SVG Version: 6.00 Build 0)  -->
<svg version="1.1" id="Layer_1" xmlns="http://www.w3.org/2000/svg" xmlns:xlink="http://www.w3.org/1999/xlink" x="0px" y="0px"
	 viewBox="0 0 50 50" style="enable-background:new 0 0 50 50;" xml:space="preserve">
<style type="text/css">
	.st0{fill:url(#SVGID_1_);}
	.st1{fill:none;}
	.st2{fill:#FFFFFF;}
	.st3{fill:#4D4D4D;}
	.st4{fill:#E03E1A;}
</style>
<g>
	
		<radialGradient id="SVGID_1_" cx="31.7486" cy="4835.3774" r="22.4084" gradientTransform="matrix(1.0492 0 0 -0.1486 -8.3106 765.2071)" gradientUnits="userSpaceOnUse">
		<stop  offset="0" style="stop-color:#B3B3B3"/>
		<stop  offset="1" style="stop-color:#FFFFFF;stop-opacity:0"/>
	</radialGradient>
	<path class="st0" d="M48.5,46.7c0-1.8-10.5-3.3-23.5-3.3c-13,0-23.5,1.5-23.5,3.3C1.5,48.5,12,50,25,50S48.5,48.5,48.5,46.7z"/>
	<path class="st1" d="M48.5,46.7c0-1.8-10.5-3.3-23.5-3.3c-13,0-23.5,1.5-23.5,3.3C1.5,48.5,12,50,25,50S48.5,48.5,48.5,46.7z"/>
	<g>
		<polygon class="st2" points="30.2,0.8 30.6,9.2 38.2,9.5 		"/>
		<path class="st3" d="M30.4,0H14.6c-1.8,0-3.2,1.5-3.2,3.4v3.1h1.4V3.4c0-1.1,0.8-2,1.8-2h14.8v6.4c0,1.4,1,2.5,2.4,2.5h5.8v23.4
			c0,1.1-0.8,2-1.8,2h-2l-1.1,1.4h3.2c1.8,0,3.2-1.5,3.2-3.4V9.3L30.4,0z M31.8,8.9c-0.5,0-0.9-0.5-0.9-1.1V2.5l5.8,6.3L31.8,8.9
			L31.8,8.9z M23.9,35.7h-9.3c-1,0-1.8-0.9-1.8-2V16.5h-1.4v17.3c0,1.9,1.4,3.4,3.2,3.4H25L23.9,35.7z"/>
		<rect x="8" y="7.5" class="st2" width="19" height="8"/>
		<rect x="8" y="7.5" class="st4" width="19" height="8"/>
		<path class="st4" d="M22.8,31.4c-0.2,0-0.3,0.1-0.4,0.3s-0.1,0.3,0,0.5l6,7.8c0.1,0.1,0.2,0.2,0.4,0.2s0.3-0.1,0.4-0.2l6-7.8
			c0.1-0.1,0.1-0.3,0-0.5s-0.2-0.3-0.4-0.3h-2.2c-0.1,0-0.2-0.1-0.2-0.2v-8.4c0-0.3-0.2-0.5-0.5-0.5h-6.2c-0.3,0-0.5,0.2-0.5,0.5
			v8.4c0,0.1-0.1,0.2-0.2,0.2C25,31.4,22.8,31.4,22.8,31.4z"/>
		<g>
			<path class="st2" d="M11,9c0.4-0.1,0.9-0.1,1.6-0.1c0.7,0,1.2,0.1,1.6,0.4c0.3,0.3,0.6,0.7,0.6,1.2c0,0.5-0.2,0.9-0.5,1.2
				c-0.4,0.4-1,0.5-1.7,0.5c-0.1,0-0.3,0-0.4,0V14H11V9z M12.2,11.3c0.1,0,0.2,0,0.4,0c0.6,0,1-0.3,1-0.8c0-0.5-0.3-0.8-0.9-0.8
				c-0.2,0-0.4,0-0.5,0.1C12.2,9.8,12.2,11.3,12.2,11.3z"/>
			<path class="st2" d="M15.4,9c0.4-0.1,1-0.1,1.6-0.1c1,0,1.6,0.2,2.1,0.6c0.5,0.4,0.9,1,0.9,1.9c0,1-0.4,1.7-0.9,2.1
				c-0.5,0.4-1.4,0.7-2.4,0.7c-0.6,0-1,0-1.3-0.1C15.4,14,15.4,9,15.4,9z M16.6,13.2c0.1,0,0.3,0,0.4,0c1,0,1.7-0.6,1.7-1.8
				c0-1.1-0.6-1.6-1.6-1.6c-0.3,0-0.4,0-0.5,0.1C16.6,9.8,16.6,13.2,16.6,13.2z"/>
			<path class="st2" d="M20.8,8.9h3.1v0.9h-2V11h1.8V12h-1.8V14h-1.2V8.9z"/>
		</g>
	</g>
</g>
</svg>
