<?xml version="1.0" encoding="utf-8"?>
<!-- Generator: Adobe Illustrator 23.0.1, SVG Export Plug-In . SVG Version: 6.00 Build 0)  -->
<svg version="1.1" id="Layer_1" xmlns="http://www.w3.org/2000/svg" xmlns:xlink="http://www.w3.org/1999/xlink" x="0px" y="0px"
	 viewBox="0 0 800 383.08" style="enable-background:new 0 0 800 383.08;" xml:space="preserve">
<style type="text/css">
	.st0{fill:#B1D577;stroke:#8EB84A;stroke-width:0.5;stroke-miterlimit:10;}
	.st1{fill:#2B621D;stroke:#2B621D;stroke-width:0.5;stroke-miterlimit:10;}
	.st2{fill:none;stroke:#CCCCCC;stroke-width:0.5;stroke-miterlimit:10;}
	.st3{fill:none;}
	.st4{fill:#FFFFFF;}
</style>
<g>
	<g>
		<rect x="156.81" y="337.34" class="st0" width="188.18" height="26.57"/>
	</g>
</g>
<g>
	<g>
		<rect x="196.19" y="288.63" class="st0" width="148.79" height="26.57"/>
	</g>
</g>
<g>
	<g>
		<rect x="256.16" y="239.91" class="st0" width="88.82" height="26.57"/>
	</g>
</g>
<g>
	<g>
		<rect x="249.19" y="191.2" class="st0" width="95.79" height="26.57"/>
	</g>
</g>
<g>
	<g>
		<rect x="55.99" y="142.48" class="st0" width="288.99" height="26.57"/>
	</g>
</g>
<g>
	<g>
		<rect x="173.66" y="93.76" class="st0" width="171.32" height="26.57"/>
	</g>
</g>
<g>
	<g>
		<rect x="162.48" y="45.05" class="st0" width="182.5" height="26.57"/>
	</g>
</g>
<g>
	<g>
	</g>
	<g>
	</g>
	<g>
	</g>
	<g>
	</g>
	<g>
	</g>
	<g>
	</g>
	<g>
	</g>
</g>
<g>
	<g>
		<rect x="450.19" y="337.34" class="st1" width="160.46" height="26.57"/>
	</g>
</g>
<g>
	<g>
		<rect x="450.19" y="288.63" class="st1" width="131.29" height="26.57"/>
	</g>
</g>
<g>
	<g>
		<rect x="450.19" y="239.91" class="st1" width="160.46" height="26.57"/>
	</g>
</g>
<g>
	<g>
		<rect x="450.19" y="191.2" class="st1" width="71.32" height="26.57"/>
	</g>
</g>
<g>
	<g>
		<rect x="450.19" y="142.48" class="st1" width="318.49" height="26.57"/>
	</g>
</g>
<g>
	<g>
		<rect x="450.19" y="93.76" class="st1" width="147.49" height="26.57"/>
	</g>
</g>
<g>
	<g>
		<rect x="450.19" y="45.05" class="st1" width="158.03" height="26.57"/>
	</g>
</g>
<g>
	<g>
	</g>
	<g>
	</g>
	<g>
	</g>
	<g>
	</g>
	<g>
	</g>
	<g>
	</g>
	<g>
	</g>
</g>
<line class="st2" x1="17.69" y1="78.32" x2="777.18" y2="78.32"/>
<line class="st2" x1="17.69" y1="127.83" x2="777.18" y2="127.83"/>
<line class="st2" x1="17.69" y1="177.34" x2="777.18" y2="177.34"/>
<line class="st2" x1="17.69" y1="226.85" x2="777.18" y2="226.85"/>
<line class="st2" x1="17.69" y1="276.36" x2="777.18" y2="276.36"/>
<line class="st2" x1="17.69" y1="325.88" x2="777.18" y2="325.88"/>
<line class="st2" x1="17.69" y1="375.39" x2="777.18" y2="375.39"/>
<g>
	<rect x="345.95" y="51.49" class="st3" width="102.97" height="17.81"/>
	<path d="M378.8,51.49h1.28l2.49,9.02h-1.02l-0.68-2.6h-2.85l-0.66,2.6h-1.02L378.8,51.49z M380.64,57l-1.2-4.73l-1.2,4.73H380.64z"
		/>
	<path d="M383.46,51.49h0.94v9.02h-0.94V51.49z"/>
	<path d="M385.82,51.49h0.94v9.02h-0.94V51.49z"/>
	<path d="M391.25,51.49h2.53c1.85,0,2.76,0.74,2.76,2.31c0,1.21-0.54,1.92-1.68,2.21c1.01,0.08,1.48,0.62,1.58,1.79
		c0.13,1.39,0.04,2.29,0.54,2.71h-1.25c-0.26-0.43-0.2-1.24-0.3-2.39c-0.11-1.27-0.56-1.62-1.92-1.62h-1.28v4.01h-0.98V51.49z
		 M393.46,55.63c1.38,0,2.05-0.5,2.05-1.68c0-1.13-0.59-1.57-1.86-1.57h-1.42v3.25H393.46z"/>
	<path d="M401.78,60.58c-0.53,0-0.85-0.35-0.88-0.97c-0.29,0.7-0.85,1.07-1.6,1.07c-0.97,0-1.55-0.68-1.55-1.87
		c0-1.39,0.64-1.75,2-2.21c0.79-0.26,1.06-0.35,1.06-0.82v-0.62c0-0.56-0.32-0.79-1-0.79c-0.67,0-1,0.34-1,1.07
		c0,0.04,0,0.08,0,0.12h-0.89c0.02-1.38,0.62-1.98,1.99-1.98c1.27,0,1.85,0.55,1.85,1.81v3.95c0,0.35,0.12,0.49,0.4,0.49
		c0.05,0,0.1-0.01,0.16-0.02v0.72C402.13,60.56,401.95,60.58,401.78,60.58z M399.77,57.43c-0.72,0.25-1.06,0.47-1.06,1.37
		c0,0.67,0.31,1.06,0.85,1.06c0.76,0,1.28-0.61,1.28-1.64v-1.33C400.6,57.14,400.23,57.26,399.77,57.43z"/>
	<path d="M407.49,58.14c0,1.64-0.79,2.55-2.15,2.55c-1.51,0-2.21-1.18-2.21-3.6c0-2.34,0.73-3.5,2.27-3.5
		c1.25,0,2.04,0.82,2.04,2.15c0,0.05,0,0.1,0,0.14h-0.92c-0.04-0.96-0.42-1.45-1.08-1.45c-0.97,0-1.28,0.84-1.28,2.7
		c0,1.87,0.31,2.72,1.29,2.72c0.7,0,1.09-0.59,1.12-1.71H407.49z"/>
	<path d="M412.83,58.23c-0.01,1.6-0.76,2.46-2.08,2.46c-1.46,0-2.12-1.13-2.12-3.48c0-2.46,0.64-3.63,2.15-3.63
		c1.42,0,2.07,1,2.07,3.01c0,0.19,0,0.38-0.01,0.59h-3.24c0,0.17,0,0.28,0,0.3c0,1.63,0.35,2.42,1.22,2.42
		c0.65,0,1.08-0.6,1.08-1.62c0-0.02,0-0.04,0-0.05H412.83z M411.9,56.41c0-0.06,0-0.12,0-0.18c0-1.25-0.37-1.87-1.09-1.87
		c-0.82,0-1.2,0.67-1.2,2.05H411.9z"/>
	<path d="M414.86,58.49c-0.01,0.08-0.02,0.16-0.02,0.23c0,0.73,0.42,1.13,1.22,1.13c0.73,0,1.17-0.42,1.17-1.09
		c0-0.8-0.44-0.95-1.25-1.22c-1.38-0.48-1.96-0.83-1.96-2.07c0-1.16,0.72-1.87,1.97-1.87c1.31,0,1.98,0.64,1.98,1.87
		c0,0.04,0,0.06,0,0.1h-0.9c-0.04-0.82-0.35-1.16-1.04-1.16c-0.73,0-1.1,0.35-1.1,1.03c0,0.3,0.1,0.55,0.29,0.71
		c0.38,0.32,0.98,0.42,1.66,0.68c0.92,0.36,1.29,0.86,1.29,1.77c0,1.36-0.82,2.11-2.24,2.11c-1.32,0-2-0.71-2-2.06
		c0-0.05,0-0.1,0-0.14H414.86z"/>
</g>
<g>
	<rect x="345.95" y="100.93" class="st3" width="102.97" height="17.81"/>
	<path d="M384.7,100.94h1.04l1.42,7.63l1.6-7.63h1.15l1.56,7.57l1.44-7.57h0.98l-1.91,9.02h-1.08l-1.58-7.36l-1.61,7.36h-1.1
		L384.7,100.94z"/>
	<path d="M394.77,100.94h0.95v3.01c0.35-0.59,0.88-0.88,1.63-0.88c1.04,0,1.64,0.56,1.64,1.52v5.36h-0.95v-4.91
		c0-0.78-0.26-1.14-0.95-1.14c-0.82,0-1.38,0.55-1.38,1.48v4.57h-0.95V100.94z"/>
	<path d="M400.4,100.94h0.97v1.22h-0.97V100.94z M400.4,103.22h0.97v6.74h-0.97V103.22z"/>
	<path d="M404.75,109.25c0.06,0,0.13,0,0.22-0.01v0.83c-0.31,0.01-0.55,0.02-0.7,0.02c-0.89,0-1.32-0.35-1.32-1.07V104h-0.94v-0.78
		h0.94v-1.8h0.92v1.8h1.09V104h-1.09v4.57C403.88,109.18,404.06,109.25,404.75,109.25z"/>
	<path d="M409.76,107.68c-0.01,1.6-0.76,2.46-2.08,2.46c-1.46,0-2.12-1.13-2.12-3.48c0-2.46,0.64-3.63,2.15-3.63
		c1.42,0,2.07,1,2.07,3.01c0,0.19,0,0.38-0.01,0.59h-3.24c0,0.17,0,0.28,0,0.3c0,1.63,0.35,2.42,1.22,2.42
		c0.65,0,1.08-0.6,1.08-1.62c0-0.02,0-0.04,0-0.05H409.76z M408.82,105.86c0-0.06,0-0.12,0-0.18c0-1.25-0.37-1.87-1.09-1.87
		c-0.82,0-1.2,0.67-1.2,2.05H408.82z"/>
</g>
<g>
	<rect x="345.95" y="149.68" class="st3" width="102.97" height="17.81"/>
	<path d="M385.84,149.69h2.35c1.67,0,2.41,0.66,2.41,2.25c0,1.08-0.41,1.73-1.25,1.97c1.06,0.22,1.54,0.94,1.54,2.21
		c0,1.66-0.95,2.59-2.6,2.59h-2.45V149.69z M387.86,153.52c1.22,0,1.71-0.38,1.71-1.56c0-1.14-0.52-1.48-1.77-1.48h-1v3.03H387.86z
		 M388.09,157.82c1.22,0,1.73-0.48,1.73-1.65c0-1.33-0.53-1.81-1.91-1.81h-1.1v3.47H388.09z"/>
	<path d="M392.23,149.69h0.94v9.02h-0.94V149.69z"/>
	<path d="M398.42,158.78c-0.53,0-0.85-0.35-0.88-0.97c-0.29,0.7-0.85,1.07-1.6,1.07c-0.97,0-1.55-0.68-1.55-1.87
		c0-1.39,0.64-1.75,2-2.21c0.79-0.26,1.06-0.35,1.06-0.82v-0.62c0-0.56-0.32-0.79-1-0.79c-0.67,0-1,0.34-1,1.07
		c0,0.04,0,0.08,0,0.12h-0.89c0.02-1.38,0.62-1.98,1.99-1.98c1.27,0,1.85,0.55,1.85,1.81v3.95c0,0.35,0.12,0.49,0.4,0.49
		c0.05,0,0.1-0.01,0.16-0.02v0.72C398.77,158.75,398.59,158.78,398.42,158.78z M396.41,155.62c-0.72,0.25-1.06,0.47-1.06,1.37
		c0,0.67,0.31,1.06,0.85,1.06c0.76,0,1.28-0.61,1.28-1.64v-1.33C397.25,155.34,396.88,155.46,396.41,155.62z"/>
	<path d="M404.14,156.33c0,1.64-0.79,2.55-2.15,2.55c-1.51,0-2.21-1.18-2.21-3.6c0-2.34,0.73-3.5,2.27-3.5
		c1.25,0,2.04,0.82,2.04,2.15c0,0.05,0,0.1,0,0.14h-0.92c-0.04-0.96-0.42-1.45-1.08-1.45c-0.97,0-1.28,0.84-1.28,2.7
		c0,1.87,0.31,2.72,1.3,2.72c0.7,0,1.09-0.59,1.12-1.71H404.14z"/>
	<path d="M405.47,149.69h0.91v5.34l2.3-3.06h1.1l-2.01,2.55l2.17,4.19h-1.15l-1.67-3.32l-0.74,0.92v2.4h-0.91V149.69z"/>
</g>
<g>
	<rect x="345.95" y="190.25" class="st3" width="102.97" height="25.7"/>
	<path d="M385.75,190.25h1.28l2.49,9.02h-1.02l-0.68-2.6h-2.85l-0.66,2.6h-1.02L385.75,190.25z M387.6,195.76l-1.2-4.73l-1.2,4.73
		H387.6z"/>
	<path d="M391.19,197.25c-0.01,0.08-0.02,0.16-0.02,0.23c0,0.73,0.42,1.13,1.22,1.13c0.73,0,1.18-0.42,1.18-1.09
		c0-0.8-0.44-0.95-1.25-1.22c-1.38-0.48-1.96-0.83-1.96-2.07c0-1.16,0.72-1.87,1.97-1.87c1.31,0,1.98,0.64,1.98,1.87
		c0,0.04,0,0.06,0,0.1h-0.9c-0.04-0.82-0.35-1.16-1.04-1.16c-0.73,0-1.1,0.35-1.1,1.03c0,0.3,0.1,0.55,0.29,0.71
		c0.38,0.32,0.98,0.42,1.66,0.68c0.92,0.36,1.29,0.86,1.29,1.77c0,1.36-0.82,2.11-2.24,2.11c-1.32,0-2-0.71-2-2.06
		c0-0.05,0-0.1,0-0.14H391.19z"/>
	<path d="M395.75,190.25h0.97v1.22h-0.97V190.25z M395.75,192.53h0.97v6.74h-0.97V192.53z"/>
	<path d="M401.98,199.34c-0.53,0-0.85-0.35-0.88-0.97c-0.29,0.7-0.85,1.07-1.6,1.07c-0.97,0-1.55-0.68-1.55-1.87
		c0-1.39,0.64-1.75,2-2.21c0.79-0.26,1.06-0.35,1.06-0.82v-0.62c0-0.56-0.32-0.79-1-0.79c-0.67,0-1,0.34-1,1.07
		c0,0.04,0,0.08,0,0.12h-0.89c0.02-1.38,0.62-1.98,1.99-1.98c1.27,0,1.85,0.55,1.85,1.81v3.95c0,0.35,0.12,0.49,0.4,0.49
		c0.05,0,0.1-0.01,0.16-0.02v0.72C402.32,199.32,402.14,199.34,401.98,199.34z M399.96,196.19c-0.72,0.25-1.06,0.47-1.06,1.37
		c0,0.67,0.31,1.06,0.85,1.06c0.76,0,1.28-0.61,1.28-1.64v-1.33C400.8,195.9,400.43,196.02,399.96,196.19z"/>
	<path d="M403.5,192.53h0.89v0.84c0.32-0.66,0.89-0.98,1.69-0.98c1.27,0,1.64,0.64,1.64,2v4.88h-0.95v-4.95
		c0-0.73-0.3-1.09-0.95-1.09c-0.83,0-1.38,0.55-1.38,1.48v4.57h-0.95V192.53z"/>
	<path d="M408.61,200.39h-0.65l3.21-10.35h0.65L408.61,200.39z"/>
	<path d="M363.72,204.65h2.31c1.93,0,2.83,0.74,2.83,2.52c0,1.79-0.96,2.71-2.79,2.71h-1.34v3.79h-1.01V204.65z M366.05,208.97
		c1.22,0,1.77-0.56,1.77-1.81c0-1.18-0.58-1.63-1.83-1.63h-1.26v3.44H366.05z"/>
	<path d="M373.43,213.74c-0.53,0-0.85-0.35-0.88-0.97c-0.29,0.7-0.85,1.07-1.6,1.07c-0.97,0-1.55-0.68-1.55-1.87
		c0-1.39,0.64-1.75,2-2.21c0.79-0.26,1.06-0.35,1.06-0.82v-0.62c0-0.56-0.32-0.79-1-0.79c-0.67,0-1,0.34-1,1.07
		c0,0.04,0,0.08,0,0.12h-0.89c0.02-1.38,0.62-1.98,1.99-1.98c1.27,0,1.85,0.55,1.85,1.81v3.95c0,0.35,0.12,0.49,0.4,0.49
		c0.05,0,0.1-0.01,0.16-0.02v0.72C373.78,213.72,373.6,213.74,373.43,213.74z M371.42,210.59c-0.72,0.25-1.06,0.47-1.06,1.37
		c0,0.67,0.31,1.06,0.85,1.06c0.76,0,1.28-0.61,1.28-1.64v-1.33C372.26,210.3,371.88,210.42,371.42,210.59z"/>
	<path d="M379.14,211.3c0,1.64-0.79,2.55-2.15,2.55c-1.51,0-2.21-1.18-2.21-3.6c0-2.34,0.73-3.5,2.27-3.5
		c1.25,0,2.04,0.82,2.04,2.15c0,0.05,0,0.1,0,0.14h-0.92c-0.04-0.96-0.42-1.45-1.08-1.45c-0.97,0-1.28,0.84-1.28,2.7
		c0,1.87,0.31,2.72,1.29,2.72c0.7,0,1.09-0.59,1.12-1.71H379.14z"/>
	<path d="M380.47,204.65h0.97v1.22h-0.97V204.65z M380.47,206.93h0.97v6.74h-0.97V206.93z"/>
	<path d="M383.12,207.7h-0.95v-0.77h0.95v-0.91c0-0.98,0.49-1.42,1.59-1.42c0.14,0,0.28,0.02,0.4,0.05v0.84
		c-0.13-0.02-0.25-0.04-0.38-0.04c-0.46,0-0.64,0.16-0.64,0.6v0.88h1.02v0.77h-1.02v5.97h-0.97V207.7z"/>
	<path d="M385.97,204.65h0.97v1.22h-0.97V204.65z M385.97,206.93h0.97v6.74h-0.97V206.93z"/>
	<path d="M392.56,211.3c0,1.64-0.79,2.55-2.15,2.55c-1.51,0-2.21-1.18-2.21-3.6c0-2.34,0.73-3.5,2.27-3.5
		c1.25,0,2.04,0.82,2.04,2.15c0,0.05,0,0.1,0,0.14h-0.92c-0.04-0.96-0.42-1.45-1.08-1.45c-0.97,0-1.28,0.84-1.28,2.7
		c0,1.87,0.31,2.72,1.29,2.72c0.7,0,1.09-0.59,1.12-1.71H392.56z"/>
	<path d="M396.96,204.65H398v9.02h-1.03V204.65z"/>
	<path d="M400.28,211.65c-0.01,0.08-0.02,0.16-0.02,0.23c0,0.73,0.42,1.13,1.22,1.13c0.73,0,1.18-0.42,1.18-1.09
		c0-0.8-0.44-0.95-1.25-1.22c-1.38-0.48-1.96-0.83-1.96-2.07c0-1.16,0.72-1.87,1.97-1.87c1.31,0,1.98,0.64,1.98,1.87
		c0,0.04,0,0.06,0,0.1h-0.9c-0.04-0.82-0.35-1.16-1.04-1.16c-0.73,0-1.1,0.35-1.1,1.03c0,0.3,0.1,0.55,0.29,0.71
		c0.38,0.32,0.98,0.42,1.66,0.68c0.92,0.36,1.3,0.86,1.3,1.77c0,1.36-0.82,2.11-2.24,2.11c-1.32,0-2-0.71-2-2.06
		c0-0.05,0-0.1,0-0.14H400.28z"/>
	<path d="M404.84,204.65h0.94v9.02h-0.94V204.65z"/>
	<path d="M411.03,213.74c-0.53,0-0.85-0.35-0.88-0.97c-0.29,0.7-0.85,1.07-1.59,1.07c-0.97,0-1.55-0.68-1.55-1.87
		c0-1.39,0.64-1.75,2-2.21c0.79-0.26,1.06-0.35,1.06-0.82v-0.62c0-0.56-0.32-0.79-1-0.79s-1,0.34-1,1.07c0,0.04,0,0.08,0,0.12h-0.89
		c0.02-1.38,0.62-1.98,1.99-1.98c1.27,0,1.85,0.55,1.85,1.81v3.95c0,0.35,0.12,0.49,0.4,0.49c0.05,0,0.1-0.01,0.16-0.02v0.72
		C411.37,213.72,411.19,213.74,411.03,213.74z M409.01,210.59c-0.72,0.25-1.05,0.47-1.05,1.37c0,0.67,0.31,1.06,0.85,1.06
		c0.75,0,1.28-0.61,1.28-1.64v-1.33C409.85,210.3,409.48,210.42,409.01,210.59z"/>
	<path d="M412.55,206.93h0.89v0.84c0.32-0.66,0.89-0.98,1.69-0.98c1.27,0,1.64,0.64,1.64,2v4.88h-0.95v-4.95
		c0-0.73-0.3-1.09-0.95-1.09c-0.83,0-1.38,0.55-1.38,1.48v4.57h-0.95V206.93z"/>
	<path d="M421.6,213.67v-0.85c-0.17,0.59-0.73,0.98-1.46,0.98c-1.37,0-2.13-1.26-2.13-3.72c0-2.15,0.8-3.31,2.09-3.31
		c0.72,0,1.31,0.36,1.45,0.85v-2.97h0.95v9.02H421.6z M420.33,207.62c-0.9,0-1.29,0.85-1.29,2.57c0,1.88,0.35,2.78,1.26,2.78
		c1,0,1.31-0.89,1.31-2.71C421.6,208.47,421.33,207.62,420.33,207.62z"/>
	<path d="M427.91,211.39c-0.01,1.6-0.76,2.46-2.08,2.46c-1.46,0-2.12-1.13-2.12-3.48c0-2.46,0.64-3.63,2.15-3.63
		c1.42,0,2.07,1,2.07,3.01c0,0.19,0,0.38-0.01,0.59h-3.24c0,0.17,0,0.28,0,0.3c0,1.63,0.35,2.42,1.22,2.42
		c0.65,0,1.08-0.6,1.08-1.62c0-0.02,0-0.04,0-0.05H427.91z M426.97,209.57c0-0.06,0-0.12,0-0.18c0-1.25-0.37-1.87-1.09-1.87
		c-0.82,0-1.2,0.67-1.2,2.05H426.97z"/>
	<path d="M429.18,206.93h0.88v1.1c0.28-0.8,0.86-1.26,1.56-1.26c0.13,0,0.26,0,0.41,0.02v1.01c-0.11-0.06-0.23-0.08-0.37-0.08
		c-0.95,0-1.54,0.65-1.54,1.82v4.13h-0.94V206.93z"/>
</g>
<g>
	<rect x="345.95" y="239.76" class="st3" width="102.97" height="25.7"/>
	<path d="M361.62,239.77h1.28l2.49,9.02h-1.02l-0.68-2.6h-2.85l-0.66,2.6h-1.02L361.62,239.77z M363.46,245.27l-1.2-4.73l-1.2,4.73
		H363.46z"/>
	<path d="M366.3,242.04h0.88v0.82c0.36-0.64,0.96-0.97,1.77-0.97c0.76,0,1.26,0.35,1.45,0.98c0.4-0.66,0.97-0.98,1.75-0.98
		c1.09,0,1.69,0.59,1.69,1.65v5.24h-0.97v-4.65c0-0.96-0.16-1.4-0.95-1.4c-0.82,0-1.37,0.58-1.37,1.37v4.69h-0.97v-4.69
		c0-0.94-0.24-1.37-0.97-1.37c-0.82,0-1.39,0.54-1.39,1.32v4.74h-0.92V242.04z"/>
	<path d="M379.25,246.51c-0.01,1.59-0.76,2.46-2.08,2.46c-1.46,0-2.12-1.13-2.12-3.48c0-2.46,0.64-3.63,2.15-3.63
		c1.42,0,2.08,1,2.08,3.01c0,0.19,0,0.38-0.01,0.59h-3.24c0,0.17,0,0.28,0,0.3c0,1.63,0.35,2.42,1.22,2.42
		c0.65,0,1.08-0.6,1.08-1.62c0-0.02,0-0.04,0-0.05H379.25z M378.32,244.68c0-0.06,0-0.12,0-0.18c0-1.25-0.37-1.87-1.09-1.87
		c-0.82,0-1.2,0.67-1.2,2.05H378.32z"/>
	<path d="M380.53,242.04h0.88v1.1c0.28-0.8,0.86-1.26,1.56-1.26c0.13,0,0.26,0,0.41,0.02v1.01c-0.11-0.06-0.23-0.08-0.37-0.08
		c-0.95,0-1.54,0.65-1.54,1.82v4.13h-0.94V242.04z"/>
	<path d="M384.01,239.77h0.97v1.22h-0.97V239.77z M384.01,242.04h0.97v6.74h-0.97V242.04z"/>
	<path d="M390.59,246.41c0,1.64-0.79,2.55-2.15,2.55c-1.51,0-2.21-1.17-2.21-3.6c0-2.34,0.73-3.5,2.27-3.5
		c1.25,0,2.04,0.82,2.04,2.15c0,0.05,0,0.1,0,0.14h-0.92c-0.04-0.96-0.42-1.45-1.08-1.45c-0.97,0-1.28,0.84-1.28,2.7
		c0,1.87,0.31,2.72,1.29,2.72c0.7,0,1.09-0.59,1.12-1.71H390.59z"/>
	<path d="M395.75,248.86c-0.53,0-0.85-0.35-0.88-0.97c-0.29,0.7-0.85,1.07-1.6,1.07c-0.97,0-1.55-0.68-1.55-1.87
		c0-1.39,0.64-1.75,2-2.21c0.79-0.26,1.06-0.35,1.06-0.82v-0.62c0-0.56-0.32-0.79-1-0.79c-0.67,0-1,0.34-1,1.07
		c0,0.04,0,0.08,0,0.12h-0.89c0.02-1.38,0.62-1.98,1.99-1.98c1.27,0,1.85,0.55,1.85,1.81v3.95c0,0.35,0.12,0.49,0.4,0.49
		c0.05,0,0.1-0.01,0.16-0.02v0.72C396.1,248.83,395.92,248.86,395.75,248.86z M393.74,245.7c-0.72,0.25-1.06,0.47-1.06,1.37
		c0,0.67,0.31,1.06,0.85,1.06c0.76,0,1.28-0.61,1.28-1.64v-1.33C394.58,245.41,394.21,245.53,393.74,245.7z"/>
	<path d="M397.28,242.04h0.89v0.84c0.32-0.66,0.89-0.98,1.69-0.98c1.27,0,1.64,0.64,1.64,2v4.88h-0.95v-4.95
		c0-0.73-0.3-1.09-0.95-1.09c-0.83,0-1.38,0.55-1.38,1.48v4.57h-0.95V242.04z"/>
	<path d="M405.99,239.77h1.03v9.02h-1.03V239.77z"/>
	<path d="M408.55,242.04h0.89v0.84c0.32-0.66,0.89-0.98,1.69-0.98c1.27,0,1.64,0.64,1.64,2v4.88h-0.95v-4.95
		c0-0.73-0.3-1.09-0.95-1.09c-0.83,0-1.38,0.55-1.38,1.48v4.57h-0.95V242.04z"/>
	<path d="M417.59,248.78v-0.85c-0.17,0.59-0.73,0.98-1.46,0.98c-1.37,0-2.13-1.26-2.13-3.72c0-2.15,0.8-3.31,2.09-3.31
		c0.72,0,1.31,0.36,1.45,0.85v-2.97h0.95v9.02H417.59z M416.32,242.73c-0.9,0-1.29,0.85-1.29,2.57c0,1.88,0.35,2.78,1.26,2.78
		c1,0,1.31-0.89,1.31-2.71C417.59,243.58,417.33,242.73,416.32,242.73z"/>
	<path d="M419.89,239.77h0.97v1.22h-0.97V239.77z M419.89,242.04h0.97v6.74h-0.97V242.04z"/>
	<path d="M426.11,248.86c-0.53,0-0.85-0.35-0.88-0.97c-0.29,0.7-0.85,1.07-1.59,1.07c-0.97,0-1.55-0.68-1.55-1.87
		c0-1.39,0.64-1.75,2-2.21c0.79-0.26,1.06-0.35,1.06-0.82v-0.62c0-0.56-0.32-0.79-1-0.79s-1,0.34-1,1.07c0,0.04,0,0.08,0,0.12h-0.89
		c0.02-1.38,0.62-1.98,1.99-1.98c1.27,0,1.85,0.55,1.85,1.81v3.95c0,0.35,0.12,0.49,0.4,0.49c0.05,0,0.1-0.01,0.16-0.02v0.72
		C426.46,248.83,426.28,248.86,426.11,248.86z M424.1,245.7c-0.72,0.25-1.05,0.47-1.05,1.37c0,0.67,0.31,1.06,0.85,1.06
		c0.75,0,1.28-0.61,1.28-1.64v-1.33C424.94,245.41,424.56,245.53,424.1,245.7z"/>
	<path d="M427.64,242.04h0.89v0.84c0.32-0.66,0.89-0.98,1.69-0.98c1.27,0,1.64,0.64,1.64,2v4.88h-0.95v-4.95
		c0-0.73-0.3-1.09-0.95-1.09c-0.83,0-1.38,0.55-1.38,1.48v4.57h-0.95V242.04z"/>
	<path d="M432.75,249.9h-0.65l3.21-10.35h0.65L432.75,249.9z"/>
	<path d="M369.52,254.16h1.28l2.49,9.02h-1.02l-0.68-2.6h-2.85l-0.66,2.6h-1.02L369.52,254.16z M371.37,259.67l-1.2-4.72l-1.2,4.72
		H371.37z"/>
	<path d="M374.19,254.16h0.94v9.02h-0.94V254.16z"/>
	<path d="M380.38,263.26c-0.53,0-0.85-0.35-0.88-0.97c-0.29,0.7-0.85,1.07-1.6,1.07c-0.97,0-1.55-0.68-1.55-1.87
		c0-1.39,0.64-1.75,2-2.21c0.79-0.26,1.06-0.35,1.06-0.82v-0.62c0-0.56-0.32-0.79-1-0.79c-0.67,0-1,0.34-1,1.07
		c0,0.04,0,0.08,0,0.12h-0.89c0.02-1.38,0.62-1.98,1.99-1.98c1.27,0,1.85,0.55,1.85,1.81v3.95c0,0.35,0.12,0.49,0.4,0.49
		c0.05,0,0.1-0.01,0.16-0.02v0.72C380.73,263.23,380.55,263.26,380.38,263.26z M378.37,260.1c-0.72,0.25-1.06,0.47-1.06,1.37
		c0,0.67,0.31,1.05,0.85,1.05c0.76,0,1.28-0.61,1.28-1.64v-1.33C379.21,259.81,378.83,259.93,378.37,260.1z"/>
	<path d="M382.66,261.16c-0.01,0.08-0.02,0.16-0.02,0.23c0,0.73,0.42,1.13,1.22,1.13c0.73,0,1.18-0.42,1.18-1.09
		c0-0.8-0.44-0.95-1.25-1.22c-1.38-0.48-1.96-0.83-1.96-2.08c0-1.16,0.72-1.87,1.97-1.87c1.31,0,1.98,0.64,1.98,1.87
		c0,0.04,0,0.06,0,0.1h-0.9c-0.04-0.82-0.35-1.16-1.04-1.16c-0.73,0-1.1,0.35-1.1,1.03c0,0.3,0.1,0.55,0.29,0.71
		c0.38,0.32,0.98,0.42,1.66,0.68c0.92,0.36,1.29,0.86,1.29,1.77c0,1.36-0.82,2.11-2.24,2.11c-1.32,0-2-0.71-2-2.06
		c0-0.05,0-0.1,0-0.14H382.66z"/>
	<path d="M387.24,254.16h0.91v5.34l2.3-3.06h1.1l-2.01,2.55l2.17,4.19h-1.15l-1.67-3.32l-0.74,0.92v2.4h-0.91V254.16z"/>
	<path d="M396.15,263.26c-0.53,0-0.85-0.35-0.88-0.97c-0.29,0.7-0.85,1.07-1.6,1.07c-0.97,0-1.55-0.68-1.55-1.87
		c0-1.39,0.64-1.75,2-2.21c0.79-0.26,1.06-0.35,1.06-0.82v-0.62c0-0.56-0.32-0.79-1-0.79c-0.67,0-1,0.34-1,1.07
		c0,0.04,0,0.08,0,0.12h-0.89c0.02-1.38,0.62-1.98,1.99-1.98c1.27,0,1.85,0.55,1.85,1.81v3.95c0,0.35,0.12,0.49,0.4,0.49
		c0.05,0,0.1-0.01,0.16-0.02v0.72C396.5,263.23,396.32,263.26,396.15,263.26z M394.13,260.1c-0.72,0.25-1.06,0.47-1.06,1.37
		c0,0.67,0.31,1.05,0.85,1.05c0.76,0,1.28-0.61,1.28-1.64v-1.33C394.97,259.81,394.6,259.93,394.13,260.1z"/>
	<path d="M400.75,254.16h1.34l3.13,7.74l-0.1-7.74h0.97v9.02h-1.28l-3.18-7.96l0.08,7.96h-0.97V254.16z"/>
	<path d="M411.45,263.26c-0.53,0-0.85-0.35-0.88-0.97c-0.29,0.7-0.85,1.07-1.59,1.07c-0.97,0-1.55-0.68-1.55-1.87
		c0-1.39,0.64-1.75,2-2.21c0.79-0.26,1.06-0.35,1.06-0.82v-0.62c0-0.56-0.32-0.79-1-0.79c-0.67,0-1,0.34-1,1.07
		c0,0.04,0,0.08,0,0.12h-0.89c0.02-1.38,0.62-1.98,1.99-1.98c1.27,0,1.85,0.55,1.85,1.81v3.95c0,0.35,0.12,0.49,0.4,0.49
		c0.05,0,0.1-0.01,0.16-0.02v0.72C411.8,263.23,411.62,263.26,411.45,263.26z M409.43,260.1c-0.72,0.25-1.05,0.47-1.05,1.37
		c0,0.67,0.31,1.05,0.85,1.05c0.75,0,1.28-0.61,1.28-1.64v-1.33C410.27,259.81,409.9,259.93,409.43,260.1z"/>
	<path d="M414.93,262.48c0.06,0,0.13,0,0.22-0.01v0.83c-0.31,0.01-0.55,0.02-0.7,0.02c-0.89,0-1.32-0.35-1.32-1.07v-5.03h-0.94
		v-0.78h0.94v-1.8h0.92v1.8h1.09v0.78h-1.09v4.57C414.05,262.4,414.23,262.48,414.93,262.48z"/>
	<path d="M415.92,254.16h0.97v1.22h-0.97V254.16z M415.92,256.44h0.97v6.74h-0.97V256.44z"/>
	<path d="M417.79,256.44h1.03l1.32,5.29l1.38-5.29h0.98l-1.87,6.74h-1.02L417.79,256.44z"/>
	<path d="M427.43,260.9c-0.01,1.6-0.76,2.46-2.08,2.46c-1.46,0-2.12-1.13-2.12-3.48c0-2.46,0.64-3.63,2.15-3.63
		c1.42,0,2.07,1,2.07,3.01c0,0.19,0,0.38-0.01,0.59h-3.24c0,0.17,0,0.28,0,0.3c0,1.63,0.35,2.42,1.22,2.42
		c0.65,0,1.08-0.6,1.08-1.62c0-0.02,0-0.04,0-0.05H427.43z M426.5,259.08c0-0.06,0-0.12,0-0.18c0-1.25-0.37-1.87-1.09-1.87
		c-0.82,0-1.2,0.67-1.2,2.05H426.5z"/>
</g>
<g>
	<rect x="345.95" y="295.15" class="st3" width="102.97" height="17.81"/>
	<path d="M378.56,295.15h1.03v3.72h3.36v-3.72h1.03v9.02h-1.03v-4.39h-3.36v4.39h-1.03V295.15z"/>
	<path d="M385.5,295.15h0.97v1.22h-0.97V295.15z M385.5,297.43h0.97v6.74h-0.97V297.43z"/>
	<path d="M388.65,302.15c-0.01,0.08-0.02,0.16-0.02,0.23c0,0.73,0.42,1.13,1.22,1.13c0.73,0,1.18-0.42,1.18-1.09
		c0-0.8-0.44-0.95-1.25-1.22c-1.38-0.48-1.96-0.83-1.96-2.07c0-1.16,0.72-1.87,1.97-1.87c1.31,0,1.98,0.64,1.98,1.87
		c0,0.04,0,0.06,0,0.1h-0.9c-0.04-0.82-0.35-1.16-1.04-1.16c-0.73,0-1.1,0.35-1.1,1.03c0,0.3,0.1,0.55,0.29,0.71
		c0.38,0.32,0.98,0.42,1.66,0.68c0.92,0.36,1.29,0.86,1.29,1.78c0,1.36-0.82,2.11-2.24,2.11c-1.32,0-2-0.71-2-2.06
		c0-0.05,0-0.1,0-0.14H388.65z"/>
	<path d="M393.22,297.43h0.91v0.85c0.14-0.59,0.74-1.01,1.43-1.01c1.42,0,2.14,1.17,2.14,3.51c0,2.39-0.62,3.53-2.05,3.53
		c-0.64,0-1.16-0.31-1.45-0.86v3h-0.97V297.43z M395.48,303.49c0.88,0,1.2-0.89,1.2-2.72c0-1.8-0.34-2.65-1.24-2.65
		c-0.97,0-1.31,0.83-1.31,2.66C394.14,302.59,394.55,303.49,395.48,303.49z"/>
	<path d="M402.76,304.25c-0.53,0-0.85-0.35-0.88-0.97c-0.29,0.7-0.85,1.07-1.6,1.07c-0.97,0-1.55-0.68-1.55-1.87
		c0-1.39,0.64-1.75,2-2.21c0.79-0.26,1.06-0.35,1.06-0.82v-0.62c0-0.56-0.32-0.79-1-0.79c-0.67,0-1,0.34-1,1.07
		c0,0.04,0,0.08,0,0.12h-0.89c0.02-1.38,0.62-1.98,1.99-1.98c1.27,0,1.85,0.55,1.85,1.81V303c0,0.35,0.12,0.49,0.4,0.49
		c0.05,0,0.1-0.01,0.16-0.02v0.72C403.11,304.22,402.93,304.25,402.76,304.25z M400.75,301.09c-0.72,0.25-1.06,0.47-1.06,1.37
		c0,0.67,0.31,1.06,0.85,1.06c0.76,0,1.28-0.61,1.28-1.64v-1.33C401.59,300.8,401.21,300.92,400.75,301.09z"/>
	<path d="M404.29,297.43h0.89v0.84c0.32-0.66,0.89-0.98,1.69-0.98c1.27,0,1.64,0.64,1.64,2v4.88h-0.95v-4.95
		c0-0.73-0.3-1.09-0.95-1.09c-0.83,0-1.38,0.55-1.38,1.48v4.57h-0.95V297.43z"/>
	<path d="M409.92,295.15h0.97v1.22h-0.97V295.15z M409.92,297.43h0.97v6.74h-0.97V297.43z"/>
	<path d="M416.5,301.8c0,1.64-0.79,2.55-2.15,2.55c-1.51,0-2.21-1.17-2.21-3.6c0-2.34,0.73-3.5,2.27-3.5c1.25,0,2.04,0.82,2.04,2.15
		c0,0.05,0,0.1,0,0.14h-0.92c-0.04-0.96-0.42-1.45-1.08-1.45c-0.97,0-1.28,0.84-1.28,2.7c0,1.87,0.31,2.72,1.29,2.72
		c0.7,0,1.09-0.59,1.12-1.71H416.5z"/>
</g>
<g>
	<rect x="345.95" y="344.73" class="st3" width="102.97" height="17.81"/>
	<path d="M367.38,344.73h1.34l3.13,7.74l-0.1-7.74h0.97v9.02h-1.28l-3.18-7.96l0.08,7.96h-0.97V344.73z"/>
	<path d="M376.43,346.82c1.64,0,2.37,1.15,2.37,3.56c0,2.42-0.72,3.55-2.37,3.55c-1.66,0-2.36-1.12-2.36-3.55
		C374.07,348,374.81,346.82,376.43,346.82z M376.43,353.13c1.02,0,1.35-0.86,1.35-2.75c0-1.87-0.32-2.73-1.35-2.73
		c-1.06,0-1.36,0.89-1.36,2.73C375.07,352.27,375.39,353.13,376.43,353.13z"/>
	<path d="M380.05,347.01h0.89v0.84c0.32-0.66,0.89-0.98,1.69-0.98c1.27,0,1.64,0.64,1.64,2v4.88h-0.95v-4.95
		c0-0.73-0.3-1.09-0.95-1.09c-0.83,0-1.38,0.55-1.38,1.48v4.57h-0.95V347.01z"/>
	<path d="M385.5,349.85h2.89v1.06h-2.89V349.85z"/>
	<path d="M389.74,344.73h1.03v3.72h3.36v-3.72h1.03v9.02h-1.03v-4.39h-3.36v4.39h-1.03V344.73z"/>
	<path d="M396.67,344.73h0.97v1.22h-0.97V344.73z M396.67,347.01h0.97v6.74h-0.97V347.01z"/>
	<path d="M399.83,351.73c-0.01,0.08-0.02,0.16-0.02,0.23c0,0.73,0.42,1.13,1.22,1.13c0.73,0,1.18-0.42,1.18-1.09
		c0-0.8-0.44-0.95-1.25-1.22c-1.38-0.48-1.96-0.83-1.96-2.08c0-1.16,0.72-1.87,1.97-1.87c1.31,0,1.98,0.64,1.98,1.87
		c0,0.04,0,0.06,0,0.1h-0.9c-0.04-0.82-0.35-1.16-1.04-1.16c-0.73,0-1.1,0.35-1.1,1.03c0,0.3,0.1,0.55,0.29,0.71
		c0.38,0.32,0.98,0.42,1.66,0.68c0.92,0.36,1.29,0.86,1.29,1.77c0,1.36-0.82,2.11-2.24,2.11c-1.32,0-2-0.71-2-2.06
		c0-0.05,0-0.1,0-0.14H399.83z"/>
	<path d="M404.4,347.01h0.91v0.85c0.14-0.59,0.74-1.01,1.43-1.01c1.42,0,2.13,1.18,2.13,3.51c0,2.39-0.62,3.53-2.05,3.53
		c-0.64,0-1.16-0.31-1.45-0.86v3h-0.97V347.01z M406.66,353.07c0.88,0,1.2-0.89,1.2-2.72c0-1.8-0.34-2.65-1.24-2.65
		c-0.97,0-1.31,0.83-1.31,2.66C405.31,352.17,405.73,353.07,406.66,353.07z"/>
	<path d="M413.94,353.82c-0.53,0-0.85-0.35-0.88-0.97c-0.29,0.7-0.85,1.07-1.59,1.07c-0.97,0-1.55-0.68-1.55-1.87
		c0-1.39,0.64-1.75,2-2.21c0.79-0.26,1.06-0.35,1.06-0.82v-0.62c0-0.56-0.32-0.79-1-0.79s-1,0.34-1,1.07c0,0.04,0,0.08,0,0.12h-0.89
		c0.02-1.38,0.62-1.98,1.99-1.98c1.27,0,1.85,0.55,1.85,1.81v3.95c0,0.35,0.12,0.49,0.4,0.49c0.05,0,0.1-0.01,0.16-0.02v0.72
		C414.29,353.8,414.11,353.82,413.94,353.82z M411.92,350.67c-0.72,0.25-1.05,0.47-1.05,1.37c0,0.67,0.31,1.05,0.85,1.05
		c0.75,0,1.28-0.61,1.28-1.64v-1.33C412.76,350.38,412.39,350.5,411.92,350.67z"/>
	<path d="M415.47,347.01h0.89v0.84c0.32-0.66,0.89-0.98,1.69-0.98c1.27,0,1.64,0.64,1.64,2v4.88h-0.95v-4.95
		c0-0.73-0.3-1.09-0.95-1.09c-0.83,0-1.38,0.55-1.38,1.48v4.57h-0.95V347.01z"/>
	<path d="M421.09,344.73h0.97v1.22h-0.97V344.73z M421.09,347.01h0.97v6.74h-0.97V347.01z"/>
	<path d="M427.68,351.38c0,1.64-0.79,2.55-2.15,2.55c-1.51,0-2.21-1.18-2.21-3.6c0-2.34,0.73-3.5,2.27-3.5
		c1.25,0,2.04,0.82,2.04,2.15c0,0.05,0,0.1,0,0.14h-0.92c-0.04-0.96-0.42-1.45-1.08-1.45c-0.97,0-1.28,0.84-1.28,2.7
		c0,1.87,0.31,2.72,1.29,2.72c0.7,0,1.09-0.59,1.12-1.71H427.68z"/>
</g>
<g>
	<rect x="17.69" y="13.54" class="st3" width="327.74" height="17.81"/>
	<path d="M48.54,13.54h2.02l3.8,6.42v-6.42h1.9v9.35h-1.99l-3.82-6.42v6.42h-1.9V13.54z"/>
	<path d="M64.16,22.89h-1.81v-0.82c-0.52,0.66-1.22,1-2.09,1c-1.52,0-2.27-0.79-2.27-2.38v-4.71h1.85v4.17
		c0,0.94,0.27,1.36,1.07,1.36c0.86,0,1.42-0.55,1.42-1.46v-4.08h1.85V22.89z"/>
	<path d="M65.77,15.98h1.75v0.77c0.51-0.64,1.14-0.96,1.91-0.96c0.87,0,1.47,0.31,1.92,1.01c0.48-0.66,1.14-1.01,1.96-1.01
		c1.38,0,2.26,0.86,2.26,2.27v4.82h-1.82v-4.45c0-0.68-0.39-1.05-1.03-1.05c-0.7,0-1.17,0.49-1.17,1.31v4.19h-1.81v-4.43
		c0-0.69-0.38-1.07-1-1.07c-0.7,0-1.17,0.49-1.17,1.33v4.17h-1.82V15.98z"/>
	<path d="M79.01,13.54v3.3c0.46-0.71,1.16-1.09,2.04-1.09c1.61,0,2.83,1.44,2.83,3.72c0,2.21-1.18,3.65-2.86,3.65
		c-0.9,0-1.52-0.36-2.05-1.17v0.94h-1.75v-9.35H79.01z M80.55,17.35c-0.98,0-1.55,0.73-1.55,2.04c0,1.42,0.53,2.15,1.51,2.15
		c0.99,0,1.53-0.74,1.53-2.15C82.05,18.1,81.46,17.35,80.55,17.35z"/>
	<path d="M91.24,20.79c-0.38,1.44-1.56,2.33-3.2,2.33c-1.96,0-3.25-1.4-3.25-3.73c0-2.26,1.23-3.65,3.22-3.65
		c2.11,0,3.31,1.33,3.31,3.71c0,0.16,0,0.31-0.01,0.48H86.7c0.05,1.08,0.53,1.64,1.43,1.64c0.62,0,1.03-0.23,1.26-0.77H91.24z
		 M89.42,18.71c-0.03-0.94-0.51-1.43-1.36-1.43c-0.79,0-1.27,0.49-1.35,1.43H89.42z"/>
	<path d="M92.55,15.98h1.72v1.18c0.48-0.95,1.1-1.38,1.99-1.38c0.09,0,0.18,0,0.27,0.01v1.87h-0.61c-1,0-1.52,0.52-1.52,1.56v3.65
		h-1.85V15.98z"/>
	<path d="M104.38,15.74c2.17,0,3.5,1.39,3.5,3.69c0,2.3-1.33,3.69-3.5,3.69s-3.5-1.39-3.5-3.69
		C100.89,17.13,102.21,15.74,104.38,15.74z M104.38,21.57c1.03,0,1.61-0.77,1.61-2.15s-0.59-2.13-1.61-2.13s-1.62,0.75-1.62,2.13
		S103.36,21.57,104.38,21.57z"/>
	<path d="M109.46,17.28h-0.99v-1.3h0.99v-0.64c0-1.3,0.65-1.87,2.07-1.87c0.27,0,0.56,0.01,0.88,0.04v1.47h-0.48
		c-0.51,0-0.68,0.08-0.68,0.52v0.48h1.16v1.3h-1.14v5.6h-1.81V17.28z"/>
	<path d="M117.2,13.54h2.02l3.8,6.42v-6.42h1.9v9.35h-1.99l-3.82-6.42v6.42h-1.9V13.54z"/>
	<path d="M132.77,20.79c-0.38,1.44-1.56,2.33-3.2,2.33c-1.96,0-3.25-1.4-3.25-3.73c0-2.26,1.23-3.65,3.22-3.65
		c2.11,0,3.31,1.33,3.31,3.71c0,0.16,0,0.31-0.01,0.48h-4.62c0.05,1.08,0.53,1.64,1.43,1.64c0.62,0,1.03-0.23,1.26-0.77H132.77z
		 M130.95,18.71c-0.03-0.94-0.51-1.43-1.36-1.43c-0.79,0-1.27,0.49-1.35,1.43H130.95z"/>
	<path d="M133.37,15.98h1.87l1.13,4.78l0.95-4.78h1.89l1,4.78l1.13-4.78h1.79l-1.94,6.9h-1.85l-1.1-4.94l-1.07,4.94h-1.86
		L133.37,15.98z"/>
	<path d="M151.87,23.15c-2.76,0-4.38-1.79-4.38-4.93c0-3.19,1.61-4.93,4.55-4.93c2.41,0,3.84,1.23,3.97,3.34h-1.9
		c-0.16-1.05-0.87-1.62-2.07-1.62c-1.69,0-2.59,1.12-2.59,3.21c0,2.05,0.92,3.19,2.52,3.19c1.17,0,1.94-0.61,2.16-1.73h1.88
		C155.87,21.78,154.29,23.15,151.87,23.15z"/>
	<path d="M159.12,23.13c-1.33,0-2.09-0.78-2.09-2.2c0-1.35,0.73-1.95,2.34-2.2c1.43-0.22,1.92-0.12,1.92-0.78
		c0-0.57-0.34-0.78-1.13-0.78c-0.75,0-1.16,0.31-1.16,0.86c0,0.04,0,0.06,0,0.1h-1.73c0-0.04,0-0.09,0-0.13
		c0-1.4,1.04-2.28,2.82-2.28c1.95,0,2.99,0.7,2.99,1.95v3.93c0,0.51,0.08,0.81,0.39,0.96v0.31h-1.92c-0.13-0.25-0.2-0.53-0.21-0.86
		C160.89,22.74,160.12,23.13,159.12,23.13z M159.67,19.96c-0.58,0.17-0.87,0.39-0.87,0.92c0,0.51,0.35,0.83,0.91,0.83
		c1,0,1.61-0.6,1.61-1.57v-0.65C160.62,19.82,160.02,19.86,159.67,19.96z"/>
	<path d="M166.16,20.64c0.03,0.7,0.49,1.04,1.44,1.04c0.74,0,1.13-0.26,1.13-0.69c0-0.6-0.6-0.56-1.82-0.87
		c-1.62-0.42-2.39-0.91-2.39-2.08c0-1.39,1.07-2.3,2.83-2.3c1.86,0,2.95,0.87,3.02,2.35h-1.79c-0.03-0.58-0.46-0.92-1.21-0.92
		c-0.7,0-1.04,0.21-1.04,0.64c0,0.48,0.57,0.53,1.89,0.84c1.6,0.38,2.38,0.82,2.38,2.07c0,1.56-1.12,2.4-3.24,2.4
		c-1.92,0-3.04-0.92-3.04-2.4c0-0.03,0-0.05,0-0.08H166.16z"/>
	<path d="M177.9,20.79c-0.38,1.44-1.56,2.33-3.2,2.33c-1.96,0-3.25-1.4-3.25-3.73c0-2.26,1.23-3.65,3.22-3.65
		c2.11,0,3.31,1.33,3.31,3.71c0,0.16,0,0.31-0.01,0.48h-4.62c0.05,1.08,0.53,1.64,1.43,1.64c0.62,0,1.03-0.23,1.26-0.77H177.9z
		 M176.08,18.71c-0.03-0.94-0.51-1.43-1.36-1.43c-0.79,0-1.27,0.49-1.35,1.43H176.08z"/>
	<path d="M180.66,20.64c0.03,0.7,0.49,1.04,1.44,1.04c0.74,0,1.13-0.26,1.13-0.69c0-0.6-0.6-0.56-1.82-0.87
		c-1.62-0.42-2.39-0.91-2.39-2.08c0-1.39,1.07-2.3,2.83-2.3c1.86,0,2.95,0.87,3.02,2.35h-1.79c-0.03-0.58-0.46-0.92-1.21-0.92
		c-0.7,0-1.04,0.21-1.04,0.64c0,0.48,0.57,0.53,1.88,0.84c1.6,0.38,2.38,0.82,2.38,2.07c0,1.56-1.12,2.4-3.24,2.4
		c-1.92,0-3.04-0.92-3.04-2.4c0-0.03,0-0.05,0-0.08H180.66z"/>
	<path d="M190.04,15.98h1.75v0.94c0.53-0.81,1.16-1.17,2.05-1.17c1.68,0,2.86,1.44,2.86,3.65c0,2.28-1.22,3.72-2.83,3.72
		c-0.88,0-1.59-0.38-2.04-1.09v3.63h-1.79V15.98z M193.34,17.34c-0.98,0-1.51,0.73-1.51,2.15c0,1.31,0.57,2.04,1.55,2.04
		c0.91,0,1.5-0.75,1.5-2.04C194.87,18.08,194.33,17.34,193.34,17.34z"/>
	<path d="M204.06,20.79c-0.38,1.44-1.56,2.33-3.2,2.33c-1.96,0-3.25-1.4-3.25-3.73c0-2.26,1.23-3.65,3.22-3.65
		c2.11,0,3.31,1.33,3.31,3.71c0,0.16,0,0.31-0.01,0.48h-4.62c0.05,1.08,0.53,1.64,1.43,1.64c0.62,0,1.03-0.23,1.26-0.77H204.06z
		 M202.24,18.71c-0.03-0.94-0.51-1.43-1.36-1.43c-0.79,0-1.27,0.49-1.35,1.43H202.24z"/>
	<path d="M205.38,15.98h1.72v1.18c0.48-0.95,1.1-1.38,1.99-1.38c0.09,0,0.18,0,0.27,0.01v1.87h-0.61c-1,0-1.52,0.52-1.52,1.56v3.65
		h-1.85V15.98z"/>
	<path d="M216.45,16.67h-2.17V15.4c0.05,0,0.09,0,0.14,0c1.53,0,2.24-0.42,2.37-1.6h1.46v9.09h-1.79V16.67z"/>
	<path d="M224.3,13.8c2.2,0,3.29,1.56,3.29,4.68s-1.08,4.65-3.29,4.65c-2.2,0-3.28-1.55-3.28-4.67S222.11,13.8,224.3,13.8z
		 M224.3,21.63c1,0,1.4-1.03,1.4-3.16c0-2.13-0.4-3.15-1.4-3.15s-1.39,1.01-1.39,3.15C222.91,20.6,223.3,21.63,224.3,21.63z"/>
	<path d="M231.67,13.8c2.2,0,3.29,1.56,3.29,4.68s-1.08,4.65-3.29,4.65c-2.2,0-3.28-1.55-3.28-4.67S229.48,13.8,231.67,13.8z
		 M231.67,21.63c1,0,1.4-1.03,1.4-3.16c0-2.13-0.4-3.15-1.4-3.15s-1.39,1.01-1.39,3.15C230.28,20.6,230.67,21.63,231.67,21.63z"/>
	<path d="M236.25,24.34c0.72-0.21,1.04-0.62,1.04-1.3c0-0.05,0-0.1,0-0.16h-1.04v-1.91h1.92v1.83c0,1.26-0.65,2.04-1.92,2.28V24.34z
		"/>
	<path d="M242.74,13.8c2.2,0,3.29,1.56,3.29,4.68s-1.08,4.65-3.29,4.65c-2.2,0-3.28-1.55-3.28-4.67S240.54,13.8,242.74,13.8z
		 M242.74,21.63c1,0,1.4-1.03,1.4-3.16c0-2.13-0.4-3.15-1.4-3.15s-1.39,1.01-1.39,3.15C241.35,20.6,241.74,21.63,242.74,21.63z"/>
	<path d="M250.11,13.8c2.2,0,3.29,1.56,3.29,4.68s-1.08,4.65-3.29,4.65c-2.2,0-3.28-1.55-3.28-4.67S247.91,13.8,250.11,13.8z
		 M250.11,21.63c1,0,1.4-1.03,1.4-3.16c0-2.13-0.4-3.15-1.4-3.15s-1.39,1.01-1.39,3.15C248.72,20.6,249.11,21.63,250.11,21.63z"/>
	<path d="M257.48,13.8c2.2,0,3.29,1.56,3.29,4.68s-1.08,4.65-3.29,4.65c-2.2,0-3.28-1.55-3.28-4.67S255.28,13.8,257.48,13.8z
		 M257.48,21.63c1,0,1.4-1.03,1.4-3.16c0-2.13-0.4-3.15-1.4-3.15s-1.39,1.01-1.39,3.15C256.09,20.6,256.48,21.63,257.48,21.63z"/>
	<path d="M267.75,22.89h-1.92v-9.35h4.16c1.98,0,2.99,1.04,2.99,3c0,1.92-1.01,3.02-2.86,3.02h-2.37V22.89z M269.62,17.87
		c0.99,0,1.44-0.39,1.44-1.35c0-0.88-0.44-1.35-1.34-1.35h-1.98v2.7H269.62z"/>
	<path d="M280.19,20.79c-0.38,1.44-1.56,2.33-3.2,2.33c-1.96,0-3.25-1.4-3.25-3.73c0-2.26,1.23-3.65,3.22-3.65
		c2.11,0,3.31,1.33,3.31,3.71c0,0.16,0,0.31-0.01,0.48h-4.62c0.05,1.08,0.53,1.64,1.43,1.64c0.62,0,1.03-0.23,1.26-0.77H280.19z
		 M278.37,18.71c-0.03-0.94-0.51-1.43-1.36-1.43c-0.79,0-1.27,0.49-1.35,1.43H278.37z"/>
	<path d="M281.51,15.98h1.72v1.18c0.48-0.95,1.1-1.38,1.99-1.38c0.09,0,0.18,0,0.27,0.01v1.87h-0.61c-1,0-1.52,0.52-1.52,1.56v3.65
		h-1.85V15.98z"/>
	<path d="M287.95,20.64c0.03,0.7,0.49,1.04,1.44,1.04c0.74,0,1.13-0.26,1.13-0.69c0-0.6-0.6-0.56-1.82-0.87
		c-1.62-0.42-2.39-0.91-2.39-2.08c0-1.39,1.07-2.3,2.83-2.3c1.86,0,2.95,0.87,3.02,2.35h-1.79c-0.03-0.58-0.46-0.92-1.21-0.92
		c-0.7,0-1.04,0.21-1.04,0.64c0,0.48,0.57,0.53,1.88,0.84c1.6,0.38,2.38,0.82,2.38,2.07c0,1.56-1.12,2.4-3.24,2.4
		c-1.92,0-3.04-0.92-3.04-2.4c0-0.03,0-0.05,0-0.08H287.95z"/>
	<path d="M296.74,15.74c2.17,0,3.5,1.39,3.5,3.69c0,2.3-1.33,3.69-3.5,3.69s-3.5-1.39-3.5-3.69
		C293.25,17.13,294.57,15.74,296.74,15.74z M296.74,21.57c1.03,0,1.61-0.77,1.61-2.15s-0.58-2.13-1.61-2.13s-1.62,0.75-1.62,2.13
		S295.72,21.57,296.74,21.57z"/>
	<path d="M301.5,15.98h1.81v0.82c0.52-0.66,1.22-1,2.09-1c1.52,0,2.28,0.79,2.28,2.38v4.71h-1.85v-4.17c0-0.94-0.27-1.38-1.07-1.38
		c-0.86,0-1.42,0.55-1.42,1.46v4.1h-1.85V15.98z"/>
	<path d="M310.72,20.64c0.03,0.7,0.49,1.04,1.44,1.04c0.74,0,1.13-0.26,1.13-0.69c0-0.6-0.6-0.56-1.82-0.87
		c-1.62-0.42-2.39-0.91-2.39-2.08c0-1.39,1.07-2.3,2.83-2.3c1.86,0,2.95,0.87,3.02,2.35h-1.79c-0.03-0.58-0.45-0.92-1.21-0.92
		c-0.7,0-1.04,0.21-1.04,0.64c0,0.48,0.57,0.53,1.89,0.84c1.6,0.38,2.38,0.82,2.38,2.07c0,1.56-1.12,2.4-3.24,2.4
		c-1.92,0-3.04-0.92-3.04-2.4c0-0.03,0-0.05,0-0.08H310.72z"/>
</g>
<g>
	<rect x="450.19" y="13.54" class="st3" width="327.74" height="17.81"/>
	<path d="M494.05,13.54h2.02l3.8,6.42v-6.42h1.9v9.35h-1.99l-3.82-6.42v6.42h-1.9V13.54z"/>
	<path d="M509.68,22.89h-1.81v-0.82c-0.52,0.66-1.22,1-2.09,1c-1.52,0-2.28-0.79-2.28-2.38v-4.71h1.85v4.17
		c0,0.94,0.27,1.36,1.07,1.36c0.86,0,1.42-0.55,1.42-1.46v-4.08h1.85V22.89z"/>
	<path d="M511.29,15.98h1.75v0.77c0.51-0.64,1.14-0.96,1.91-0.96c0.87,0,1.47,0.31,1.92,1.01c0.48-0.66,1.14-1.01,1.96-1.01
		c1.38,0,2.26,0.86,2.26,2.27v4.82h-1.82v-4.45c0-0.68-0.39-1.05-1.03-1.05c-0.7,0-1.17,0.49-1.17,1.31v4.19h-1.81v-4.43
		c0-0.69-0.38-1.07-1-1.07c-0.7,0-1.17,0.49-1.17,1.33v4.17h-1.82V15.98z"/>
	<path d="M524.53,13.54v3.3c0.46-0.71,1.16-1.09,2.04-1.09c1.61,0,2.83,1.44,2.83,3.72c0,2.21-1.18,3.65-2.86,3.65
		c-0.9,0-1.52-0.36-2.05-1.17v0.94h-1.75v-9.35H524.53z M526.07,17.35c-0.97,0-1.55,0.73-1.55,2.04c0,1.42,0.53,2.15,1.51,2.15
		c0.99,0,1.53-0.74,1.53-2.15C527.57,18.1,526.98,17.35,526.07,17.35z"/>
	<path d="M536.76,20.79c-0.38,1.44-1.56,2.33-3.2,2.33c-1.96,0-3.25-1.4-3.25-3.73c0-2.26,1.23-3.65,3.22-3.65
		c2.11,0,3.32,1.33,3.32,3.71c0,0.16,0,0.31-0.01,0.48h-4.62c0.05,1.08,0.53,1.64,1.43,1.64c0.62,0,1.03-0.23,1.26-0.77H536.76z
		 M534.94,18.71c-0.03-0.94-0.51-1.43-1.37-1.43c-0.79,0-1.27,0.49-1.35,1.43H534.94z"/>
	<path d="M538.07,15.98h1.72v1.18c0.48-0.95,1.1-1.38,1.99-1.38c0.09,0,0.18,0,0.27,0.01v1.87h-0.61c-1,0-1.52,0.52-1.52,1.56v3.65
		h-1.85V15.98z"/>
	<path d="M549.9,15.74c2.17,0,3.5,1.39,3.5,3.69c0,2.3-1.33,3.69-3.5,3.69s-3.5-1.39-3.5-3.69C546.4,17.13,547.73,15.74,549.9,15.74
		z M549.9,21.57c1.03,0,1.61-0.77,1.61-2.15s-0.58-2.13-1.61-2.13c-1.03,0-1.62,0.75-1.62,2.13S548.87,21.57,549.9,21.57z"/>
	<path d="M554.98,17.28H554v-1.3h0.99v-0.64c0-1.3,0.65-1.87,2.07-1.87c0.27,0,0.56,0.01,0.88,0.04v1.47h-0.48
		c-0.51,0-0.68,0.08-0.68,0.52v0.48h1.16v1.3h-1.14v5.6h-1.81V17.28z"/>
	<path d="M562.72,13.54h3.67c2.86,0,4.26,1.52,4.26,4.68c0,1.74-0.55,3.05-1.52,3.83c-0.91,0.73-1.92,0.83-3.26,0.83h-3.15V13.54z
		 M566.15,21.2c1.78,0,2.54-0.87,2.54-2.98c0-2.08-0.71-3.04-2.3-3.04h-1.78v6.02H566.15z"/>
	<path d="M578.11,20.79c-0.38,1.44-1.56,2.33-3.2,2.33c-1.96,0-3.25-1.4-3.25-3.73c0-2.26,1.23-3.65,3.22-3.65
		c2.11,0,3.32,1.33,3.32,3.71c0,0.16,0,0.31-0.01,0.48h-4.62c0.05,1.08,0.53,1.64,1.43,1.64c0.62,0,1.03-0.23,1.26-0.77H578.11z
		 M576.29,18.71c-0.03-0.94-0.51-1.43-1.37-1.43c-0.79,0-1.27,0.49-1.35,1.43H576.29z"/>
	<path d="M581.15,23.13c-1.33,0-2.09-0.78-2.09-2.2c0-1.35,0.73-1.95,2.34-2.2c1.43-0.22,1.92-0.12,1.92-0.78
		c0-0.57-0.34-0.78-1.13-0.78c-0.75,0-1.16,0.31-1.16,0.86c0,0.04,0,0.06,0,0.1h-1.73c0-0.04,0-0.09,0-0.13
		c0-1.4,1.04-2.28,2.82-2.28c1.95,0,2.99,0.7,2.99,1.95v3.93c0,0.51,0.08,0.81,0.39,0.96v0.31h-1.92c-0.13-0.25-0.2-0.53-0.21-0.86
		C582.92,22.74,582.15,23.13,581.15,23.13z M581.7,19.96c-0.58,0.17-0.87,0.39-0.87,0.92c0,0.51,0.35,0.83,0.91,0.83
		c1,0,1.61-0.6,1.61-1.57v-0.65C582.65,19.82,582.05,19.86,581.7,19.96z"/>
	<path d="M588.74,22.98c-1.52,0-1.85-0.52-1.85-1.96v-3.73h-0.91v-1.3h0.91V14.1h1.83v1.88h1.07v1.3h-1.07v3.82
		c0,0.36,0.12,0.44,0.61,0.44h0.46v1.39C589.29,22.95,588.94,22.98,588.74,22.98z"/>
	<path d="M590.9,13.54h1.83v3.21c0.51-0.64,1.21-0.95,2.05-0.95c0.82,0,1.5,0.3,1.9,0.81c0.36,0.47,0.38,1,0.38,1.68
		c0,0.04,0,0.08,0,0.13v4.47h-1.83v-3.61c0-1.27-0.03-1.94-1.08-1.94c-0.86,0-1.42,0.55-1.42,1.46v4.1h-1.83V13.54z"/>
	<path d="M600.14,20.64c0.03,0.7,0.49,1.04,1.44,1.04c0.74,0,1.13-0.26,1.13-0.69c0-0.6-0.6-0.56-1.82-0.87
		c-1.62-0.42-2.39-0.91-2.39-2.08c0-1.39,1.07-2.3,2.83-2.3c1.86,0,2.95,0.87,3.02,2.35h-1.79c-0.03-0.58-0.46-0.92-1.21-0.92
		c-0.7,0-1.04,0.21-1.04,0.64c0,0.48,0.57,0.53,1.88,0.84c1.6,0.38,2.38,0.82,2.38,2.07c0,1.56-1.12,2.4-3.24,2.4
		c-1.92,0-3.04-0.92-3.04-2.4c0-0.03,0-0.05,0-0.08H600.14z"/>
	<path d="M609.52,15.98h1.75v0.94c0.53-0.81,1.16-1.17,2.05-1.17c1.68,0,2.86,1.44,2.86,3.65c0,2.28-1.22,3.72-2.83,3.72
		c-0.88,0-1.59-0.38-2.04-1.09v3.63h-1.79V15.98z M612.82,17.34c-0.97,0-1.51,0.73-1.51,2.15c0,1.31,0.57,2.04,1.55,2.04
		c0.91,0,1.5-0.75,1.5-2.04C614.35,18.08,613.81,17.34,612.82,17.34z"/>
	<path d="M623.54,20.79c-0.38,1.44-1.56,2.33-3.2,2.33c-1.96,0-3.25-1.4-3.25-3.73c0-2.26,1.23-3.65,3.22-3.65
		c2.11,0,3.32,1.33,3.32,3.71c0,0.16,0,0.31-0.01,0.48h-4.62c0.05,1.08,0.53,1.64,1.43,1.64c0.62,0,1.03-0.23,1.26-0.77H623.54z
		 M621.72,18.71c-0.03-0.94-0.51-1.43-1.37-1.43c-0.79,0-1.27,0.49-1.35,1.43H621.72z"/>
	<path d="M624.86,15.98h1.72v1.18c0.48-0.95,1.1-1.38,1.99-1.38c0.09,0,0.18,0,0.27,0.01v1.87h-0.61c-1,0-1.52,0.52-1.52,1.56v3.65
		h-1.85V15.98z"/>
	<path d="M635.93,16.67h-2.17V15.4c0.05,0,0.09,0,0.14,0c1.53,0,2.24-0.42,2.37-1.6h1.46v9.09h-1.79V16.67z"/>
	<path d="M643.78,13.8c2.2,0,3.29,1.56,3.29,4.68s-1.08,4.65-3.29,4.65c-2.2,0-3.28-1.55-3.28-4.67S641.59,13.8,643.78,13.8z
		 M643.78,21.63c1,0,1.4-1.03,1.4-3.16c0-2.13-0.4-3.15-1.4-3.15s-1.39,1.01-1.39,3.15C642.39,20.6,642.78,21.63,643.78,21.63z"/>
	<path d="M651.15,13.8c2.2,0,3.29,1.56,3.29,4.68s-1.08,4.65-3.29,4.65c-2.2,0-3.28-1.55-3.28-4.67S648.96,13.8,651.15,13.8z
		 M651.15,21.63c1,0,1.4-1.03,1.4-3.16c0-2.13-0.4-3.15-1.4-3.15s-1.39,1.01-1.39,3.15C649.76,20.6,650.15,21.63,651.15,21.63z"/>
	<path d="M655.73,24.34c0.71-0.21,1.04-0.62,1.04-1.3c0-0.05,0-0.1,0-0.16h-1.04v-1.91h1.92v1.83c0,1.26-0.65,2.04-1.92,2.28V24.34z
		"/>
	<path d="M662.22,13.8c2.2,0,3.29,1.56,3.29,4.68s-1.08,4.65-3.29,4.65c-2.2,0-3.28-1.55-3.28-4.67S660.02,13.8,662.22,13.8z
		 M662.22,21.63c1,0,1.4-1.03,1.4-3.16c0-2.13-0.4-3.15-1.4-3.15s-1.39,1.01-1.39,3.15C660.83,20.6,661.22,21.63,662.22,21.63z"/>
	<path d="M669.59,13.8c2.2,0,3.29,1.56,3.29,4.68s-1.08,4.65-3.29,4.65c-2.2,0-3.28-1.55-3.28-4.67S667.39,13.8,669.59,13.8z
		 M669.59,21.63c1,0,1.4-1.03,1.4-3.16c0-2.13-0.4-3.15-1.4-3.15s-1.39,1.01-1.39,3.15C668.2,20.6,668.59,21.63,669.59,21.63z"/>
	<path d="M676.96,13.8c2.2,0,3.29,1.56,3.29,4.68s-1.08,4.65-3.29,4.65c-2.2,0-3.28-1.55-3.28-4.67S674.76,13.8,676.96,13.8z
		 M676.96,21.63c1,0,1.4-1.03,1.4-3.16c0-2.13-0.4-3.15-1.4-3.15s-1.39,1.01-1.39,3.15C675.57,20.6,675.96,21.63,676.96,21.63z"/>
	<path d="M687.23,22.89h-1.92v-9.35h4.16c1.98,0,2.99,1.04,2.99,3c0,1.92-1.01,3.02-2.86,3.02h-2.37V22.89z M689.1,17.87
		c0.99,0,1.44-0.39,1.44-1.35c0-0.88-0.44-1.35-1.34-1.35h-1.98v2.7H689.1z"/>
	<path d="M699.67,20.79c-0.38,1.44-1.56,2.33-3.2,2.33c-1.96,0-3.25-1.4-3.25-3.73c0-2.26,1.24-3.65,3.22-3.65
		c2.11,0,3.31,1.33,3.31,3.71c0,0.16,0,0.31-0.01,0.48h-4.62c0.05,1.08,0.53,1.64,1.43,1.64c0.62,0,1.03-0.23,1.26-0.77H699.67z
		 M697.85,18.71c-0.03-0.94-0.51-1.43-1.36-1.43c-0.79,0-1.27,0.49-1.35,1.43H697.85z"/>
	<path d="M700.99,15.98h1.72v1.18c0.48-0.95,1.11-1.38,1.99-1.38c0.09,0,0.18,0,0.27,0.01v1.87h-0.61c-1,0-1.52,0.52-1.52,1.56v3.65
		h-1.85V15.98z"/>
	<path d="M707.43,20.64c0.03,0.7,0.49,1.04,1.44,1.04c0.74,0,1.13-0.26,1.13-0.69c0-0.6-0.6-0.56-1.82-0.87
		c-1.62-0.42-2.39-0.91-2.39-2.08c0-1.39,1.07-2.3,2.83-2.3c1.86,0,2.95,0.87,3.02,2.35h-1.79c-0.03-0.58-0.46-0.92-1.21-0.92
		c-0.7,0-1.04,0.21-1.04,0.64c0,0.48,0.57,0.53,1.88,0.84c1.6,0.38,2.38,0.82,2.38,2.07c0,1.56-1.12,2.4-3.24,2.4
		c-1.92,0-3.04-0.92-3.04-2.4c0-0.03,0-0.05,0-0.08H707.43z"/>
	<path d="M716.22,15.74c2.17,0,3.5,1.39,3.5,3.69c0,2.3-1.33,3.69-3.5,3.69s-3.5-1.39-3.5-3.69
		C712.72,17.13,714.05,15.74,716.22,15.74z M716.22,21.57c1.03,0,1.61-0.77,1.61-2.15s-0.58-2.13-1.61-2.13
		c-1.03,0-1.62,0.75-1.62,2.13S715.2,21.57,716.22,21.57z"/>
	<path d="M720.98,15.98h1.81v0.82c0.52-0.66,1.22-1,2.09-1c1.52,0,2.28,0.79,2.28,2.38v4.71h-1.85v-4.17c0-0.94-0.27-1.38-1.07-1.38
		c-0.86,0-1.42,0.55-1.42,1.46v4.1h-1.85V15.98z"/>
	<path d="M730.2,20.64c0.03,0.7,0.49,1.04,1.44,1.04c0.74,0,1.13-0.26,1.13-0.69c0-0.6-0.6-0.56-1.82-0.87
		c-1.62-0.42-2.39-0.91-2.39-2.08c0-1.39,1.07-2.3,2.83-2.3c1.86,0,2.95,0.87,3.02,2.35h-1.79c-0.03-0.58-0.46-0.92-1.21-0.92
		c-0.7,0-1.04,0.21-1.04,0.64c0,0.48,0.57,0.53,1.88,0.84c1.6,0.38,2.38,0.82,2.38,2.07c0,1.56-1.12,2.4-3.24,2.4
		c-1.92,0-3.04-0.92-3.04-2.4c0-0.03,0-0.05,0-0.08H730.2z"/>
</g>
<g>
	<rect x="270.59" y="53.81" class="st3" width="66.6" height="17.81"/>
	<path d="M308.64,56.92h-2.33v-1.25c1.72-0.04,2.7-0.71,2.87-1.93h1.3v10.6h-1.85V56.92z"/>
	<path d="M315.64,56.92h-2.33v-1.25c1.72-0.04,2.7-0.71,2.87-1.93h1.3v10.6h-1.85V56.92z"/>
	<path d="M320.27,64c0-1.64,0.67-3.11,2.02-4.5c0.56-0.57,1.12-1.02,1.46-1.51c0.29-0.43,0.41-0.91,0.41-1.48
		c0-0.88-0.31-1.32-0.98-1.32c-0.71,0-1.01,0.53-1.01,1.67c0,0.13,0,0.27,0.01,0.41h-1.83c0-0.13-0.01-0.24-0.01-0.35
		c0-2.2,0.9-3.18,2.9-3.18c1.89,0,2.9,0.97,2.9,2.69c0,0.8-0.17,1.47-0.55,2.1c-0.32,0.55-0.94,1.06-1.58,1.76
		c-0.87,0.97-1.51,1.68-1.72,2.37H326v1.68h-5.71C320.29,64.23,320.27,64.12,320.27,64z"/>
	<path d="M327.56,62.45h1.77v1.89h-1.77V62.45z"/>
	<path d="M334.21,57.22c1.64,0,2.38,1.09,2.38,3.33c0,2.77-0.73,3.98-2.91,3.98c-1.11,0-1.82-0.34-2.34-1.18
		c-0.43-0.71-0.53-2.1-0.53-4.17c0-2.1,0.1-3.49,0.5-4.19c0.52-0.9,1.3-1.26,2.52-1.26c1.64,0,2.55,0.83,2.55,2.23
		c0,0.04,0,0.1,0,0.15h-1.82c0-0.03,0-0.06,0-0.1c0-0.59-0.27-0.87-0.83-0.87c-0.8,0-1.02,0.7-1.02,2.19c0,0.2,0.01,0.39,0.01,0.6
		C333.02,57.48,333.51,57.22,334.21,57.22z M333.7,63.02c0.85,0,0.95-0.69,0.95-2.11c0-1.5-0.11-2.12-0.97-2.12
		c-0.77,0-0.97,0.66-0.97,2.09C332.72,62.37,332.92,63.02,333.7,63.02z"/>
</g>
<g>
	<rect x="270.59" y="102.69" class="st3" width="66.6" height="17.81"/>
	<path d="M308.64,105.79h-2.33v-1.25c1.72-0.04,2.7-0.71,2.87-1.93h1.3v10.6h-1.85V105.79z"/>
	<path d="M313.81,103.77c0.52-0.84,1.25-1.16,2.38-1.16s1.86,0.32,2.38,1.16c0.43,0.71,0.52,2.07,0.52,4.16
		c0,2.07-0.07,3.47-0.49,4.22c-0.52,0.9-1.25,1.26-2.41,1.26c-1.15,0-1.89-0.36-2.41-1.26c-0.43-0.74-0.49-2.14-0.49-4.22
		S313.37,104.49,313.81,103.77z M317.13,107.14c0-0.41,0-0.77,0-1.09c0-1.36-0.08-1.98-0.94-1.98c-0.87,0-0.94,0.64-0.94,2.06
		c0,0.29,0,0.63,0,1.01v1.76c0,0.41,0,0.77,0,1.09c0,1.37,0.08,1.98,0.94,1.98c0.87,0,0.94-0.66,0.94-2.07c0-0.29,0-0.63,0-1.01
		V107.14z"/>
	<path d="M322.05,109.84c0,0.1,0,0.18,0,0.28c0,1.25,0.36,1.86,1.06,1.86c0.76,0,1.04-0.76,1.04-2.35c0-1.46-0.32-2.16-1.15-2.16
		c-0.53,0-0.92,0.34-0.97,0.85h-1.71l0.28-5.52h4.99v1.68h-3.53l-0.11,2.12c0.41-0.42,0.84-0.59,1.44-0.59
		c1.78,0,2.68,1.16,2.68,3.49c0,2.69-0.88,3.92-3.01,3.92c-1.93,0-2.83-1.06-2.83-3.32c0-0.1,0-0.18,0-0.27H322.05z"/>
	<path d="M327.56,111.32h1.77v1.89h-1.77V111.32z"/>
	<path d="M334.71,104.54h-3.95v-1.74h5.83v1.51c-1.43,2.65-2.28,5.65-2.52,8.9h-2.02C332.25,110.67,333.11,107.74,334.71,104.54z"/>
</g>
<g>
	<rect x="270.59" y="151.56" class="st3" width="66.6" height="17.81"/>
	<path d="M308.64,154.67h-2.33v-1.25c1.72-0.04,2.7-0.71,2.87-1.93h1.3v10.6h-1.85V154.67z"/>
	<path d="M317.21,153.42h-3.95v-1.74h5.83v1.51c-1.43,2.65-2.28,5.65-2.52,8.9h-2.02C314.75,159.54,315.61,156.61,317.21,153.42z"/>
	<path d="M320.53,154.11c0-1.69,0.92-2.61,2.67-2.61c1.74,0,2.68,0.92,2.68,2.66c0,1.2-0.45,1.93-1.39,2.23
		c1.13,0.22,1.58,1.04,1.58,2.62c0,2.24-0.9,3.26-2.9,3.26c-1.96,0-2.86-0.98-2.86-3.12c0-1.62,0.43-2.49,1.54-2.76
		C320.98,156.12,320.53,155.35,320.53,154.11z M322.24,159.09c0,1.18,0.18,1.68,0.95,1.68c0.8,0,0.97-0.53,0.97-1.83
		c0-1.25-0.2-1.85-0.97-1.85C322.38,157.09,322.24,157.69,322.24,159.09z M323.19,155.7c0.64,0,0.87-0.43,0.87-1.4
		c0-0.98-0.21-1.4-0.9-1.4c-0.63,0-0.83,0.45-0.83,1.4C322.33,155.27,322.53,155.7,323.19,155.7z"/>
	<path d="M327.56,160.2h1.77v1.89h-1.77V160.2z"/>
	<path d="M332.6,158.55c0,0.04,0,0.08,0,0.13c0,1.48,0.24,2.12,1.06,2.12c0.83,0,1.05-0.56,1.05-1.89c0-1.33-0.22-1.75-1.42-1.75
		c-0.13,0-0.31,0-0.55,0.01v-1.37c0.06,0,0.1,0,0.14,0c1.26,0,1.64-0.36,1.64-1.48c0-0.98-0.2-1.4-0.92-1.4
		c-0.67,0-0.92,0.46-0.92,1.46c0,0.08,0,0.17,0,0.25h-1.82c-0.01-0.13-0.01-0.27-0.01-0.39c0-1.81,0.95-2.73,2.84-2.73
		c1.74,0,2.73,0.98,2.73,2.72c0,1.19-0.43,1.95-1.22,2.2c0.99,0.25,1.46,1.06,1.46,2.49c0,2.28-1,3.39-3.05,3.39
		c-1.96,0-2.86-1.08-2.86-3.32c0-0.14,0.01-0.28,0.01-0.42H332.6z"/>
</g>
<g>
	<rect x="270.59" y="200.44" class="st3" width="66.6" height="17.81"/>
	<path d="M315.05,207.59c0,0.1,0,0.18,0,0.28c0,1.25,0.36,1.86,1.06,1.86c0.76,0,1.04-0.76,1.04-2.35c0-1.46-0.32-2.16-1.15-2.16
		c-0.53,0-0.92,0.34-0.97,0.85h-1.71l0.28-5.52h4.99v1.68h-3.53l-0.11,2.12c0.41-0.42,0.84-0.59,1.44-0.59
		c1.78,0,2.68,1.16,2.68,3.49c0,2.69-0.88,3.92-3.01,3.92c-1.93,0-2.83-1.06-2.83-3.32c0-0.1,0-0.18,0-0.27H315.05z"/>
	<path d="M322.63,207.66c-1.62,0-2.37-1.08-2.37-3.32c0-2.76,0.71-3.98,2.82-3.98c1.18,0,1.92,0.32,2.44,1.18
		c0.43,0.7,0.53,2.09,0.53,4.17c0,2.12-0.08,3.49-0.49,4.19c-0.5,0.87-1.27,1.26-2.41,1.26c-1.78,0-2.68-0.78-2.68-2.31
		c0-0.03,0-0.04,0-0.07h1.83c0,0.04,0,0.07,0,0.11c0,0.53,0.29,0.84,0.83,0.84c0.83,0,1.01-0.69,1.01-2.23c0-0.17,0-0.35,0-0.55
		C323.85,207.42,323.39,207.66,322.63,207.66z M323.16,201.88c-0.85,0-0.95,0.69-0.95,2.12c0,1.51,0.1,2.11,0.97,2.11
		c0.8,0,0.95-0.64,0.95-2.11C324.13,202.55,323.97,201.88,323.16,201.88z"/>
	<path d="M327.56,209.08h1.77v1.89h-1.77V209.08z"/>
	<path d="M333.14,203.54h-2.33v-1.25c1.72-0.04,2.7-0.71,2.87-1.93h1.3v10.6h-1.85V203.54z"/>
</g>
<g>
	<rect x="270.59" y="249.31" class="st3" width="66.6" height="17.81"/>
	<path d="M315.05,256.47c0,0.1,0,0.18,0,0.28c0,1.25,0.36,1.86,1.06,1.86c0.76,0,1.04-0.76,1.04-2.35c0-1.46-0.32-2.16-1.15-2.16
		c-0.53,0-0.92,0.34-0.97,0.85h-1.71l0.28-5.52h4.99v1.68h-3.53l-0.11,2.12c0.41-0.42,0.84-0.59,1.44-0.59
		c1.78,0,2.68,1.16,2.68,3.49c0,2.69-0.88,3.92-3.01,3.92c-1.93,0-2.83-1.06-2.83-3.32c0-0.1,0-0.18,0-0.27H315.05z"/>
	<path d="M323.5,257.76h-3.33v-1.68l3.12-6.64h2v6.75h0.88v1.57h-0.88v2.09h-1.79V257.76z M323.54,256.23v-4.29l-1.96,4.29H323.54z"
		/>
	<path d="M327.56,257.95h1.77v1.89h-1.77V257.95z"/>
	<path d="M331.03,251.86c0-1.69,0.92-2.61,2.67-2.61c1.74,0,2.68,0.92,2.68,2.66c0,1.2-0.45,1.93-1.39,2.23
		c1.13,0.22,1.58,1.04,1.58,2.62c0,2.24-0.9,3.26-2.9,3.26c-1.96,0-2.86-0.98-2.86-3.12c0-1.63,0.43-2.49,1.54-2.76
		C331.48,253.88,331.03,253.1,331.03,251.86z M332.74,256.85c0,1.18,0.18,1.68,0.95,1.68c0.8,0,0.97-0.53,0.97-1.83
		c0-1.25-0.2-1.85-0.97-1.85C332.88,254.84,332.74,255.44,332.74,256.85z M333.69,253.45c0.64,0,0.87-0.43,0.87-1.4
		c0-0.98-0.21-1.4-0.9-1.4c-0.63,0-0.83,0.45-0.83,1.4C332.83,253.02,333.03,253.45,333.69,253.45z"/>
</g>
<g>
	<rect x="270.59" y="298.19" class="st3" width="66.6" height="17.81"/>
	<path d="M315.63,305.41c-1.62,0-2.37-1.08-2.37-3.32c0-2.76,0.71-3.98,2.82-3.98c1.18,0,1.92,0.32,2.44,1.18
		c0.43,0.7,0.53,2.09,0.53,4.17c0,2.12-0.08,3.49-0.49,4.19c-0.5,0.87-1.27,1.26-2.41,1.26c-1.78,0-2.68-0.79-2.68-2.31
		c0-0.03,0-0.04,0-0.07h1.83c0,0.04,0,0.07,0,0.11c0,0.53,0.29,0.84,0.83,0.84c0.83,0,1.01-0.69,1.01-2.23c0-0.17,0-0.35,0-0.55
		C316.85,305.17,316.39,305.41,315.63,305.41z M316.16,299.63c-0.85,0-0.95,0.69-0.95,2.12c0,1.51,0.1,2.11,0.97,2.11
		c0.8,0,0.95-0.64,0.95-2.11C317.13,300.3,316.97,299.63,316.16,299.63z"/>
	<path d="M322.64,301.29h-2.33v-1.25c1.72-0.04,2.7-0.71,2.87-1.93h1.3v10.6h-1.85V301.29z"/>
	<path d="M327.56,306.83h1.77v1.89h-1.77V306.83z"/>
	<path d="M331.03,300.73c0-1.69,0.92-2.61,2.67-2.61c1.74,0,2.68,0.93,2.68,2.66c0,1.21-0.45,1.93-1.39,2.23
		c1.13,0.22,1.58,1.04,1.58,2.62c0,2.24-0.9,3.26-2.9,3.26c-1.96,0-2.86-0.98-2.86-3.12c0-1.62,0.43-2.49,1.54-2.76
		C331.48,302.75,331.03,301.98,331.03,300.73z M332.74,305.72c0,1.18,0.18,1.68,0.95,1.68c0.8,0,0.97-0.53,0.97-1.83
		c0-1.25-0.2-1.85-0.97-1.85C332.88,303.72,332.74,304.32,332.74,305.72z M333.69,302.33c0.64,0,0.87-0.43,0.87-1.4
		c0-0.98-0.21-1.4-0.9-1.4c-0.63,0-0.83,0.45-0.83,1.4C332.83,301.9,333.03,302.33,333.69,302.33z"/>
</g>
<g>
	<rect x="270.59" y="347.07" class="st3" width="66.6" height="17.81"/>
	<path d="M308.64,350.17h-2.33v-1.25c1.72-0.04,2.7-0.71,2.87-1.93h1.3v10.6h-1.85V350.17z"/>
	<path d="M315.64,350.17h-2.33v-1.25c1.72-0.04,2.7-0.71,2.87-1.93h1.3v10.6h-1.85V350.17z"/>
	<path d="M323.71,350.48c1.64,0,2.38,1.09,2.38,3.33c0,2.77-0.73,3.98-2.91,3.98c-1.11,0-1.82-0.34-2.34-1.18
		c-0.43-0.71-0.53-2.1-0.53-4.17c0-2.1,0.1-3.49,0.5-4.19c0.52-0.9,1.3-1.26,2.52-1.26c1.64,0,2.55,0.83,2.55,2.23
		c0,0.04,0,0.1,0,0.15h-1.82c0-0.03,0-0.06,0-0.1c0-0.59-0.27-0.87-0.83-0.87c-0.8,0-1.02,0.7-1.02,2.19c0,0.2,0.01,0.39,0.01,0.6
		C322.52,350.73,323.01,350.48,323.71,350.48z M323.2,356.28c0.85,0,0.95-0.69,0.95-2.11c0-1.5-0.11-2.12-0.97-2.12
		c-0.77,0-0.97,0.66-0.97,2.09C322.22,355.62,322.42,356.28,323.2,356.28z"/>
	<path d="M327.56,355.7h1.77v1.89h-1.77V355.7z"/>
	<path d="M333.14,350.17h-2.33v-1.25c1.72-0.04,2.7-0.71,2.87-1.93h1.3v10.6h-1.85V350.17z"/>
</g>
<g>
	<rect x="457.34" y="53.81" class="st3" width="66.6" height="17.81"/>
	<path class="st4" d="M460.3,56.92h-2.33v-1.25c1.72-0.04,2.7-0.71,2.87-1.93h1.3v10.6h-1.85V56.92z"/>
	<path class="st4" d="M467.28,61.03c-1.62,0-2.37-1.08-2.37-3.32c0-2.76,0.71-3.98,2.82-3.98c1.18,0,1.92,0.32,2.44,1.18
		c0.43,0.7,0.53,2.09,0.53,4.17c0,2.12-0.08,3.49-0.49,4.19c-0.5,0.87-1.27,1.26-2.41,1.26c-1.78,0-2.68-0.78-2.68-2.31
		c0-0.03,0-0.04,0-0.07h1.83c0,0.04,0,0.07,0,0.11c0,0.53,0.29,0.84,0.83,0.84c0.83,0,1.01-0.69,1.01-2.23c0-0.17,0-0.35,0-0.55
		C468.5,60.8,468.04,61.03,467.28,61.03z M467.82,55.25c-0.85,0-0.95,0.69-0.95,2.12c0,1.51,0.1,2.11,0.97,2.11
		c0.8,0,0.95-0.64,0.95-2.11C468.78,55.92,468.63,55.25,467.82,55.25z"/>
	<path class="st4" d="M472.21,62.45h1.76v1.89h-1.76V62.45z"/>
	<path class="st4" d="M477.21,60.96c0,0.1,0,0.18,0,0.28c0,1.25,0.36,1.86,1.06,1.86c0.76,0,1.04-0.76,1.04-2.35
		c0-1.46-0.32-2.16-1.15-2.16c-0.53,0-0.92,0.34-0.97,0.85h-1.71l0.28-5.52h4.99v1.68h-3.53l-0.11,2.12
		c0.41-0.42,0.84-0.59,1.44-0.59c1.78,0,2.68,1.16,2.68,3.49c0,2.69-0.88,3.92-3.01,3.92c-1.93,0-2.83-1.06-2.83-3.32
		c0-0.1,0-0.18,0-0.27H477.21z"/>
</g>
<g>
	<rect x="457.34" y="102.69" class="st3" width="66.6" height="17.81"/>
	<path class="st4" d="M460.3,105.79h-2.33v-1.25c1.72-0.04,2.7-0.71,2.87-1.93h1.3v10.6h-1.85V105.79z"/>
	<path class="st4" d="M465.18,105.23c0-1.69,0.92-2.61,2.68-2.61c1.74,0,2.68,0.92,2.68,2.66c0,1.2-0.45,1.93-1.39,2.23
		c1.13,0.22,1.58,1.04,1.58,2.62c0,2.24-0.9,3.26-2.9,3.26c-1.96,0-2.86-0.98-2.86-3.12c0-1.62,0.43-2.49,1.54-2.76
		C465.63,107.25,465.18,106.48,465.18,105.23z M466.89,110.22c0,1.18,0.18,1.68,0.95,1.68c0.8,0,0.97-0.53,0.97-1.83
		c0-1.25-0.2-1.85-0.97-1.85C467.03,108.22,466.89,108.82,466.89,110.22z M467.84,106.83c0.64,0,0.87-0.43,0.87-1.4
		c0-0.98-0.21-1.4-0.9-1.4c-0.63,0-0.83,0.45-0.83,1.4C466.99,106.39,467.19,106.83,467.84,106.83z"/>
	<path class="st4" d="M472.21,111.32h1.76v1.89h-1.76V111.32z"/>
	<path class="st4" d="M475.43,112.88c0-1.64,0.67-3.11,2.02-4.5c0.56-0.57,1.12-1.02,1.46-1.51c0.29-0.43,0.41-0.91,0.41-1.48
		c0-0.88-0.31-1.32-0.98-1.32c-0.71,0-1.01,0.53-1.01,1.67c0,0.13,0,0.27,0.01,0.41h-1.83c0-0.13-0.01-0.24-0.01-0.35
		c0-2.2,0.9-3.18,2.9-3.18c1.89,0,2.9,0.97,2.9,2.69c0,0.8-0.17,1.47-0.55,2.1c-0.32,0.55-0.94,1.06-1.58,1.76
		c-0.87,0.97-1.51,1.68-1.72,2.37h3.73v1.68h-5.71C475.45,113.1,475.43,112.99,475.43,112.88z"/>
</g>
<g>
	<rect x="457.34" y="151.56" class="st3" width="66.6" height="17.81"/>
	<path class="st4" d="M459.75,158.55c0,0.04,0,0.08,0,0.13c0,1.48,0.24,2.12,1.06,2.12s1.05-0.56,1.05-1.89
		c0-1.33-0.22-1.75-1.42-1.75c-0.13,0-0.31,0-0.55,0.01v-1.37c0.06,0,0.1,0,0.14,0c1.26,0,1.64-0.36,1.64-1.48
		c0-0.98-0.2-1.4-0.92-1.4c-0.67,0-0.92,0.46-0.92,1.46c0,0.08,0,0.17,0,0.25h-1.82c-0.01-0.13-0.01-0.27-0.01-0.39
		c0-1.81,0.95-2.73,2.84-2.73c1.74,0,2.73,0.98,2.73,2.72c0,1.19-0.43,1.95-1.22,2.2c0.99,0.25,1.46,1.06,1.46,2.49
		c0,2.28-1,3.39-3.05,3.39c-1.96,0-2.86-1.08-2.86-3.32c0-0.14,0.01-0.28,0.01-0.42H459.75z"/>
	<path class="st4" d="M467.28,158.79c-1.62,0-2.37-1.08-2.37-3.32c0-2.76,0.71-3.98,2.82-3.98c1.18,0,1.92,0.32,2.44,1.18
		c0.43,0.7,0.53,2.09,0.53,4.17c0,2.12-0.08,3.49-0.49,4.19c-0.5,0.87-1.27,1.26-2.41,1.26c-1.78,0-2.68-0.78-2.68-2.31
		c0-0.03,0-0.04,0-0.07h1.83c0,0.04,0,0.07,0,0.11c0,0.53,0.29,0.84,0.83,0.84c0.83,0,1.01-0.69,1.01-2.23c0-0.17,0-0.35,0-0.55
		C468.5,158.55,468.04,158.79,467.28,158.79z M467.82,153c-0.85,0-0.95,0.69-0.95,2.12c0,1.51,0.1,2.11,0.97,2.11
		c0.8,0,0.95-0.64,0.95-2.11C468.78,153.67,468.63,153,467.82,153z"/>
	<path class="st4" d="M472.21,160.2h1.76v1.89h-1.76V160.2z"/>
	<path class="st4" d="M477.78,158.79c-1.62,0-2.37-1.08-2.37-3.32c0-2.76,0.71-3.98,2.82-3.98c1.18,0,1.92,0.32,2.44,1.18
		c0.43,0.7,0.53,2.09,0.53,4.17c0,2.12-0.08,3.49-0.49,4.19c-0.5,0.87-1.27,1.26-2.41,1.26c-1.78,0-2.68-0.78-2.68-2.31
		c0-0.03,0-0.04,0-0.07h1.83c0,0.04,0,0.07,0,0.11c0,0.53,0.29,0.84,0.83,0.84c0.83,0,1.01-0.69,1.01-2.23c0-0.17,0-0.35,0-0.55
		C479,158.55,478.54,158.79,477.78,158.79z M478.32,153c-0.85,0-0.95,0.69-0.95,2.12c0,1.51,0.1,2.11,0.97,2.11
		c0.8,0,0.95-0.64,0.95-2.11C479.28,153.67,479.13,153,478.32,153z"/>
</g>
<g>
	<rect x="457.34" y="200.44" class="st3" width="66.6" height="17.81"/>
	<path class="st4" d="M458.18,202.98c0-1.69,0.92-2.61,2.68-2.61c1.74,0,2.68,0.92,2.68,2.66c0,1.2-0.45,1.93-1.39,2.23
		c1.13,0.22,1.58,1.04,1.58,2.62c0,2.24-0.9,3.26-2.9,3.26c-1.96,0-2.86-0.98-2.86-3.12c0-1.62,0.43-2.49,1.54-2.76
		C458.63,205,458.18,204.23,458.18,202.98z M459.89,207.97c0,1.18,0.18,1.68,0.95,1.68c0.8,0,0.97-0.53,0.97-1.83
		c0-1.25-0.2-1.85-0.97-1.85C460.03,205.97,459.89,206.57,459.89,207.97z M460.84,204.58c0.64,0,0.87-0.43,0.87-1.4
		c0-0.98-0.21-1.4-0.9-1.4c-0.63,0-0.83,0.45-0.83,1.4C459.99,204.15,460.19,204.58,460.84,204.58z"/>
	<path class="st4" d="M465.21,209.08h1.76v1.89h-1.76V209.08z"/>
	<path class="st4" d="M468.68,202.98c0-1.69,0.92-2.61,2.68-2.61c1.74,0,2.68,0.92,2.68,2.66c0,1.2-0.45,1.93-1.39,2.23
		c1.13,0.22,1.58,1.04,1.58,2.62c0,2.24-0.9,3.26-2.9,3.26c-1.96,0-2.86-0.98-2.86-3.12c0-1.62,0.43-2.49,1.54-2.76
		C469.13,205,468.68,204.23,468.68,202.98z M470.39,207.97c0,1.18,0.18,1.68,0.95,1.68c0.8,0,0.97-0.53,0.97-1.83
		c0-1.25-0.2-1.85-0.97-1.85C470.53,205.97,470.39,206.57,470.39,207.97z M471.34,204.58c0.64,0,0.87-0.43,0.87-1.4
		c0-0.98-0.21-1.4-0.9-1.4c-0.63,0-0.83,0.45-0.83,1.4C470.49,204.15,470.69,204.58,471.34,204.58z"/>
</g>
<g>
	<rect x="457.34" y="249.31" class="st3" width="66.6" height="17.81"/>
	<path class="st4" d="M460.3,252.42h-2.33v-1.25c1.72-0.04,2.7-0.71,2.87-1.93h1.3v10.6h-1.85V252.42z"/>
	<path class="st4" d="M467.28,256.54c-1.62,0-2.37-1.08-2.37-3.32c0-2.76,0.71-3.98,2.82-3.98c1.18,0,1.92,0.32,2.44,1.18
		c0.43,0.7,0.53,2.09,0.53,4.17c0,2.12-0.08,3.49-0.49,4.19c-0.5,0.87-1.27,1.26-2.41,1.26c-1.78,0-2.68-0.78-2.68-2.31
		c0-0.03,0-0.04,0-0.07h1.83c0,0.04,0,0.07,0,0.11c0,0.53,0.29,0.84,0.83,0.84c0.83,0,1.01-0.69,1.01-2.23c0-0.17,0-0.35,0-0.55
		C468.5,256.3,468.04,256.54,467.28,256.54z M467.82,250.75c-0.85,0-0.95,0.69-0.95,2.12c0,1.51,0.1,2.12,0.97,2.12
		c0.8,0,0.95-0.64,0.95-2.12C468.78,251.42,468.63,250.75,467.82,250.75z"/>
	<path class="st4" d="M472.21,257.95h1.76v1.89h-1.76V257.95z"/>
	<path class="st4" d="M475.68,251.86c0-1.69,0.92-2.61,2.68-2.61c1.74,0,2.68,0.92,2.68,2.66c0,1.2-0.45,1.93-1.39,2.23
		c1.13,0.22,1.58,1.04,1.58,2.62c0,2.24-0.9,3.26-2.9,3.26c-1.96,0-2.86-0.98-2.86-3.12c0-1.63,0.43-2.49,1.54-2.76
		C476.13,253.88,475.68,253.1,475.68,251.86z M477.39,256.85c0,1.18,0.18,1.68,0.95,1.68c0.8,0,0.97-0.53,0.97-1.83
		c0-1.25-0.2-1.85-0.97-1.85C477.53,254.84,477.39,255.44,477.39,256.85z M478.34,253.45c0.64,0,0.87-0.43,0.87-1.4
		c0-0.98-0.21-1.4-0.9-1.4c-0.63,0-0.83,0.45-0.83,1.4C477.49,253.02,477.69,253.45,478.34,253.45z"/>
</g>
<g>
	<rect x="457.34" y="298.19" class="st3" width="66.6" height="17.81"/>
	<path class="st4" d="M460.3,301.29h-2.33v-1.25c1.72-0.04,2.7-0.71,2.87-1.93h1.3v10.6h-1.85V301.29z"/>
	<path class="st4" d="M468.36,301.6c1.64,0,2.38,1.09,2.38,3.33c0,2.77-0.73,3.98-2.91,3.98c-1.11,0-1.82-0.34-2.34-1.18
		c-0.43-0.71-0.53-2.1-0.53-4.17c0-2.1,0.1-3.49,0.5-4.19c0.52-0.9,1.3-1.26,2.52-1.26c1.64,0,2.55,0.83,2.55,2.23
		c0,0.04,0,0.1,0,0.15h-1.82c0-0.03,0-0.05,0-0.1c0-0.59-0.27-0.87-0.83-0.87c-0.8,0-1.02,0.7-1.02,2.18c0,0.2,0.01,0.39,0.01,0.6
		C467.17,301.85,467.66,301.6,468.36,301.6z M467.86,307.4c0.85,0,0.95-0.69,0.95-2.12c0-1.5-0.11-2.12-0.97-2.12
		c-0.77,0-0.97,0.66-0.97,2.09C466.88,306.74,467.07,307.4,467.86,307.4z"/>
	<path class="st4" d="M472.21,306.83h1.76v1.89h-1.76V306.83z"/>
	<path class="st4" d="M475.43,308.38c0-1.64,0.67-3.11,2.02-4.5c0.56-0.57,1.12-1.02,1.46-1.51c0.29-0.43,0.41-0.91,0.41-1.49
		c0-0.88-0.31-1.32-0.98-1.32c-0.71,0-1.01,0.53-1.01,1.67c0,0.13,0,0.27,0.01,0.41h-1.83c0-0.13-0.01-0.24-0.01-0.35
		c0-2.2,0.9-3.18,2.9-3.18c1.89,0,2.9,0.97,2.9,2.69c0,0.8-0.17,1.47-0.55,2.1c-0.32,0.55-0.94,1.06-1.58,1.76
		c-0.87,0.97-1.51,1.68-1.72,2.37h3.73v1.68h-5.71C475.45,308.61,475.43,308.49,475.43,308.38z"/>
</g>
<g>
	<rect x="457.34" y="347.07" class="st3" width="66.6" height="17.81"/>
	<path class="st4" d="M460.3,350.17h-2.33v-1.25c1.72-0.04,2.7-0.71,2.87-1.93h1.3v10.6h-1.85V350.17z"/>
	<path class="st4" d="M467.28,354.29c-1.62,0-2.37-1.08-2.37-3.32c0-2.76,0.71-3.98,2.82-3.98c1.18,0,1.92,0.32,2.44,1.18
		c0.43,0.7,0.53,2.09,0.53,4.17c0,2.12-0.08,3.49-0.49,4.19c-0.5,0.87-1.27,1.26-2.41,1.26c-1.78,0-2.68-0.79-2.68-2.31
		c0-0.03,0-0.04,0-0.07h1.83c0,0.04,0,0.07,0,0.11c0,0.53,0.29,0.84,0.83,0.84c0.83,0,1.01-0.69,1.01-2.23c0-0.17,0-0.35,0-0.55
		C468.5,354.05,468.04,354.29,467.28,354.29z M467.82,348.5c-0.85,0-0.95,0.69-0.95,2.12c0,1.51,0.1,2.11,0.97,2.11
		c0.8,0,0.95-0.64,0.95-2.11C468.78,349.17,468.63,348.5,467.82,348.5z"/>
	<path class="st4" d="M472.21,355.7h1.76v1.89h-1.76V355.7z"/>
	<path class="st4" d="M475.68,349.61c0-1.7,0.92-2.61,2.68-2.61c1.74,0,2.68,0.92,2.68,2.66c0,1.21-0.45,1.93-1.39,2.23
		c1.13,0.22,1.58,1.04,1.58,2.62c0,2.24-0.9,3.26-2.9,3.26c-1.96,0-2.86-0.98-2.86-3.12c0-1.62,0.43-2.49,1.54-2.76
		C476.13,351.63,475.68,350.85,475.68,349.61z M477.39,354.6c0,1.18,0.18,1.68,0.95,1.68c0.8,0,0.97-0.53,0.97-1.83
		c0-1.25-0.2-1.85-0.97-1.85C477.53,352.59,477.39,353.19,477.39,354.6z M478.34,351.21c0.64,0,0.87-0.43,0.87-1.4
		c0-0.98-0.21-1.4-0.9-1.4c-0.63,0-0.83,0.45-0.83,1.4C477.49,350.77,477.69,351.21,478.34,351.21z"/>
</g>
<g>
</g>
<g>
</g>
<g>
</g>
<g>
</g>
<g>
</g>
<g>
</g>
</svg>
