<?xml version="1.0" encoding="utf-8"?>
<!-- Generator: Adobe Illustrator 23.0.1, SVG Export Plug-In . SVG Version: 6.00 Build 0)  -->
<svg version="1.1" id="Layer_1" xmlns="http://www.w3.org/2000/svg" xmlns:xlink="http://www.w3.org/1999/xlink" x="0px" y="0px"
	 viewBox="0 0 60 60" style="enable-background:new 0 0 60 60;" xml:space="preserve">
<style type="text/css">
	.st0{fill:#FFFFFF;}
</style>
<g>
	<path class="st0" d="M30,10c-11,0-20,9-20,20s9,20,20,20s20-9,20-20S41,10,30,10z M30,48.1C20,48.1,11.9,40,11.9,30
		S20,11.9,30,11.9S48.1,20,48.1,30S40,48.1,30,48.1z"/>
	<polygon class="st0" points="37.3,26.2 36.2,27.3 31,22 31,41 29,41 29,22 23.8,27.4 22.7,26.4 30,19 	"/>
</g>
</svg>
