<?xml version="1.0" encoding="utf-8"?>
<!-- Generator: Adobe Illustrator 21.0.2, SVG Export Plug-In . SVG Version: 6.00 Build 0)  -->
<svg version="1.1" id="Layer_1" xmlns="http://www.w3.org/2000/svg" xmlns:xlink="http://www.w3.org/1999/xlink" x="0px" y="0px"
	 viewBox="0 0 24 29" style="enable-background:new 0 0 24 29;" xml:space="preserve">
<style type="text/css">
	.st0{fill-rule:evenodd;clip-rule:evenodd;fill:#FFFFFF;}
</style>
<path class="st0" d="M17.6,29H0V0h24v22.6L17.6,29z M22.4,1.6H1.6v25.8h15.2v-5.6h5.6V1.6z M16,7.2h4.4v1.4h-2.9v3.1H20v1.4h-2.5
	v4.4H16V7.2z M11.9,17.6h-2V7.2h2.2c0.8,0,1.5,0.2,1.9,0.7c0.4,0.5,0.7,1.1,0.7,2v4.8c0,1-0.2,1.7-0.7,2.1
	C13.5,17.3,12.8,17.6,11.9,17.6z M13.2,9.9c0-0.4-0.1-0.7-0.2-0.9c-0.2-0.2-0.5-0.3-0.9-0.3h-0.7v7.5H12c0.4,0,0.7-0.1,0.9-0.3
	c0.2-0.2,0.3-0.5,0.3-1V9.9z M8.4,12.5c-0.2,0.3-0.5,0.6-0.8,0.8c-0.3,0.2-0.8,0.3-1.3,0.3H5.6v4H4.1V7.2h2.2c0.4,0,0.8,0.1,1.1,0.2
	C7.7,7.5,8,7.7,8.2,8c0.2,0.3,0.4,0.6,0.5,0.9c0.1,0.4,0.1,0.9,0.1,1.5c0,0.5,0,0.8-0.1,1.2C8.7,11.9,8.6,12.2,8.4,12.5z M7.5,9.7
	c0-0.2-0.1-0.4-0.1-0.6C7.3,9,7.1,8.9,7,8.8C6.8,8.7,6.6,8.6,6.3,8.6H5.6v3.5h0.7c0.3,0,0.5,0,0.7-0.1c0.2-0.1,0.3-0.2,0.4-0.4
	c0.1-0.1,0.1-0.3,0.1-0.5c0-0.2,0-0.4,0-0.7C7.5,10.2,7.5,9.9,7.5,9.7z"/>
</svg>
