<?xml version="1.0" encoding="utf-8"?>
<!-- Generator: Adobe Illustrator 21.0.2, SVG Export Plug-In . SVG Version: 6.00 Build 0)  -->
<svg version="1.1" id="Layer_1" xmlns="http://www.w3.org/2000/svg" xmlns:xlink="http://www.w3.org/1999/xlink" x="0px" y="0px"
	 viewBox="0 0 26 28" style="enable-background:new 0 0 26 28;" xml:space="preserve">
<style type="text/css">
	.st0{fill:#FFFFFF;}
</style>
<g>
	<g>
		<path class="st0" d="M15.2,12.5v14.1l3.6-3.6l2.6,5.1l1.9-1l-2.5-4.9h4.8L15.2,12.5z M26,12.6c0-0.1,0-0.3,0-0.4
			c0-0.1,0-0.1,0-0.2c0-0.2,0-0.3-0.1-0.5c0,0,0-0.1,0-0.1c0-0.2-0.1-0.3-0.1-0.5c0,0,0,0,0,0l0,0C24.8,5.1,20,0.6,14.2,0.1
			c0,0,0,0,0,0c-0.2,0-0.4,0-0.5,0c-0.2,0-0.4,0-0.6,0s-0.4,0-0.6,0c-0.2,0-0.4,0-0.5,0c0,0,0,0,0,0C6,0.6,1.2,5.1,0.2,10.9
			c0,0,0,0,0,0c0,0,0,0,0,0c0,0.2-0.1,0.3-0.1,0.5c0,0,0,0.1,0,0.1c0,0.2,0,0.3-0.1,0.5c0,0.1,0,0.1,0,0.2c0,0.1,0,0.3,0,0.4
			c0,0.2,0,0.4,0,0.6c0,0.2,0,0.4,0,0.6c0,0.1,0,0.3,0,0.4c0,0.1,0,0.1,0,0.2c0,0.2,0,0.3,0.1,0.5c0,0,0,0,0,0.1
			c0,0.2,0.1,0.4,0.1,0.5c0,0,0,0,0,0h0c1,5.4,5.2,9.7,10.5,10.7c0,0,0,0,0,0c0,0,0.1,0,0.1,0c0.1,0,0.2,0,0.4,0.1
			c0.1,0,0.2,0,0.3,0c0.1,0,0.2,0,0.3,0c0.1,0,0.2,0,0.3,0c0.1,0,0.2,0,0.3,0c0.2,0,0.4,0,0.6,0h0v-3.1c0,0,0,0,0,0
			c-0.6,0-1.2-0.1-1.7-0.2c-0.4-1.3-0.8-3.1-1.1-5.2c0.9,0.1,1.8,0.1,2.8,0.1h0v-1.8h0c-1,0-2,0-2.9-0.1c-0.1-0.9-0.1-1.9-0.1-3
			c0-1.1,0-2,0.1-3c0.9-0.1,1.9-0.1,2.9-0.1c1,0,2,0,2.9,0.1c0,0,0,0,0,0c0.3,0.1,0.5,0.4,0.7,0.6l1.1,1c0-0.5,0-1-0.1-1.4
			c2.1,0.2,3.9,0.6,5.2,1.1c0.1,0.6,0.1,1.1,0.1,1.7c0,0.6-0.1,1.2-0.2,1.7c-0.4,0.1-0.9,0.3-1.3,0.4l1,1c0,0,0,0,0,0l2.4,2.2
			c0.4-0.9,0.7-1.9,0.9-3c0,0,0,0,0,0c0,0,0-0.1,0-0.1c0-0.1,0-0.3,0.1-0.4c0-0.1,0-0.1,0-0.2c0-0.1,0-0.3,0-0.4c0-0.1,0-0.2,0-0.3
			c0-0.1,0-0.2,0-0.3c0-0.2,0-0.4,0-0.6C26,13,26,12.8,26,12.6z M3,13.2c0-0.6,0.1-1.2,0.1-1.7c1.3-0.4,3-0.8,5.2-1.1
			c-0.1,0.9-0.1,1.9-0.1,2.8c0,1,0,1.9,0.1,2.8c-2.1-0.2-3.8-0.6-5.2-1.1C3.1,14.4,3,13.8,3,13.2z M3.7,17c1.4,0.4,3,0.7,4.7,0.9
			c0.2,1.8,0.5,3.4,0.8,4.8C6.8,21.6,4.7,19.5,3.7,17z M8.5,8.6C6.7,8.8,5.1,9.1,3.7,9.5c1-2.6,3-4.7,5.6-5.7C9,5.2,8.7,6.8,8.5,8.6
			z M13,8.4c-0.9,0-1.9,0-2.8,0.1c0.2-2.2,0.6-3.9,1.1-5.2c0.6-0.1,1.1-0.2,1.7-0.2c0.6,0,1.1,0.1,1.7,0.2c0.4,1.3,0.8,3.1,1.1,5.2
			C14.9,8.4,13.9,8.4,13,8.4z M17.5,8.6c-0.2-1.8-0.5-3.4-0.8-4.8c2.5,1,4.6,3.1,5.6,5.7C20.9,9.1,19.3,8.8,17.5,8.6z"/>
	</g>
</g>
</svg>
